<?xml version="1.0" encoding="utf-8"?>
<!-- Generator: Adobe Illustrator 23.1.1, SVG Export Plug-In . SVG Version: 6.00 Build 0)  -->
<svg version="1.1" id="Ebene_1" xmlns="http://www.w3.org/2000/svg" xmlns:xlink="http://www.w3.org/1999/xlink" x="0px" y="0px"
	 viewBox="0 0 681.4 250.8" style="enable-background:new 0 0 681.4 250.8;" xml:space="preserve">
<style type="text/css">
	.st0{fill:#CD1719;}
</style>
<g>
	<path class="st0" d="M526.4,245.4c0.5,1.1,1.1,2,1.9,2.9c0.8,0.8,1.8,1.5,2.9,1.9c1.1,0.5,2.2,0.7,3.5,0.7s2.4-0.2,3.5-0.7
		c1.1-0.5,2-1.1,2.9-1.9c0.8-0.8,1.5-1.8,1.9-2.9c0.5-1.1,0.7-2.2,0.7-3.5s-0.2-2.4-0.7-3.5c-0.5-1.1-1.1-2-1.9-2.9
		c-0.8-0.8-1.8-1.5-2.9-1.9c-1.1-0.5-2.2-0.7-3.5-0.7s-2.4,0.2-3.5,0.7c-1.1,0.5-2,1.1-2.9,1.9s-1.5,1.8-1.9,2.9
		c-0.5,1.1-0.7,2.2-0.7,3.5S525.9,244.3,526.4,245.4 M529.5,204.4v-12.6H490v12.6h12.3v44.8h14.9v-44.8H529.5z M460.3,191.8v57.5
		h32.8v-12.7h-17.9v-44.8H460.3z M450.3,191.8h-32.7v57.5h32.7v-12.7h-17.8v-9.9h16.8V214h-16.8v-9.6h17.8V191.8z M410.2,204.4
		v-12.6h-39.5v12.6H383v44.8h14.9v-44.8H410.2z M365,204.4v-12.6h-39.5v12.6h12.3v44.8h14.9v-44.8H365z M277.2,184.1
		c1.4,1.5,3.2,2.2,5.4,2.2c1,0,1.9-0.2,2.8-0.6c0.9-0.4,1.7-0.9,2.4-1.6s1.2-1.5,1.6-2.4c0.4-0.9,0.6-1.9,0.6-2.9c0-1-0.2-2-0.6-2.9
		c-0.4-0.9-1-1.7-1.6-2.4c-0.7-0.7-1.5-1.2-2.4-1.6c-0.9-0.4-1.8-0.6-2.9-0.6c-1,0-2,0.2-2.9,0.6c-0.9,0.4-1.7,0.9-2.4,1.6
		c-0.7,0.7-1.2,1.5-1.6,2.4c-0.4,0.9-0.6,1.8-0.6,2.8C275.1,180.8,275.8,182.6,277.2,184.1 M298,184.1c1.4,1.5,3.2,2.2,5.3,2.2
		c2.1,0,3.8-0.7,5.3-2.1s2.2-3.2,2.2-5.3c0-1-0.2-2-0.6-2.9s-1-1.7-1.6-2.4c-0.7-0.7-1.5-1.2-2.4-1.6s-1.8-0.6-2.9-0.6
		c-1,0-2,0.2-2.9,0.6s-1.7,0.9-2.4,1.6c-0.7,0.7-1.2,1.5-1.6,2.4c-0.4,0.9-0.6,1.8-0.6,2.8C295.8,180.9,296.5,182.7,298,184.1
		 M268,191.8v33.3c0,8.9,2.1,15.5,6.2,19.6c4.1,4.1,10.4,6.2,18.9,6.2s14.8-2.1,18.9-6.2c4.1-4.1,6.1-10.6,6.1-19.6v-33.3h-14.9V223
		c0,1.7-0.1,3.4-0.2,5.1s-0.5,3.3-1.2,4.8c-0.7,1.4-1.7,2.6-3,3.5c-1.4,0.9-3.3,1.3-5.8,1.3s-4.4-0.4-5.8-1.3c-1.4-0.9-2.4-2-3-3.5
		c-0.6-1.4-1-3-1.1-4.8c-0.1-1.8-0.2-3.5-0.2-5.1v-31.2H268z M220.9,191.8H206v57.5h14.9v-23.7h21.6v23.7h14.9v-57.5h-14.9v22.2
		h-21.6V191.8z M196.4,193.1c-2.4-1-4.8-1.8-7-2.2c-2.2-0.5-4.5-0.7-6.7-0.7c-4,0-7.9,0.8-11.5,2.2s-6.9,3.6-9.6,6.2
		c-2.8,2.7-5,5.8-6.6,9.5s-2.5,7.7-2.5,12.1s0.8,8.5,2.5,12.2c1.7,3.7,3.9,7,6.7,9.7c2.8,2.7,6,4.8,9.6,6.3
		c3.6,1.5,7.4,2.2,11.4,2.2c1.9,0,3.9-0.2,5.9-0.6c2-0.4,4.1-1,6.4-1.8l1.5-0.5v-17.7c-3.8,4.1-8.1,6.1-12.9,6.1
		c-2.2,0-4.2-0.4-6.1-1.2s-3.5-1.9-4.9-3.4c-1.4-1.4-2.5-3.1-3.3-5s-1.2-4-1.2-6.3c0-2.2,0.4-4.3,1.2-6.2c0.8-1.9,1.9-3.6,3.2-5
		s3-2.5,4.9-3.3s4-1.2,6.2-1.2c5.1,0,9.4,2.1,12.8,6.3L196.4,193.1L196.4,193.1z M145.6,194.8c-2.9-1.5-5.8-2.7-8.9-3.5
		s-6.1-1.2-8.9-1.2c-3,0-5.8,0.5-8.3,1.4c-2.5,0.9-4.5,2.2-6.2,3.9s-3,3.6-4,5.9s-1.4,4.9-1.4,7.7c0,2.9,0.5,5.2,1.3,7
		c0.9,1.9,2.1,3.4,3.5,4.6c1.5,1.2,3.1,2.2,5,2.9c1.9,0.7,3.7,1.4,5.7,2c1.6,0.6,3,1.1,4.1,1.5c1.1,0.5,2.1,1,2.8,1.5
		c0.7,0.5,1.2,1.1,1.5,1.8c0.3,0.6,0.5,1.4,0.5,2.2c0,1.4-0.6,2.7-1.8,3.8s-3,1.7-5.5,1.7c-2.1,0-4.3-0.5-6.5-1.5
		c-2.2-1-4.4-2.4-6.6-4.4l-6.4,12c6.2,4.3,12.9,6.5,20.2,6.5c3.5,0,6.6-0.5,9.4-1.4s5.1-2.3,7-4c1.9-1.7,3.4-3.7,4.3-6.1
		s1.5-5,1.5-8c0-4.4-1.1-7.9-3.4-10.6s-5.8-4.9-10.7-6.5c-1.2-0.4-2.5-0.8-3.7-1.1c-1.2-0.4-2.4-0.8-3.4-1.3c-1-0.5-1.8-1-2.4-1.7
		s-0.9-1.5-0.9-2.5c0-1.5,0.6-2.7,1.8-3.6c1.2-0.9,2.8-1.4,4.7-1.4c1.5,0,3.1,0.3,4.7,1s3.2,1.6,4.9,2.9L145.6,194.8z M99.6,191.8
		H67v57.5h32.7v-12.7H81.9v-9.9h16.8V214H81.9v-9.6h17.8V191.8z M30.5,228.7h12.3c-0.2,1.7-0.7,3.1-1.4,4.3
		c-0.7,1.2-1.6,2.1-2.7,2.9c-1.1,0.7-2.3,1.3-3.7,1.6c-1.4,0.3-2.8,0.5-4.3,0.5c-2.5,0-4.7-0.4-6.6-1.3s-3.5-2-4.7-3.5
		c-1.3-1.5-2.2-3.3-2.9-5.4c-0.6-2.1-0.9-4.3-0.9-6.8c0-2.7,0.4-5.1,1.1-7.3c0.7-2.2,1.8-4,3.1-5.6c1.3-1.5,2.9-2.7,4.7-3.6
		s3.9-1.3,6.1-1.3c2.7,0,5.1,0.7,7.2,2.1c2.1,1.4,3.8,3.6,5.1,6.8l14.2-5.9c-2.6-5.4-6.2-9.5-10.7-12s-9.8-3.9-15.8-3.9
		c-4.6,0-8.8,0.7-12.6,2.2s-7,3.5-9.6,6.2s-4.7,5.8-6.2,9.6S0,215.9,0,220.4c0,4.5,0.7,8.6,2.2,12.4s3.5,6.9,6.2,9.6
		s5.8,4.7,9.5,6.2c3.7,1.5,7.8,2.2,12.2,2.2c3.2,0,6.4-0.4,9.3-1.2c2.9-0.8,5.6-2,8.1-3.5c2.5-1.5,4.6-3.5,6.4-5.8s3.3-5,4.3-8
		c0.8-2.1,1.3-4.4,1.5-6.9s0.4-5.3,0.4-8.3H30.6L30.5,228.7L30.5,228.7z"/>
	<path class="st0" d="M249.7,118.7v-12.6h-39.5v12.6h12.3v44.8h14.9v-44.8H249.7z M164.9,106.1h-14.9v57.5h14.9v-23.7h21.6v23.7
		h14.9v-57.5h-14.9v22.2h-21.6V106.1z M138.8,107.4c-2.4-1-4.8-1.8-7-2.2s-4.5-0.7-6.7-0.7c-4,0-7.9,0.8-11.5,2.2s-6.9,3.6-9.6,6.2
		s-5,5.8-6.6,9.5c-1.6,3.7-2.5,7.7-2.5,12.1s0.8,8.5,2.5,12.2c1.7,3.7,3.9,7,6.7,9.7s6,4.8,9.6,6.3c3.6,1.5,7.4,2.2,11.4,2.2
		c1.9,0,3.9-0.2,5.9-0.6c2-0.4,4.1-1,6.4-1.8l1.5-0.5v-17.7c-3.8,4.1-8.1,6.1-12.9,6.1c-2.2,0-4.2-0.4-6.1-1.2s-3.5-1.9-4.9-3.4
		c-1.4-1.4-2.5-3.1-3.3-5s-1.2-4-1.2-6.3c0-2.2,0.4-4.3,1.2-6.2c0.8-1.9,1.9-3.6,3.2-5s3-2.5,4.9-3.3s4-1.2,6.2-1.2
		c5.1,0,9.4,2.1,12.8,6.3L138.8,107.4L138.8,107.4z M71.2,163.5h14.9v-57.5H71.2V163.5z M17.5,163.5v-35.1l27.6,35.1h14.9v-57.5
		H45.1v35.1l-27.6-35.1H2.6v57.5H17.5z"/>
	<path class="st0" d="M346,88.4h8.8l14-25.2h-13L346,88.4z M353.8,33V20.3h-39.5V33h12.3v44.8h14.9V33H353.8z M297.7,54.2
		c4.1-1,7.2-2.8,9.3-5.5c2.1-2.7,3.2-6.3,3.2-10.6c0-2.4-0.4-4.7-1.2-6.9c-0.8-2.1-2-4-3.5-5.6c-1.5-1.6-3.5-2.9-5.9-3.9
		c-2.4-0.9-5.2-1.4-8.4-1.4H268v57.4h14.9V55.7l14.2,22.1h18.6L297.7,54.2z M282.9,31.8h2.8c3,0,5.2,0.6,6.8,1.8s2.4,3,2.4,5.3
		s-0.8,4-2.4,5.3c-1.6,1.2-3.8,1.8-6.8,1.8h-2.8V31.8z M220.2,20.3h-14.9v57.4h14.9V54.1h21.6v23.7h14.9V20.3h-14.9v22.2h-21.6V20.3
		z M153.1,12.6c1.4,1.5,3.2,2.2,5.4,2.2c1,0,1.9-0.2,2.8-0.6c0.9-0.4,1.7-0.9,2.4-1.6c0.7-0.7,1.2-1.5,1.6-2.4s0.6-1.9,0.6-2.9
		c0-1-0.2-2-0.6-2.9c-0.4-0.9-1-1.7-1.6-2.4s-1.5-1.2-2.4-1.6c-0.9-0.4-1.8-0.6-2.9-0.6s-2,0.2-2.9,0.6s-1.7,0.9-2.4,1.6
		s-1.2,1.5-1.6,2.4S151,6.4,151,7.3C151,9.4,151.7,11.2,153.1,12.6 M173.9,12.7c1.4,1.4,3.2,2.2,5.3,2.2c2.1,0,3.9-0.7,5.3-2.1
		c1.5-1.4,2.2-3.2,2.2-5.3c0-1-0.2-2-0.6-2.9c-0.4-0.9-1-1.7-1.6-2.4s-1.5-1.2-2.4-1.6c-0.9-0.4-1.8-0.6-2.9-0.6s-2,0.2-2.9,0.6
		c-0.9,0.4-1.7,0.9-2.4,1.6c-0.7,0.7-1.2,1.5-1.6,2.4s-0.6,1.8-0.6,2.8C171.7,9.4,172.4,11.2,173.9,12.7 M143.8,20.3v33.3
		c0,8.9,2.1,15.5,6.2,19.6c4.1,4.1,10.4,6.2,18.9,6.2c8.5,0,14.8-2.1,18.9-6.2c4.1-4.1,6.1-10.6,6.1-19.6V20.3H179v31.2
		c0,1.7-0.1,3.4-0.2,5.1s-0.5,3.3-1.2,4.8s-1.7,2.6-3,3.5c-1.4,0.9-3.3,1.3-5.8,1.3s-4.4-0.4-5.8-1.3s-2.4-2-3-3.5
		c-0.6-1.4-1-3-1.1-4.8c-0.1-1.8-0.2-3.5-0.2-5.1V20.3H143.8z M123.9,54.2c4.1-1,7.2-2.8,9.3-5.5c2.1-2.7,3.2-6.3,3.2-10.6
		c0-2.4-0.4-4.7-1.2-6.9c-0.8-2.1-2-4-3.5-5.6c-1.5-1.6-3.5-2.9-5.9-3.9c-2.4-0.9-5.2-1.4-8.4-1.4H94.2v57.4h14.9V55.7l14.2,22.1
		h18.6L123.9,54.2z M109.1,31.8h2.8c3,0,5.2,0.6,6.8,1.8s2.4,3,2.4,5.3s-0.8,4-2.4,5.3c-1.6,1.2-3.8,1.8-6.8,1.8h-2.8V31.8z
		 M84.2,20.3H51.5v57.4h32.7V65.1H66.4v-9.9h16.8V42.6H66.4V33h17.8V20.3z M2.6,77.8h24c3.1,0,5.8-0.4,8.2-1.1
		c2.4-0.7,4.5-1.8,6.2-3.2c1.7-1.4,3-3.2,4-5.3c0.9-2.1,1.4-4.5,1.4-7.2c0-1.7-0.2-3.4-0.6-4.9c-0.4-1.5-1.1-2.9-2-4.1
		s-2.2-2.2-3.7-3.1s-3.3-1.5-5.4-1.9c2.1-1.3,3.7-2.9,4.8-4.8c1-1.9,1.6-4.3,1.6-7.2c0-4.8-1.4-8.4-4.1-11c-2.7-2.5-6.8-3.8-12-3.8
		H2.6L2.6,77.8L2.6,77.8z M17.5,31.8h2.7c4.7,0,7,1.9,7,5.6c0,3.7-2.3,5.6-7,5.6h-2.7V31.8z M17.5,54h3.3c3.8,0,6.4,0.5,8.1,1.4
		c1.6,1,2.4,2.5,2.4,4.6c0,2.1-0.8,3.7-2.4,4.6s-4.3,1.4-8.1,1.4h-3.3V54z"/>
</g>
</svg>
