<?xml version="1.0" encoding="utf-8"?>
<!-- Generator: Adobe Illustrator 23.1.1, SVG Export Plug-In . SVG Version: 6.00 Build 0)  -->
<svg version="1.1" id="Ebene_1" xmlns="http://www.w3.org/2000/svg" xmlns:xlink="http://www.w3.org/1999/xlink" x="0px" y="0px"
	 viewBox="0 0 679.9 355.8" style="enable-background:new 0 0 679.9 355.8;" xml:space="preserve">
<style type="text/css">
	.st0{fill:#CD1719;}
</style>
<g>
	<path class="st0" d="M149.5,343.3c-0.8-0.5-1.7-0.8-2.6-0.8c-2.5,0-4.5,1.9-4.5,4.4c0,2.5,1.9,4.4,4.5,4.4c1,0,1.8-0.3,2.7-0.9
		v-1.9h0c-0.7,0.9-1.5,1.5-2.7,1.5c-1.8,0-2.9-1.5-2.9-3.1c0-1.7,1.2-3.1,3-3.1c1.1,0,2,0.6,2.6,1.4h0L149.5,343.3L149.5,343.3z
		 M134.4,346c0.2-1.2,1.3-2.2,2.5-2.2c1.2,0,2.3,1,2.5,2.2H134.4z M140.9,347.2c0.1-2.5-1.3-4.7-4-4.7c-2.6,0-4.1,2-4.1,4.5
		c0,2.4,1.6,4.3,4.1,4.3c1.7,0,3.1-0.9,3.9-2.4l-1.2-0.7c-0.5,1-1.3,1.7-2.5,1.7c-1.6,0-2.7-1.2-2.8-2.8L140.9,347.2L140.9,347.2z
		 M128.3,337.6h-1.5v13.5h5.2v-1.4h-3.7V337.6z M115.6,350.3l-2.7,5.5h1.6l6.2-13.1h-1.6l-2.7,6l-3-6h-1.7L115.6,350.3z
		 M104.8,349.8l6-7.1h-7.8v1.3h4.9l-6.1,7.1h8.7v-1.3H104.8z M98.4,342.7H97v8.4h1.4v-4.2c0-1.1,0.1-3.1,1.6-3.1
		c0.4,0,0.6,0.2,0.9,0.4l0.7-1.3c-0.4-0.2-0.8-0.4-1.3-0.4c-0.9,0-1.4,0.5-1.9,1.1h0V342.7z M88.1,346c0.2-1.2,1.3-2.2,2.6-2.2
		c1.2,0,2.3,1,2.5,2.2H88.1z M94.6,347.2c0.1-2.5-1.3-4.7-4-4.7c-2.6,0-4.1,2-4.1,4.5c0,2.4,1.6,4.3,4.1,4.3c1.7,0,3.1-0.9,3.9-2.4
		l-1.2-0.7c-0.6,1-1.3,1.7-2.6,1.7c-1.6,0-2.7-1.2-2.8-2.8L94.6,347.2L94.6,347.2z M84.5,337.6H83v10.7c0,1,0,2.8-1.5,2.8
		c-0.7,0-1.1-0.3-1.6-0.8l-0.8,1.2c0.7,0.6,1.5,1,2.4,1c0.9,0,1.8-0.4,2.3-1.1c0.7-0.9,0.7-2,0.7-3.1V337.6z M64.3,342.7h-1.6l4.1,9
		l2.6-6.2l2.6,6.2l4.2-9h-1.6l-2.5,5.7l-2.6-6.3l-2.6,6.3L64.3,342.7z M60.6,342.7h-1.4v1.2h0c-0.7-0.9-1.7-1.4-2.9-1.4
		c-2.5,0-4,2-4,4.5c0,2.3,1.6,4.4,4,4.4c1.2,0,2.2-0.5,2.9-1.4h0v1.2h1.4L60.6,342.7L60.6,342.7z M56.4,343.8c1.8,0,2.8,1.4,2.8,3
		c0,1.7-1,3.2-2.8,3.2c-1.8,0-2.8-1.5-2.8-3.2C53.7,345.2,54.7,343.8,56.4,343.8 M49.8,336.4h-1.4v14.7h1.4V336.4z M45.4,344
		c-0.4-0.9-1.3-1.5-2.2-1.5c-1.4,0-2.5,1-2.5,2.4c0,2.6,3.8,2,3.8,3.9c0,0.8-0.6,1.3-1.4,1.3c-0.9,0-1.4-0.5-1.7-1.3l-1.3,0.5
		c0.4,1.3,1.6,2.1,3,2.1c1.6,0,2.8-1.1,2.8-2.7c0-1.4-1-2-1.9-2.4c-1-0.4-1.9-0.7-1.9-1.5c0-0.5,0.5-0.9,1-0.9
		c0.5,0,0.9,0.4,1.1,0.9L45.4,344z M36.9,338.5c-0.6,0-1,0.5-1,1c0,0.6,0.5,1,1,1c0.6,0,1-0.5,1-1C37.9,339,37.4,338.5,36.9,338.5
		 M37.6,342.7h-1.4v8.4h1.4V342.7z M27.6,342.7h-1.4v8.4h1.4v-4c0-1.5,0.1-3.3,2.1-3.3c1.7,0,1.8,1.2,1.8,2.6v4.7h1.4v-5
		c0-2-0.5-3.6-2.9-3.6c-1,0-1.8,0.5-2.4,1.2h0V342.7z M23.1,342.7h-1.4v1.2h0c-0.7-0.9-1.7-1.4-2.9-1.4c-2.5,0-4,2-4,4.5
		c0,2.3,1.6,4.4,4,4.4c1.2,0,2.2-0.5,2.9-1.4h0v1.2h1.4L23.1,342.7L23.1,342.7z M18.9,343.8c1.8,0,2.8,1.4,2.8,3
		c0,1.7-1,3.2-2.8,3.2c-1.8,0-2.8-1.5-2.8-3.2C16.2,345.2,17.3,343.8,18.9,343.8 M12.2,344h1.5v-1.3h-1.5v-3h-1.4v3H9.9v1.3h0.9v7.1
		h1.4V344z M8,339.5c-0.7-1.3-2-2.1-3.5-2.1c-2,0-3.8,1.3-3.8,3.4c0,1.9,1.4,2.7,2.9,3.5l0.8,0.4c1.2,0.6,2.5,1.1,2.5,2.7
		c0,1.5-1.3,2.6-2.8,2.6s-2.5-1.1-2.7-2.5L0,347.9c0.4,2.1,2,3.5,4.2,3.5c2.3,0,4.2-1.8,4.2-4.2c0-2.1-1.5-3-3.2-3.8L4.3,343
		c-0.9-0.4-2.1-1-2.1-2.1c0-1.2,1-2.1,2.2-2.1c1.1,0,1.8,0.5,2.3,1.5L8,339.5z"/>
	<path class="st0" d="M531.5,310.8c0.5,1.1,1.1,2,1.9,2.9c0.8,0.8,1.8,1.5,2.9,1.9c1.1,0.5,2.2,0.7,3.5,0.7s2.4-0.2,3.5-0.7
		c1.1-0.5,2-1.1,2.9-1.9c0.8-0.8,1.5-1.8,1.9-2.9c0.5-1.1,0.7-2.2,0.7-3.5s-0.2-2.4-0.7-3.5c-0.5-1.1-1.1-2-1.9-2.9
		c-0.8-0.8-1.8-1.5-2.9-1.9c-1.1-0.5-2.2-0.7-3.5-0.7s-2.4,0.2-3.5,0.7c-1.1,0.5-2,1.1-2.9,1.9s-1.5,1.8-1.9,2.9
		c-0.5,1.1-0.7,2.2-0.7,3.5S531.1,309.7,531.5,310.8 M481.8,314.6v-35.1l27.6,35.1h14.9v-57.5h-14.9v35.1l-27.6-35.1h-14.9v57.5
		H481.8z M458.4,257.2h-32.7v57.5h32.7V302h-17.8v-9.9h16.8v-12.6h-16.8v-9.6h17.8V257.2z M388.9,294h12.3c-0.2,1.7-0.7,3.1-1.5,4.3
		c-0.7,1.2-1.6,2.1-2.7,2.9c-1.1,0.7-2.3,1.3-3.7,1.6c-1.4,0.3-2.8,0.5-4.3,0.5c-2.5,0-4.7-0.4-6.5-1.3s-3.5-2-4.7-3.5
		c-1.3-1.5-2.2-3.3-2.9-5.4c-0.6-2.1-1-4.3-1-6.8c0-2.7,0.4-5.1,1.1-7.3s1.8-4,3-5.6c1.3-1.5,2.9-2.7,4.7-3.6s3.9-1.3,6.1-1.3
		c2.7,0,5.1,0.7,7.2,2.1c2.1,1.4,3.8,3.6,5.1,6.8l14.2-5.9c-2.6-5.4-6.2-9.5-10.7-12s-9.8-3.9-15.8-3.9c-4.6,0-8.8,0.7-12.6,2.2
		s-7,3.5-9.6,6.2s-4.7,5.8-6.2,9.6s-2.2,7.8-2.2,12.3c0,4.5,0.7,8.6,2.2,12.4c1.5,3.7,3.5,6.9,6.2,9.6s5.8,4.7,9.5,6.2
		c3.7,1.5,7.8,2.2,12.2,2.2c3.2,0,6.3-0.4,9.3-1.2s5.7-2,8.1-3.5c2.5-1.5,4.6-3.5,6.4-5.8s3.3-5,4.3-8c0.8-2.1,1.3-4.4,1.5-6.9
		s0.4-5.3,0.4-8.3h-29.6L388.9,294L388.9,294z M309.2,314.6v-35.1l27.6,35.1h14.9v-57.5h-14.9v35.1l-27.6-35.1h-14.9v57.5H309.2z
		 M234.5,257.2v33.3c0,8.9,2.1,15.5,6.2,19.6c4.1,4.1,10.4,6.2,18.9,6.2c8.5,0,14.8-2.1,18.9-6.2c4.1-4.1,6.1-10.6,6.1-19.6v-33.3
		h-14.9v31.2c0,1.7-0.1,3.4-0.2,5.1s-0.5,3.3-1.2,4.8c-0.7,1.4-1.7,2.6-3,3.5c-1.4,0.9-3.3,1.3-5.8,1.3c-2.5,0-4.4-0.4-5.8-1.3
		c-1.4-0.9-2.4-2-3-3.5c-0.6-1.4-1-3-1.1-4.8c-0.1-1.8-0.2-3.5-0.2-5.1v-31.2H234.5z M227.1,269.8v-12.6h-39.5v12.6h12.3v44.8h14.9
		v-44.8H227.1z M143.7,257.2h-14.9v57.5h14.9v-23.7h21.6v23.7h14.9v-57.5h-14.9v22.2h-21.6L143.7,257.2L143.7,257.2z M119.2,258.5
		c-2.4-1-4.8-1.8-7-2.2c-2.2-0.5-4.5-0.7-6.7-0.7c-4,0-7.9,0.8-11.5,2.2c-3.7,1.5-6.9,3.6-9.6,6.2s-5,5.8-6.6,9.5
		c-1.6,3.7-2.5,7.7-2.5,12.1c0,4.4,0.8,8.5,2.5,12.2c1.7,3.7,3.9,7,6.7,9.7s6,4.8,9.6,6.3c3.6,1.5,7.4,2.2,11.4,2.2
		c1.9,0,3.9-0.2,5.9-0.6c2-0.4,4.1-1,6.4-1.8l1.5-0.5v-17.7c-3.8,4.1-8.1,6.1-12.9,6.1c-2.2,0-4.2-0.4-6.1-1.2s-3.5-1.9-4.9-3.4
		c-1.4-1.4-2.5-3.1-3.3-5s-1.2-4-1.2-6.3c0-2.2,0.4-4.3,1.2-6.2s1.9-3.6,3.2-5c1.4-1.4,3-2.5,4.9-3.3c1.9-0.8,4-1.2,6.2-1.2
		c5.1,0,9.3,2.1,12.8,6.3L119.2,258.5L119.2,258.5z M52.4,314.6h14.9v-57.5H52.4L52.4,314.6L52.4,314.6z M30.7,291.1
		c4.1-1,7.2-2.8,9.3-5.5c2.1-2.7,3.2-6.3,3.2-10.6c0-2.4-0.4-4.7-1.2-6.9c-0.8-2.1-2-4-3.5-5.6c-1.6-1.6-3.5-2.9-5.9-3.9
		c-2.4-0.9-5.2-1.4-8.4-1.4H1v57.5h14.9v-22.1l14.2,22.1h18.6L30.7,291.1z M15.9,268.7h2.8c2.9,0,5.2,0.6,6.8,1.8
		c1.6,1.2,2.4,3,2.4,5.3s-0.8,4-2.4,5.3s-3.8,1.8-6.8,1.8h-2.8V268.7z"/>
	<path class="st0" d="M349.4,205.3c4.1-1,7.2-2.8,9.3-5.5c2.1-2.7,3.2-6.3,3.2-10.6c0-2.4-0.4-4.7-1.2-6.9c-0.8-2.1-2-4-3.5-5.6
		c-1.5-1.6-3.5-2.9-5.9-3.9c-2.4-0.9-5.2-1.4-8.4-1.4h-23.2v57.5h14.9v-22.1l14.2,22.1h18.6L349.4,205.3z M334.7,182.9h2.8
		c3,0,5.2,0.6,6.8,1.8s2.4,3,2.4,5.3s-0.8,4-2.4,5.3s-3.8,1.8-6.8,1.8h-2.8V182.9z M299.5,228.9h15.9l-21.9-57.5h-16.3l-21.9,57.5
		h15.9l3.4-10h21.3L299.5,228.9z M278.7,207.6l6.7-19.1l6.7,19.1H278.7z M238.4,228.9h15.9l-21.9-57.5h-16.3l-21.9,57.5h15.9l3.4-10
		H235L238.4,228.9z M217.6,207.6l6.7-19.1l6.7,19.1H217.6z M170.1,209.8h8.8c6.5,0,11.4-1.7,14.8-5s5.1-8.1,5.1-14.2
		c0-6.1-1.7-10.8-5.1-14.2c-3.4-3.4-8.4-5-14.8-5h-23.8v57.5h14.9V209.8z M170.1,183.5h5c5.5,0,8.2,2.4,8.2,7.2s-2.7,7.2-8.2,7.2h-5
		V183.5z M85.6,228.9v-35.1l27.6,35.1H128v-57.5h-14.9v35.1l-27.6-35.1H70.7v57.5H85.6z M43.7,228.9h14.9v-57.5H43.7V228.9z
		 M33.7,171.4H1v57.5h32.7v-12.6H15.9v-9.9h16.8v-12.6H15.9v-9.6h17.8V171.4z"/>
	<path class="st0" d="M475.4,143.2v-35.1l27.6,35.1h14.9V85.7H503v35.1l-27.6-35.1h-14.9v57.5H475.4z M439.2,119.6
		c4.1-1,7.2-2.8,9.3-5.5c2.1-2.7,3.2-6.3,3.2-10.6c0-2.4-0.4-4.7-1.2-6.9c-0.8-2.1-2-4-3.5-5.6c-1.5-1.6-3.5-2.9-5.9-3.9
		c-2.4-0.9-5.2-1.4-8.4-1.4h-23.2v57.5h14.9v-22.1l14.2,22.1h18.6L439.2,119.6z M424.4,97.2h2.8c3,0,5.2,0.6,6.8,1.8s2.4,3,2.4,5.3
		s-0.8,4-2.4,5.3c-1.6,1.2-3.8,1.8-6.8,1.8h-2.8V97.2z M399.5,85.7h-32.7v57.5h32.7v-12.6h-17.8v-9.9h16.8V108h-16.8v-9.6h17.8V85.7
		z M307,85.7V119c0,8.9,2.1,15.5,6.2,19.6c4.1,4.1,10.4,6.2,18.9,6.2s14.8-2.1,18.9-6.2c4.1-4.1,6.1-10.6,6.1-19.6V85.7h-14.9V117
		c0,1.7-0.1,3.4-0.2,5.1s-0.5,3.3-1.2,4.8c-0.7,1.4-1.7,2.6-3,3.5c-1.4,0.9-3.3,1.3-5.8,1.3s-4.4-0.4-5.8-1.3c-1.4-0.9-2.4-2-3-3.5
		c-0.6-1.4-1-3-1.1-4.8c-0.1-1.8-0.2-3.5-0.2-5.1V85.7L307,85.7L307,85.7z M289.9,143.2h15.9L284,85.7h-16.3l-21.9,57.5h15.9l3.4-10
		h21.3L289.9,143.2z M269.1,121.8l6.7-19.1l6.7,19.1H269.1z M210.7,85.7v57.5h32.8v-12.6h-17.9V85.7H210.7z M183.3,85.7h-32.7v57.5
		h32.7v-12.6h-17.8v-9.9h16.8V108h-16.8v-9.6h17.8V85.7z M109.1,85.7H94.1v57.5h14.9v-24.9l19.4,24.9h19.4l-24.9-30.3l22.8-27.2
		h-18.4l-18.2,23.7L109.1,85.7L109.1,85.7z M84.3,87.1c-2.4-1-4.8-1.8-7-2.2c-2.2-0.5-4.5-0.7-6.7-0.7c-4,0-7.9,0.8-11.5,2.2
		c-3.7,1.5-6.9,3.6-9.6,6.2s-5,5.8-6.6,9.5c-1.6,3.7-2.5,7.7-2.5,12.1s0.8,8.5,2.5,12.2c1.7,3.7,3.9,7,6.7,9.7s6,4.8,9.6,6.3
		c3.6,1.5,7.4,2.2,11.4,2.2c1.9,0,3.9-0.2,5.9-0.6s4.1-1,6.4-1.8l1.5-0.5v-17.7c-3.8,4.1-8.1,6.1-12.9,6.1c-2.2,0-4.2-0.4-6.1-1.2
		s-3.5-1.9-4.9-3.4c-1.4-1.4-2.5-3.1-3.3-5s-1.2-4-1.2-6.3c0-2.2,0.4-4.3,1.2-6.2s1.9-3.6,3.2-5c1.4-1.4,3-2.5,4.9-3.3
		c1.9-0.8,4-1.2,6.2-1.2c5.1,0,9.4,2.1,12.8,6.3L84.3,87.1L84.3,87.1z M33.7,85.7H1v57.5h32.7v-12.6H15.9v-9.9h16.8V108H15.9v-9.6
		h17.8V85.7z"/>
	<path class="st0" d="M519.9,33.9c4.1-1,7.2-2.8,9.3-5.5c2.1-2.7,3.2-6.3,3.2-10.6c0-2.4-0.4-4.7-1.2-6.9c-0.8-2.1-2-4-3.5-5.6
		c-1.5-1.6-3.5-2.9-5.9-3.8c-2.4-0.9-5.2-1.4-8.4-1.4h-23.2v57.5h14.9V35.3l14.2,22.1H538L519.9,33.9z M505.1,11.5h2.8
		c3,0,5.2,0.6,6.8,1.8s2.4,3,2.4,5.3s-0.8,4-2.4,5.3c-1.6,1.2-3.8,1.8-6.8,1.8h-2.8V11.5z M480.2,0h-32.7v57.5h32.7V44.8h-17.8v-9.9
		h16.8V22.3h-16.8v-9.6h17.8V0z M389.9,57.5H412c4,0,7.7-0.8,11.1-2.4c3.4-1.6,6.4-3.7,9-6.3c2.6-2.6,4.6-5.7,6-9.2
		s2.2-7.1,2.2-10.9c0-3.8-0.7-7.4-2.2-10.9c-1.5-3.5-3.5-6.5-6.1-9.1c-2.6-2.6-5.6-4.7-9-6.3C419.6,0.8,416,0,412,0h-22.1V57.5z
		 M404.9,12.7h3.4c2.5,0,4.8,0.4,6.9,1.2c2,0.8,3.7,1.9,5.1,3.4c1.4,1.4,2.5,3.1,3.2,5.1c0.8,2,1.1,4.1,1.1,6.4
		c0,2.3-0.4,4.5-1.1,6.4c-0.7,2-1.8,3.6-3.2,5.1c-1.4,1.4-3.1,2.5-5.1,3.4c-2,0.8-4.3,1.2-6.9,1.2h-3.4L404.9,12.7L404.9,12.7z
		 M380,0h-32.7v57.5H380V44.8h-17.8v-9.9H379V22.3h-16.8v-9.6H380L380,0L380,0z M322.5,0v39.6c0,4.4-1.4,6.6-4.2,6.6
		c-1.3,0-2.3-0.5-3.2-1.5c-0.9-1-1.4-2.4-1.7-4.1l-9.8,10c3.9,5.6,8.9,8.5,15,8.5c2,0,4-0.3,5.8-0.8c1.8-0.5,3.5-1.3,5.1-2.2
		c1.5-0.9,2.9-2.1,4-3.4c1.1-1.4,2-2.8,2.7-4.5c0.4-1,0.7-2.2,0.9-3.7c0.2-1.4,0.3-3,0.3-4.6V0H322.5z M273.5,33.9
		c4.1-1,7.2-2.8,9.3-5.5c2.1-2.7,3.2-6.3,3.2-10.6c0-2.4-0.4-4.7-1.2-6.9c-0.8-2.1-2-4-3.5-5.6c-1.5-1.6-3.5-2.9-5.9-3.8
		C273,0.5,270.3,0,267.1,0h-23.2v57.5h14.9V35.3L273,57.5h18.6L273.5,33.9z M258.8,11.5h2.8c3,0,5.2,0.6,6.8,1.8s2.4,3,2.4,5.3
		s-0.8,4-2.4,5.3c-1.6,1.2-3.8,1.8-6.8,1.8h-2.8V11.5z M234.6,0h-32.7v57.5h32.7V44.8h-17.8v-9.9h16.8V22.3h-16.8v-9.6h17.8V0z
		 M194.5,12.7V0h-39.5v12.7h12.3v44.8h14.9V12.7H194.5z M106,57.5V22.3l27.6,35.1h14.9V0h-14.9v35.1L106,0H91.1v57.4H106z
		 M64.1,57.5H79V0H64.1V57.5z M15.9,0H1v57.5h14.9V33.8h21.6v23.7h14.9V0H37.5v22.2H15.9V0z"/>
</g>
</svg>
