<svg enable-background="new 0 0 684.5 438.7" viewBox="0 0 684.5 438.7" xmlns="http://www.w3.org/2000/svg"><g fill="#cd1719"><path d="m75.9 431.3h1.5v-1.3h-1.5v-3h-1.4v3h-.9v1.3h.9v7.1h1.4zm-9.6-1.3h-1.4v8.4h1.4v-4c0-1.5.1-3.3 2.1-3.3 1.7 0 1.8 1.2 1.8 2.6v4.7h1.4v-5c0-2-.5-3.6-2.9-3.6-1 0-1.8.5-2.4 1.2zm-10.3 3.3c.2-1.2 1.3-2.2 2.6-2.2 1.2 0 2.3 1 2.5 2.2zm6.5 1.2c.1-2.5-1.3-4.7-4-4.7-2.6 0-4.1 2-4.1 4.5 0 2.4 1.6 4.3 4.1 4.3 1.7 0 3.1-.9 3.9-2.4l-1.2-.7c-.6 1-1.3 1.7-2.6 1.7-1.6 0-2.7-1.2-2.8-2.8h6.7zm-11.1-8.7c-.6 0-1 .5-1 1 0 .6.5 1 1 1s1-.5 1-1-.4-1-1-1m.7 4.2h-1.4v8.4h1.4zm-4.8-6.3h-1.4v14.7h1.4zm-10.9 7v-5.8h-1.5v13.5h1.5v-5.8l.4-.4 5.5 6.2h2.1l-6.5-7.2 6.3-6.3h-2zm-14.2-.7h-1.4v8.4h1.4v-4c0-1.5.1-3.3 2.1-3.3 1.7 0 1.8 1.2 1.8 2.6v4.7h1.4v-5c0-2-.5-3.6-2.9-3.6-1 0-1.8.5-2.4 1.2zm-5.6-4.2c-.6 0-1 .5-1 1 0 .6.5 1 1 1 .6 0 1-.5 1-1s-.4-1-1-1m.7 4.2h-1.4v8.4h1.4zm-11.3 8.4h7v-1.4h-5.5v-5.3h5.3v-1.4h-5.3v-4h5.5v-1.4h-7z"/><path d="m206.3 398.1c.5 1.1 1.1 2 1.9 2.9.8.8 1.8 1.5 2.9 1.9 1.1.5 2.2.7 3.5.7s2.4-.2 3.5-.7 2-1.1 2.9-1.9c.8-.8 1.5-1.8 1.9-2.9.5-1.1.7-2.2.7-3.5s-.2-2.4-.7-3.5-1.1-2-1.9-2.9c-.8-.8-1.8-1.5-2.9-1.9-1.1-.5-2.2-.7-3.5-.7s-2.4.2-3.5.7-2 1.1-2.9 1.9c-.8.8-1.5 1.8-1.9 2.9s-.7 2.2-.7 3.5.3 2.4.7 3.5m4.7-41v-12.6h-39.5v12.6h12.3v44.8h14.9v-44.8zm-45.3-12.6h-32.9v57.5h14.9v-22.5h16.4v-12.6h-16.4v-9.6h18zm-70.8 0v57.5h32.8v-12.6h-17.9v-44.8zm-26.2 57.4h14.9v-57.5h-14.9zm-47.7-57.4h-15v57.5h15v-23.7h21.6v23.7h14.9v-57.5h-15v22.2h-21.5z"/><path d="m541 292.6c4.1-1 7.2-2.8 9.3-5.5s3.2-6.3 3.2-10.6c0-2.4-.4-4.7-1.2-6.9-.8-2.1-2-4-3.5-5.6s-3.5-2.9-5.9-3.9c-2.4-.9-5.2-1.4-8.4-1.4h-23.2v57.5h14.9v-22.1l14.2 22.1h18.6zm-14.8-22.4h2.8c3 0 5.2.6 6.8 1.8s2.4 3 2.4 5.3-.8 4-2.4 5.3c-1.6 1.2-3.8 1.8-6.8 1.8h-2.8zm-41.2 46h15v-57.5h-15zm-64.3 0 5-33.1 12.9 33.1h5.9l13.6-33.1 5 33.1h14.9l-9.8-57.5h-14.8l-11.4 30.6-11.5-30.6h-14.8l-9.8 57.5zm-34.5-54.4c-2.9-1.5-5.8-2.7-8.9-3.5s-6.1-1.2-8.9-1.2c-3 0-5.8.5-8.3 1.4s-4.5 2.2-6.2 3.9-3 3.6-4 5.9-1.4 4.9-1.4 7.7.4 5.2 1.3 7c.9 1.9 2.1 3.4 3.5 4.6 1.5 1.2 3.1 2.2 5 2.9s3.7 1.4 5.7 2c1.6.6 3 1.1 4.1 1.5s2.1 1 2.8 1.5 1.2 1.1 1.5 1.8c.3.6.5 1.4.5 2.2 0 1.4-.6 2.7-1.8 3.8s-3 1.7-5.5 1.7c-2.1 0-4.3-.5-6.5-1.5s-4.4-2.4-6.6-4.4l-6.4 12c6.2 4.3 12.9 6.5 20.2 6.5 3.5 0 6.6-.5 9.4-1.4s5.1-2.3 7-4 3.4-3.7 4.3-6.1 1.5-5 1.5-8c0-4.4-1.1-7.9-3.4-10.6s-5.8-4.9-10.7-6.5c-1.2-.4-2.5-.8-3.7-1.1-1.2-.4-2.4-.8-3.4-1.3s-1.8-1-2.4-1.7-.9-1.5-.9-2.5c0-1.5.6-2.7 1.8-3.6s2.8-1.4 4.7-1.4c1.5 0 3.1.3 4.7 1 1.6.6 3.2 1.6 4.9 2.9zm-56.9 54.4h15.9l-21.9-57.5h-16.3l-21.9 57.5h15.9l3.4-10h21.3zm-20.8-21.3 6.7-19.1 6.7 19.1zm-103.5-36.2 17.1 57.5h15.2l11.3-33.3 11.3 33.3h15.2l17.1-57.5h-15.6l-9.9 37.1-12.2-37.1h-11.9l-12.2 37.1-9.9-37.1zm-69 57.5h22.1c4 0 7.7-.8 11.1-2.4s6.4-3.7 9-6.3 4.6-5.7 6-9.2c1.5-3.5 2.2-7.1 2.2-10.9s-.7-7.5-2.2-10.9c-1.5-3.5-3.5-6.5-6.1-9.1s-5.6-4.7-9-6.3-7.1-2.4-11-2.4h-22.1zm14.9-44.8h3.4c2.5 0 4.8.4 6.9 1.2 2 .8 3.8 1.9 5.1 3.4 1.4 1.4 2.5 3.1 3.2 5.1.8 2 1.1 4.1 1.1 6.4s-.4 4.5-1.1 6.4c-.7 2-1.8 3.6-3.2 5.1-1.4 1.4-3.1 2.5-5.1 3.4s-4.3 1.2-6.9 1.2h-3.4zm-69.4 44.8v-35.1l27.6 35.1h14.9v-57.5h-14.9v35.1l-27.6-35.1h-14.9v57.5zm-75.5-57.5v33.3c0 8.9 2.1 15.5 6.2 19.6s10.4 6.2 18.9 6.2 14.8-2.1 18.9-6.2 6.1-10.6 6.1-19.6v-33.3h-14.9v31.3c0 1.7-.1 3.4-.2 5.1-.1 1.8-.5 3.3-1.2 4.8s-1.7 2.6-3 3.5-3.3 1.3-5.8 1.3-4.4-.4-5.8-1.3-2.4-2-3-3.5c-.6-1.4-1-3-1.1-4.8s-.2-3.5-.2-5.1v-31.2h-14.9z"/><path d="m664.3 185.7v-12.7h-39.5v12.6h12.3v44.8h14.9v-44.8h12.3zm-83.3-12.7h-15v57.5h15v-23.7h21.6v23.7h14.9v-57.5h-14.9v22.2h-21.6zm-25 0h-32.7v57.5h32.7v-12.6h-17.8v-9.9h16.8v-12.7h-16.8v-9.6h17.8zm-68.7 36.9h12.3c-.2 1.7-.7 3.1-1.5 4.3-.7 1.2-1.6 2.1-2.7 2.9-1.1.7-2.3 1.3-3.7 1.6s-2.8.5-4.3.5c-2.5 0-4.7-.4-6.5-1.3s-3.5-2-4.7-3.5c-1.3-1.5-2.2-3.3-2.9-5.4-.6-2.1-1-4.3-1-6.8 0-2.7.4-5.1 1.1-7.3s1.8-4 3-5.6c1.3-1.5 2.9-2.7 4.7-3.6s3.9-1.3 6.1-1.3c2.7 0 5.1.7 7.2 2.1s3.8 3.6 5.1 6.8l14.2-5.9c-2.6-5.4-6.2-9.5-10.7-12-4.5-2.6-9.8-3.9-15.8-3.9-4.6 0-8.8.7-12.6 2.2s-7 3.5-9.6 6.2c-2.7 2.6-4.7 5.8-6.2 9.6s-2.2 7.8-2.2 12.3.7 8.6 2.2 12.4c1.5 3.7 3.5 6.9 6.2 9.6 2.6 2.7 5.8 4.7 9.5 6.2s7.8 2.2 12.2 2.2c3.2 0 6.3-.4 9.3-1.2s5.7-2 8.1-3.5c2.5-1.5 4.6-3.5 6.4-5.8s3.3-5 4.3-8c.8-2.1 1.3-4.4 1.5-6.9s.4-5.3.4-8.3h-29.6zm-50.2-33.8c-2.8-1.5-5.8-2.7-8.9-3.5s-6.1-1.2-8.9-1.2c-3 0-5.8.5-8.3 1.4s-4.5 2.2-6.2 3.9-3 3.6-4 5.9-1.4 4.9-1.4 7.7.5 5.2 1.3 7c.9 1.9 2.1 3.4 3.5 4.6 1.5 1.2 3.1 2.2 5 2.9s3.7 1.4 5.7 2c1.6.6 3 1.1 4.1 1.5 1.1.5 2.1 1 2.8 1.5s1.2 1.1 1.5 1.8c.3.6.5 1.4.5 2.2 0 1.4-.6 2.7-1.8 3.8s-3 1.7-5.5 1.7c-2.1 0-4.3-.5-6.5-1.5s-4.4-2.4-6.6-4.4l-6.4 12c6.2 4.3 12.9 6.5 20.2 6.5 3.5 0 6.6-.5 9.4-1.4s5.1-2.3 7-4 3.3-3.7 4.3-6.1 1.5-5 1.5-8c0-4.4-1.1-7.9-3.4-10.6s-5.8-4.9-10.7-6.5c-1.2-.4-2.5-.8-3.7-1.1-1.2-.4-2.4-.8-3.4-1.3s-1.8-1-2.4-1.7-.9-1.5-.9-2.5c0-1.5.6-2.7 1.8-3.6s2.8-1.4 4.7-1.4c1.5 0 3.1.3 4.7 1 1.6.6 3.2 1.6 4.9 2.9zm-45.2-3.1h-32.7v57.5h32.7v-12.6h-17.8v-9.9h16.8v-12.7h-16.8v-9.6h17.8zm-112.8 57.5 5-33.1 12.9 33.1h5.9l13.6-33.1 5 33.1h14.9l-9.8-57.4h-14.8l-11.4 30.6-11.6-30.7h-14.8l-9.8 57.5zm-70.6-57.5v33.3c0 8.9 2.1 15.5 6.2 19.6s10.4 6.2 18.9 6.2 14.8-2.1 18.9-6.2 6.1-10.6 6.1-19.6v-33.3h-14.9v31.2c0 1.7-.1 3.4-.2 5.1s-.5 3.3-1.2 4.8-1.7 2.6-3 3.5-3.3 1.3-5.8 1.3-4.4-.4-5.8-1.3-2.4-2-3-3.5c-.6-1.4-1-3-1.1-4.8s-.2-3.5-.2-5.1v-31.2zm-19.9 33.9c4.1-1 7.2-2.8 9.3-5.5s3.2-6.3 3.2-10.6c0-2.4-.4-4.7-1.2-6.9-.8-2.1-2-4-3.5-5.6s-3.5-2.9-5.9-3.9c-2.4-.9-5.2-1.4-8.4-1.4h-23.2v57.5h14.9v-22.1l14.2 22.1h18.6zm-14.8-22.4h2.8c3 0 5.2.6 6.8 1.8s2.4 3 2.4 5.3-.8 4-2.4 5.3c-1.6 1.2-3.8 1.8-6.8 1.8h-2.8zm-84.1 29.2c1.6 3.7 3.8 6.9 6.6 9.6s6.1 4.9 10 6.4 8.2 2.3 12.8 2.3 8.9-.8 12.8-2.3 7.3-3.7 10.1-6.4 5-6 6.6-9.6c1.6-3.7 2.4-7.7 2.4-11.9 0-4.3-.8-8.2-2.4-11.9s-3.8-6.9-6.6-9.6-6.2-4.9-10.1-6.4-8.2-2.3-12.8-2.3c-4.7 0-8.9.8-12.8 2.3-3.9 1.6-7.2 3.7-10 6.4s-5 6-6.6 9.6c-1.6 3.7-2.4 7.7-2.4 11.9s.8 8.2 2.4 11.9m14.5-18.3c.9-1.9 2-3.6 3.5-5s3.2-2.5 5.1-3.3c2-.8 4-1.2 6.2-1.2s4.2.4 6.2 1.2 3.7 1.9 5.2 3.3 2.7 3.1 3.5 5 1.3 4 1.3 6.3-.4 4.4-1.3 6.3-2 3.6-3.5 5-3.2 2.5-5.2 3.3-4 1.2-6.2 1.2-4.3-.4-6.2-1.2c-2-.8-3.7-1.9-5.1-3.3-1.5-1.4-2.6-3.1-3.5-5s-1.3-4-1.3-6.3c0-2.2.5-4.3 1.3-6.3m-104.2-22.4 17.1 57.5h15.2l11.3-33.3 11.3 33.3h15.2l17.2-57.5h-15.6l-9.9 37.1-12.2-37.1h-11.9l-12.2 37.1-9.9-37.1z"/><path d="m625.9 155.4h8.8l14-25.2h-13zm-18.1-34.2c4.1-1 7.2-2.8 9.3-5.5s3.2-6.3 3.2-10.6c0-2.4-.4-4.7-1.2-6.9-.8-2.1-2-4-3.5-5.6s-3.5-2.9-5.9-3.9c-2.4-.9-5.2-1.4-8.4-1.4h-23.2v57.5h14.9v-22.1l14.2 22.1h18.6zm-14.8-22.4h2.8c3 0 5.2.6 6.8 1.8s2.4 3 2.4 5.3-.8 4-2.4 5.3c-1.6 1.2-3.8 1.8-6.8 1.8h-2.8zm-23.4-11.5h-32.7v57.5h32.7v-12.6h-17.8v-9.9h16.8v-12.6h-16.8v-9.7h17.8zm-72.4 0v57.5h32.8v-12.6h-17.9v-44.9zm-39.8 0v57.5h32.8v-12.6h-17.9v-44.9zm-10 0h-32.7v57.5h32.7v-12.6h-17.8v-9.9h16.8v-12.6h-16.8v-9.7h17.8zm-86.4 57.5v-35.1l27.6 35.1h14.9v-57.5h-14.9v35.1l-27.6-35.1h-14.9v57.5zm-62.7-57.5h-14.9v57.5h14.9v-23.7h21.6v23.7h14.9v-57.5h-14.9v22.2h-21.6zm-24.5 1.4c-2.4-1-4.8-1.8-7-2.2-2.2-.5-4.5-.7-6.7-.7-4 0-7.9.8-11.5 2.2s-6.9 3.6-9.6 6.2c-2.8 2.7-5 5.8-6.6 9.5s-2.5 7.7-2.5 12.1.8 8.5 2.5 12.2 3.9 7 6.7 9.7 6 4.8 9.6 6.3 7.4 2.2 11.4 2.2c1.9 0 3.9-.2 5.9-.6s4.1-1 6.4-1.8l1.5-.5v-17.7c-3.8 4.1-8.1 6.1-12.9 6.1-2.2 0-4.2-.4-6.1-1.2s-3.5-1.9-4.9-3.3-2.5-3.1-3.3-5-1.2-4-1.2-6.3c0-2.2.4-4.3 1.2-6.2s1.9-3.6 3.2-5c1.4-1.4 3-2.5 4.9-3.3s4-1.2 6.2-1.2c5.1 0 9.4 2.1 12.8 6.3zm-50.9 1.7c-2.9-1.5-5.8-2.7-8.9-3.5s-6.1-1.2-8.9-1.2c-3 0-5.8.5-8.3 1.4s-4.5 2.2-6.2 3.9c-1.7 1.6-3 3.6-4 5.9s-1.4 4.9-1.4 7.7.4 5.2 1.3 7.1 2.1 3.4 3.5 4.6 3.1 2.2 5 2.9 3.8 1.4 5.7 2c1.6.6 3 1.1 4.1 1.5s2.1.9 2.8 1.5c.7.5 1.2 1.1 1.5 1.8.3.6.5 1.4.5 2.2 0 1.4-.6 2.7-1.8 3.8s-3 1.7-5.5 1.7c-2.1 0-4.3-.5-6.5-1.4-2.2-1-4.4-2.4-6.6-4.4l-6.4 12c6.2 4.3 12.9 6.5 20.2 6.5 3.5 0 6.6-.5 9.4-1.4s5.1-2.3 7-4 3.4-3.7 4.3-6.1c1-2.4 1.5-5.1 1.5-8 0-4.4-1.1-7.9-3.4-10.6s-5.8-4.9-10.7-6.5c-1.2-.4-2.5-.8-3.7-1.1-1.2-.4-2.4-.8-3.4-1.3s-1.8-1.1-2.4-1.7-.9-1.5-.9-2.5c0-1.5.6-2.7 1.8-3.6s2.8-1.4 4.7-1.4c1.5 0 3.1.3 4.7.9s3.2 1.6 4.9 2.9zm-90-3.1v57.5h32.8v-12.6h-17.9v-44.9zm-10 0h-32.7v57.5h32.7v-12.6h-17.8v-9.9h16.8v-12.6h-16.8v-9.7h17.8zm-58.9 57.5h14.9v-57.5h-14.9zm-64-57.5 24.2 57.5h11.8l24.2-57.5h-16.2l-14 35-13.9-35z"/><path d="m647.8 1.6h-14.9v57.4h14.9v-23.7h21.6v23.7h14.9v-57.4h-14.9v22.2h-21.6zm-24.6 1.4c-2.4-1-4.8-1.8-7-2.2-2.2-.5-4.5-.7-6.7-.7-4 0-7.8.8-11.5 2.2-3.7 1.5-6.9 3.6-9.6 6.2s-5 5.8-6.6 9.5c-1.7 3.7-2.5 7.7-2.5 12.2s.8 8.5 2.5 12.2 3.9 7 6.7 9.7 6 4.8 9.6 6.3 7.4 2.2 11.4 2.2c1.9 0 3.9-.2 5.9-.6s4.1-1 6.4-1.8l1.5-.5v-17.6c-3.8 4.1-8.1 6.1-12.9 6.1-2.2 0-4.2-.4-6.1-1.2s-3.5-1.9-4.9-3.3-2.5-3.1-3.3-5-1.2-4-1.2-6.3c0-2.2.4-4.3 1.2-6.2s1.9-3.6 3.2-5 3-2.5 4.9-3.3 4-1.2 6.2-1.2c5.1 0 9.3 2.1 12.8 6.3zm-66 56h14.9v-57.4h-14.9zm-27.4-57.4h-32.7v57.4h32.7v-12.6h-17.8v-9.9h16.8v-12.7h-16.8v-9.6h17.8zm-74.3 0h-14.9v57.4h14.9v-24.9l19.5 24.9h19.3l-24.9-30.2 22.8-27.2h-18.4l-18.2 23.7zm-35.4 33.9c4.1-1 7.2-2.8 9.3-5.5s3.2-6.3 3.2-10.6c0-2.4-.4-4.7-1.2-6.9-.8-2.1-2-4-3.5-5.6s-3.5-2.9-5.9-3.8-5.2-1.4-8.4-1.4h-23.2v57.3h14.9v-22.1l14.3 22.1h18.6zm-14.8-22.4h2.8c3 0 5.2.6 6.8 1.8s2.4 3 2.4 5.3-.8 4-2.4 5.3c-1.6 1.2-3.8 1.8-6.8 1.8h-2.8zm-24.9-11.5h-32.7v57.4h32.7v-12.6h-17.8v-9.9h16.8v-12.7h-16.8v-9.6h17.8zm-95.4 57.4 5-33.1 12.8 33.1h5.9l13.6-33 5 33.1h14.9l-9.8-57.4h-14.8l-11.4 30.6-11.6-30.7h-14.8l-9.7 57.4zm-39.7-57.4h-32.7v57.4h32.7v-12.6h-17.8v-9.9h16.8v-12.7h-16.8v-9.6h17.8zm-40 12.6v-12.6h-39.5v12.7h12.3v44.7h14.9v-44.8zm-97-12.6v33.3c0 8.9 2.1 15.5 6.2 19.6s10.4 6.2 18.9 6.2 14.8-2.1 18.9-6.2 6.1-10.6 6.1-19.6v-33.3h-14.9v31.2c0 1.7-.1 3.4-.2 5.1-.1 1.8-.5 3.3-1.2 4.8s-1.7 2.6-3 3.5c-1.4.9-3.3 1.3-5.8 1.3s-4.4-.4-5.8-1.3-2.4-2-3-3.5c-.6-1.4-1-3-1.1-4.8s-.2-3.5-.2-5.1v-31.2zm-8.4 0h-32.7v57.4h32.7v-12.6h-17.8v-9.9h16.8v-12.7h-16.8v-9.6h17.8zm-78.9 0h-15v57.4h15v-23.7h21.6v23.7h14.9v-57.4h-15v22.2h-21.5z"/></g></svg>