<?xml version="1.0" encoding="utf-8"?>
<!-- Generator: Adobe Illustrator 23.1.1, SVG Export Plug-In . SVG Version: 6.00 Build 0)  -->
<svg version="1.1" id="Ebene_1" xmlns="http://www.w3.org/2000/svg" xmlns:xlink="http://www.w3.org/1999/xlink" x="0px" y="0px"
	 viewBox="0 0 684.3 172.2" style="enable-background:new 0 0 684.3 172.2;" xml:space="preserve">
<style type="text/css">
	.st0{fill:#CD1719;}
</style>
<g>
	<path class="st0" d="M420.4,149.4c0.5,1.1,1.1,2,1.9,2.9s1.8,1.5,2.9,1.9c1.1,0.5,2.2,0.7,3.5,0.7s2.4-0.2,3.5-0.7
		c1.1-0.5,2-1.1,2.9-1.9c0.8-0.8,1.5-1.8,1.9-2.9c0.5-1.1,0.7-2.2,0.7-3.5s-0.2-2.4-0.7-3.5c-0.5-1.1-1.1-2-1.9-2.9
		c-0.8-0.8-1.8-1.5-2.9-1.9c-1.1-0.5-2.2-0.7-3.5-0.7s-2.4,0.2-3.5,0.7c-1.1,0.5-2,1.1-2.9,1.9c-0.8,0.8-1.5,1.8-1.9,2.9
		c-0.5,1.1-0.7,2.2-0.7,3.5C419.7,147.2,419.9,148.3,420.4,149.4 M410.8,98.9c-2.8-1.5-5.8-2.7-8.9-3.5c-3.1-0.8-6.1-1.2-8.9-1.2
		c-3,0-5.8,0.5-8.3,1.4c-2.5,0.9-4.5,2.2-6.2,3.9s-3,3.6-4,5.9s-1.4,4.9-1.4,7.7c0,2.9,0.4,5.2,1.3,7c0.9,1.9,2.1,3.4,3.5,4.6
		c1.5,1.2,3.1,2.2,5,2.9c1.8,0.7,3.7,1.4,5.7,2c1.6,0.6,3,1.1,4.2,1.5c1.1,0.5,2.1,1,2.8,1.5c0.7,0.5,1.2,1.1,1.5,1.8
		c0.3,0.6,0.5,1.4,0.5,2.2c0,1.4-0.6,2.7-1.8,3.8s-3,1.7-5.5,1.7c-2.1,0-4.3-0.5-6.5-1.5c-2.2-1-4.4-2.4-6.6-4.4l-6.4,12
		c6.2,4.3,12.9,6.5,20.2,6.5c3.5,0,6.6-0.5,9.4-1.4c2.8-0.9,5.1-2.3,7-4c1.9-1.7,3.3-3.8,4.3-6.1c1-2.4,1.5-5,1.5-8
		c0-4.4-1.1-7.9-3.4-10.6s-5.8-4.9-10.7-6.5c-1.2-0.4-2.5-0.8-3.7-1.1c-1.2-0.4-2.4-0.8-3.3-1.3c-1-0.5-1.8-1-2.4-1.7
		c-0.6-0.7-0.9-1.5-0.9-2.5c0-1.5,0.6-2.7,1.8-3.6c1.2-0.9,2.8-1.4,4.7-1.4c1.5,0,3.1,0.3,4.7,1c1.6,0.6,3.2,1.6,4.9,2.9L410.8,98.9
		z M348.8,121.1h8.8l14-25.3h-13L348.8,121.1z M331.4,129.7c4.1-1,7.2-2.8,9.3-5.5c2.1-2.7,3.2-6.3,3.2-10.6c0-2.4-0.4-4.7-1.2-6.9
		c-0.8-2.1-2-4-3.5-5.6c-1.5-1.6-3.5-2.9-5.9-3.9c-2.4-0.9-5.2-1.4-8.4-1.4h-23.2v57.5h14.9v-22.1l14.2,22.1h18.6L331.4,129.7z
		 M316.6,107.3h2.8c3,0,5.2,0.6,6.8,1.8s2.4,3,2.4,5.3s-0.8,4-2.4,5.3s-3.8,1.8-6.8,1.8h-2.8V107.3z M282.7,153.3h15.9l-21.9-57.5
		h-16.3l-21.9,57.5h15.9l3.4-10h21.3L282.7,153.3z M261.8,131.9l6.7-19.1l6.7,19.1H261.8z M157.5,95.8l17.1,57.5h15.2l11.3-33.3
		l11.3,33.3h15.2l17.1-57.5h-15.6l-9.9,37.1l-12.2-37.1h-11.9l-12.2,37.1l-9.9-37.1L157.5,95.8L157.5,95.8z M99.1,95.8H84.2v57.5
		h14.9v-23.7h21.6v23.7h14.9V95.8h-14.9V118H99.1V95.8z M73.1,97.2c-2.4-1-4.8-1.8-7-2.2c-2.2-0.5-4.5-0.7-6.7-0.7
		c-4,0-7.9,0.8-11.5,2.2c-3.7,1.5-6.9,3.6-9.6,6.2s-5,5.8-6.6,9.5c-1.6,3.7-2.5,7.7-2.5,12.1s0.8,8.5,2.5,12.2
		c1.7,3.7,3.9,7,6.7,9.7s6,4.8,9.6,6.3c3.6,1.5,7.4,2.2,11.4,2.2c1.9,0,3.9-0.2,5.9-0.6c2-0.4,4.1-1,6.4-1.8l1.5-0.5v-17.7
		c-3.8,4.1-8.1,6.1-12.9,6.1c-2.2,0-4.2-0.4-6.1-1.2s-3.5-1.9-4.9-3.4c-1.4-1.4-2.5-3.1-3.3-5s-1.2-4-1.2-6.3c0-2.2,0.4-4.3,1.2-6.2
		s1.9-3.6,3.2-5c1.4-1.4,3-2.5,4.9-3.3s4-1.2,6.2-1.2c5.1,0,9.4,2.1,12.8,6.3L73.1,97.2L73.1,97.2z M5.5,153.3h14.9V95.8H5.5V153.3z
		"/>
	<path class="st0" d="M98.1,78.2h8.8l14-25.2h-13L98.1,78.2z M80.8,67.6h15.9L74.8,10.1H58.5L36.6,67.6h15.9l3.4-10h21.3L80.8,67.6z
		 M60,46.2l6.7-19.1l6.7,19.1H60z M18.8,10.1v39.6c0,4.4-1.4,6.6-4.2,6.6c-1.3,0-2.3-0.5-3.2-1.5c-0.9-1-1.4-2.4-1.7-4.1L0,60.7
		c3.9,5.6,8.9,8.5,15,8.5c2,0,4-0.3,5.8-0.8c1.9-0.5,3.5-1.3,5.1-2.2c1.5-0.9,2.9-2.1,4-3.4c1.1-1.4,2-2.8,2.7-4.5
		c0.4-1,0.7-2.2,0.9-3.7c0.2-1.4,0.3-3,0.3-4.6V10.1L18.8,10.1L18.8,10.1z"/>
</g>
</svg>
