<?xml version="1.0" encoding="utf-8"?>
<!-- Generator: Adobe Illustrator 23.1.1, SVG Export Plug-In . SVG Version: 6.00 Build 0)  -->
<svg version="1.1" id="Ebene_1" xmlns="http://www.w3.org/2000/svg" xmlns:xlink="http://www.w3.org/1999/xlink" x="0px" y="0px"
	 viewBox="0 0 684.9 192.3" style="enable-background:new 0 0 684.9 192.3;" xml:space="preserve">
<style type="text/css">
	.st0{fill:#CD1719;}
</style>
<g>
	<path class="st0" d="M535,140.9c0.5,1.1,1.1,2,1.9,2.9c0.8,0.8,1.8,1.5,2.9,1.9c1.1,0.5,2.2,0.7,3.5,0.7s2.4-0.2,3.5-0.7
		c1.1-0.5,2-1.1,2.9-1.9c0.8-0.8,1.5-1.8,1.9-2.9c0.5-1.1,0.7-2.2,0.7-3.5s-0.2-2.4-0.7-3.5c-0.5-1.1-1.1-2-1.9-2.9
		c-0.8-0.8-1.8-1.5-2.9-1.9c-1.1-0.5-2.2-0.7-3.5-0.7s-2.4,0.2-3.5,0.7c-1.1,0.5-2,1.1-2.9,1.9s-1.5,1.8-1.9,2.9
		c-0.5,1.1-0.7,2.2-0.7,3.5S534.6,139.8,535,140.9 M526.3,87.3h-32.7v57.5h32.7v-12.6h-17.7v-9.9h16.8v-12.6h-16.8V100h17.7V87.3z
		 M450.9,87.3H436v57.5h14.9v-24.9l19.4,24.9h19.3l-24.9-30.2l22.8-27.2h-18.4L450.9,111V87.3z M425.8,88.7c-2.4-1-4.8-1.8-7-2.2
		c-2.2-0.5-4.5-0.7-6.7-0.7c-4,0-7.8,0.8-11.5,2.2c-3.7,1.5-6.9,3.6-9.6,6.2s-5,5.8-6.6,9.5s-2.5,7.7-2.5,12.1
		c0,4.4,0.8,8.5,2.5,12.2c1.7,3.7,3.9,7,6.7,9.7s6,4.8,9.6,6.3c3.6,1.5,7.4,2.2,11.4,2.2c1.9,0,3.9-0.2,5.9-0.6s4.1-1,6.4-1.8
		l1.5-0.5v-17.7c-3.8,4.1-8.1,6.1-12.9,6.1c-2.2,0-4.2-0.4-6.1-1.2s-3.5-1.9-4.9-3.4c-1.4-1.4-2.5-3.1-3.3-5c-0.8-1.9-1.2-4-1.2-6.3
		c0-2.2,0.4-4.3,1.2-6.2s1.9-3.6,3.2-5s3-2.5,4.9-3.3c1.9-0.8,4-1.2,6.2-1.2c5.1,0,9.3,2.1,12.8,6.3L425.8,88.7L425.8,88.7z
		 M375.2,87.3h-32.7v57.5h32.7v-12.6h-17.8v-9.9h16.8v-12.6h-16.8V100h17.8V87.3z M309.2,121.2c4.1-1,7.2-2.8,9.3-5.5
		c2.1-2.7,3.2-6.3,3.2-10.6c0-2.4-0.4-4.7-1.2-6.9c-0.8-2.1-2-4-3.5-5.6c-1.5-1.6-3.5-2.9-5.9-3.9c-2.4-0.9-5.2-1.4-8.4-1.4h-23.2
		v57.5h14.9v-22.1l14.2,22.1h18.6L309.2,121.2z M294.4,98.8h2.8c2.9,0,5.2,0.6,6.8,1.8s2.4,3,2.4,5.3s-0.8,4-2.4,5.3
		c-1.6,1.2-3.8,1.8-6.8,1.8h-2.8V98.8z M269.5,87.3h-32.7v57.5h32.7v-12.6h-17.8v-9.9h16.8v-12.6h-16.8V100h17.8V87.3z M179.2,144.8
		h22.1c4,0,7.7-0.8,11.1-2.4c3.4-1.6,6.4-3.7,9-6.3s4.6-5.7,6-9.2c1.5-3.5,2.2-7.1,2.2-10.9c0-3.8-0.7-7.5-2.2-10.9
		c-1.5-3.5-3.5-6.5-6.1-9.1c-2.6-2.6-5.6-4.7-9-6.3c-3.4-1.6-7.1-2.4-11-2.4h-22.1V144.8z M194.1,100h3.4c2.5,0,4.8,0.4,6.9,1.2
		s3.7,1.9,5.1,3.4c1.4,1.4,2.5,3.1,3.2,5.1s1.1,4.1,1.1,6.4c0,2.3-0.4,4.5-1.1,6.4s-1.8,3.6-3.2,5.1c-1.4,1.4-3.1,2.5-5.1,3.4
		c-2,0.8-4.3,1.2-6.9,1.2h-3.4V100z M157,90.4c-2.9-1.5-5.8-2.7-8.9-3.5c-3.1-0.8-6.1-1.2-8.9-1.2c-3,0-5.8,0.5-8.3,1.4
		c-2.5,0.9-4.5,2.2-6.2,3.9s-3,3.6-4,5.9s-1.4,4.9-1.4,7.7c0,2.9,0.4,5.2,1.3,7c0.9,1.9,2.1,3.4,3.5,4.6c1.4,1.2,3.1,2.2,5,2.9
		c1.9,0.7,3.7,1.4,5.7,2c1.6,0.6,3,1.1,4.1,1.5c1.1,0.5,2.1,1,2.8,1.5s1.2,1.1,1.5,1.8c0.3,0.6,0.5,1.4,0.5,2.2
		c0,1.4-0.6,2.7-1.8,3.8s-3,1.7-5.5,1.7c-2.1,0-4.3-0.5-6.5-1.5c-2.2-1-4.4-2.4-6.6-4.4l-6.4,12c6.2,4.3,12.9,6.5,20.2,6.5
		c3.5,0,6.6-0.5,9.4-1.4s5.1-2.3,7-4c1.9-1.7,3.4-3.7,4.3-6.1s1.5-5,1.5-8c0-4.4-1.1-7.9-3.4-10.6s-5.8-4.9-10.7-6.5
		c-1.2-0.4-2.5-0.8-3.7-1.1c-1.2-0.4-2.4-0.8-3.4-1.3c-1-0.5-1.8-1-2.4-1.7s-0.9-1.5-0.9-2.5c0-1.5,0.6-2.7,1.8-3.6
		c1.2-0.9,2.8-1.4,4.7-1.4c1.5,0,3.1,0.3,4.7,1c1.6,0.6,3.2,1.6,4.9,2.9L157,90.4z M61.2,87.3v33.3c0,8.9,2.1,15.5,6.2,19.6
		c4.1,4.1,10.4,6.2,18.9,6.2c8.5,0,14.8-2.1,18.9-6.2c4.1-4.1,6.1-10.6,6.1-19.6V87.3H96.4v31.2c0,1.7-0.1,3.4-0.2,5.1
		s-0.5,3.3-1.2,4.8c-0.7,1.4-1.7,2.6-3,3.5c-1.4,0.9-3.3,1.3-5.8,1.3s-4.4-0.4-5.8-1.3c-1.4-0.9-2.4-2-3-3.5c-0.6-1.4-1-3-1.1-4.8
		c-0.1-1.8-0.2-3.5-0.2-5.1V87.3H61.2z M44.1,144.8H60L38.2,87.3H21.9L0,144.8h15.9l3.4-10h21.3L44.1,144.8z M23.3,123.4l6.7-19.1
		l6.7,19.1H23.3z"/>
	<path class="st0" d="M208.7,4.6c-2.9-1.5-5.8-2.7-8.9-3.5c-3.1-0.8-6.1-1.2-8.9-1.2c-3,0-5.8,0.5-8.3,1.4c-2.5,0.9-4.5,2.2-6.2,3.9
		c-1.7,1.6-3,3.6-4,5.9s-1.4,4.9-1.4,7.7c0,2.9,0.4,5.2,1.3,7.1c0.9,1.9,2.1,3.4,3.5,4.6c1.5,1.2,3.1,2.2,5,2.9
		c1.9,0.7,3.8,1.4,5.7,2c1.6,0.6,3,1.1,4.1,1.5c1.1,0.5,2.1,1,2.8,1.5c0.7,0.5,1.2,1.1,1.5,1.8c0.3,0.6,0.5,1.4,0.5,2.2
		c0,1.4-0.6,2.7-1.8,3.8s-3,1.7-5.5,1.7c-2.1,0-4.3-0.5-6.5-1.5c-2.2-1-4.4-2.4-6.6-4.4l-6.4,12c6.2,4.3,12.9,6.5,20.2,6.5
		c3.5,0,6.6-0.5,9.4-1.4s5.1-2.3,7-4c1.9-1.7,3.4-3.7,4.3-6.1s1.5-5,1.5-8c0-4.4-1.1-7.9-3.4-10.6s-5.8-4.9-10.7-6.5
		c-1.2-0.4-2.5-0.8-3.7-1.1c-1.2-0.4-2.4-0.8-3.4-1.3c-1-0.5-1.8-1.1-2.4-1.7s-0.9-1.5-0.9-2.5c0-1.5,0.6-2.7,1.8-3.6
		s2.8-1.4,4.7-1.4c1.5,0,3.1,0.3,4.7,0.9c1.6,0.6,3.2,1.6,4.9,2.9L208.7,4.6z M112.9,1.6v33.3c0,8.9,2.1,15.5,6.2,19.6
		s10.4,6.2,18.9,6.2c8.5,0,14.8-2.1,18.9-6.2c4.1-4.1,6.1-10.6,6.1-19.6V1.6h-14.9v31.2c0,1.7-0.1,3.4-0.2,5.1s-0.5,3.3-1.2,4.8
		s-1.7,2.6-3,3.5s-3.3,1.3-5.8,1.3s-4.4-0.4-5.8-1.3c-1.4-0.9-2.4-2-3-3.5c-0.6-1.4-1-3-1.1-4.8c-0.1-1.8-0.2-3.5-0.2-5.1V1.6
		L112.9,1.6L112.9,1.6z M95.9,59h15.9L89.9,1.6H73.6L51.7,59h15.9l3.4-10h21.3L95.9,59z M75.1,37.7l6.7-19.1l6.7,19.1H75.1z
		 M35.2,35.5c4.1-1,7.2-2.8,9.3-5.5c2.1-2.7,3.2-6.3,3.2-10.6c0-2.4-0.4-4.7-1.2-6.9c-0.8-2.1-2-4-3.5-5.6c-1.6-1.6-3.5-2.9-5.9-3.9
		c-2.4-0.9-5.2-1.4-8.4-1.4H5.5V59h14.9V36.9L34.7,59h18.6L35.2,35.5z M20.4,13.1h2.8c2.9,0,5.2,0.6,6.8,1.8c1.6,1.2,2.4,3,2.4,5.3
		s-0.8,4-2.4,5.3s-3.8,1.8-6.8,1.8h-2.8V13.1z"/>
</g>
</svg>
