<svg enable-background="new 0 0 684.4 403.5" viewBox="0 0 684.4 403.5" xmlns="http://www.w3.org/2000/svg"><g fill="#cd1719"><path d="m539 398.1c.5 1.1 1.1 2 1.9 2.9.8.8 1.8 1.5 2.9 1.9 1.1.5 2.2.7 3.5.7s2.4-.2 3.5-.7 2-1.1 2.9-1.9c.8-.8 1.5-1.8 1.9-2.9.5-1.1.7-2.2.7-3.5s-.2-2.4-.7-3.5-1.1-2-1.9-2.9c-.8-.8-1.8-1.5-2.9-1.9-1.1-.5-2.2-.7-3.5-.7s-2.4.2-3.5.7-2 1.1-2.9 1.9c-.8.8-1.4 1.8-1.9 2.9s-.7 2.2-.7 3.5.2 2.4.7 3.5m1.6-41v-12.6h-39.5v12.6h12.3v44.8h14.9v-44.8zm-45.6-12.6h-32.7v57.5h32.7v-12.6h-17.8v-9.9h16.8v-12.6h-16.8v-9.6h17.8zm-38.5 12.6v-12.6h-39.5v12.6h12.3v44.8h14.9v-44.8zm-81.9-12.6h-14.9v57.5h14.9v-23.7h21.6v23.7h14.9v-57.5h-14.9v22.2h-21.6zm-24.5 1.3c-2.4-1-4.8-1.8-7-2.2-2.2-.5-4.5-.7-6.7-.7-4 0-7.9.8-11.5 2.2s-6.9 3.6-9.6 6.2c-2.8 2.7-5 5.8-6.6 9.5s-2.5 7.7-2.5 12.1.8 8.5 2.5 12.2 3.9 7 6.7 9.7 6 4.8 9.6 6.3 7.4 2.2 11.4 2.2c1.9 0 3.9-.2 5.9-.6s4.1-1 6.4-1.8l1.5-.5v-17.7c-3.8 4.1-8.1 6.1-12.9 6.1-2.2 0-4.2-.4-6.1-1.2s-3.5-1.9-4.9-3.4-2.5-3.1-3.3-5-1.2-4-1.2-6.3c0-2.2.4-4.3 1.2-6.2s1.9-3.6 3.2-5 3-2.5 4.9-3.3 4-1.2 6.2-1.2c5.1 0 9.4 2.1 12.8 6.3zm-66.1 56.1h15v-57.5h-15zm-38.2-57.4v57.5h32.8v-12.6h-17.9v-44.8zm-8.2 0h-32.9v57.5h14.9v-22.5h16.4v-12.6h-16.4v-9.6h18zm-67.3 38.4h8.8c6.5 0 11.4-1.7 14.8-5s5.1-8.1 5.1-14.2-1.7-10.8-5.1-14.2-8.4-5-14.8-5h-23.8v57.5h14.9v-19.1zm0-26.4h5c5.5 0 8.2 2.4 8.2 7.2s-2.7 7.2-8.2 7.2h-5zm-35.4 21.9c4.1-1 7.2-2.8 9.3-5.5s3.2-6.3 3.2-10.6c0-2.4-.4-4.7-1.2-6.9-.8-2.1-2-4-3.5-5.6s-3.5-2.9-5.9-3.9c-2.4-.9-5.2-1.4-8.4-1.4h-23.2v57.5h14.9v-22.1l14.2 22.1h18.6zm-14.8-22.4h2.8c2.9 0 5.2.6 6.8 1.8s2.4 3 2.4 5.3-.8 4-2.4 5.3c-1.6 1.2-3.8 1.8-6.8 1.8h-2.8zm-23.4-11.5h-32.7v57.5h32.7v-12.6h-17.8v-9.9h16.8v-12.6h-16.8v-9.6h17.8zm-96.7 0 24.1 57.5h11.9l24.2-57.5h-16.2l-13.9 35-13.9-35z"/><path d="m437.9 258.8v33.2c0 8.9 2.1 15.5 6.2 19.6s10.4 6.2 18.9 6.2 14.8-2.1 18.9-6.2 6.1-10.6 6.1-19.6v-33.3h-14.9v31.3c0 1.7-.1 3.4-.2 5.1-.1 1.8-.5 3.3-1.2 4.8s-1.7 2.6-3 3.5-3.3 1.3-5.8 1.3-4.4-.4-5.8-1.3-2.4-2-3-3.5c-.6-1.4-1-3-1.1-4.8s-.2-3.5-.2-5.1v-31.2zm-4.8 0h-47.5v12.6h22.6l-27.2 44.8h49.1v-12.6h-24.1zm-69 57.4h15.9l-21.9-57.5h-16.3l-21.8 57.5h15.9l3.4-10h21.3zm-20.8-21.3 6.7-19.1 6.7 19.1zm-71.4 21.3h22.1c4 0 7.7-.8 11.1-2.4s6.4-3.7 9-6.3 4.6-5.7 6-9.2c1.5-3.5 2.2-7.1 2.2-10.9s-.7-7.5-2.2-10.9c-1.5-3.5-3.5-6.5-6.1-9.1s-5.6-4.7-9-6.3-7.1-2.4-11-2.4h-22.1zm14.9-44.8h3.4c2.5 0 4.8.4 6.9 1.2 2 .8 3.7 1.9 5.1 3.4 1.4 1.4 2.5 3.1 3.2 5.1.8 2 1.1 4.1 1.1 6.4s-.4 4.5-1.1 6.4c-.7 2-1.8 3.6-3.2 5.1-1.4 1.4-3.1 2.5-5.1 3.4-2 .8-4.3 1.2-6.9 1.2h-3.4zm-38.2 0v-12.6h-39.5v12.6h12.3v44.8h14.9v-44.8zm-81.8-12.6h-14.9v57.5h14.9v-23.7h21.6v23.7h14.9v-57.5h-14.9v22.2h-21.6zm-24.6 1.3c-2.4-1-4.8-1.8-7-2.2s-4.5-.7-6.7-.7c-4 0-7.9.8-11.5 2.2-3.7 1.5-6.9 3.6-9.6 6.2s-5 5.8-6.6 9.5-2.5 7.7-2.5 12.1.8 8.5 2.5 12.2 3.9 7 6.7 9.7 6 4.8 9.6 6.3 7.4 2.2 11.4 2.2c1.9 0 3.9-.2 5.9-.6s4.1-1 6.4-1.8l1.5-.5v-17.7c-3.8 4.1-8.1 6.1-12.9 6.1-2.2 0-4.2-.4-6.1-1.2s-3.5-1.9-4.9-3.4c-1.4-1.4-2.5-3.1-3.3-5s-1.2-4-1.2-6.3c0-2.2.4-4.3 1.2-6.2s1.9-3.6 3.2-5c1.4-1.4 3-2.5 4.9-3.3s4-1.2 6.2-1.2c5.1 0 9.4 2.1 12.8 6.3zm-67.5 56.1h14.9v-57.5h-14.9zm-53.7 0v-35.1l27.6 35.1h14.9v-57.5h-15v35.1l-27.5-35.1h-15v57.5z"/><path d="m341.3 206.9c4.1-1 7.2-2.8 9.3-5.5s3.2-6.3 3.2-10.6c0-2.4-.4-4.7-1.2-6.9-.8-2.1-2-4-3.5-5.6s-3.5-2.9-5.9-3.9c-2.4-.9-5.2-1.4-8.4-1.4h-23.2v57.5h14.9v-22.1l14.2 22.1h18.6zm-14.8-22.4h2.8c3 0 5.2.6 6.8 1.8s2.4 3 2.4 5.3-.8 4-2.4 5.3c-1.6 1.2-3.8 1.8-6.8 1.8h-2.8zm-24.9-11.5h-32.7v57.5h32.7v-12.6h-17.8v-9.9h16.8v-12.6h-16.8v-9.6h17.8zm-81.6 57.5h24c3 0 5.8-.4 8.2-1.1s4.5-1.8 6.2-3.2 3-3.2 4-5.3c.9-2.1 1.4-4.5 1.4-7.2 0-1.7-.2-3.4-.6-4.9s-1.1-2.9-2-4.1-2.2-2.2-3.7-3.1-3.3-1.5-5.5-1.9c2.1-1.3 3.7-2.9 4.8-4.8 1-1.9 1.6-4.3 1.6-7.2 0-4.8-1.4-8.4-4.1-11s-6.8-3.8-12-3.8h-22.3zm14.9-46h2.7c4.7 0 7 1.9 7 5.6s-2.3 5.6-7 5.6h-2.7zm0 22.2h3.3c3.8 0 6.5.5 8.1 1.5s2.4 2.5 2.4 4.6-.8 3.7-2.4 4.6-4.3 1.5-8.1 1.5h-3.3zm-35.1 23.8h15.9l-21.8-57.5h-16.3l-21.9 57.5h15.9l3.4-10h21.3zm-20.8-21.4 6.7-19.1 6.7 19.1zm-82.9 21.4v-35.1l27.6 35.1h14.9v-57.5h-14.9v35.1l-27.6-35.1h-15v57.5zm-39.6 0h14.9v-57.5h-14.9zm-50.5 0h24c3.1 0 5.8-.4 8.2-1.1s4.5-1.8 6.2-3.2 3-3.2 4-5.3c.9-2.1 1.4-4.5 1.4-7.2 0-1.7-.2-3.4-.6-4.9s-1.1-2.9-2-4.1-2.2-2.2-3.7-3.1-3.3-1.5-5.4-1.9c2.1-1.3 3.7-2.9 4.8-4.8 1-1.9 1.6-4.3 1.6-7.2 0-4.8-1.4-8.4-4.1-11s-6.8-3.8-12-3.8h-22.4zm15-46h2.7c4.7 0 7 1.9 7 5.6s-2.3 5.6-7 5.6h-2.7zm0 22.2h3.3c3.8 0 6.4.5 8.1 1.5 1.6 1 2.4 2.5 2.4 4.6s-.8 3.7-2.4 4.6-4.3 1.5-8.1 1.5h-3.3z"/><path d="m561.2 155.4h8.8l14-25.2h-13zm-45-10.6v-35.1l27.6 35.1h14.9v-57.5h-14.9v35.1l-27.6-35.1h-14.9v57.4h14.9zm-36.9-23.6c4.1-1 7.2-2.8 9.3-5.5s3.2-6.3 3.2-10.6c0-2.4-.4-4.7-1.2-6.9-.8-2.1-2-4-3.5-5.6s-3.5-2.9-5.9-3.9c-2.4-.9-5.2-1.4-8.4-1.4h-23.2v57.4h14.9v-22.1l14.2 22.1h18.6zm-14.8-22.4h2.8c3 0 5.2.6 6.8 1.8s2.4 3 2.4 5.3-.8 4-2.4 5.3c-1.6 1.2-3.8 1.8-6.8 1.8h-2.8zm-24.9-11.5h-32.7v57.4h32.7v-12.6h-17.8v-9.9h16.8v-12.6h-16.8v-9.6h17.8zm-69.5 36.9h12.3c-.3 1.7-.7 3.1-1.5 4.3-.7 1.2-1.6 2.1-2.7 2.9-1.1.7-2.3 1.3-3.7 1.6s-2.8.5-4.3.5c-2.5 0-4.7-.4-6.5-1.3-1.9-.8-3.5-2-4.7-3.5-1.3-1.5-2.2-3.3-2.9-5.4-.6-2.1-1-4.3-1-6.8 0-2.7.4-5.1 1.1-7.3s1.8-4.1 3-5.6 2.9-2.7 4.7-3.6c1.8-.8 3.9-1.3 6.1-1.3 2.7 0 5.1.7 7.2 2.1s3.8 3.6 5.1 6.8l14.2-5.9c-2.6-5.4-6.2-9.4-10.7-12s-9.8-3.9-15.8-3.9c-4.6 0-8.8.7-12.6 2.2s-7 3.5-9.6 6.2-4.7 5.8-6.2 9.6-2.2 7.8-2.2 12.3.7 8.6 2.2 12.4c1.5 3.7 3.5 6.9 6.2 9.6s5.8 4.7 9.5 6.2 7.8 2.2 12.2 2.2c3.2 0 6.4-.4 9.3-1.2 3-.8 5.7-2 8.1-3.5 2.5-1.6 4.6-3.5 6.4-5.8s3.3-5 4.3-8c.8-2.1 1.3-4.4 1.5-6.9s.4-5.3.4-8.3h-29.6zm-49.3-3c4.1-1 7.2-2.8 9.3-5.5s3.2-6.3 3.2-10.6c0-2.4-.4-4.7-1.2-6.9-.8-2.1-2-4-3.5-5.6s-3.5-2.9-5.9-3.9c-2.4-.9-5.2-1.4-8.4-1.4h-23.2v57.4h14.9v-22.1l14.2 22.1h18.6zm-14.7-22.4h2.8c3 0 5.2.6 6.8 1.8s2.4 3 2.4 5.3-.8 4-2.4 5.3c-1.6 1.2-3.8 1.8-6.8 1.8h-2.8zm-65-19.2c1.4 1.5 3.2 2.2 5.4 2.2 1 0 1.9-.2 2.8-.6s1.7-.9 2.4-1.6 1.2-1.5 1.6-2.4.6-1.9.6-2.9-.2-2-.6-2.9-1-1.7-1.6-2.4-1.5-1.2-2.4-1.6-1.8-.6-2.9-.6-2 .2-2.9.6-1.7.9-2.4 1.6-1.2 1.5-1.6 2.4-.6 1.8-.6 2.8c0 2.2.7 4 2.2 5.4m20.7.1c1.4 1.4 3.2 2.2 5.3 2.2s3.9-.7 5.3-2.1c1.5-1.4 2.2-3.2 2.2-5.3 0-1-.2-2-.6-2.9s-1-1.7-1.6-2.4-1.5-1.2-2.4-1.6-1.8-.6-2.9-.6-2 .2-2.9.6-1.7.9-2.4 1.6-1.2 1.5-1.6 2.4-.6 1.8-.6 2.8c.1 2 .8 3.8 2.2 5.3m9.1 65.1h15.9l-21.9-57.4h-16.3l-21.9 57.4h15.9l3.4-10h21.3zm-20.8-21.4 6.7-19.1 6.7 19.1zm-76.9-36.1h-14.9v57.4h14.9v-23.7h21.6v23.7h14.9v-57.4h-14.9v22.2h-21.6zm-24.6 1.4c-2.4-1-4.8-1.8-7-2.2-2.2-.5-4.5-.7-6.7-.7-4 0-7.9.8-11.5 2.2-3.7 1.5-6.9 3.6-9.6 6.2s-5 5.8-6.6 9.5-2.5 7.7-2.5 12.1.8 8.5 2.5 12.2 3.9 7 6.7 9.7 6 4.8 9.6 6.3 7.4 2.2 11.4 2.2c1.9 0 3.9-.2 5.9-.6s4.1-1 6.4-1.8l1.5-.5v-17.7c-3.8 4.1-8.1 6.1-12.9 6.1-2.2 0-4.2-.4-6.1-1.2s-3.5-1.9-4.9-3.3-2.5-3.1-3.3-5-1.2-4-1.2-6.3c0-2.2.4-4.3 1.2-6.2s1.9-3.6 3.2-5c1.4-1.4 3-2.5 4.9-3.3s4-1.2 6.2-1.2c5.1 0 9.4 2.1 12.8 6.3zm-66 56.1h14.9v-57.5h-14.9zm-64.3 0 4.9-33.1 12.9 33.1h5.9l13.6-33.1 4.9 33.1h14.9l-9.8-57.4h-14.7l-11.4 30.6-11.5-30.7h-14.8l-9.8 57.4h14.9z"/><path d="m360.7 59v-35.1l27.6 35.1h14.9v-57.4h-14.9v35.1l-27.6-35.1h-14.9v57.4zm-68.7 0v-35.1l27.6 35.1h14.9v-57.4h-14.9v35.1l-27.6-35.1h-14.9v57.4zm-35.1 0h15.9l-21.8-57.4h-16.3l-21.9 57.4h15.9l3.4-10h21.3zm-20.8-21.3 6.7-19.1 6.7 19.1zm-60.9-36.1h-14.9v57.5h14.9v-25l19.4 24.9h19.4l-25-30.2 22.8-27.2h-18.4l-18.2 23.7zm-78.6 0h-14.9v57.5h14.9v-23.7h21.6v23.7h14.9v-57.5h-14.9v22.2h-21.6zm-24.5 1.4c-2.4-1-4.8-1.8-7-2.2s-4.5-.8-6.7-.8c-4 0-7.9.8-11.5 2.2-3.7 1.5-6.9 3.6-9.6 6.2s-5 5.8-6.6 9.5-2.5 7.7-2.5 12.2c0 4.4.8 8.5 2.5 12.2s3.9 7 6.7 9.7 6 4.8 9.6 6.3 7.4 2.2 11.4 2.2c1.9 0 3.9-.2 5.9-.6s4.1-1 6.4-1.8l1.5-.5v-17.5c-3.8 4.1-8.1 6.1-12.9 6.1-2.2 0-4.2-.4-6.1-1.2s-3.5-1.9-4.9-3.4c-1.4-1.4-2.5-3.1-3.3-5s-1.2-4-1.2-6.3c0-2.2.4-4.3 1.2-6.2s1.9-3.6 3.2-5c1.4-1.4 3-2.5 4.9-3.3s4-1.2 6.2-1.2c5.1 0 9.4 2.1 12.8 6.3zm-66.1 56h15v-57.4h-15z"/></g></svg>