<svg enable-background="new 0 0 679.2 172.2" viewBox="0 0 679.2 172.2" xmlns="http://www.w3.org/2000/svg"><g fill="#cd1719"><path d="m471.3 148.7c.5 1.1 1.1 2 1.9 2.9.8.8 1.8 1.5 2.9 1.9 1.1.5 2.2.7 3.5.7s2.4-.2 3.5-.7 2-1.1 2.9-1.9c.8-.8 1.5-1.8 1.9-2.9.5-1.1.7-2.2.7-3.5s-.2-2.4-.7-3.5-1.1-2-1.9-2.9c-.8-.8-1.8-1.5-2.9-1.9-1.1-.5-2.2-.7-3.5-.7s-2.4.2-3.5.7-2 1.1-2.9 1.9c-.8.8-1.5 1.8-1.9 2.9-.5 1.1-.7 2.2-.7 3.5s.2 2.4.7 3.5m4.6-41v-12.6h-39.5v12.6h12.3v44.8h14.9v-44.8zm-56.1 21.3c4.1-1 7.2-2.8 9.3-5.5s3.2-6.3 3.2-10.6c0-2.4-.4-4.7-1.2-6.9-.8-2.1-2-4-3.5-5.6s-3.5-2.9-5.9-3.9c-2.4-.9-5.2-1.4-8.4-1.4h-23.3v57.5h15v-22.1l14.2 22.1h18.6zm-14.8-22.4h2.8c3 0 5.2.6 6.8 1.8s2.4 3 2.4 5.3-.8 4-2.4 5.3c-1.6 1.2-3.8 1.8-6.8 1.8h-2.8zm-23.4-11.5h-32.7v57.5h32.7v-12.6h-17.8v-10h16.8v-12.7h-16.8v-9.6h17.8zm-123.8 0 17.1 57.5h15.2l11.3-33.3 11.3 33.3h15.3l17.1-57.5h-15.6l-9.9 37.1-12.2-37.1h-11.9l-12.2 37.1-9.9-37.1zm-25.7 33.9c4.1-1 7.2-2.8 9.3-5.5s3.2-6.3 3.2-10.6c0-2.4-.4-4.7-1.2-6.9-.8-2.1-2-4-3.5-5.6s-3.5-2.9-5.9-3.9c-2.4-.9-5.2-1.4-8.4-1.4h-23.2v57.5h14.9v-22.1l14.2 22.1h18.6zm-14.8-22.4h2.8c3 0 5.2.6 6.8 1.8s2.4 3 2.4 5.3-.8 4-2.4 5.3c-1.6 1.2-3.8 1.8-6.8 1.8h-2.8zm-42.7 45.9h14.9v-57.4h-14.9zm-64.3 0 5-33.1 12.9 33.1h5.9l13.6-33.1 5 33.1h14.9l-9.8-57.5h-14.8l-11.4 30.6-11.6-30.5h-14.8l-9.8 57.5h14.9zm-31.4-54.4c-2.9-1.5-5.8-2.7-8.9-3.5s-6.1-1.2-8.9-1.2c-3.1 0-5.8.5-8.3 1.4s-4.6 2.2-6.2 3.9-3 3.6-4 5.9-1.4 4.9-1.4 7.7.4 5.2 1.3 7c.9 1.9 2.1 3.4 3.5 4.6s3.1 2.2 4.9 2.9c1.9.7 3.8 1.4 5.7 2 1.6.6 3 1.1 4.1 1.5 1.1.5 2.1 1 2.8 1.5s1.2 1.1 1.5 1.8c.3.6.5 1.4.5 2.2 0 1.4-.6 2.7-1.8 3.8s-3 1.7-5.4 1.7c-2.1 0-4.3-.5-6.5-1.5s-4.4-2.4-6.6-4.4l-6.4 12c6.2 4.3 12.9 6.5 20.2 6.5 3.5 0 6.6-.5 9.4-1.4s5.1-2.3 7-4 3.4-3.7 4.3-6.1 1.5-5 1.5-8c0-4.4-1.1-7.9-3.4-10.6s-5.8-4.9-10.7-6.5c-1.2-.4-2.4-.8-3.7-1.1-1.2-.4-2.4-.8-3.4-1.3s-1.8-1-2.4-1.7-.9-1.5-.9-2.5c0-1.5.6-2.7 1.8-3.6s2.8-1.4 4.7-1.4c1.5 0 3.1.3 4.7 1 1.6.6 3.2 1.6 4.9 2.9zm-46-3h-32.7v57.5h32.7v-12.6h-17.7v-10h16.8v-12.7h-16.8v-9.6h17.8v-12.6z"/><path d="m246.4 66.8v-35.1l27.6 35.1h14.9v-57.4h-14.9v35.1l-27.6-35.1h-14.9v57.5zm-41.5 0h14.9v-57.4h-14.9zm-49.7 0h24c3 0 5.8-.4 8.2-1.1s4.5-1.8 6.2-3.2 3-3.2 4-5.3c.9-2.1 1.4-4.5 1.4-7.2 0-1.7-.2-3.4-.6-4.9s-1.1-2.9-2-4.1-2.2-2.2-3.7-3.1-3.3-1.5-5.5-1.9c2.1-1.3 3.7-2.9 4.8-4.8 1-1.9 1.6-4.3 1.6-7.2 0-4.8-1.4-8.4-4.1-11-2.7-2.5-6.8-3.8-12-3.8h-22.2zm14.9-46h2.7c4.7 0 7 1.9 7 5.6s-2.3 5.6-7 5.6h-2.7zm0 22.2h3.3c3.8 0 6.5.5 8.1 1.5s2.4 2.5 2.4 4.6-.8 3.7-2.4 4.6-4.3 1.5-8.1 1.5h-3.3zm-77-33.6h-14.9v57.5h14.9v-23.8h21.6v23.7h14.9v-57.4h-14.9v22.2h-21.6zm-26 1.3c-2.4-1-4.8-1.8-7-2.2-2.2-.5-4.5-.7-6.7-.7-4 0-7.9.8-11.5 2.2-3.7 1.5-6.9 3.6-9.6 6.2s-5 5.8-6.6 9.5-2.5 7.7-2.5 12.1.8 8.5 2.5 12.2 3.9 7 6.7 9.7 6 4.8 9.6 6.3 7.4 2.2 11.4 2.2c1.9 0 3.9-.2 5.9-.6s4.1-1 6.4-1.8l1.5-.5v-17.4c-3.8 4.1-8.1 6.1-12.9 6.1-2.2 0-4.2-.4-6.1-1.2s-3.5-1.9-4.9-3.4c-1.4-1.4-2.5-3.1-3.3-5s-1.2-4-1.2-6.3c0-2.2.4-4.3 1.2-6.2s1.9-3.6 3.2-5c1.4-1.4 3-2.5 4.9-3.3s4-1.2 6.2-1.2c5.1 0 9.4 2.1 12.8 6.3zm-66.9 56.1h14.9v-57.4h-14.9z"/></g></svg>