<svg xmlns="http://www.w3.org/2000/svg" viewBox="0 0 183 183"><path fill="#C3161C" d="M91.5 182.5c50.3 0 91-40.7 91-91s-40.7-91-91-91-91 40.7-91 91 40.7 91 91 91"/><path fill="#FFF" d="M136.6 111c-1.6 0-2.9 1.3-2.9 2.9 0 1.6 1.3 2.9 2.9 2.9s2.9-1.3 2.9-2.9c0-1.7-1.3-2.9-2.9-2.9m-8.2-9.4h4v-4.1h-13v4.1h4v14.7h4.9v-14.7zm-16.3-4.1h-4.9v18.8h10.7v-4.1H112V97.5zm-16.7 11.8h-4.1l2-6 2.1 6zm1.4 3.7l1.2 3.3h5.2l-7.1-18.8h-5.3l-7.2 18.8h5.2L90 113h6.8zM59.6 97.5h-5.1l5.6 18.8h5l3.7-10.9h.1l3.3 10.9h5l6-18.8h-5.1l-3.5 12.1-3.7-12.1H67l-4 12.1-3.4-12.1zm-8.3 4.1v-4.1H40.6v18.8h10.7v-4.1h-5.8V109H51v-4.1h-5.5v-3.1h5.8zm-24.4 4.2v3.8h4c-.2 2.2-1.8 3.3-3.9 3.3-3.2 0-5-3-5-5.9 0-2.9 1.7-5.9 4.9-5.9 2 0 3.4 1.2 4.1 3l4.6-1.9c-1.6-3.5-4.6-5.3-8.5-5.3-6.1 0-10.2 4-10.2 10.1 0 5.9 4.1 9.9 10 9.9 3.1 0 5.9-1.1 7.8-3.7 1.7-2.3 1.9-4.7 1.9-7.4h-9.7zM164 80.5c-1.6 0-2.9 1.3-2.9 2.9 0 1.6 1.3 2.9 2.9 2.9s2.9-1.3 2.9-2.9c0-1.6-1.3-2.9-2.9-2.9m-8.2-9.3h4v-4.1h-13v4.1h4v14.7h4.9V71.2zm-23.5 3.6l-.1-7.8h-4.9v18.8h4.9v-8.1h.1l6.3 8.1h6.3l-8.1-9.9 7.5-8.9h-6.1l-5.9 7.8zm-11.4-7.7H116v18.8h4.9V67.1zm-15 0H101v18.8h10.7v-4.1h-5.9V67.1zm-9.6 4.1v-4.1H85.5v18.8h4.9v-7.4h5.4v-4.1h-5.4v-3.1h5.9zM61 85.8h4.9V74.3h.1l8.9 11.5h4.9V67.1h-4.9v11.5h-.1l-8.9-11.5H61v18.7zM46.4 71.2c2.9 0 5.3 2.4 5.3 5 0 3.2-2.4 5.6-5.3 5.6s-5.3-2.4-5.3-5.6c0-2.7 2.4-5 5.3-5m0-4.8c-5.4 0-10.4 4-10.4 9.7 0 6.1 4.4 10.4 10.4 10.4s10.4-4.3 10.4-10.4c0-5.7-5-9.7-10.4-9.7m-23.6 8.4l-.1-7.8h-4.9v18.8h4.9v-8.1h.1l6.3 8.1h6.3l-8.1-9.9 7.5-8.9h-6.1l-5.9 7.8z"/><path fill="none" d="M.5.5h182v182H.5z"/></svg>