<?xml version="1.0" encoding="utf-8"?>
<!-- Generator: Adobe Illustrator 23.1.1, SVG Export Plug-In . SVG Version: 6.00 Build 0)  -->
<svg version="1.1" id="Ebene_1" xmlns="http://www.w3.org/2000/svg" xmlns:xlink="http://www.w3.org/1999/xlink" x="0px" y="0px"
	 viewBox="0 0 684.4 403.5" style="enable-background:new 0 0 684.4 403.5;" xml:space="preserve">
<style type="text/css">
	.st0{fill:#CD1719;}
</style>
<g>
	<path class="st0" d="M539,398.1c0.5,1.1,1.1,2,1.9,2.9c0.8,0.8,1.8,1.5,2.9,1.9c1.1,0.5,2.2,0.7,3.5,0.7s2.4-0.2,3.5-0.7
		c1.1-0.5,2-1.1,2.9-1.9c0.8-0.8,1.5-1.8,1.9-2.9c0.5-1.1,0.7-2.2,0.7-3.5s-0.2-2.4-0.7-3.5c-0.5-1.1-1.1-2-1.9-2.9
		c-0.8-0.8-1.8-1.5-2.9-1.9c-1.1-0.5-2.2-0.7-3.5-0.7s-2.4,0.2-3.5,0.7s-2,1.1-2.9,1.9c-0.8,0.8-1.4,1.8-1.9,2.9
		c-0.5,1.1-0.7,2.2-0.7,3.5S538.5,397,539,398.1 M540.6,357.1v-12.6h-39.5v12.6h12.3v44.8h14.9v-44.8H540.6z M495,344.5h-32.7v57.5
		H495v-12.6h-17.8v-9.9H494v-12.6h-16.8v-9.6H495V344.5z M456.5,357.1v-12.6H417v12.6h12.3v44.8h14.9v-44.8H456.5z M374.6,344.5
		h-14.9v57.5h14.9v-23.7h21.6v23.7h14.9v-57.5h-14.9v22.2h-21.6L374.6,344.5L374.6,344.5z M350.1,345.8c-2.4-1-4.8-1.8-7-2.2
		c-2.2-0.5-4.5-0.7-6.7-0.7c-4,0-7.9,0.8-11.5,2.2s-6.9,3.6-9.6,6.2c-2.8,2.7-5,5.8-6.6,9.5s-2.5,7.7-2.5,12.1s0.8,8.5,2.5,12.2
		c1.7,3.7,3.9,7,6.7,9.7c2.8,2.7,6,4.8,9.6,6.3c3.6,1.5,7.4,2.2,11.4,2.2c1.9,0,3.9-0.2,5.9-0.6c2-0.4,4.1-1,6.4-1.8l1.5-0.5v-17.7
		c-3.8,4.1-8.1,6.1-12.9,6.1c-2.2,0-4.2-0.4-6.1-1.2c-1.9-0.8-3.5-1.9-4.9-3.4s-2.5-3.1-3.3-5s-1.2-4-1.2-6.3c0-2.2,0.4-4.3,1.2-6.2
		c0.8-1.9,1.9-3.6,3.2-5s3-2.5,4.9-3.3s4-1.2,6.2-1.2c5.1,0,9.4,2.1,12.8,6.3L350.1,345.8L350.1,345.8z M284,401.9H299v-57.5H284
		V401.9z M245.8,344.5v57.5h32.8v-12.6h-17.9v-44.8L245.8,344.5L245.8,344.5z M237.6,344.5h-32.9v57.5h14.9v-22.5H236v-12.6h-16.4
		v-9.6h18L237.6,344.5L237.6,344.5z M170.3,382.9h8.8c6.5,0,11.4-1.7,14.8-5s5.1-8.1,5.1-14.2c0-6.1-1.7-10.8-5.1-14.2
		c-3.4-3.4-8.4-5-14.8-5h-23.8v57.5h14.9V382.9z M170.3,356.5h5c5.5,0,8.2,2.4,8.2,7.2s-2.7,7.2-8.2,7.2h-5V356.5z M134.9,378.4
		c4.1-1,7.2-2.8,9.3-5.5c2.1-2.7,3.2-6.3,3.2-10.6c0-2.4-0.4-4.7-1.2-6.9c-0.8-2.1-2-4-3.5-5.6c-1.5-1.6-3.5-2.9-5.9-3.9
		c-2.4-0.9-5.2-1.4-8.4-1.4h-23.2v57.5h14.9v-22.1l14.2,22.1h18.6L134.9,378.4z M120.1,356h2.8c2.9,0,5.2,0.6,6.8,1.8s2.4,3,2.4,5.3
		s-0.8,4-2.4,5.3c-1.6,1.2-3.8,1.8-6.8,1.8h-2.8L120.1,356L120.1,356z M96.7,344.5H64v57.5h32.7v-12.6H78.9v-9.9h16.8v-12.6H78.9
		v-9.6h17.8V344.5z M0,344.5l24.1,57.5H36l24.2-57.5H44l-13.9,35l-13.9-35H0z"/>
	<path class="st0" d="M437.9,258.8V292c0,8.9,2.1,15.5,6.2,19.6c4.1,4.1,10.4,6.2,18.9,6.2c8.5,0,14.8-2.1,18.9-6.2
		c4.1-4.1,6.1-10.6,6.1-19.6v-33.3h-14.9V290c0,1.7-0.1,3.4-0.2,5.1c-0.1,1.8-0.5,3.3-1.2,4.8s-1.7,2.6-3,3.5
		c-1.3,0.9-3.3,1.3-5.8,1.3s-4.4-0.4-5.8-1.3c-1.4-0.9-2.4-2-3-3.5c-0.6-1.4-1-3-1.1-4.8c-0.1-1.8-0.2-3.5-0.2-5.1v-31.2H437.9z
		 M433.1,258.8h-47.5v12.6h22.6L381,316.2h49.1v-12.6H406L433.1,258.8z M364.1,316.2H380l-21.9-57.5h-16.3L320,316.2h15.9l3.4-10
		h21.3L364.1,316.2z M343.3,294.9l6.7-19.1l6.7,19.1H343.3z M271.9,316.2H294c4,0,7.7-0.8,11.1-2.4c3.4-1.6,6.4-3.7,9-6.3
		c2.6-2.6,4.6-5.7,6-9.2c1.5-3.5,2.2-7.1,2.2-10.9c0-3.8-0.7-7.5-2.2-10.9c-1.5-3.5-3.5-6.5-6.1-9.1c-2.6-2.6-5.6-4.7-9-6.3
		c-3.4-1.6-7.1-2.4-11-2.4h-22.1V316.2z M286.8,271.4h3.4c2.5,0,4.8,0.4,6.9,1.2c2,0.8,3.7,1.9,5.1,3.4c1.4,1.4,2.5,3.1,3.2,5.1
		c0.8,2,1.1,4.1,1.1,6.4c0,2.3-0.4,4.5-1.1,6.4c-0.7,2-1.8,3.6-3.2,5.1c-1.4,1.4-3.1,2.5-5.1,3.4c-2,0.8-4.3,1.2-6.9,1.2h-3.4
		L286.8,271.4L286.8,271.4z M248.6,271.4v-12.6h-39.5v12.6h12.3v44.8h14.9v-44.8H248.6z M166.8,258.8h-14.9v57.5h14.9v-23.7h21.6
		v23.7h14.9v-57.5h-14.9v22.2h-21.6V258.8z M142.2,260.1c-2.4-1-4.8-1.8-7-2.2s-4.5-0.7-6.7-0.7c-4,0-7.9,0.8-11.5,2.2
		c-3.7,1.5-6.9,3.6-9.6,6.2s-5,5.8-6.6,9.5c-1.6,3.7-2.5,7.7-2.5,12.1s0.8,8.5,2.5,12.2c1.7,3.7,3.9,7,6.7,9.7s6,4.8,9.6,6.3
		c3.6,1.5,7.4,2.2,11.4,2.2c1.9,0,3.9-0.2,5.9-0.6c2-0.4,4.1-1,6.4-1.8l1.5-0.5v-17.7c-3.8,4.1-8.1,6.1-12.9,6.1
		c-2.2,0-4.2-0.4-6.1-1.2c-1.9-0.8-3.5-1.9-4.9-3.4c-1.4-1.4-2.5-3.1-3.3-5s-1.2-4-1.2-6.3c0-2.2,0.4-4.3,1.2-6.2s1.9-3.6,3.2-5
		c1.4-1.4,3-2.5,4.9-3.3c1.9-0.8,4-1.2,6.2-1.2c5.1,0,9.4,2.1,12.8,6.3V260.1z M74.7,316.2h14.9v-57.5H74.7V316.2z M21,316.2v-35.1
		l27.6,35.1h14.9v-57.5H48.5v35.1L21,258.7H6v57.5H21z"/>
	<path class="st0" d="M341.3,206.9c4.1-1,7.2-2.8,9.3-5.5c2.1-2.7,3.2-6.3,3.2-10.6c0-2.4-0.4-4.7-1.2-6.9c-0.8-2.1-2-4-3.5-5.6
		c-1.5-1.6-3.5-2.9-5.9-3.9c-2.4-0.9-5.2-1.4-8.4-1.4h-23.2v57.5h14.9v-22.1l14.2,22.1h18.6L341.3,206.9z M326.5,184.5h2.8
		c3,0,5.2,0.6,6.8,1.8s2.4,3,2.4,5.3s-0.8,4-2.4,5.3c-1.6,1.2-3.8,1.8-6.8,1.8h-2.8V184.5z M301.6,173h-32.7v57.5h32.7v-12.6h-17.8
		v-9.9h16.8v-12.6h-16.8v-9.6h17.8V173z M220,230.5h24c3,0,5.8-0.4,8.2-1.1c2.4-0.7,4.5-1.8,6.2-3.2c1.7-1.4,3-3.2,4-5.3
		c0.9-2.1,1.4-4.5,1.4-7.2c0-1.7-0.2-3.4-0.6-4.9c-0.4-1.5-1.1-2.9-2-4.1s-2.2-2.2-3.7-3.1s-3.3-1.5-5.5-1.9
		c2.1-1.3,3.7-2.9,4.8-4.8c1-1.9,1.6-4.3,1.6-7.2c0-4.8-1.4-8.4-4.1-11s-6.8-3.8-12-3.8H220V230.5z M234.9,184.5h2.7
		c4.7,0,7,1.9,7,5.6c0,3.7-2.3,5.6-7,5.6h-2.7V184.5z M234.9,206.7h3.3c3.8,0,6.5,0.5,8.1,1.5c1.6,1,2.4,2.5,2.4,4.6
		c0,2.1-0.8,3.7-2.4,4.6s-4.3,1.5-8.1,1.5h-3.3V206.7z M199.8,230.5h15.9L193.9,173h-16.3l-21.9,57.5h15.9l3.4-10h21.3L199.8,230.5z
		 M179,209.1l6.7-19.1l6.7,19.1H179z M96.1,230.5v-35.1l27.6,35.1h14.9V173h-14.9v35.1L96.1,173H81.1v57.5H96.1z M56.5,230.5h14.9
		V173H56.5L56.5,230.5L56.5,230.5z M6,230.5h24c3.1,0,5.8-0.4,8.2-1.1c2.4-0.7,4.5-1.8,6.2-3.2c1.7-1.4,3-3.2,4-5.3
		c0.9-2.1,1.4-4.5,1.4-7.2c0-1.7-0.2-3.4-0.6-4.9c-0.4-1.5-1.1-2.9-2-4.1s-2.2-2.2-3.7-3.1s-3.3-1.5-5.4-1.9
		c2.1-1.3,3.7-2.9,4.8-4.8c1-1.9,1.6-4.3,1.6-7.2c0-4.8-1.4-8.4-4.1-11s-6.8-3.8-12-3.8H6L6,230.5L6,230.5z M21,184.5h2.7
		c4.7,0,7,1.9,7,5.6c0,3.7-2.3,5.6-7,5.6H21V184.5z M21,206.7h3.3c3.8,0,6.4,0.5,8.1,1.5c1.6,1,2.4,2.5,2.4,4.6
		c0,2.1-0.8,3.7-2.4,4.6s-4.3,1.5-8.1,1.5H21V206.7z"/>
	<path class="st0" d="M561.2,155.4h8.8l14-25.2h-13L561.2,155.4z M516.2,144.8v-35.1l27.6,35.1h14.9V87.3h-14.9v35.1l-27.6-35.1
		h-14.9v57.4H516.2z M479.3,121.2c4.1-1,7.2-2.8,9.3-5.5c2.1-2.7,3.2-6.3,3.2-10.6c0-2.4-0.4-4.7-1.2-6.9c-0.8-2.1-2-4-3.5-5.6
		c-1.5-1.6-3.5-2.9-5.9-3.9c-2.4-0.9-5.2-1.4-8.4-1.4h-23.2v57.4h14.9v-22.1l14.2,22.1h18.6L479.3,121.2z M464.5,98.8h2.8
		c3,0,5.2,0.6,6.8,1.8s2.4,3,2.4,5.3s-0.8,4-2.4,5.3c-1.6,1.2-3.8,1.8-6.8,1.8h-2.8V98.8z M439.6,87.3h-32.7v57.4h32.7v-12.6h-17.8
		v-9.9h16.8v-12.6h-16.8V100h17.8V87.3z M370.1,124.2h12.3c-0.3,1.7-0.7,3.1-1.5,4.3c-0.7,1.2-1.6,2.1-2.7,2.9
		c-1.1,0.7-2.3,1.3-3.7,1.6c-1.4,0.3-2.8,0.5-4.3,0.5c-2.5,0-4.7-0.4-6.5-1.3c-1.9-0.8-3.5-2-4.7-3.5c-1.3-1.5-2.2-3.3-2.9-5.4
		c-0.6-2.1-1-4.3-1-6.8c0-2.7,0.4-5.1,1.1-7.3c0.7-2.2,1.8-4.1,3-5.6s2.9-2.7,4.7-3.6c1.8-0.8,3.9-1.3,6.1-1.3
		c2.7,0,5.1,0.7,7.2,2.1c2.1,1.4,3.8,3.6,5.1,6.8l14.2-5.9c-2.6-5.4-6.2-9.4-10.7-12c-4.5-2.6-9.8-3.9-15.8-3.9
		c-4.6,0-8.8,0.7-12.6,2.2s-7,3.5-9.6,6.2s-4.7,5.8-6.2,9.6s-2.2,7.8-2.2,12.3c0,4.5,0.7,8.6,2.2,12.4c1.5,3.7,3.5,6.9,6.2,9.6
		s5.8,4.7,9.5,6.2c3.7,1.5,7.8,2.2,12.2,2.2c3.2,0,6.4-0.4,9.3-1.2c3-0.8,5.7-2,8.1-3.5c2.5-1.6,4.6-3.5,6.4-5.8s3.3-5,4.3-8
		c0.8-2.1,1.3-4.4,1.5-6.9c0.2-2.5,0.4-5.3,0.4-8.3h-29.6L370.1,124.2L370.1,124.2z M320.8,121.2c4.1-1,7.2-2.8,9.3-5.5
		c2.1-2.7,3.2-6.3,3.2-10.6c0-2.4-0.4-4.7-1.2-6.9c-0.8-2.1-2-4-3.5-5.6c-1.5-1.6-3.5-2.9-5.9-3.9c-2.4-0.9-5.2-1.4-8.4-1.4h-23.2
		v57.4h14.9v-22.1l14.2,22.1h18.6L320.8,121.2z M306.1,98.8h2.8c3,0,5.2,0.6,6.8,1.8s2.4,3,2.4,5.3s-0.8,4-2.4,5.3
		c-1.6,1.2-3.8,1.8-6.8,1.8h-2.8V98.8z M241.1,79.6c1.4,1.5,3.2,2.2,5.4,2.2c1,0,1.9-0.2,2.8-0.6c0.9-0.4,1.7-0.9,2.4-1.6
		c0.7-0.7,1.2-1.5,1.6-2.4s0.6-1.9,0.6-2.9c0-1-0.2-2-0.6-2.9c-0.4-0.9-1-1.7-1.6-2.4s-1.5-1.2-2.4-1.6c-0.9-0.4-1.8-0.6-2.9-0.6
		s-2,0.2-2.9,0.6c-0.9,0.4-1.7,0.9-2.4,1.6s-1.2,1.5-1.6,2.4s-0.6,1.8-0.6,2.8C238.9,76.4,239.6,78.2,241.1,79.6 M261.8,79.7
		c1.4,1.4,3.2,2.2,5.3,2.2c2.1,0,3.9-0.7,5.3-2.1c1.5-1.4,2.2-3.2,2.2-5.3c0-1-0.2-2-0.6-2.9c-0.4-0.9-1-1.7-1.6-2.4
		s-1.5-1.2-2.4-1.6c-0.9-0.4-1.8-0.6-2.9-0.6s-2,0.2-2.9,0.6c-0.9,0.4-1.7,0.9-2.4,1.6c-0.7,0.7-1.2,1.5-1.6,2.4s-0.6,1.8-0.6,2.8
		C259.7,76.4,260.4,78.2,261.8,79.7 M270.9,144.8h15.9l-21.9-57.4h-16.3l-21.9,57.4h15.9l3.4-10h21.3L270.9,144.8z M250.1,123.4
		l6.7-19.1l6.7,19.1H250.1z M173.2,87.3h-14.9v57.4h14.9v-23.7h21.6v23.7h14.9V87.3h-14.9v22.2h-21.6V87.3z M148.6,88.7
		c-2.4-1-4.8-1.8-7-2.2c-2.2-0.5-4.5-0.7-6.7-0.7c-4,0-7.9,0.8-11.5,2.2c-3.7,1.5-6.9,3.6-9.6,6.2s-5,5.8-6.6,9.5
		c-1.6,3.7-2.5,7.7-2.5,12.1s0.8,8.5,2.5,12.2c1.7,3.7,3.9,7,6.7,9.7c2.8,2.7,6,4.8,9.6,6.3c3.6,1.5,7.4,2.2,11.4,2.2
		c1.9,0,3.9-0.2,5.9-0.6c2-0.4,4.1-1,6.4-1.8l1.5-0.5v-17.7c-3.8,4.1-8.1,6.1-12.9,6.1c-2.2,0-4.2-0.4-6.1-1.2s-3.5-1.9-4.9-3.3
		c-1.4-1.4-2.5-3.1-3.3-5s-1.2-4-1.2-6.3c0-2.2,0.4-4.3,1.2-6.2s1.9-3.6,3.2-5c1.4-1.4,3-2.5,4.9-3.3c1.9-0.8,4-1.2,6.2-1.2
		c5.1,0,9.4,2.1,12.8,6.3L148.6,88.7L148.6,88.7z M82.6,144.8h14.9V87.3H82.6L82.6,144.8L82.6,144.8z M18.3,144.8l4.9-33.1
		l12.9,33.1h5.9l13.6-33.1l4.9,33.1h14.9l-9.8-57.4H50.9L39.5,118L28,87.3H13.2l-9.8,57.4H18.3z"/>
	<path class="st0" d="M360.7,59V23.9L388.3,59h14.9V1.6h-14.9v35.1L360.7,1.6h-14.9v57.4L360.7,59L360.7,59z M292,59V23.9L319.6,59
		h14.9V1.6h-14.9v35.1L292,1.6h-14.9v57.4L292,59L292,59z M256.9,59h15.9L251,1.6h-16.3L212.8,59h15.9l3.4-10h21.3L256.9,59z
		 M236.1,37.7l6.7-19.1l6.7,19.1H236.1z M175.2,1.6h-14.9v57.5h14.9V34.1l19.4,24.9H214L189,28.8l22.8-27.2h-18.4l-18.2,23.7
		L175.2,1.6L175.2,1.6z M96.6,1.6H81.7v57.5h14.9V35.4h21.6v23.7h14.9V1.6h-14.9v22.2H96.6L96.6,1.6L96.6,1.6z M72.1,3
		c-2.4-1-4.8-1.8-7-2.2S60.6,0,58.4,0c-4,0-7.9,0.8-11.5,2.2c-3.7,1.5-6.9,3.6-9.6,6.2s-5,5.8-6.6,9.5c-1.6,3.7-2.5,7.7-2.5,12.2
		c0,4.4,0.8,8.5,2.5,12.2c1.7,3.7,3.9,7,6.7,9.7c2.8,2.7,6,4.8,9.6,6.3c3.6,1.5,7.4,2.2,11.4,2.2c1.9,0,3.9-0.2,5.9-0.6
		s4.1-1,6.4-1.8l1.5-0.5V40.1c-3.8,4.1-8.1,6.1-12.9,6.1c-2.2,0-4.2-0.4-6.1-1.2s-3.5-1.9-4.9-3.4c-1.4-1.4-2.5-3.1-3.3-5
		s-1.2-4-1.2-6.3c0-2.2,0.4-4.3,1.2-6.2s1.9-3.6,3.2-5c1.4-1.4,3-2.5,4.9-3.3c1.9-0.8,4-1.2,6.2-1.2c5.1,0,9.4,2.1,12.8,6.3L72.1,3
		L72.1,3z M6,59H21V1.6H6L6,59L6,59z"/>
</g>
</svg>
