<?xml version="1.0" encoding="iso-8859-1"?>
<!-- Generator: Adobe Illustrator 24.0.3, SVG Export Plug-In . SVG Version: 6.00 Build 0)  -->
<svg version="1.1" id="Ebene_1" xmlns="http://www.w3.org/2000/svg" xmlns:xlink="http://www.w3.org/1999/xlink" x="0px" y="0px"
	 width="841.8900146px" height="530.6400146px" viewBox="0 0 841.8900146 530.6400146"
	 enable-background="new 0 0 841.8900146 530.6400146" xml:space="preserve">
<g>
	<path fill="#CD1719" d="M538.9800415,419.23526c0.4599609,1.0899963,1.0900269,2.0400085,1.8999634,2.8599854
		c0.8099976,0.8099976,1.7700195,1.4500122,2.8599854,1.8999939c1.0900269,0.4599915,2.25,0.6900024,3.4700317,0.6900024
		c1.2199097,0,2.3699951-0.230011,3.4699097-0.6900024c1.0900269-0.4599915,2.0400391-1.0899963,2.8600464-1.8999939
		c0.8099976-0.8099976,1.4500122-1.7600098,1.9099731-2.8599854c0.4599609-1.0899963,0.6899414-2.25,0.6899414-3.4700012
		s-0.2299805-2.3699951-0.6899414-3.4700012c-0.460083-1.0899963-1.0900269-2.0400085-1.9099731-2.8599854
		c-0.8100586-0.8099976-1.7700195-1.4500122-2.8600464-1.8999939c-1.0900269-0.4599915-2.25-0.6900024-3.4699097-0.6900024
		c-1.2200317,0-2.3800049,0.230011-3.4700317,0.6900024s-2.039917,1.0899963-2.8599854,1.8999939
		c-0.8099365,0.8099976-1.4499512,1.769989-1.8999634,2.8599854c-0.460083,1.0899963-0.6799927,2.25-0.6799927,3.4700012
		S538.5199585,418.1352539,538.9800415,419.23526 M540.5800171,378.275238v-12.6499939h-39.4700012v12.6499939h12.269989v44.7999878
		h14.9299927V378.275238H540.5800171z M495.019989,365.6352539h-32.6900024v57.4500122h32.6900024v-12.6499939h-17.75v-9.8999939
		h16.7600098v-12.6499939H477.269989v-9.6000061h17.75V365.6352539z M456.4599915,378.275238v-12.6499939h-39.4599609v12.6499939
		H429.27005v44.7999878h14.9299927V378.275238H456.4599915z M374.6400146,365.6352539h-14.9400024v57.4500122h14.9299927
		v-23.7000122h21.5600281v23.7000122h14.9299927v-57.4500122h-14.9200439v22.1700134h-21.5599976v-22.1700134H374.6400146z
		 M350.1000061,367.005249c-2.4400024-1.019989-4.7600098-1.7600098-6.9700012-2.25
		c-2.2099915-0.480011-4.4599915-0.7200012-6.7399902-0.7200012c-4.0100098,0-7.8500061,0.75-11.5100098,2.25
		s-6.8699951,3.5799866-9.6400146,6.25c-2.769989,2.6700134-4.980011,5.8399963-6.6300049,9.519989
		s-2.480011,7.730011-2.480011,12.1499939s0.8399963,8.4899902,2.5100098,12.230011
		c1.6799927,3.730011,3.8999939,6.9599915,6.6700134,9.6799927c2.769989,2.7200012,5.9700012,4.8299866,9.6000061,6.3200073
		c3.6300049,1.5,7.4299927,2.25,11.3900146,2.25c1.9299927,0,3.8900146-0.1900024,5.8699951-0.5700073
		c1.980011-0.3800049,4.1099854-0.980011,6.3999939-1.7900085l1.519989-0.5299988v-17.6799927
		c-3.8099976,4.0599976-8.1000061,6.1000061-12.8800049,6.1000061c-2.1799927,0-4.2200012-0.4100037-6.0899963-1.2200012
		c-1.8800049-0.8099976-3.519989-1.9299927-4.9200134-3.3500061s-2.4899902-3.1000061-3.2799988-5.0299988
		s-1.1799927-4.0400085-1.1799927-6.3200073c0-2.230011,0.3900146-4.3200073,1.1799927-6.25
		c0.7900085-1.9299927,1.8699951-3.5899963,3.2399902-4.9899902s3.0100098-2.5,4.9100037-3.3099976
		s3.9700012-1.2200012,6.2099915-1.2200012c5.0799866,0,9.3500061,2.1099854,12.7999878,6.3200073V367.005249H350.1000061z
		 M284.0400085,423.0752563h14.9299927v-57.4500122h-14.9299927V423.0752563z M245.8000183,365.6352539v57.4500122h32.8399963
		v-12.6499939H260.730011v-44.7999878h-14.9299927V365.6352539z M237.6400146,365.6352539h-32.9200134v57.4500122h14.9299927
		v-22.5499878h16.3800049v-12.6499939h-16.3800049v-9.6000061h17.980011v-12.6500244H237.6400146z M170.2900085,404.0352478
		h8.8399963c6.4500122,0,11.3900146-1.6799927,14.8200073-5.0299988s5.1400146-8.0799866,5.1400146-14.1700134
		c0-6.1000061-1.7099915-10.8200073-5.1400146-14.1700134c-3.4299927-3.3500061-8.3699951-5.0299988-14.8200073-5.0299988
		h-23.769989v57.4500122h14.9299927V404.0352478z M170.2900085,377.6652527h4.9500122
		c5.4899902,0,8.230011,2.3900146,8.230011,7.1600037s-2.7399902,7.1600037-8.230011,7.1600037h-4.9500122V377.6652527z
		 M134.8600159,399.5352478c4.1099854-0.9599915,7.2200012-2.8099976,9.3299866-5.519989
		c2.1099854-2.7200012,3.1600037-6.2600098,3.1600037-10.6300049c0-2.4400024-0.3900146-4.7200012-1.1799927-6.8599854
		c-0.7900085-2.1300049-1.9599915-4.0100098-3.5100098-5.6400146c-1.5499878-1.6199951-3.519989-2.9100037-5.8999939-3.8500061
		c-2.3900146-0.9400024-5.1799927-1.4100037-8.3800049-1.4100037h-23.2400055v57.4500122h14.9300079v-22.1000061l14.25,22.1000061
		h18.5899963L134.8600159,399.5352478z M120.0800018,377.1352539h2.8200073c2.9499969,0,5.2100067,0.6099854,6.780014,1.8299866
		s2.3599854,2.9700012,2.3599854,5.2600098s-0.7900085,4.0400085-2.3599854,5.2600098
		c-1.5799866,1.2200012-3.8399963,1.8299866-6.7799988,1.8299866h-2.8200073v-14.1799927H120.0800018z M96.6900024,365.6352539H64
		v57.4500122h32.6900024v-12.6499939h-17.75v-9.8999939h16.7599945v-12.6499939H78.9400024v-9.6000061h17.75V365.6352539z
		 M0,365.6352539l24.1499939,57.4500122h11.8899994l24.2299957-57.4500122H44.0399933l-13.9399872,34.9700012L16.230011,365.6352539
		H0z"/>
	<path fill="#CD1719" d="M437.9499817,279.9152527v33.2999878c0,8.9400024,2.0599976,15.4700012,6.1699829,19.5799866
		c4.1099854,4.1199951,10.4099731,6.1700134,18.9000244,6.1700134c8.4799805,0,14.7700195-2.0599976,18.8599854-6.1700134
		c4.0900269-4.1099854,6.1300049-10.6400146,6.1300049-19.5799866v-33.2999878h-14.8599854v31.2399902
		c0,1.6799927-0.0700073,3.3900146-0.1900024,5.1400146c-0.1300049,1.75-0.5200195,3.3399963-1.1799927,4.7600098
		s-1.6599731,2.5799866-3.0100098,3.4700012c-1.3499756,0.8900146-3.2600098,1.3299866-5.75,1.3299866
		s-4.4199829-0.4400024-5.789978-1.3299866c-1.3699951-0.8900146-2.3800049-2.0400085-3.0100098-3.4700012
		c-0.6400146-1.4200134-1.0200195-3.0100098-1.1400146-4.7600098c-0.1300049-1.75-0.1900024-3.4700012-0.1900024-5.1400146
		v-31.2399902H437.9499817z M433.0699768,279.9152527h-47.539978v12.6499939h22.6300049l-27.2000122,44.7999878h49.1400146
		v-12.6499939H406.019989L433.0699768,279.9152527z M364.1199951,337.3652344h15.9200134l-21.8699951-57.4500122h-16.3099976
		l-21.8699951,57.4500122h15.9200134l3.4299927-9.980011h21.3299866L364.1199951,337.3652344z M343.3200073,316.025238
		l6.7099915-19.1199951l6.7000122,19.1199951H343.3200073z M271.8500061,337.3652344h22.1000061
		c3.9599915,0,7.6600037-0.7900085,11.0899963-2.3599854c3.4299927-1.5700073,6.4200134-3.6799927,8.9899902-6.3200073
		c2.5599976-2.6400146,4.5700073-5.7000122,6.019989-9.1799927c1.4500122-3.480011,2.1700134-7.1000061,2.1700134-10.8599854
		c0-3.8099976-0.7399902-7.4500122-2.2099915-10.9299927c-1.4700012-3.480011-3.4899902-6.5299988-6.0599976-9.1400146
		c-2.5700073-2.6199951-5.5599976-4.7099915-8.9899902-6.2900085c-3.4299927-1.5700073-7.1000061-2.3599854-11.0100098-2.3599854
		h-22.1000061V337.3652344z M286.7900085,292.5652466h3.4299927c2.5400085,0,4.8200073,0.4100037,6.8599854,1.2200012
		c2.0299988,0.8099976,3.7399902,1.9299927,5.1400146,3.3500061c1.3999939,1.4200134,2.480011,3.1199951,3.2399902,5.1000061
		c0.7600098,1.980011,1.1400146,4.1199951,1.1400146,6.3999939c0,2.3399963-0.3699951,4.480011-1.1000061,6.4400024
		c-0.7399902,1.9599915-1.7999878,3.6400146-3.2000122,5.0700073c-1.3999939,1.4200134-3.1099854,2.5400085-5.1400146,3.3500061
		c-2.0299988,0.8099976-4.3399963,1.2200012-6.9299927,1.2200012h-3.4299927v-32.1500244H286.7900085z M248.6199951,292.5652466
		v-12.6499939h-39.4700012v12.6499939h12.269989v44.7999878h14.9299927v-44.7999878H248.6199951z M166.7900085,279.9152527
		h-14.9299927v57.4500122h14.9299927v-23.7000122h21.5599976v23.7000122h14.9299927v-57.4500122h-14.9299927v22.1700134h-21.5599976
		V279.9152527z M142.25,281.2852478c-2.4400024-1.019989-4.7600098-1.769989-6.9700012-2.25
		s-4.4599915-0.7200012-6.7399902-0.7200012c-4.0099945,0-7.8500061,0.75-11.5,2.25
		c-3.6600037,1.5-6.8699951,3.5799866-9.6399994,6.25s-4.9799957,5.8399963-6.6300049,9.519989
		c-1.6499939,3.6799927-2.4799957,7.730011-2.4799957,12.1499939s0.8399963,8.5,2.5099945,12.230011
		c1.6799927,3.730011,3.8999939,6.9599915,6.6699982,9.6799927s5.9700012,4.8299866,9.6000061,6.3200073
		c3.6300049,1.5,7.4299927,2.25,11.3900146,2.25c1.9299927,0,3.8900146-0.1900024,5.8699951-0.5700073
		c1.980011-0.3800049,4.1099854-0.980011,6.3999939-1.7900085l1.519989-0.5299988v-17.6799927
		c-3.8099976,4.0700073-8.1000061,6.1000061-12.8800049,6.1000061c-2.1799927,0-4.2200012-0.4100037-6.0899963-1.2200012
		c-1.8800049-0.8099976-3.5200043-1.9299927-4.9100037-3.3500061c-1.3999939-1.4200134-2.4900055-3.1000061-3.2799988-5.0299988
		s-1.1799927-4.0400085-1.1799927-6.3200073c0-2.230011,0.3899994-4.3200073,1.1799927-6.25
		s1.8699951-3.5899963,3.2400055-4.9899902c1.3699951-1.3999939,3.0099945-2.5,4.9100037-3.3099976
		c1.8999939-0.8099976,3.969986-1.2200012,6.2100067-1.2200012c5.0799866,0,9.3500061,2.1099854,12.7999878,6.3200073V281.2852478z
		 M74.6700134,337.3652344h14.9299927v-57.4500122H74.6700134V337.3652344z M20.9600067,337.3652344v-35.1199951
		l27.5800018,35.1199951h14.8600006v-57.4500122H48.5400085v35.1199951l-27.5800018-35.1199951H6.0299988v57.4500122H20.9600067z"/>
	<path fill="#CD1719" d="M341.2900085,228.1052551c4.1099854-0.9599915,7.230011-2.8099976,9.3299866-5.519989
		c2.1099854-2.7200012,3.1600037-6.2600098,3.1600037-10.6300049c0-2.4400024-0.3900146-4.7200012-1.1799927-6.8599854
		c-0.7900085-2.1300049-1.9599915-4.0100098-3.5100098-5.6400146c-1.5499878-1.6199951-3.519989-2.9100037-5.8999939-3.8500061
		c-2.3900146-0.9400024-5.1799927-1.4100037-8.3800049-1.4100037h-23.2399902v57.4500122H326.5v-22.1000061l14.25,22.1000061
		h18.5899963L341.2900085,228.1052551z M326.5100098,205.7052612h2.8200073c2.9500122,0,5.2099915,0.6099854,6.7799988,1.8299866
		s2.3599854,2.9700012,2.3599854,5.2600098s-0.7900085,4.0400085-2.3599854,5.2600098
		c-1.5799866,1.2200012-3.8399963,1.8299866-6.7799988,1.8299866h-2.8200073V205.7052612z M301.6000061,194.1952515h-32.6900024
		v57.4500122h32.6900024v-12.6499939h-17.75v-9.8999939h16.7600098V216.445282h-16.7600098v-9.6000061h17.75V194.1952515z
		 M220,251.6452332h24c3.0499878,0,5.7900085-0.3500061,8.230011-1.0700073
		c2.4400024-0.7099915,4.5100098-1.7799988,6.2099915-3.2000122c1.7000122-1.4200134,3.019989-3.1700134,3.9599915-5.2600098
		c0.9400024-2.0799866,1.4100037-4.4700012,1.4100037-7.1600037c0-1.730011-0.2000122-3.3500061-0.6099854-4.8800049
		c-0.4100037-1.519989-1.0799866-2.8999939-2.019989-4.1199951s-2.1600037-2.25-3.6600037-3.0899963
		s-3.3099976-1.4599915-5.4500122-1.8699951c2.1300049-1.3200073,3.7200012-2.9299927,4.7600098-4.8399963
		c1.0400085-1.8999939,1.5599976-4.3099976,1.5599976-7.2000122c0-4.769989-1.3699951-8.4299927-4.1099854-10.9700012
		s-6.7600098-3.8099976-12.0400085-3.8099976H220V251.6452332z M234.9299927,205.6252441h2.7399902
		c4.6700134,0,7.0100098,1.8599854,7.0100098,5.5599976c0,3.7099915-2.3399963,5.5599976-7.0100098,5.5599976h-2.7399902
		V205.6252441z M234.9299927,227.8752441h3.2799988c3.7600098,0,6.4500122,0.480011,8.0799866,1.4500122
		c1.6199951,0.9599915,2.4400024,2.5100098,2.4400024,4.6499939c0,2.1300049-0.8099976,3.6799927-2.4400024,4.6499939
		s-4.3200073,1.4500122-8.0799866,1.4500122h-3.2799988V227.8752441z M199.8099976,251.6452332h15.9200134l-21.8699951-57.4500122
		h-16.2999878l-21.8699951,57.4500122h15.9200134l3.4299927-9.980011h21.3299866L199.8099976,251.6452332z M179.0100098,230.3152466
		l6.7099915-19.1199951l6.7000122,19.1199951H179.0100098z M96.0800018,251.6452332V216.525238l27.5800018,35.1199951h14.8599854
		v-57.4500122h-14.8600006v35.1199951l-27.5800018-35.1199951H81.1499939v57.4500122H96.0800018z M56.4600067,251.6452332
		h14.9300079v-57.4500122H56.460022v57.4500122H56.4600067z M6.0200043,251.6452332h24
		c3.0500031,0,5.7899933-0.3500061,8.2299957-1.0700073c2.4400024-0.7099915,4.5099945-1.7799988,6.2100067-3.2000122
		c1.6999969-1.4200134,3.0200043-3.1700134,3.9600067-5.2600098c0.9400024-2.0799866,1.4100037-4.4700012,1.4100037-7.1600037
		c0-1.730011-0.1999969-3.3500061-0.6100006-4.8800049c-0.4100037-1.519989-1.0800018-2.8999939-2.0200043-4.1199951
		s-2.1600037-2.25-3.6600037-3.0899963s-3.3099976-1.4599915-5.4499969-1.8699951
		c2.1300049-1.3200073,3.7200012-2.9299927,4.7599945-4.8399963c1.0399933-1.8999939,1.5599976-4.3099976,1.5599976-7.2000122
		c0-4.769989-1.3699951-8.4299927-4.1100006-10.9700012s-6.7599945-3.8099976-12.0399933-3.8099976h-22.25v57.4700317H6.0200043z
		 M20.9600067,205.6252441h2.7400055c4.6699982,0,7.0099945,1.8599854,7.0099945,5.5599976
		c0,3.7099915-2.3399963,5.5599976-7.0099945,5.5599976h-2.7400055V205.6252441z M20.9600067,227.8752441h3.2799988
		c3.7599945,0,6.4499969,0.480011,8.0800018,1.4500122c1.6199951,0.9599915,2.4400024,2.5100098,2.4400024,4.6499939
		c0,2.1300049-0.8099976,3.6799927-2.4400024,4.6499939S28,240.0752563,24.2400055,240.0752563h-3.2799988V227.8752441z"/>
	<path fill="#CD1719" d="M561.2300415,176.5952454h8.8400269l14.0200195-25.2200012h-12.9500122L561.2300415,176.5952454z
		 M516.1999512,165.9352417v-35.1199951l27.5800781,35.1199951h14.8599854v-57.4499969h-14.8599854v35.1199951
		l-27.5800781-35.1199951H501.269989v57.4499969H516.1999512z M479.2500305,142.3852539
		c4.1099854-0.9600067,7.2199707-2.8099976,9.3300171-5.5200043c2.1099854-2.7200012,3.1599731-6.2599945,3.1599731-10.6300049
		c0-2.4400024-0.3900146-4.7200012-1.1799927-6.8600006c-0.789978-2.1300049-1.960022-4.0099945-3.5100098-5.6399994
		c-1.5499878-1.6199951-3.5200195-2.9100037-5.9000244-3.8500061c-2.3900146-0.9400024-5.1799927-1.4100037-8.3800049-1.4100037
		h-23.2399902v57.4499969h14.9299927v-22.1000061l14.25,22.1000061h18.5900269L479.2500305,142.3852539z M464.4700012,119.9852448
		h2.8200073c2.9500122,0,5.210022,0.6100006,6.7800293,1.8300018s2.3599854,2.9700012,2.3599854,5.2599945
		s-0.789978,4.0399933-2.3599854,5.2599945c-1.5800171,1.2200012-3.8400269,1.8300018-6.7800293,1.8300018h-2.8200073V119.9852448z
		 M439.5500183,108.4852448h-32.6900024v57.4499969h32.6900024v-12.6499939h-17.75v-9.8999939h16.7600098V130.73526h-16.7600098
		v-9.6000061h17.75V108.4852448z M370.0599976,145.3552551h12.269989c-0.2600098,1.6799927-0.7399902,3.1000061-1.4500122,4.2700043
		c-0.7099915,1.1699982-1.6099854,2.1199951-2.7000122,2.8600006c-1.0899963,0.7400055-2.3200073,1.2700043-3.7000122,1.6000061
		c-1.3699951,0.3300018-2.7900085,0.4900055-4.269989,0.4900055c-2.4899902,0-4.6700134-0.4199982-6.5499878-1.2599945
		c-1.8800049-0.8399963-3.4500122-2.0200043-4.7200012-3.5399933c-1.269989-1.5200043-2.2200012-3.3300018-2.8599854-5.4100037
		c-0.6400146-2.0800018-0.9500122-4.3399963-0.9500122-6.7799988c0-2.6900024,0.3699951-5.1300049,1.1099854-7.3200073
		c0.7399902-2.1799927,1.75-4.0500031,3.0499878-5.6000061s2.8599854-2.7400055,4.6900024-3.5800018
		c1.8299866-0.8399963,3.8599854-1.2599945,6.1000061-1.2599945c2.6900024,0,5.0899963,0.6900024,7.2000122,2.0599976
		c2.1099854,1.3699951,3.8200073,3.6300049,5.1400146,6.7799988l14.1700134-5.8699951
		c-2.6400146-5.4299927-6.2199707-9.4499969-10.7399902-12.0399933c-4.519989-2.5899963-9.7799988-3.8899994-15.769989-3.8899994
		c-4.6199951,0-8.8099976,0.7400055-12.5700073,2.2100067s-6.9700012,3.5299988-9.6400146,6.1699982
		s-4.7200012,5.8300018-6.1700134,9.5599976s-2.1700134,7.8399963-2.1700134,12.3000031
		c0,4.5200043,0.7399902,8.6499939,2.2099915,12.3800049c1.4700012,3.7299957,3.5299988,6.9299927,6.1700134,9.6000061
		c2.6400146,2.6699982,5.7999878,4.7400055,9.4899902,6.2100067c3.6799927,1.4700012,7.7600098,2.2100067,12.230011,2.2100067
		c3.25,0,6.3500061-0.4100037,9.2999878-1.2200012c2.9500122-0.8099976,5.6500244-1.9900055,8.1099854-3.5399933
		c2.460022-1.5500031,4.6099854-3.4799957,6.4400024-5.7899933s3.2800293-4.9600067,4.3400269-7.9600067
		c0.7600098-2.1300049,1.2700195-4.4400024,1.5200195-6.9299927c0.25-2.4900055,0.3800049-5.2599945,0.3800049-8.3000031
		h-29.6400146v11.5899353H370.0599976z M320.8399963,142.3852539c4.1099854-0.9600067,7.230011-2.8099976,9.3299866-5.5200043
		c2.1099854-2.7200012,3.1600037-6.2599945,3.1600037-10.6300049c0-2.4400024-0.3900146-4.7200012-1.1799927-6.8600006
		c-0.7900085-2.1300049-1.9599915-4.0099945-3.5-5.6399994c-1.5499878-1.6199951-3.519989-2.9100037-5.8999939-3.8500061
		c-2.3900146-0.9400024-5.1799927-1.4100037-8.3800049-1.4100037h-23.2399902v57.4499969h14.9299927v-22.1000061l14.25,22.1000061
		h18.5899963L320.8399963,142.3852539z M306.0599976,119.9852448h2.8200073c2.9500122,0,5.2099915,0.6100006,6.7799988,1.8300018
		s2.3599854,2.9700012,2.3599854,5.2599945s-0.7900085,4.0399933-2.3599854,5.2599945
		c-1.5700073,1.2200012-3.8399963,1.8300018-6.7799988,1.8300018h-2.8200073V119.9852448z M241.0700073,100.7852478
		c1.4200134,1.4700012,3.230011,2.2100067,5.4100037,2.2100067c0.9599915,0,1.8999939-0.1900024,2.8200073-0.5700073
		c0.9100037-0.3800049,1.7000122-0.9100037,2.3599854-1.6000061c0.6600037-0.6900024,1.1900024-1.4700012,1.6000061-2.3600006
		s0.6099854-1.8699951,0.6099854-2.9299927c0-1.0200043-0.2000122-1.9799957-0.6099854-2.8999939
		c-0.4100037-0.9100037-0.9500122-1.6999969-1.6400146-2.3600006s-1.4700012-1.1799927-2.3599854-1.5599976
		c-0.8900146-0.3800049-1.8399963-0.5700073-2.8599854-0.5700073s-1.980011,0.1900024-2.8999939,0.5700073
		c-0.9100037,0.3800049-1.7099915,0.9100037-2.3999939,1.6000061s-1.2200012,1.4700012-1.6000061,2.3600006
		s-0.5700073,1.8200073-0.5700073,2.7799988C238.9400024,97.5352478,239.6499939,99.3152466,241.0700073,100.7852478
		 M261.8000183,100.8252411c1.4200134,1.4499969,3.2000122,2.1699982,5.3299866,2.1699982
		c2.0799866,0,3.8500061-0.7100067,5.2999878-2.1300049c1.4500122-1.4199982,2.1700134-3.1999969,2.1700134-5.3300018
		c0-1.0200043-0.2000122-1.9799957-0.6099854-2.8999939c-0.4100037-0.9100037-0.9500122-1.6999969-1.6400146-2.3600006
		s-1.4700012-1.1799927-2.3599854-1.5599976c-0.8900146-0.3800049-1.8399963-0.5700073-2.8599854-0.5700073
		s-1.980011,0.1900024-2.8999939,0.5700073c-0.9100037,0.3800049-1.7099915,0.9100037-2.3999939,1.6000061
		c-0.6799927,0.6900024-1.2200012,1.4700012-1.6000061,2.3600006s-0.5700073,1.8200073-0.5700073,2.7799988
		C259.6600037,97.5852509,260.3699951,99.3752441,261.8000183,100.8252411 M270.8600159,165.9352417h15.9200134
		l-21.8699951-57.4499969h-16.2999878l-21.8699951,57.4499969h15.9200134l3.4299927-9.9799957h21.3299866L270.8600159,165.9352417z
		 M250.0599976,144.5952454l6.7000122-19.1199951l6.7099915,19.1199951H250.0599976z M173.1900024,108.4852448h-14.9299927
		v57.4499969h14.9299927v-23.6999969H194.75v23.6999969h14.9299927v-57.4499969H194.75v22.1699982h-21.5599976V108.4852448z
		 M148.6499939,109.8552551c-2.4400024-1.0200043-4.7600098-1.7599945-6.9700012-2.25
		c-2.2099915-0.4799957-4.4599915-0.7200012-6.7399902-0.7200012c-4.0100098,0-7.8500061,0.75-11.5,2.25
		c-3.6600037,1.5-6.8699951,3.5800018-9.6399994,6.25s-4.9799957,5.8399963-6.6300049,9.5200043
		c-1.6499939,3.6799927-2.4799957,7.7299957-2.4799957,12.1499939s0.8399963,8.5,2.5099945,12.2299957
		c1.6799927,3.7299957,3.8999939,6.9600067,6.6699982,9.6799927c2.7700043,2.7200012,5.9700012,4.8300018,9.6000061,6.3200073
		c3.6300049,1.5,7.4299927,2.25,11.3900146,2.25c1.9299927,0,3.8900146-0.1900024,5.8699951-0.5700073
		c1.980011-0.3800049,4.1099854-0.9799957,6.3999939-1.7899933l1.519989-0.5299988v-17.6800079
		c-3.8099976,4.0700073-8.1000061,6.1000061-12.8800049,6.1000061c-2.1799927,0-4.2200012-0.4100037-6.1000061-1.2200012
		s-3.5200043-1.9299927-4.9100037-3.3500061c-1.3999939-1.4199982-2.4900055-3.1000061-3.2799988-5.0299988
		s-1.1799927-4.0399933-1.1799927-6.3200073c0-2.2299957,0.3899994-4.3200073,1.1799927-6.25
		s1.8699951-3.5899963,3.2400055-4.9900055c1.3699951-1.3999939,3.0099945-2.5,4.9099884-3.3099976
		c1.9100037-0.8099976,3.9700012-1.2200012,6.2099915-1.2200012c5.0799866,0,9.3500061,2.1100006,12.7999878,6.3200073v-17.8399811
		H148.6499939z M82.5900116,165.9352417h14.9300079v-57.4499969H82.5900269v57.4499969H82.5900116z M18.2900085,165.9352417
		l4.9499969-33.0700073l12.8800049,33.0700073h5.9400024l13.5599976-33.0700073l4.9499969,33.0700073h14.8600006l-9.75-57.4499969
		H50.9000092l-11.4300079,30.6300049l-11.5099945-30.6300049H13.1800079l-9.75,57.4499969H18.2900085z"/>
	<path fill="#CD1719" d="M360.6900024,80.2152405V45.0952454l27.5799866,35.1199951h14.8599854V22.7652493H388.269989v35.1200027
		l-27.5799866-35.1199951h-14.9299927v57.4499969h14.9299927V80.2152405z M292.0400085,80.2152405V45.0952454l27.5799866,35.1199951
		h14.8599854V22.7652493h-14.8599854v35.1200027l-27.5799866-35.1199951h-14.9299927v57.4499969h14.9299927V80.2152405z
		 M256.9200134,80.2152405h15.9299927L250.980011,22.7652416h-16.2999878l-21.8699951,57.4499969h15.9200134l3.4299927-9.9799957
		h21.3299866L256.9200134,80.2152405z M236.1199951,58.8852539l6.7000122-19.1200027l6.7099915,19.1200027H236.1199951z
		 M175.1700134,22.7652493h-14.9299927v57.4500046h14.9299927V55.2952576l19.4299927,24.9199982h19.3500061l-24.9200134-30.25
		l22.7799988-27.1999989h-18.4400024l-18.2099915,23.6999989V22.7652493H175.1700134z M96.6100006,22.7652493H81.6799927v57.4500046
		h14.9299927V56.5152588h21.5599976v23.6999969h14.9299927V22.7652493h-14.9299927v22.1700001H96.6099854V22.7652493H96.6100006z
		 M72.0800018,24.1352444c-2.4400024-1.0199966-4.7599945-1.7699966-6.9700012-2.25s-4.4600067-0.7200012-6.7400055-0.7200012
		c-4.0099945,0-7.8500061,0.75-11.5099945,2.25c-3.6600037,1.5-6.8699951,3.5800018-9.6399994,6.25
		s-4.9799957,5.8400059-6.6300049,9.5199986c-1.6499939,3.6800003-2.4799957,7.7300034-2.4799957,12.1500015
		c0,4.4200058,0.8399963,8.4999924,2.5099945,12.2300034c1.6799927,3.7299957,3.8999939,6.9600067,6.6699982,9.6799927
		c2.7700043,2.7200012,5.9700012,4.8300018,9.6000061,6.3200073c3.6300049,1.5,7.4299927,2.25,11.3899994,2.25
		c1.9299927,0,3.8899994-0.1900024,5.8699951-0.5700073s4.1100006-0.9799957,6.3999939-1.7899933l1.5200043-0.5299988V61.2452393
		c-3.8099976,4.0700073-8.1000061,6.1000061-12.8800049,6.1000061c-2.1799927,0-4.2200012-0.4100037-6.1000061-1.2200012
		s-3.5200043-1.9299927-4.9100037-3.3500061c-1.3999939-1.4199982-2.4900055-3.1000061-3.2799988-5.0299988
		s-1.1799927-4.0399933-1.1799927-6.3199997c0-2.2300034,0.3899994-4.3199997,1.1799927-6.25
		s1.8699951-3.5899963,3.2400055-4.9899979c1.3699951-1.4000015,3.0099945-2.5,4.9199982-3.3099976
		c1.8999939-0.8099976,3.9700012-1.2200012,6.2100067-1.2200012c5.0800018,0,9.3500061,2.1100006,12.8000031,6.3199997V24.1352444
		H72.0800018z M6.0200043,80.2152405h14.9300079V22.7652493H6.0200195v57.4499893H6.0200043z"/>
</g>
</svg>
