<?xml version="1.0" encoding="iso-8859-1"?>
<!-- Generator: Adobe Illustrator 24.0.3, SVG Export Plug-In . SVG Version: 6.00 Build 0)  -->
<svg version="1.1" id="Ebene_1" xmlns="http://www.w3.org/2000/svg" xmlns:xlink="http://www.w3.org/1999/xlink" x="0px" y="0px"
	 width="841.8900146px" height="530.6400146px" viewBox="0 0 841.8900146 530.6400146"
	 enable-background="new 0 0 841.8900146 530.6400146" xml:space="preserve">
<g>
	<path fill="#CD1719" d="M601.8648682,162.0814972c0.460022,1.0899963,1.0900269,2.0499878,1.9099731,2.8599854
		c0.8099976,0.8099976,1.7600098,1.4500122,2.8599854,1.8999939c1.0900269,0.4599915,2.25,0.6900024,3.4699707,0.6900024
		s2.3699951-0.230011,3.4699707-0.6900024c1.0900269-0.4599915,2.039978-1.0899963,2.8599854-1.8999939
		c0.8099976-0.8099976,1.4500122-1.7600098,1.9000244-2.8599854c0.460022-1.0899963,0.6799927-2.25,0.6799927-3.4700012
		s-0.2299805-2.3699951-0.6799927-3.4700012c-0.460022-1.0899963-1.0900269-2.0400085-1.9000244-2.8599854
		c-0.8099976-0.8099976-1.7700195-1.4500122-2.8599854-1.8999939c-1.0900269-0.4599915-2.25-0.6900024-3.4699707-0.6900024
		s-2.3800049,0.230011-3.4699707,0.6900024c-1.0900269,0.4599915-2.0499878,1.0899963-2.8599854,1.8999939
		s-1.4500122,1.769989-1.9099731,2.8599854c-0.460022,1.0899963-0.6900024,2.25-0.6900024,3.4700012
		S601.4048462,160.9915009,601.8648682,162.0814972 M552.1048584,165.9315033v-35.1199951l27.5800171,35.1199951h14.8599854
		v-57.4500046h-14.8599854v35.1199875l-27.5800171-35.1199875h-14.9299927v57.4500046H552.1048584z M527.1948853,108.4814987
		h-32.6900024v57.4500046h32.6900024v-12.6499939h-17.75v-9.8999939h16.7600098v-12.6499939h-16.7600098v-9.5999985h17.75
		V108.4814987z M456.9448853,145.361496h12.2700195c-0.2600098,1.6799927-0.7399902,3.1000061-1.4500122,4.269989
		c-0.710022,1.1700134-1.6099854,2.1199951-2.7000122,2.8599854s-2.3200073,1.269989-3.7000122,1.6000061
		c-1.3699951,0.3299866-2.789978,0.5-4.2700195,0.5c-2.4899902,0-4.6699829-0.4200134-6.5499878-1.2600098
		s-3.4500122-2.019989-4.7199707-3.5400085c-1.2700195-1.519989-2.2199707-3.3299866-2.8599854-5.4100037
		c-0.6400146-2.0799866-0.9500122-4.3399963-0.9500122-6.7799988c0-2.6900024,0.3699951-5.1300049,1.0999756-7.3099976
		c0.7399902-2.1799927,1.75-4.0499802,3.0499878-5.5999985c1.289978-1.5499878,2.8599854-2.7399902,4.6900024-3.5799866
		s3.8599854-1.2600098,6.0900269-1.2600098c2.6900024,0,5.0900269,0.6799927,7.2000122,2.0599976
		c2.1099854,1.3699951,3.8200073,3.6300049,5.1400146,6.7799911l14.1699829-5.8699875
		c-2.6400146-5.4299927-6.2199707-9.4500122-10.7399902-12.0400085s-9.7800293-3.8900146-15.7700195-3.8900146
		c-4.6199951,0-8.8099976,0.7399902-12.5700073,2.2099915s-6.9699707,3.5299988-9.6400146,6.1700134
		c-2.6699829,2.6400146-4.7199707,5.8299866-6.1699829,9.5599976c-1.4500122,3.7300034-2.1699829,7.8399887-2.1699829,12.2999802
		c0,4.519989,0.7399902,8.6499939,2.210022,12.3800049c1.4699707,3.730011,3.5300293,6.9299927,6.1699829,9.6000061
		c2.6400146,2.6700134,5.7999878,4.7399902,9.4899902,6.2099915c3.6799927,1.4700012,7.7600098,2.2099915,12.2299805,2.2099915
		c3.25,0,6.3499756-0.4100037,9.289978-1.2200012c2.9500122-0.8099976,5.6500244-1.9899902,8.1099854-3.5400085
		c2.460022-1.5499878,4.6099854-3.480011,6.4400024-5.7900085s3.2800293-4.9599915,4.3400269-7.9599915
		c0.7600098-2.1300049,1.2700195-4.4400024,1.5200195-6.9299927s0.3800049-5.2600098,0.3800049-8.2999878h-29.6400146v11.5700684
		H456.9448853z M419.7648926,108.4814987h-32.690033v57.4500046h32.6899719v-12.6499939h-17.75v-9.8999939h16.7600098v-12.6499939
		h-16.7600098v-9.5999985h17.75v-12.6500244H419.7648926z M360.8648682,165.9315033h14.9299927v-57.4500046h-14.9299927V165.9315033
		z M268.2948608,108.4814987l17.1400146,57.4500046h15.2399902l11.2799988-33.2999878l11.2799988,33.2999878h15.2399902
		l17.1400146-57.4500046H339.994873l-9.8999939,37.1100082l-12.1900024-37.1099777h-11.8900146l-12.1900024,37.1099777
		l-9.8999939-37.1099777h-15.6300049V108.4814987z M226.5448608,108.4814987h-14.9299927v57.4500046h14.9299927v-23.7000122
		h21.5599976v23.7000122h14.9299927v-57.4500046h-14.9299927v22.1700058h-21.5599976V108.4814987z M201.0148621,109.8515244
		c-2.4400024-1.019989-4.7600098-1.769989-6.9700012-2.25s-4.4599915-0.7200012-6.7399902-0.7200012
		c-4.0100098,0-7.8500061,0.75-11.5100098,2.25s-6.8699951,3.5799866-9.6400146,6.25
		c-2.769989,2.6700134-4.980011,5.8399963-6.6300049,9.519989c-1.6499939,3.679985-2.480011,7.7300034-2.480011,12.1499863
		s0.8399963,8.4899902,2.519989,12.230011c1.6799927,3.730011,3.8999939,6.9599915,6.6700134,9.6799927
		c2.769989,2.7200012,5.9700012,4.8299866,9.6000061,6.3200073c3.6300049,1.5,7.4299927,2.25,11.3900146,2.25
		c1.9299927,0,3.8900146-0.1900024,5.8699951-0.5700073c1.980011-0.3800049,4.1099854-0.980011,6.3999939-1.7900085
		l1.519989-0.5299988v-17.6799927c-3.8099976,4.0599976-8.1000061,6.1000061-12.8800049,6.1000061
		c-2.1799927,0-4.2200012-0.4100037-6.1000061-1.2200012s-3.519989-1.9299927-4.9100037-3.3500061
		c-1.3999939-1.4200134-2.4899902-3.1000061-3.2799988-5.0299988s-1.1799927-4.0400085-1.1799927-6.3200073
		c0-2.230011,0.3900146-4.3200073,1.1799927-6.25c0.7900085-1.9299927,1.8699951-3.5899887,3.2399902-4.9899826
		s3.0100098-2.5,4.9100037-3.3099976s3.9700012-1.2200012,6.2099915-1.2200012
		c5.0799866,0,9.3500061,2.1099854,12.7999878,6.3200073v-17.8399963H201.0148621z M149.4348755,111.531517
		c-2.8500061-1.519989-5.8200073-2.6799927-8.9100037-3.4700012c-3.1000061-0.7900085-6.0700073-1.1799927-8.9100037-1.1799927
		c-3.0500031,0-5.8000031,0.4599915-8.2700043,1.3699951c-2.4600067,0.9100037-4.5500031,2.2000122-6.25,3.8500061
		s-3.0200043,3.6300049-3.9600067,5.9400024s-1.4100037,4.8900146-1.4100037,7.730011
		c0,2.8499985,0.4499969,5.1899948,1.3300018,7.0499802c0.8899994,1.8599854,2.0599976,3.3900146,3.5099945,4.6099854
		c1.4499969,1.2200012,3.1000061,2.2000122,4.9499969,2.9299927c1.8500061,0.7399902,3.75,1.4100037,5.6799927,2.019989
		c1.6199951,0.5599976,3.0099945,1.0700073,4.1499939,1.519989c1.1399994,0.4599915,2.0700073,0.9500122,2.7799988,1.4899902
		c0.7100067,0.5299988,1.2200012,1.1199951,1.5200043,1.75c0.3099976,0.6400146,0.4600067,1.3800049,0.4600067,2.25
		c0,1.4200134-0.6000061,2.6900024-1.7899933,3.8099976c-1.1900024,1.1199951-3.0099945,1.6799927-5.4499969,1.6799927
		c-2.1300049,0-4.2899933-0.480011-6.4799957-1.4500122c-2.1799927-0.9599915-4.3899994-2.4400024-6.6300049-4.4200134
		l-6.3999939,12.0400085c6.1999969,4.3200073,12.9299927,6.480011,20.1900024,6.480011
		c3.5,0,6.6399994-0.4700012,9.4100037-1.4100037s5.1000061-2.2600098,7.0099945-3.9599915
		c1.9000092-1.7000122,3.3499908-3.7399902,4.3400116-6.1300049c0.9899902-2.3900146,1.480011-5.0499878,1.480011-8
		c0-4.3699951-1.1300049-7.9100037-3.3900146-10.6300049c-2.2599945-2.7200012-5.8300018-4.8900146-10.7100067-6.5100098
		c-1.2200012-0.4100037-2.4499969-0.7900085-3.6999969-1.1400146c-1.25-0.3599854-2.3600006-0.769989-3.3500061-1.2600098
		c-0.9900055-0.480011-1.7899933-1.0499802-2.3999939-1.7099838s-0.9100037-1.5-0.9100037-2.5100098
		c0-1.4700012,0.6100006-2.6700134,1.8300018-3.5799866c1.2200012-0.9200134,2.7899933-1.3699951,4.7200012-1.3699951
		c1.5200043,0,3.1000061,0.3200073,4.7200012,0.9500122s3.25,1.6099854,4.8800049,2.9299927L149.4348755,111.531517z
		 M103.494873,108.4814987H70.8048706v57.4500046h32.6900024v-12.6499939h-17.75v-9.8999939h16.7599945v-12.6499939H85.744873
		v-9.5999985h17.75V108.4814987z M34.0048676,145.361496h12.2700043c-0.25,1.6799927-0.7400055,3.1000061-1.4499969,4.269989
		c-0.7100067,1.1700134-1.6100006,2.1199951-2.7100067,2.8599854c-1.0899963,0.7399902-2.3200073,1.269989-3.6900024,1.6000061
		c-1.3699951,0.3299866-2.7899933,0.5-4.2700043,0.5c-2.4900074,0-4.6700001-0.4200134-6.550005-1.2600098
		s-3.4600067-2.019989-4.7200012-3.5400085c-1.2700043-1.519989-2.2200012-3.3299866-2.8600006-5.4100037
		c-0.6399994-2.0799866-0.9499969-4.3399963-0.9499969-6.7799988c0-2.6900024,0.3699951-5.1300049,1.1000061-7.3099976
		c0.7400055-2.1799927,1.75-4.0499802,3.0500031-5.5999985c1.2899933-1.5499878,2.8600006-2.7399902,4.6900024-3.5799866
		s3.8600006-1.2600098,6.100008-1.2600098c2.6900024,0,5.0899963,0.6799927,7.1999969,2.0599976
		c2.1100006,1.3699951,3.8200073,3.6300049,5.1399994,6.7799911l14.1699982-5.8699875
		c-2.6399994-5.4299927-6.2200012-9.4500122-10.7400055-12.0400085s-9.7799988-3.8900146-15.7700043-3.8900146
		c-4.619997,0-8.8099995,0.7399902-12.5700092,2.2099915c-3.7600021,1.4700012-6.9700012,3.5299988-9.6399994,6.1700134
		s-4.7200012,5.8299866-6.1699982,9.5599976c-1.4499969,3.7300034-2.1699982,7.8399887-2.1699982,12.2999802
		c0,4.519989,0.7399979,8.6499939,2.2099991,12.3800049s3.5299988,6.9299927,6.1699982,9.6000061
		s5.8000031,4.7399902,9.4899979,6.2099915c3.6799927,1.4700012,7.7599945,2.2099915,12.2299976,2.2099915
		c3.25,0,6.3500061-0.4100037,9.2899933-1.2200012c2.9499969-0.8099976,5.6499939-1.9899902,8.1199951-3.5400085
		c2.4600067-1.5499878,4.6100006-3.480011,6.4400024-5.7900085s3.2799988-4.9599915,4.3399963-7.9599915
		c0.7599945-2.1300049,1.2700043-4.4400024,1.5200043-6.9299927s0.3800049-5.2600098,0.3800049-8.2999878H34.0148468v11.5700684
		H34.0048676z"/>
	<path fill="#CD1719" d="M556.2248535,59.6414986h12.2700195c-0.2600098,1.6799927-0.7399902,3.1000061-1.4500122,4.269989
		c-0.710022,1.1700172-1.6099854,2.1199989-2.710022,2.8599892c-1.0900269,0.7399902-2.3200073,1.269989-3.7000122,1.6000061
		c-1.3699951,0.3299866-2.789978,0.4899902-4.2700195,0.4899902c-2.4899902,0-4.6699829-0.4200134-6.5499878-1.2600098
		s-3.460022-2.019989-4.7199707-3.5400085c-1.2700195-1.5199928-2.2199707-3.3299904-2.8599854-5.4100075
		c-0.6400146-2.0799866-0.9500122-4.3399963-0.9500122-6.7799988c0-2.6900024,0.3699951-5.1300049,1.0999756-7.3099976
		c0.7399902-2.1799927,1.75-4.0500031,3.0499878-5.6000061s2.8599854-2.7400055,4.6900024-3.5800018
		s3.8599854-1.2599945,6.0900269-1.2599945c2.6900024,0,5.0900269,0.6799927,7.2000122,2.0599976
		c2.1099854,1.3699951,3.8200073,3.6300049,5.1400146,6.7799988l14.1699829-5.8699951
		c-2.6400146-5.4299908-6.2199707-9.449995-10.7399902-12.0399914s-9.7800293-3.8899994-15.7700195-3.8899994
		c-4.6199951,0-8.8099976,0.7400055-12.5700073,2.2100067s-6.9699707,3.5299988-9.6400146,6.1699982
		c-2.6699829,2.6399975-4.7199707,5.8299999-6.1699829,9.5599957s-2.1699829,7.8399963-2.1699829,12.3099976
		c0,4.519989,0.7399902,8.6499939,2.210022,12.3800049c1.4699707,3.7300148,3.5300293,6.9299965,6.1699829,9.6000099
		c2.6400146,2.6700134,5.7999878,4.7399902,9.4899902,6.2099915c3.6799927,1.4700012,7.7600098,2.2099915,12.2299805,2.2099915
		c3.25,0,6.3499756-0.4100037,9.2999878-1.2200012s5.6500244-1.9899902,8.1099854-3.5400085
		c2.460022-1.5499878,4.6099854-3.480011,6.4400024-5.7900085s3.2800293-4.9599915,4.3400269-7.9599953
		c0.7600098-2.1300049,1.2700195-4.4400024,1.5200195-6.9299927s0.3800049-5.2599945,0.3800049-8.3099976h-29.6400146v11.5800476
		H556.2248535z M467.6848755,22.7715054v33.2999878c0,8.9400063,2.0599976,15.470005,6.1699829,19.5799904
		s10.4099731,6.1700134,18.9000244,6.1700134c8.4799805,0,14.7700195-2.0599976,18.8599854-6.1700134
		c4.0900269-4.1099854,6.1300049-10.6400146,6.1300049-19.5799904V22.7714901h-14.8599854v31.2400036
		c0,1.6799927-0.0599976,3.3900146-0.1900024,5.1400146s-0.5200195,3.3399963-1.1799927,4.7600098
		c-0.6599731,1.4200172-1.6599731,2.5799904-3.0100098,3.470005c-1.3499756,0.8900146-3.2600098,1.3299866-5.75,1.3299866
		s-4.4199829-0.4400024-5.789978-1.3299866c-1.3699951-0.8900146-2.3800049-2.0400085-3.0100098-3.470005
		c-0.6400146-1.4200134-1.0200195-3.0100098-1.1400146-4.7600098c-0.1300049-1.75-0.1900024-3.4700012-0.1900024-5.1400146
		V22.7714901h-14.9400024V22.7715054z M414.7348633,80.2115097V45.0915108l27.5800171,35.1199989h14.8599854V22.7615108h-14.8599854
		v35.1200104l-27.5800171-35.1199951h-14.9299927v57.4500122h14.9299927V80.2115097z M389.8248596,22.7715054h-32.6900024
		v57.4500122h32.6900024V67.5715256h-17.75v-9.8999977h16.7600098V45.021534h-16.7600098v-9.6000061h17.75V22.7715054z
		 M320.3348694,59.6414986h12.269989c-0.25,1.6799927-0.7399902,3.1000061-1.4500122,4.269989
		c-0.7099915,1.1700172-1.6099854,2.1199989-2.7000122,2.8599892c-1.0899963,0.7399902-2.3200073,1.269989-3.7000122,1.6000061
		c-1.3699951,0.3299866-2.7900085,0.4899902-4.269989,0.4899902c-2.4899902,0-4.6700134-0.4200134-6.5499878-1.2600098
		c-1.8800049-0.8399963-3.4500122-2.019989-4.7200012-3.5400085c-1.269989-1.5199928-2.2200012-3.3299904-2.8599854-5.4100075
		c-0.6400146-2.0799866-0.9500122-4.3399963-0.9500122-6.7799988c0-2.6900024,0.3699951-5.1300049,1.1099854-7.3099976
		c0.730011-2.1799927,1.75-4.0500031,3.0499878-5.6000061s2.8599854-2.7400055,4.6900024-3.5800018
		c1.8299866-0.8399963,3.8599854-1.2599945,6.1000061-1.2599945c2.6900024,0,5.0899963,0.6799927,7.2000122,2.0599976
		c2.1099854,1.3699951,3.8200073,3.6300049,5.1400146,6.7799988l14.1700134-5.8699951
		c-2.6400146-5.4299908-6.2200012-9.449995-10.7399902-12.0399914s-9.7799988-3.8899994-15.769989-3.8899994
		c-4.6199951,0-8.8099976,0.7400055-12.5700073,2.2100067s-6.9700012,3.5299988-9.6400146,6.1699982
		s-4.7200012,5.8299999-6.1700134,9.5599957s-2.1700134,7.8399963-2.1700134,12.3099976
		c0,4.519989,0.7399902,8.6499939,2.2099915,12.3800049c1.4700012,3.7300148,3.5299988,6.9299965,6.1700134,9.6000099
		s5.7999878,4.7399902,9.4899902,6.2099915c3.6799927,1.4700012,7.7600098,2.2099915,12.230011,2.2099915
		c3.25,0,6.3500061-0.4100037,9.2999878-1.2200012c2.9500122-0.8099976,5.6499939-1.9899902,8.1099854-3.5400085
		c2.4599915-1.5499878,4.6099854-3.480011,6.4400024-5.7900085c1.8299866-2.3099976,3.2799988-4.9599915,4.3399963-7.9599953
		c0.7600098-2.1300049,1.269989-4.4400024,1.519989-6.9299927s0.3800049-5.2599945,0.3800049-8.3099976h-29.6400146v11.5800476
		H320.3348694z M268.0648804,22.7715054h-32.6900024v57.4500122h32.6900024V67.5715256h-17.75v-9.8999977h16.7600098V45.021534
		h-16.7600098v-9.6000061h17.75V22.7715054z M198.5848694,59.6414986h12.269989
		c-0.2600098,1.6799927-0.7399902,3.1000061-1.4500122,4.269989c-0.7099915,1.1700172-1.6099854,2.1199989-2.7099915,2.8599892
		c-1.0899963,0.7399902-2.3200073,1.269989-3.7000122,1.6000061c-1.3699951,0.3299866-2.7900085,0.4899902-4.269989,0.4899902
		c-2.4899902,0-4.6700134-0.4200134-6.5499878-1.2600098c-1.8800049-0.8399963-3.4599915-2.019989-4.7200012-3.5400085
		c-1.269989-1.5199928-2.2200012-3.3299904-2.8599854-5.4100075c-0.6400146-2.0799866-0.9500122-4.3399963-0.9500122-6.7799988
		c0-2.6900024,0.3699951-5.1300049,1.1000061-7.3099976c0.7399902-2.1799927,1.75-4.0500031,3.0499878-5.6000061
		s2.8599854-2.7400055,4.6900024-3.5800018c1.8299866-0.8399963,3.8599854-1.2599945,6.1000061-1.2599945
		c2.6900024,0,5.0899963,0.6799927,7.2000122,2.0599976c2.1099854,1.3699951,3.8200073,3.6300049,5.1400146,6.7799988
		l14.1700134-5.8699951c-2.6400146-5.4299908-6.2200012-9.449995-10.7399902-12.0399914s-9.7799988-3.8899994-15.769989-3.8899994
		c-4.6199951,0-8.8099976,0.7400055-12.5700073,2.2100067s-6.9700012,3.5299988-9.6400146,6.1699982
		s-4.7200012,5.8299999-6.1700134,9.5599957s-2.1700134,7.8399963-2.1700134,12.3099976
		c0,4.519989,0.7399902,8.6499939,2.2099915,12.3800049c1.4700012,3.7300148,3.5299988,6.9299965,6.1700134,9.6000099
		s5.7999878,4.7399902,9.4899902,6.2099915c3.6799927,1.4700012,7.7600098,2.2099915,12.230011,2.2099915
		c3.25,0,6.3500061-0.4100037,9.2999878-1.2200012c2.9500122-0.8099976,5.6499939-1.9899902,8.1099854-3.5400085
		c2.4599915-1.5499878,4.6099854-3.480011,6.4400024-5.7900085c1.8299866-2.3099976,3.2799988-4.9599915,4.3399963-7.9599953
		c0.7600098-2.1300049,1.269989-4.4400024,1.519989-6.9299927s0.3800049-5.2599945,0.3800049-8.3099976h-29.6400146v11.5800476
		H198.5848694z M118.8848724,80.2115097V45.0915108l27.5800018,35.1199989h14.8599854V22.7615108h-14.8599854v35.1200104
		l-27.5800018-35.1199951h-14.9300079v57.4500122h14.9300079V80.2115097z M85.2848663,80.2115097h15.9199982L79.3348694,22.7615108
		H63.0348663L41.1748657,80.2115097h15.9199982l3.4299927-9.980011h21.3300018L85.2848663,80.2115097z M64.4848633,58.8815193
		l6.6999969-19.1199951l6.7100067,19.1199951H64.4848633z M6.0448666,22.7715054v57.4500122h32.840004V67.5715256H20.9848766
		V22.7715206H6.0448666V22.7715054z"/>
</g>
</svg>
