<?xml version="1.0" encoding="iso-8859-1"?>
<!-- Generator: Adobe Illustrator 24.0.3, SVG Export Plug-In . SVG Version: 6.00 Build 0)  -->
<svg version="1.1" id="Ebene_1" xmlns="http://www.w3.org/2000/svg" xmlns:xlink="http://www.w3.org/1999/xlink" x="0px" y="0px"
	 width="841.8900146px" height="530.6400146px" viewBox="0 0 841.8900146 530.6400146"
	 enable-background="new 0 0 841.8900146 530.6400146" xml:space="preserve">
<g>
	<path fill="#CD1719" d="M79.3948669,452.505249h1.5v-1.3200073h-1.5v-3.019989h-1.4299927v3.019989h-0.8800049v1.3200073h0.8800049
		v7.0699768h1.4299927V452.505249z M69.8048553,451.1852417h-1.4299927v8.3899841h1.4299927v-3.9799805
		c0-1.5,0.1199951-3.3200073,2.0899963-3.3200073c1.6600037,0,1.7700043,1.2099915,1.7700043,2.5700073v4.7299805h1.4299927
		v-4.980011c0-1.9599915-0.5299988-3.6400146-2.8600006-3.6400146c-1.0399933,0-1.8000031,0.4500122-2.3899994,1.25h-0.0299988
		v-1.0199585H69.8048553z M59.4448547,454.4652405c0.1799927-1.2099915,1.3200073-2.2000122,2.5500031-2.2000122
		c1.25,0,2.2700043,0.980011,2.4600067,2.2000122H59.4448547z M65.964859,455.6852722
		c0.1399994-2.5-1.2899933-4.730011-3.9799957-4.730011c-2.6199951,0-4.0700073,2.0499878-4.0700073,4.5400085
		c0,2.4099731,1.6100006,4.3200073,4.1100006,4.3200073c1.7100067,0,3.0700073-0.8599854,3.8800049-2.3599854l-1.2100067-0.7000122
		c-0.5500031,1-1.3399963,1.7299805-2.5500031,1.7299805c-1.6199951,0-2.7299957-1.25-2.75-2.7999878H65.964859z
		 M54.8748627,447.005249c-0.5500031,0-1.0200043,0.4599915-1.0200043,1.019989c0,0.5700073,0.4600067,1.019989,1.0200043,1.019989
		s1.0200043-0.4500122,1.0200043-1.019989C55.8948669,447.4652405,55.4348602,447.005249,54.8748627,447.005249
		 M55.5948639,451.1852417h-1.4299927v8.3899841h1.4299927V451.1852417z M50.7848587,444.8452454h-1.4300003v14.7299805h1.4300003
		V444.8452454z M39.8948593,451.8752441v-5.769989h-1.5v13.4699707h1.5v-5.7999878l0.3799973-0.3800049l5.5199966,6.1799927
		h2.0699997l-6.5400009-7.2000122l6.3199997-6.269989H45.624855L39.8948593,451.8752441z M25.6548595,451.1852417h-1.4300003
		v8.3899841h1.4300003v-3.9799805c0-1.5,0.1200027-3.3200073,2.0899963-3.3200073
		c1.6600037,0,1.7699966,1.2099915,1.7699966,2.5700073v4.7299805h1.4300003v-4.980011
		c0-1.9599915-0.5400009-3.6400146-2.8600006-3.6400146c-1.0299988,0-1.8000031,0.4500122-2.3899994,1.25h-0.0399933V451.1852417z
		 M20.0748577,447.005249c-0.5500031,0-1.0199966,0.4599915-1.0199966,1.019989c0,0.5700073,0.4700012,1.019989,1.0199966,1.019989
		c0.5500031,0,1.0199966-0.4500122,1.0199966-1.019989C21.094862,447.4652405,20.6348629,447.005249,20.0748577,447.005249
		 M20.7948589,451.1852417h-1.4300003v8.3899841h1.4300003V451.1852417z M9.4748592,459.5752258h6.9800034v-1.3900146h-5.4800034
		v-5.2900085h5.3199997v-1.3900146h-5.3199997v-4h5.4800034v-1.3900146H9.4748592V459.5752258z"/>
	<path fill="#CD1719" d="M209.7848663,419.2252502c0.4599915,1.0899963,1.0899963,2.0400085,1.8999939,2.8599854
		c0.8099976,0.8099976,1.7600098,1.4500122,2.8599854,1.8999939c1.0899963,0.4599915,2.25,0.6900024,3.4700012,0.6900024
		s2.3699951-0.230011,3.4700012-0.6900024c1.0899963-0.4599915,2.0400085-1.0899963,2.8599854-1.8999939
		c0.8099976-0.8099976,1.4500122-1.7600098,1.8999939-2.8599854c0.4599915-1.0899963,0.6799927-2.25,0.6799927-3.4700012
		s-0.230011-2.3699951-0.6799927-3.4700012s-1.0899963-2.0400085-1.8999939-2.8599854
		c-0.8099976-0.8099976-1.769989-1.4500122-2.8599854-1.8999939c-1.0899963-0.4599915-2.25-0.6900024-3.4700012-0.6900024
		s-2.3800049,0.230011-3.4700012,0.6900024s-2.0400085,1.0899963-2.8599854,1.8999939
		c-0.8099976,0.8099976-1.4500122,1.769989-1.8999939,2.8599854s-0.6799927,2.25-0.6799927,3.4700012
		S209.3348541,418.1352539,209.7848663,419.2252502 M214.4348602,378.275238v-12.6499939H174.964859v12.6499939h12.269989
		v44.7999878h14.9299927V378.275238H214.4348602z M169.1748657,365.6252441h-32.9100037v57.4500122H151.19487v-22.5499878
		h16.3800049v-12.6499939H151.19487v-9.6000061h17.9799957V365.6252441z M98.3948669,365.6252441v57.4500122h32.8399963v-12.6499939
		h-17.8999939v-44.7999878H98.3948669V365.6252441z M72.1848602,423.0752563h14.9299927v-57.4500122H72.1848602V423.0752563z
		 M24.4148617,365.6252441H9.4848614v57.4500122h14.9300003v-23.7000122h21.5599995v23.7000122h14.9300003v-57.4500122H45.9748611
		v22.1700134H24.4148617V365.6252441z"/>
	<path fill="#CD1719" d="M544.4248657,313.8152466c4.1099854-0.9599915,7.2199707-2.8099976,9.3300171-5.519989
		c2.1099854-2.7200012,3.1599731-6.2600098,3.1599731-10.6300049c0-2.4400024-0.3900146-4.7200012-1.1799927-6.8599854
		c-0.789978-2.1300049-1.960022-4.0100098-3.5100098-5.6400146c-1.5499878-1.6199951-3.5200195-2.9100037-5.9000244-3.8500061
		c-2.3900146-0.9400024-5.1799927-1.4100037-8.3800049-1.4100037H514.704834v57.4500122h14.9299927V315.255249l14.25,22.1000061
		h18.5900269L544.4248657,313.8152466z M529.6348267,291.4152527h2.8200073c2.9500122,0,5.210022,0.6099854,6.7800293,1.8299866
		s2.3599854,2.9700012,2.3599854,5.2600098s-0.789978,4.0400085-2.3599854,5.2600098
		c-1.5800171,1.2200012-3.8400269,1.8299866-6.7800293,1.8299866h-2.8200073V291.4152527z M488.494873,337.3552551h14.9299927
		v-57.4500122H488.494873V337.3552551z M424.1948547,337.3552551l4.9500122-33.0700073l12.8799744,33.0700073h5.9400024
		l13.5599976-33.0700073l4.9500122,33.0700073h14.8599854l-9.75-57.4500122h-14.7800293l-11.4299927,30.6300049
		l-11.5100098-30.6300049h-14.7799988l-9.75,57.4500122H424.1948547z M389.6748352,282.9552307
		c-2.8500061-1.519989-5.8200073-2.6799927-8.9200134-3.4700012s-6.0700073-1.1799927-8.9100037-1.1799927
		c-3.0499878,0-5.7999878,0.4599915-8.269989,1.3699951c-2.4599915,0.9100037-4.5499878,2.2000122-6.25,3.8500061
		s-3.019989,3.6300049-3.9599915,5.9400024s-1.4100037,4.8900146-1.4100037,7.730011s0.4400024,5.1900024,1.3299866,7.0499878
		c0.8900146,1.8599854,2.0599976,3.3900146,3.5100098,4.6099854c1.4500122,1.2200012,3.1000061,2.2000122,4.9500122,2.9299927
		c1.8500061,0.7399902,3.7399902,1.4100037,5.6799927,2.019989c1.6199951,0.5599976,3.0100098,1.0700073,4.1499939,1.519989
		s2.0700073,0.9500122,2.7799988,1.4899902c0.7099915,0.5299988,1.2200012,1.1199951,1.519989,1.75
		c0.3099976,0.6400146,0.4599915,1.3800049,0.4599915,2.25c0,1.4200134-0.6000061,2.6900024-1.7900085,3.8099976
		s-3.0100098,1.6799927-5.4500122,1.6799927c-2.1300049,0-4.2900085-0.480011-6.480011-1.4500122
		c-2.1799927-0.9599915-4.3900146-2.4400024-6.6300049-4.4200134l-6.3999939,12.0400085
		c6.2000122,4.3200073,12.9299927,6.480011,20.1900024,6.480011c3.5100098,0,6.6400146-0.4700012,9.4100037-1.4100037
		s5.1000061-2.2600098,7.0100098-3.9599915c1.8999939-1.7000122,3.3500061-3.7399902,4.3399963-6.1300049
		s1.4899902-5.0499878,1.4899902-8c0-4.3699951-1.1300049-7.9100037-3.3900146-10.6300049
		s-5.8299866-4.8900146-10.7000122-6.5100098c-1.2200012-0.4100037-2.4500122-0.7900085-3.7000122-1.1400146
		c-1.2399902-0.3599854-2.3599854-0.769989-3.3500061-1.2600098c-0.9899902-0.480011-1.7900085-1.0499878-2.3999939-1.7099915
		s-0.9200134-1.5-0.9200134-2.5100098c0-1.4700012,0.6099854-2.6700134,1.8299866-3.5799866
		c1.2200012-0.9200134,2.7900085-1.3699951,4.7200012-1.3699951c1.519989,0,3.1000061,0.3200073,4.7200012,0.9500122
		c1.6199951,0.6400146,3.25,1.6099854,4.8800049,2.9299927L389.6748352,282.9552307z M332.7648315,337.3552551h15.9200134
		l-21.8699951-57.4500122h-16.2999878l-21.8699951,57.4500122h15.9200134l3.4299927-9.980011h21.3299866L332.7648315,337.3552551z
		 M311.9648438,316.025238l6.7000122-19.1199951l6.7099915,19.1199951H311.9648438z M208.4148712,279.9052429l17.1400146,57.4500122
		h15.2399902l11.2799988-33.2999878l11.2799835,33.2999878h15.2399902l17.1400146-57.4500122h-15.6199951l-9.8999939,37.1099854
		l-12.1900024-37.1099854h-11.8899994L233.94487,317.0152283l-9.8999939-37.1099854H208.4148712z M139.464859,337.3552551
		h22.1000061c3.9600067,0,7.6600037-0.7900085,11.0899963-2.3599854c3.4299927-1.5700073,6.4299927-3.6799927,8.9899902-6.3200073
		s4.5700073-5.7000122,6.019989-9.1799927c1.4500122-3.480011,2.1700134-7.1000061,2.1700134-10.8599854
		c0-3.8099976-0.7399902-7.4500122-2.2099915-10.9299927c-1.4700012-3.480011-3.4899902-6.5299988-6.0599976-9.1400146
		s-5.5599976-4.7099915-8.9900055-6.2900085c-3.4299927-1.5700073-7.1000061-2.3599854-11.0099945-2.3599854H139.464859V337.3552551
		z M154.3948669,292.5552368h3.4299927c2.5399933,0,4.8200073,0.4100037,6.8600006,1.2200012
		c2.0299988,0.8099976,3.75,1.9299927,5.1399994,3.3500061c1.3999939,1.4200134,2.4799957,3.1199951,3.2400055,5.1000061
		c0.7599945,1.980011,1.1399994,4.1199951,1.1399994,6.3999939c0,2.3399963-0.3699951,4.480011-1.1000061,6.4400024
		c-0.7400055,1.9599915-1.8000031,3.6400146-3.1999969,5.0700073c-1.3999939,1.4200134-3.1100006,2.5400085-5.1399994,3.3500061
		s-4.3399963,1.2200012-6.9299927,1.2200012h-3.4299927v-32.1500244H154.3948669z M84.9848633,337.3552551V302.23526
		l27.5800018,35.1199951h14.8600006v-57.4500122h-14.8600006v35.1199951l-27.5800018-35.1199951H70.0548553v57.4500122H84.9848633z
		 M9.4848614,279.9052429v33.2999878c0,8.9400024,2.0599976,15.4700012,6.1699982,19.5799866
		s10.4100037,6.1700134,18.9000034,6.1700134c8.4800034,0,14.7699966-2.0599976,18.8600082-6.1700134
		c4.0899963-4.1099854,6.1300049-10.6400146,6.1300049-19.5799866v-33.2999878H44.6848755v31.2399902
		c0,1.6799927-0.0699997,3.3900146-0.1900024,5.1400146c-0.1299973,1.75-0.5199966,3.3399963-1.1800003,4.7600098
		s-1.6600037,2.5799866-3.0100021,3.4700012s-3.2600021,1.3299866-5.75,1.3299866s-4.4200001-0.4400024-5.7900028-1.3299866
		c-1.3700027-0.8900146-2.3799973-2.0400085-3.0100021-3.4700012c-0.6399994-1.4200134-1.0199966-3.0100098-1.1399994-4.7600098
		c-0.1299973-1.75-0.1900024-3.4700012-0.1900024-5.1400146v-31.2399902H9.4848614z"/>
	<path fill="#CD1719" d="M667.7748413,206.8452454v-12.6499939h-39.4699707v12.6499939h12.2700195v44.7999878h14.9299927
		v-44.7999878H667.7748413z M584.4248657,194.1952515H569.494873v57.4500122h14.9299927v-23.7000122h21.5599976v23.7000122
		h14.9299927v-57.4499969h-14.9299927v22.1699982h-21.5599976V194.1952515z M559.5048218,194.1952515h-32.6900024v57.4500122
		h32.6900024v-12.6499939h-17.75v-9.8999939h16.7600098v-12.6500244h-16.7600098v-9.6000061h17.75V194.1952515z
		 M490.7848511,231.0652466h12.2700195c-0.25,1.6799927-0.7399902,3.1000061-1.4500122,4.269989
		c-0.710022,1.1700134-1.6099854,2.1199951-2.710022,2.8599854c-1.0900269,0.7399902-2.3200073,1.269989-3.7000122,1.6000061
		c-1.3699951,0.3299866-2.789978,0.4899902-4.2700195,0.4899902c-2.4899902,0-4.6699829-0.4200134-6.5499878-1.2600098
		s-3.4500122-2.019989-4.7199707-3.5400085c-1.2700195-1.519989-2.2199707-3.3299866-2.8599854-5.4100037
		c-0.6300049-2.0799866-0.9500122-4.3399963-0.9500122-6.7799988c0-2.6900024,0.3699951-5.1300049,1.0999756-7.3099976
		s1.75-4.0499878,3.0499878-5.6000061c1.2999878-1.5499878,2.8599854-2.7399902,4.6900024-3.5799866
		s3.8599854-1.2600098,6.0900269-1.2600098c2.6900024,0,5.0900269,0.6799927,7.2000122,2.0599976
		c2.1099854,1.3699951,3.8200073,3.6300049,5.1400146,6.7799988l14.1699829-5.8699951
		c-2.6400146-5.4299927-6.2199707-9.4500122-10.7399902-12.0399933c-4.5200195-2.5899963-9.7800293-3.8899994-15.7700195-3.8899994
		c-4.6199951,0-8.8099976,0.7400055-12.5700073,2.2100067s-6.9699707,3.5299988-9.6400146,6.1699982
		c-2.6699829,2.6400146-4.7199707,5.8299866-6.1699829,9.5599976s-2.1699829,7.8399963-2.1699829,12.3099976
		c0,4.519989,0.7299805,8.6499939,2.210022,12.3800049c1.4699707,3.730011,3.5300293,6.9299927,6.1699829,9.6000061
		c2.6400146,2.6700134,5.7999878,4.7399902,9.4899902,6.2099915c3.6799927,1.4700012,7.7600098,2.2099915,12.2299805,2.2099915
		c3.25,0,6.3499756-0.4100037,9.2999878-1.2200012s5.6500244-1.9899902,8.1099854-3.5400085
		c2.460022-1.5499878,4.6099854-3.480011,6.4400024-5.7900085s3.2800293-4.9599915,4.3400269-7.9599915
		c0.7600098-2.1300049,1.2700195-4.4400024,1.5200195-6.9299927s0.3800049-5.2600098,0.3800049-8.3099976h-29.6400146v11.5800476
		H490.7848511z M440.5748291,197.2452393c-2.8400269-1.5200043-5.8200073-2.6799927-8.9100037-3.4700012
		c-3.1000061-0.7899933-6.0700073-1.1799927-8.9100037-1.1799927c-3.0499878,0-5.7999878,0.4600067-8.269989,1.3699951
		c-2.4700012,0.9100037-4.5499878,2.1999969-6.25,3.8500061c-1.7000122,1.6499939-3.019989,3.6300049-3.9599915,5.9400024
		s-1.4100037,4.8900146-1.4100037,7.730011s0.4500122,5.1900024,1.3299866,7.0499878
		c0.8900146,1.8599854,2.0599976,3.3900146,3.5100098,4.6099854c1.4500122,1.2200012,3.1000061,2.2000122,4.9500122,2.9299927
		c1.8500061,0.7399902,3.7399902,1.4100037,5.6799927,2.019989c1.6199951,0.5599976,3.0100098,1.0700073,4.1499939,1.519989
		c1.1400146,0.4599915,2.0700073,0.9500122,2.7799988,1.4899902c0.7099915,0.5299988,1.2200012,1.1199951,1.519989,1.75
		c0.2999878,0.6400146,0.4599915,1.3900146,0.4599915,2.25c0,1.4200134-0.6000061,2.6900024-1.7900085,3.8099976
		s-3.0100098,1.6799927-5.4500122,1.6799927c-2.1300049,0-4.2900085-0.480011-6.480011-1.4500122
		c-2.1799927-0.9599915-4.3900146-2.4400024-6.6300049-4.4200134l-6.3999939,12.0400085
		c6.2000122,4.3200073,12.9299927,6.480011,20.1900024,6.480011c3.5100098,0,6.6400146-0.4700012,9.4100037-1.4100037
		s5.1099854-2.2600098,7.0100098-3.9599915c1.9000244-1.7000122,3.3499756-3.7399902,4.3400269-6.1300049
		c0.9899902-2.3900146,1.4799805-5.0499878,1.4799805-8c0-4.3699951-1.1300049-7.9100037-3.3900146-10.6300049
		s-5.8299866-4.8900146-10.7000122-6.519989c-1.2200012-0.4100037-2.4500122-0.7900085-3.7000122-1.1400146
		c-1.25-0.3599854-2.3599854-0.769989-3.3500061-1.2600098c-0.9899902-0.480011-1.7900085-1.0499878-2.3999939-1.7099915
		s-0.9100037-1.5-0.9100037-2.5100098c0-1.4700012,0.6099854-2.6700134,1.8299866-3.5799866
		c1.2200012-0.9200134,2.7900085-1.3699951,4.7200012-1.3699951c1.519989,0,3.1000061,0.3200073,4.7200012,0.9500122
		c1.6199951,0.6400146,3.25,1.6099854,4.8800049,2.9299927L440.5748291,197.2452393z M395.3948364,194.1952515H362.704834
		v57.4500122h32.6900024v-12.6499939h-17.75v-9.8999939h16.7600098v-12.6500244h-16.7600098v-9.6000061h17.75V194.1952515z
		 M282.5548401,251.6452332l4.9500122-33.0700073l12.8800049,33.0700073h5.9400024l13.5599976-33.0700073l4.9500122,33.0700073
		h14.8599854l-9.75-57.4499969H315.164856l-11.4299927,30.6299896l-11.5100098-30.6300049h-14.7799988l-9.75,57.4500122H282.5548401
		z M212.0048676,194.1952515v33.2999878c0,8.9400024,2.0599976,15.4700012,6.1700134,19.5799866
		c4.1099854,4.1199951,10.4100037,6.1700134,18.8999939,6.1700134s14.769989-2.0599976,18.8600159-6.1700134
		c4.0899811-4.1099854,6.1299896-10.6400146,6.1299896-19.5799866v-33.3000031h-14.8599701v31.2400055
		c0,1.6799927-0.0599976,3.3900146-0.1900024,5.1400146s-0.519989,3.3399963-1.1799927,4.7600098
		s-1.6600037,2.5799866-3.0100098,3.4700012s-3.269989,1.3299866-5.75,1.3299866
		c-2.4899902,0-4.4200134-0.4400024-5.7900085-1.3299866c-1.3699951-0.8900146-2.3800049-2.0400085-3.0100098-3.4700012
		c-0.6400146-1.4200134-1.019989-3.0100098-1.1400146-4.7600098c-0.1300049-1.75-0.1900024-3.4700012-0.1900024-5.1400146
		v-31.2400055h-14.9400024V194.1952515z M192.0348663,228.0952454c4.1099854-0.9599915,7.2200012-2.8099976,9.3299866-5.519989
		c2.1099854-2.7200012,3.1600037-6.2600098,3.1600037-10.6300049c0-2.4400024-0.3900146-4.7200012-1.1799927-6.8599854
		c-0.7900085-2.1300049-1.9599915-4.0100098-3.5-5.6400146c-1.5499878-1.6199951-3.519989-2.9100037-5.8999939-3.8500061
		c-2.3900146-0.9400024-5.1799927-1.4100037-8.3800049-1.4100037h-23.2400055v57.4500122h14.9300079v-22.1000061l14.25,22.1000061
		h18.5899963L192.0348663,228.0952454z M177.2548676,205.6952515h2.8200073c2.9500122,0,5.2099915,0.6099854,6.7799988,1.8299866
		s2.3599854,2.9700012,2.3599854,5.2600098s-0.7900085,4.0400085-2.3599854,5.2600098
		c-1.5799866,1.2200012-3.8399963,1.8299866-6.7799988,1.8299866h-2.8200073V205.6952515z M93.1448669,234.8452454
		c1.5700073,3.6799927,3.7599945,6.8999939,6.5500031,9.6400146c2.7899933,2.7399902,6.1300049,4.8900146,10.0200043,6.4400024
		s8.1699982,2.3200073,12.8399963,2.3200073c4.6199951,0,8.8899994-0.7799988,12.8000031-2.3200073
		c3.9100037-1.5499878,7.2799988-3.7000122,10.1000061-6.4400024s5.0200043-5.9500122,6.5899963-9.6400146
		c1.5700073-3.6799927,2.3600006-7.6600037,2.3600006-11.9200134c0-4.269989-0.7899933-8.2399902-2.3600006-11.9200134
		c-1.5800018-3.6799927-3.7700043-6.8900146-6.5899963-9.6400146c-2.8200073-2.7400055-6.1799927-4.8899994-10.1000061-6.4400024
		c-3.9100037-1.5500031-8.1799927-2.3200073-12.8000031-2.3200073c-4.6699982,0-8.9499969,0.7700043-12.8399963,2.3200073
		c-3.8800049,1.5500031-7.2299957,3.6900024-10.0200043,6.4400024c-2.7899933,2.7399902-4.9799957,5.9599915-6.5500031,9.6400146
		c-1.5700073,3.6799927-2.3600006,7.6600037-2.3600006,11.9200134
		C90.7748566,227.1852417,91.5648651,231.1552429,93.1448669,234.8452454 M107.6948547,216.5952454
		c0.8600006-1.9299927,2.0299988-3.6099854,3.5099945-5.0299988c1.4700012-1.4200134,3.1900024-2.5299988,5.1399994-3.3200073
		c1.9600067-0.7900085,4.0299988-1.1799927,6.2100067-1.1799927c2.1799927,0,4.25,0.3900146,6.2100067,1.1799927
		c1.9600067,0.7900085,3.6799927,1.8900146,5.1799927,3.3200073c1.5,1.4200134,2.6799927,3.1000061,3.5399933,5.0299988
		s1.3000031,4.0400085,1.3000031,6.3200073c0,2.2900085-0.4299927,4.3900146-1.3000031,6.3200073
		c-0.8600006,1.9299927-2.0399933,3.6099854-3.5399933,5.0299988s-3.2299957,2.5299988-5.1799927,3.3099976
		c-1.9600067,0.7900085-4.0299988,1.1799927-6.2100067,1.1799927c-2.1799927,0-4.2599945-0.3900146-6.2100067-1.1799927
		c-1.9600067-0.7900085-3.6699982-1.8900146-5.1399994-3.3099976c-1.4700012-1.4200134-2.6399994-3.1000061-3.5099945-5.0299988
		c-0.8600006-1.9299927-1.2899933-4.0400085-1.2899933-6.3200073
		C106.3948669,220.6352539,106.8248596,218.525238,107.6948547,216.5952454 M3.4648571,194.1952515l17.1399994,57.4500122
		h15.2399998l11.2799988-33.2999878l11.2800064,33.2999878h15.2400055l17.1399994-57.4499969H75.1648712l-9.8999939,37.1100006
		l-12.1900024-37.1100006H41.1848755l-12.1900043,37.1100006l-9.9000015-37.1100006H3.4648571V194.1952515z"/>
	<path fill="#CD1719" d="M629.3748169,176.5952454h8.8400269l14.0200195-25.2200012h-12.9500122L629.3748169,176.5952454z
		 M611.244873,142.3852386c4.1099854-0.9600067,7.2299805-2.8099976,9.3300171-5.5200043
		c2.1099854-2.7200012,3.1599731-6.2599945,3.1599731-10.6300049c0-2.4400024-0.4000244-4.7200012-1.1799927-6.8600006
		c-0.789978-2.1300049-1.960022-4.0099945-3.5100098-5.6399994c-1.5499878-1.6199951-3.5200195-2.9100037-5.9000244-3.8500061
		c-2.3900146-0.9400024-5.1799927-1.4100037-8.3800049-1.4100037h-23.2399902v57.4499969h14.9299927v-22.1000061l14.25,22.1000061
		h18.5900269L611.244873,142.3852386z M596.454834,119.9852448h2.8200073c2.9500122,0,5.210022,0.6100006,6.7800293,1.8300018
		s2.3599854,2.9700012,2.3599854,5.2599945s-0.789978,4.0399933-2.3599854,5.2599945
		c-1.5800171,1.2200012-3.8400269,1.8300018-6.7800293,1.8300018h-2.8200073V119.9852448z M573.0648193,108.4752502h-32.6900024
		v57.4499969h32.6900024v-12.6499939h-17.75v-9.8999939h16.7600098v-12.6499939h-16.7600098v-9.6000061h17.75V108.4752502z
		 M500.6148682,108.4752502v57.4499969h32.8400269v-12.6499939h-17.9099731v-44.8000031H500.6148682z M460.8348389,108.4752502
		v57.4499969h32.8400269v-12.6499939h-17.9000244v-44.8000031H460.8348389z M450.8548584,108.4752502H418.164856v57.4499969
		h32.6900024v-12.6499939h-17.75v-9.8999939h16.7600098v-12.6499939h-16.7600098v-9.6000061h17.75V108.4752502z
		 M364.454834,165.9252472v-35.1199951l27.5799866,35.1199951h14.8599854v-57.4499969h-14.8599854v35.1199951
		l-27.5799866-35.1199951h-14.9299927v57.4499969H364.454834z M301.7548523,108.4752502h-14.9299927v57.4499969h14.9299927
		v-23.6999969h21.5599976v23.6999969h14.9299927v-57.4499969h-14.9299927v22.1699982h-21.5599976V108.4752502z
		 M277.2148438,109.8452454c-2.4400024-1.0099945-4.7600098-1.7599945-6.9700012-2.25
		c-2.2099915-0.4799957-4.4599915-0.7200012-6.7399902-0.7200012c-4.0100098,0-7.8499908,0.75-11.5099945,2.25
		s-6.8699951,3.5800018-9.6400146,6.25c-2.769989,2.6699982-4.980011,5.8399963-6.6300049,9.5200043
		c-1.6499939,3.6799927-2.480011,7.7299957-2.480011,12.1499939s0.8399963,8.4900055,2.5100098,12.2299957
		c1.6799927,3.7299957,3.8999939,6.9600067,6.6700134,9.6799927c2.769989,2.7200012,5.9700012,4.8300018,9.6000061,6.3200073
		c3.6300049,1.5,7.4299774,2.25,11.3899994,2.25c1.9299927,0,3.8900146-0.1900024,5.8699951-0.5700073
		c1.980011-0.3800049,4.1099854-0.9799957,6.3999939-1.7899933l1.519989-0.5299988v-17.6800079
		c-3.8099976,4.0599976-8.1000061,6.1000061-12.8800049,6.1000061c-2.1799927,0-4.2200012-0.4100037-6.1000061-1.2200012
		s-3.5199738-1.9299927-4.9199982-3.3500061s-2.4899902-3.1000061-3.2799988-5.0299988s-1.1799927-4.0399933-1.1799927-6.3200073
		c0-2.2299957,0.3900146-4.3200073,1.1799927-6.25c0.7900085-1.9299927,1.8699951-3.5899963,3.2399902-4.9900055
		c1.3699951-1.3999939,3.0099945-2.5,4.9199982-3.3099976c1.8999939-0.8099976,3.9700012-1.2200012,6.2099915-1.2200012
		c5.0799866,0,9.3500061,2.1100006,12.7999878,6.3200073v-17.8399811H277.2148438z M226.3948517,111.525238
		c-2.8500061-1.5200043-5.8200073-2.6799927-8.9200134-3.4700012c-3.1000061-0.7899933-6.0700073-1.1799927-8.9100037-1.1799927
		c-3.0499878,0-5.7999878,0.4600067-8.269989,1.3699951c-2.4599915,0.9100037-4.5499878,2.1999969-6.25,3.8500061
		c-1.7000122,1.6499939-3.019989,3.6300049-3.9599915,5.9400024s-1.4100037,4.8899994-1.4100037,7.7299957
		s0.4400024,5.1900024,1.3299866,7.0500031c0.8900146,1.8600006,2.0599976,3.3899994,3.5100098,4.6100006
		s3.1000061,2.1999969,4.9500122,2.9299927c1.8500061,0.7400055,3.75,1.4100037,5.6799927,2.0200043
		c1.6199951,0.5599976,3.0100098,1.0700073,4.1499939,1.5200043s2.0700073,0.9499969,2.7799988,1.4900055
		c0.7099915,0.5299988,1.2200012,1.1199951,1.519989,1.75c0.3099976,0.6399994,0.4599915,1.3800049,0.4599915,2.25
		c0,1.4199982-0.6000061,2.6900024-1.7900085,3.8099976s-3.0100098,1.6799927-5.4500122,1.6799927
		c-2.1300049,0-4.2900085-0.4799957-6.480011-1.4499969c-2.1799927-0.9600067-4.3900146-2.4400024-6.6300049-4.4199982
		l-6.3999939,12.0399933c6.2000122,4.3200073,12.9299927,6.4799957,20.1900024,6.4799957
		c3.5100098,0,6.6400146-0.4700012,9.4100037-1.4100037s5.1099854-2.2599945,7.0100098-3.9600067
		c1.8999939-1.6999969,3.3500061-3.7400055,4.3399963-6.1300049s1.4899902-5.0500031,1.4899902-8
		c0-4.3699951-1.1300049-7.9100037-3.3900146-10.6300049s-5.8299866-4.8899994-10.7099915-6.5099945
		c-1.2200012-0.4100037-2.4500122-0.7899933-3.7000122-1.1399994c-1.2399902-0.3600006-2.3599854-0.7700043-3.3500061-1.2599945
		c-0.9899902-0.4799957-1.7900085-1.0500031-2.3999939-1.7100067s-0.9100037-1.5-0.9100037-2.5099945
		c0-1.4700012,0.6099854-2.6699982,1.8299866-3.5800018c1.2200012-0.9199982,2.7900085-1.3699951,4.7200012-1.3699951
		c1.519989,0,3.1000061,0.3200073,4.7200012,0.9499969c1.6199951,0.6399994,3.25,1.6100006,4.8800049,2.9299927
		L226.3948517,111.525238z M136.3348541,108.4752502v57.4499969h32.8399963v-12.6499939h-17.8999939v-44.8000031H136.3348541z
		 M126.3548584,108.4752502H93.664856v57.4499969h32.6900024v-12.6499939h-17.75v-9.8999939h16.7599945v-12.6499939h-16.7599945
		v-9.6000061h17.75V108.4752502z M67.464859,165.9252472h14.9299927v-57.4499969H67.464859V165.9252472z M3.4648571,108.4752502
		l24.1500015,57.4499969h11.8900013l24.2300034-57.4499969H47.5048676L33.554863,143.4452515l-13.8700047-34.9700012H3.4648571z"/>
	<path fill="#CD1719" d="M651.244873,22.7652416h-14.9299927v57.4499969h14.9299927V56.5152435h21.5599976v23.6999969h14.9299927
		V22.7652416h-14.9299927v22.1700001H651.244873V22.7652416z M626.704834,24.1352444
		c-2.4400024-1.0100021-4.7600098-1.7600021-6.9699707-2.25c-2.210022-0.4800034-4.460022-0.7200012-6.7399902-0.7200012
		c-4.0100098,0-7.8499756,0.75-11.5100098,2.25c-3.6599731,1.5-6.8699951,3.5800018-9.6400146,6.25
		s-4.9799805,5.8400059-6.6300049,9.5199986c-1.6500244,3.6800003-2.4799805,7.7300034-2.4799805,12.1500015
		s0.8400269,8.4899979,2.5100098,12.2300034c1.6799927,3.7300034,3.9000244,6.9599991,6.6699829,9.6799927
		c2.7700195,2.7200012,5.9699707,4.8300018,9.5999756,6.3200073c3.6300049,1.5,7.4299927,2.25,11.3900146,2.25
		c1.9299927,0,3.8900146-0.1900024,5.8699951-0.5700073s4.1099854-0.9799957,6.4000244-1.7899933l1.5200195-0.5299988V61.2452469
		c-3.8099976,4.0599976-8.0999756,6.0999985-12.8800049,6.0999985c-2.1799927,0-4.2199707-0.4100037-6.0999756-1.2200012
		s-3.5200195-1.9300003-4.9099731-3.3499985c-1.4000244-1.4199982-2.4899902-3.0999985-3.2800293-5.0299988
		c-0.789978-1.9300003-1.1799927-4.0400009-1.1799927-6.3199997c0-2.2300034,0.3900146-4.3199997,1.1799927-6.25
		s1.8699951-3.5899963,3.2399902-4.9899979s3.0100098-2.5,4.9099731-3.3099976
		c1.9000244-0.8099976,3.9699707-1.2200012,6.210022-1.2200012c5.0800171,0,9.3400269,2.1100006,12.7999878,6.3199997V24.1352444
		H626.704834z M560.6448364,80.205246h14.9299927V22.7652416h-14.9299927V80.205246z M533.2948608,22.7652416h-32.6900024
		v57.4499969h32.6900024V67.565239h-17.75v-9.9000015h16.7600098V45.0152359h-16.7600098v-9.5999985h17.75V22.7652416z
		 M459.0148315,22.7652416h-14.9299927v57.4499969h14.9299927V55.3052368l19.4299927,24.9100037h19.3499756l-24.9099731-30.25
		l22.7700195-27.1999989h-18.4400024l-18.210022,23.6999989V22.7652416H459.0148315z M423.5848389,56.6652451
		c4.1099854-0.9599991,7.230011-2.8099976,9.3299866-5.5199966c2.1099854-2.7200012,3.1600037-6.2600021,3.1600037-10.6299973
		c0-2.4400024-0.3900146-4.7200012-1.1799927-6.8600006c-0.7900085-2.1299992-1.9599915-4.010004-3.5100098-5.6400013
		c-1.5499878-1.6200027-3.519989-2.9100037-5.8999939-3.8499985c-2.3900146-0.9400024-5.1799927-1.4100037-8.3800049-1.4100037
		h-23.2399902V80.205246h14.9299927V58.1052475l14.25,22.0999985h18.5899963L423.5848389,56.6652451z M408.8048401,34.2652435
		h2.8200073c2.9500122,0,5.2099915,0.6100006,6.7799988,1.8300018s2.3599854,2.9700012,2.3599854,5.2600021
		s-0.7900085,4.0400009-2.3599854,5.2600021c-1.5799866,1.2200012-3.8399963,1.8300018-6.7799988,1.8300018h-2.8200073V34.2652435z
		 M383.8848572,22.7652416h-32.6900024v57.4499969h32.6900024V67.565239h-17.75v-9.9000015h16.7600098V45.0152359h-16.7600098
		v-9.5999985h17.75V22.7652416z M288.414856,80.205246l4.9500122-33.0699997L306.244873,80.205246h5.9400024l13.5599976-33.0699997
		l4.9500122,33.0699997h14.8599854l-9.75-57.4499969h-14.7799988l-11.4299927,30.6299992l-11.5100098-30.6299992h-14.7799988
		l-9.75,57.4499969H288.414856z M248.7948761,22.7652416h-32.6900024v57.4499969h32.6900024V67.565239h-17.75v-9.9000015h16.7600098
		V45.0152359h-16.7600098v-9.5999985h17.75V22.7652416z M208.7248688,35.4052429V22.7652416h-39.4700012v12.6500034h12.269989
		v44.7999954h14.9299927V35.4152374h12.2700195V35.4052429z M111.8048553,22.7652416v33.3000031
		c0,8.9400024,2.0599976,15.4700012,6.1699982,19.5800018s10.4100037,6.1699982,18.8999939,6.1699982
		s14.7700043-2.0599976,18.8600006-6.1699982s6.1300049-10.6399994,6.1300049-19.5800018V22.7652416h-14.8600006v31.2399998
		c0,1.6800003-0.0700073,3.3899994-0.1900024,5.1399994c-0.1300049,1.75-0.5200043,3.3399963-1.1799927,4.7600021
		s-1.6600037,2.5800018-3.0099945,3.4700012c-1.3500061,0.8899994-3.2599945,1.3300018-5.75,1.3300018
		s-4.4199982-0.4400024-5.7899933-1.3300018s-2.3800049-2.0400009-3.0099945-3.4700012
		c-0.6399994-1.4199982-1.0200043-3.0100021-1.1399994-4.7600021c-0.1300049-1.75-0.1900024-3.4700012-0.1900024-5.1399994
		V22.7652416H111.8048553z M103.3548584,22.7652416H70.664856v57.4499969h32.6900024V67.565239h-17.75v-9.9000015h16.7599945
		V45.0152359H85.6048584v-9.5999985h17.75V22.7652416z M24.4148617,22.7652416H9.4848614v57.4499969h14.9300003V56.5152435
		h21.5599995v23.6999969h14.9300003V22.7652416H45.9748611v22.1700001H24.4148617V22.7652416z"/>
</g>
</svg>
