<?xml version="1.0" encoding="iso-8859-1"?>
<!-- Generator: Adobe Illustrator 24.0.3, SVG Export Plug-In . SVG Version: 6.00 Build 0)  -->
<svg version="1.1" id="Ebene_1" xmlns="http://www.w3.org/2000/svg" xmlns:xlink="http://www.w3.org/1999/xlink" x="0px" y="0px"
	 width="841.8900146px" height="530.6400146px" viewBox="0 0 841.8900146 530.6400146"
	 enable-background="new 0 0 841.8900146 530.6400146" xml:space="preserve">
<g>
	<path fill="#CD1719" d="M290.8078918,162.0852509c0.4599915,1.0899963,1.0899963,2.0400085,1.8999939,2.8599854
		c0.8099976,0.8099976,1.7600098,1.4500122,2.8599854,1.8999939c1.0899963,0.4599915,2.25,0.6900024,3.4700012,0.6900024
		s2.3699951-0.230011,3.4700012-0.6900024c1.0899963-0.4599915,2.0400085-1.0899963,2.8599854-1.8999939
		c0.8099976-0.8099976,1.4500122-1.7600098,1.8999939-2.8599854c0.4599915-1.0899963,0.6799927-2.25,0.6799927-3.4700012
		s-0.230011-2.3699951-0.6799927-3.4700012c-0.4599915-1.0899963-1.0899963-2.0400085-1.8999939-2.8599854
		c-0.8099976-0.8099976-1.769989-1.4500122-2.8599854-1.8999939c-1.0899963-0.4599915-2.25-0.6900024-3.4700012-0.6900024
		s-2.3800049,0.230011-3.4700012,0.6900024s-2.0499878,1.0899963-2.8599854,1.8999939s-1.4500122,1.769989-1.8999939,2.8599854
		s-0.6900024,2.25-0.6900024,3.4700012S290.3578796,160.9952545,290.8078918,162.0852509 M241.0578766,165.935257v-35.1199951
		l27.5800018,35.1199951h14.8599854v-57.4500046h-14.8599854v35.1199875l-27.5800018-35.1199875h-14.9299927v57.4500046H241.0578766
		z M216.1378632,108.4852829h-32.6900024v57.4500046h32.6900024v-12.6499939h-17.75v-9.8999939h16.7600098v-12.6600342h-16.7600098
		v-9.5999985h17.75V108.4852829z M176.0678864,121.125267v-12.6499939h-39.4700012v12.6499939h12.269989v44.7999802h14.9299927
		V121.125267H176.0678864z M131.5678864,121.125267v-12.6499939H92.0978928v12.6499939h12.2700043v44.7999802h14.9300079V121.125267
		H131.5678864z M87.5278854,108.4852829H54.8378792v57.4500046h32.6900063v-12.6499939h-17.75v-9.8999939h16.7599945v-12.6600342
		H69.7778854v-9.5999985h17.75V108.4852829z M35.8778725,142.3852692c4.1199951-0.9599915,7.2299957-2.8099976,9.3300018-5.519989
		c2.1100006-2.7200012,3.1600037-6.2600098,3.1600037-10.6299973c0-2.4400024-0.3899994-4.7200012-1.1799927-6.8599854
		c-0.7899933-2.1300049-1.9600067-4.0100098-3.5099945-5.6400146c-1.5500031-1.6199951-3.5200043-2.9100037-5.8999939-3.8500061
		c-2.3899994-0.9400024-5.1799927-1.4100037-8.380003-1.4100037H6.1578884v57.4500046h14.9299927v-22.1000061l14.2499981,22.1000061
		h18.5899963L35.8778725,142.3852692z M21.0978756,119.9852829h2.8200073c2.9499969,0,5.2100067,0.6099854,6.7799988,1.8299866
		c1.5700054,1.2200012,2.3599987,2.9700012,2.3599987,5.2600098c0,2.2900009-0.7899933,4.0400009-2.3599987,5.2600021
		c-1.5700073,1.2200012-3.8399963,1.8299866-6.7799988,1.8299866h-2.8200073V119.9852829z"/>
	<path fill="#CD1719" d="M534.0878906,80.2152634V45.0952682l27.5800171,35.1199951h14.8599854V22.7652645h-14.8599854v35.1200104
		l-27.5800171-35.1199951h-14.9299927v57.4500122h14.9299927V80.2152634z M509.1679077,22.7652645h-32.6900024v57.4499969
		h32.6900024V67.5652695h-17.75v-9.8999939h16.7600098V45.0152817h-16.7600098v-9.6000061h17.75V22.7652645z
		 M438.9279175,59.6452866h12.2700195c-0.25,1.6799927-0.7399902,3.1000061-1.4500122,4.269989
		c-0.710022,1.1700134-1.6099854,2.1199951-2.7000122,2.8599854s-2.3200073,1.269989-3.7000122,1.6000061
		c-1.3699951,0.3299866-2.789978,0.4899902-4.2700195,0.4899902c-2.4899902,0-4.6699829-0.4200134-6.5499878-1.2600098
		s-3.4500122-2.019989-4.7199707-3.5400085c-1.2700195-1.519989-2.2199707-3.3299866-2.8599854-5.4100037
		c-0.6400146-2.0799866-0.9500122-4.3399963-0.9500122-6.7799988c0-2.6900024,0.3699951-5.1300049,1.1099854-7.3099976
		c0.7299805-2.1799927,1.75-4.0499878,3.0499878-5.6000061c1.2999878-1.5499878,2.8599854-2.7399902,4.6900024-3.5799866
		s3.8599854-1.2600098,6.0999756-1.2600098c2.6900024,0,5.0900269,0.6799927,7.2000122,2.0599976
		c2.1099854,1.3699951,3.8200073,3.6300049,5.1400146,6.7799988l14.1699829-5.8699951
		c-2.6400146-5.4299946-6.2199707-9.4499989-10.7399902-12.0399952s-9.7800293-3.8899994-15.7700195-3.8899994
		c-4.6199951,0-8.8099976,0.7400055-12.5700073,2.2100067s-6.9699707,3.5299988-9.6400146,6.1699982
		c-2.6699829,2.6400013-4.7199707,5.8299885-6.1699829,9.5599995s-2.1699829,7.8399963-2.1699829,12.2999878
		c0,4.519989,0.7299805,8.6499939,2.210022,12.3800049c1.4699707,3.730011,3.5300293,6.9299927,6.1699829,9.6000061
		c2.6400146,2.6700134,5.7999878,4.7399902,9.4899902,6.2099915c3.6799927,1.4700012,7.7600098,2.2099915,12.2299805,2.2099915
		c3.25,0,6.3499756-0.4100037,9.2999878-1.2200012s5.6500244-1.9899902,8.1099854-3.5400085
		c2.460022-1.5499878,4.6099854-3.480011,6.4400024-5.7900085s3.2800293-4.9599915,4.3400269-7.9599915
		c0.7600098-2.1300049,1.2700195-4.4400024,1.5200195-6.9299927s0.3800049-5.2600098,0.3800049-8.3099976H438.947876v11.5900574
		H438.9279175z M357.7078857,80.2152634V45.0952682l27.5800171,35.1199951h14.8599854V22.7652645h-14.8599854v35.1200104
		l-27.5799866-35.1199951h-14.9299927v57.4500122h14.9299622V80.2152634z M281.4378967,22.7652645v33.3000031
		c0,8.9400024,2.0599976,15.4700012,6.1700134,19.5799866c4.1099854,4.1099854,10.4100037,6.1700134,18.8999939,6.1700134
		c8.480011,0,14.769989-2.0599976,18.8600159-6.1700134c4.0899963-4.1099854,6.1300049-10.6400146,6.1300049-19.5799866V22.7652645
		h-14.8600464v31.2400074c0,1.6799927-0.0599976,3.3900146-0.1900024,5.1400146s-0.519989,3.3399963-1.1799927,4.7600098
		s-1.6700134,2.5799866-3.0100098,3.4700012c-1.3500061,0.8900146-3.2600098,1.3299866-5.75,1.3299866
		s-4.4200134-0.4400024-5.7900085-1.3299866c-1.3699951-0.8900146-2.3800049-2.0400085-3.0100098-3.4700012
		c-0.6400146-1.4200134-1.019989-3.0100098-1.1400146-4.7600098c-0.1300049-1.75-0.1900024-3.4700012-0.1900024-5.1400146
		V22.7652645H281.4378967z M233.6678619,22.7652645h-14.9299927v57.4499969h14.9299927V56.5152512h21.5599976v23.7000122h14.9300079
		V22.7652645h-14.9300079v22.1700001h-21.5599976V22.7652645z M208.747879,22.7652645h-32.6900024v57.4499969h32.6900024V67.5652695
		h-17.75v-9.8999939h16.7600098V45.0152817H190.997879v-9.6000061h17.75V22.7652645z M149.8578644,80.2152634h14.9299927V22.7652645
		h-14.9299927V80.2152634z M143.4578705,22.7652645H95.9178696v12.6500111h22.6300049L91.3478775,80.2152634h49.1399918V67.5652695
		h-24.0799942L143.4578705,22.7652645z M87.7578812,22.7652645H55.0678749v57.4499969h32.6900063V67.5652695h-17.75v-9.8999939
		h16.7599945V45.0152817H70.0078812v-9.6000061h17.75V22.7652645z M6.1578884,80.2152634h24
		c3.0500011,0,5.7899914-0.3599854,8.2299938-1.0700073c2.4400024-0.7099915,4.5099945-1.7799988,6.2100067-3.2000122
		c1.6999969-1.4200134,3.0200043-3.1700134,3.9600067-5.2600098c0.9400024-2.0799866,1.4100037-4.4700012,1.4100037-7.1600037
		c0-1.730011-0.1999969-3.3500061-0.6100006-4.8800049c-0.4100037-1.519989-1.0800018-2.8999939-2.0200043-4.1099854
		c-0.9400024-1.2200012-2.1600037-2.25-3.6600037-3.0899963s-3.3099976-1.4599915-5.4499969-1.8699951
		c2.1300049-1.3200073,3.7200012-2.9299927,4.7599945-4.8399963c1.0399933-1.8999939,1.5599976-4.2999878,1.5599976-7.2000122
		c0-4.769989-1.3699951-8.4299946-4.1100006-10.9700031c-2.7400055-2.5399933-6.7599945-3.8099976-12.0399914-3.8099976h-22.25
		v57.460022H6.1578884z M21.0978756,34.1952744h2.7400055c4.6699982,0,7.0099945,1.8500061,7.0099945,5.5599976
		s-2.3399963,5.5599976-7.0099945,5.5599976h-2.7400055V34.1952744z M21.0978756,56.4452744h3.2799988
		c3.7599945,0,6.4499969,0.480011,8.0799999,1.4500122c1.6199951,0.9599915,2.4400024,2.5100098,2.4400024,4.6499939
		c0,2.1300049-0.8099976,3.6799927-2.4400024,4.6499939c-1.630003,0.9700012-4.3200054,1.4500122-8.0799999,1.4500122h-3.2799988
		V56.4452744z"/>
</g>
</svg>
