<?xml version="1.0" encoding="iso-8859-1"?>
<!-- Generator: Adobe Illustrator 24.0.3, SVG Export Plug-In . SVG Version: 6.00 Build 0)  -->
<svg version="1.1" id="Ebene_1" xmlns="http://www.w3.org/2000/svg" xmlns:xlink="http://www.w3.org/1999/xlink" x="0px" y="0px"
	 width="841.8900146px" height="530.6400146px" viewBox="0 0 841.8900146 530.6400146"
	 enable-background="new 0 0 841.8900146 530.6400146" xml:space="preserve">
<g>
	<path fill="#CD1719" d="M477.1679077,162.0752411c0.460022,1.0899963,1.0900269,2.0400085,1.9000244,2.8599854
		c0.8099976,0.8099976,1.7600098,1.4500122,2.8599854,1.8999939c1.0900269,0.4599915,2.25,0.6900024,3.4699707,0.6900024
		s2.3699951-0.230011,3.4699707-0.6900024c1.0900269-0.4599915,2.039978-1.0899963,2.8599854-1.8999939
		c0.8099976-0.8099976,1.4500122-1.7600098,1.9000244-2.8599854c0.460022-1.0899963,0.6900024-2.25,0.6900024-3.4700012
		s-0.2299805-2.3699951-0.6900024-3.4700012c-0.460022-1.0899963-1.0900269-2.0400085-1.9000244-2.8599854
		c-0.8099976-0.8099976-1.7700195-1.4500122-2.8599854-1.8999939c-1.0900269-0.4599915-2.25-0.6900024-3.4699707-0.6900024
		s-2.3800049,0.230011-3.4699707,0.6900024c-1.0900269,0.4599915-2.039978,1.0899963-2.8599854,1.8999939
		c-0.8099976,0.8099976-1.4500122,1.769989-1.9000244,2.8599854c-0.460022,1.0899963-0.6900024,2.25-0.6900024,3.4700012
		S476.7078857,160.9852448,477.1679077,162.0752411 M481.8179321,121.125267v-12.6499939h-39.4699707v12.6499939h12.2700195
		v44.7999802h14.9299927V121.125267H481.8179321z M425.6679077,142.3852386
		c4.1099854-0.9599915,7.2199707-2.8099976,9.3300171-5.519989c2.1099854-2.7200012,3.1599731-6.2600098,3.1599731-10.6299973
		c0-2.4400024-0.3900146-4.7200012-1.1799927-6.8599854c-0.789978-2.1300049-1.960022-4.0100098-3.5100098-5.6400146
		c-1.5499878-1.6199951-3.5200195-2.9100037-5.9000244-3.8500061c-2.3900146-0.9400024-5.1799927-1.4100037-8.3800049-1.4100037
		H395.947876v57.4500046h14.9299927v-22.1000061l14.25,22.1000061h18.5900269L425.6679077,142.3852386z M410.8779297,119.9852524
		h2.8200073c2.9500122,0,5.210022,0.6099854,6.7800293,1.8299866s2.3599854,2.9700012,2.3599854,5.2600098
		c0,2.2900009-0.789978,4.0400009-2.3599854,5.2600021c-1.5800171,1.2200012-3.8400269,1.8299866-6.7800293,1.8299866h-2.8200073
		V119.9852524z M387.487915,108.4752426h-32.6900024v57.4500046h32.6900024v-12.6499939h-17.75v-9.8999939h16.7600098v-12.6499939
		H369.737915v-9.5999985h17.75V108.4752426z M263.7579041,108.4752426l17.1399841,57.4500046h15.2399902l11.2799988-33.2999878
		l11.2799988,33.2999878h15.2399902l17.1400146-57.4500046h-15.6199951l-9.8999939,37.1100082l-12.1900024-37.1099777h-11.8900146
		l-12.1900024,37.1099777l-9.8999939-37.1099777h-15.6299744V108.4752426z M238.0078888,142.3852386
		c4.1099854-0.9599915,7.230011-2.8099976,9.3299866-5.519989c2.1099854-2.7200012,3.1600037-6.2600098,3.1600037-10.6299973
		c0-2.4400024-0.3900146-4.7200012-1.1799927-6.8599854c-0.7900085-2.1300049-1.9599915-4.0100098-3.5100098-5.6400146
		c-1.5499878-1.6199951-3.519989-2.9100037-5.8999939-3.8500061c-2.3900146-0.9400024-5.1799927-1.4100037-8.3800049-1.4100037
		h-23.2399902v57.4500046h14.9299927v-22.1000061l14.25,22.1000061h18.5900116L238.0078888,142.3852386z M223.2178802,119.9852524
		h2.8200073c2.9500122,0,5.2099915,0.6099854,6.7799988,1.8299866s2.3599854,2.9700012,2.3599854,5.2600098
		c0,2.2900009-0.7900085,4.0400009-2.3599854,5.2600021c-1.5799866,1.2200012-3.8399963,1.8299866-6.7799988,1.8299866h-2.8200073
		V119.9852524z M180.5578766,165.9252472h14.9299927v-57.4500046h-14.9299927V165.9252472z M116.2478867,165.9252472
		l4.9500122-33.0700073l12.8799973,33.0700073h5.9400024l13.5599976-33.0700073l4.9500122,33.0700073h14.8599854l-9.75-57.4500046
		h-14.7799988l-11.4299927,30.6299973l-11.5100021-30.6299973h-14.7799988l-9.75,57.4500046H116.2478867z M84.7878952,111.5252609
		c-2.8500061-1.519989-5.8200073-2.6799927-8.9100037-3.4700012c-3.1000061-0.7900085-6.0700073-1.1799927-8.9100037-1.1799927
		c-3.0500069,0-5.8000069,0.4599915-8.2700081,1.3699951c-2.4600067,0.9200134-4.5500031,2.2000122-6.25,3.8500061
		s-3.0200043,3.6300049-3.9600067,5.9400024s-1.4100037,4.8900146-1.4100037,7.730011
		c0,2.8399887,0.4400024,5.1899948,1.3300018,7.0499802c0.8899994,1.8500061,2.0599976,3.3900146,3.5,4.6099854
		c1.4499969,1.2200012,3.1000061,2.2000122,4.9499969,2.9299927c1.8500061,0.7399902,3.75,1.4100037,5.6799927,2.019989
		c1.6199989,0.5599976,3.0099983,1.0700073,4.1499977,1.519989c1.1399994,0.4599915,2.0700073,0.9500122,2.7799988,1.4899902
		c0.7100067,0.5299988,1.2200012,1.1199951,1.5200043,1.75c0.3099976,0.6400146,0.4600067,1.3900146,0.4600067,2.25
		c0,1.4200134-0.6000061,2.6900024-1.7899933,3.8099976c-1.1900024,1.1199951-3.0099945,1.6799927-5.4499969,1.6799927
		c-2.1300087,0-4.2899971-0.480011-6.4799995-1.4500122c-2.1799927-0.9599915-4.3899994-2.4400024-6.6300049-4.4200134
		l-6.3999939,12.0400085c6.1999969,4.3200073,12.9300079,6.480011,20.1900063,6.480011
		c3.5,0,6.6399994-0.4700012,9.4100037-1.4100037s5.1000061-2.2600098,7.0099945-3.9599915
		c1.8999939-1.7000122,3.3500061-3.7399902,4.3399963-6.1300049s1.4899902-5.0499878,1.4899902-8
		c0-4.3699951-1.1300049-7.9100037-3.3899994-10.6300049s-5.8300018-4.8900146-10.7100067-6.519989
		c-1.2200012-0.4100037-2.4499969-0.7900085-3.6999969-1.1400146s-2.3600006-0.769989-3.3500061-1.2600098
		c-0.9900055-0.4800034-1.7899933-1.0499802-2.3999977-1.7099838c-0.6100006-0.6600037-0.9100037-1.5-0.9100037-2.5100098
		c0-1.4700012,0.6100006-2.6700134,1.8300056-3.5799866c1.2200012-0.9200134,2.7899933-1.3699951,4.7200012-1.3699951
		c1.5200043,0,3.1000061,0.3200073,4.7200012,0.9500122c1.6199951,0.6400146,3.25,1.6099854,4.8800049,2.9299927
		L84.7878952,111.5252609z M38.8378944,108.4752426H6.1478939v57.4500046h32.6900024v-12.6499939H21.0878963v-9.8999939h16.7599926
		v-12.6499939H21.0878963v-9.5999985h17.7499981V108.4752426z"/>
	<path fill="#CD1719" d="M252.3278961,80.2052536V45.0752487l27.5800018,35.1300049h14.8599854V22.7552547h-14.8599854V57.875267
		L252.3278961,22.75527h-14.9400024v57.4500122h14.9400024V80.2052536z M210.7978973,80.2052536H225.72789V22.7552547h-14.9299927
		V80.2052536z M161.1278839,80.2052536h24c3.0499878,0,5.7900085-0.3599854,8.230011-1.0700073
		c2.4400024-0.7099915,4.5100098-1.7799988,6.2099915-3.2000122c1.7000122-1.4200134,3.019989-3.1700134,3.9599915-5.2600098
		c0.9400024-2.0799866,1.4100037-4.4700012,1.4100037-7.1600037c0-1.730011-0.2000122-3.3500061-0.6099854-4.8800049
		c-0.4100037-1.519989-1.0799866-2.8999939-2.019989-4.1099854c-0.9400024-1.2200012-2.1600037-2.25-3.6600037-3.0899963
		s-3.3200073-1.4600067-5.4500122-1.8699951c2.1300049-1.3200073,3.7200012-2.9299927,4.7600098-4.8399963
		c1.0400085-1.8999939,1.5599976-4.3000031,1.5599976-7.1999969c0-4.7700043-1.3699951-8.4300098-4.1199951-10.9700031
		c-2.7399902-2.5399933-6.7600098-3.8099976-12.0400085-3.8099976h-22.25v57.4600067H161.1278839z M176.0578766,34.1852493
		h2.7399902c4.6700134,0,7.0100098,1.8500061,7.0100098,5.5599976c0,3.7100067-2.3399963,5.5599976-7.0100098,5.5599976h-2.7399902
		V34.1852493z M176.0578766,56.4352646h3.2799988c3.7600098,0,6.4500122,0.480011,8.0799866,1.4500122
		c1.6199951,0.9599915,2.4400024,2.5100098,2.4400024,4.6499939c0,2.1300049-0.8099976,3.6799927-2.4400024,4.6499939
		s-4.3200073,1.4500122-8.0799866,1.4500122h-3.2799988V56.4352646z M99.0278854,22.7652493H84.0978928v57.4500122h14.9299927
		V56.5152512h21.5599976v23.7000122h14.929985V22.7652645h-14.929985v22.1700001H99.0278854V22.7652493z M72.9678879,24.1352444
		c-2.4400024-1.0200043-4.7599945-1.7599945-6.9700012-2.25c-2.2100105-0.4799957-4.4600105-0.7200012-6.7400093-0.7200012
		c-4.0099945,0-7.8500061,0.75-11.5099945,2.25c-3.6600037,1.5-6.8699951,3.5800018-9.6399994,6.25
		s-4.9799957,5.8399982-6.630003,9.5200062c-1.6499939,3.6799927-2.4799957,7.7299957-2.4799957,12.1499939
		s0.8399963,8.5000153,2.5099945,12.2299957c1.6799908,3.730011,3.899992,6.9599915,6.6699963,9.6799927
		s5.9700012,4.8299866,9.6000061,6.3200073c3.6300049,1.5,7.4299927,2.25,11.3899994,2.25
		c1.9299927,0,3.8899994-0.1900024,5.8699989-0.5700073c1.9799957-0.3800049,4.1100006-0.980011,6.3999939-1.7900085
		l1.5200043-0.5299988V61.2452316c-3.8099976,4.0700073-8.1000061,6.1000061-12.8800087,6.1000061
		c-2.1799927,0-4.2200012-0.4100037-6.1000061-1.2200012s-3.5200043-1.9299927-4.9100037-3.3500061
		c-1.3999939-1.4200134-2.4900055-3.1000061-3.2799988-5.0299988s-1.1799927-4.0400085-1.1799927-6.3200073
		c0-2.2299957,0.3899994-4.3200073,1.1799927-6.25s1.8699951-3.5899963,3.2400055-4.9900055
		c1.3699951-1.3999939,3.0099945-2.5,4.9100037-3.3099976c1.8999939-0.8099976,3.9700012-1.2200012,6.2100067-1.2200012
		c5.0800056,0,9.3500099,2.1100006,12.8000069,6.3200073v-17.839983H72.9678879z M6.1578884,80.2052536h14.9299927V22.7552547
		H6.1578884V80.2052536z"/>
</g>
</svg>
