<?xml version="1.0" encoding="iso-8859-1"?>
<!-- Generator: Adobe Illustrator 24.0.3, SVG Export Plug-In . SVG Version: 6.00 Build 0)  -->
<svg version="1.1" id="Ebene_1" xmlns="http://www.w3.org/2000/svg" xmlns:xlink="http://www.w3.org/1999/xlink" x="0px" y="0px"
	 width="841.8900146px" height="530.6400146px" viewBox="0 0 841.8900146 530.6400146"
	 enable-background="new 0 0 841.8900146 530.6400146" xml:space="preserve">
<g>
	<path fill="#CD1719" d="M535.6992188,162.1167908c0.460022,1.0899963,1.0900269,2.0400085,1.9000244,2.8599854
		c0.8099976,0.8099976,1.7700195,1.4500122,2.8599854,1.8999939c1.0900269,0.4599915,2.25,0.6900024,3.4699707,0.6900024
		s2.3699951-0.230011,3.4699707-0.6900024c1.0900269-0.4599915,2.039978-1.0899963,2.8599854-1.8999939
		c0.8099976-0.8099976,1.4500122-1.7600098,1.9000244-2.8599854c0.460022-1.0899963,0.6900024-2.25,0.6900024-3.4700012
		s-0.2299805-2.3699951-0.6900024-3.4700012c-0.460022-1.0899963-1.0900269-2.0400085-1.9000244-2.8599854
		c-0.8099976-0.8099976-1.7700195-1.4500122-2.8599854-1.8999939c-1.0900269-0.4599915-2.25-0.6900024-3.4699707-0.6900024
		s-2.3800049,0.230011-3.4699707,0.6900024c-1.0900269,0.4599915-2.0499878,1.0899963-2.8599854,1.8999939
		s-1.4500122,1.769989-1.9000244,2.8599854c-0.460022,1.0899963-0.6900024,2.25-0.6900024,3.4700012
		S535.2492065,161.0267944,535.6992188,162.1167908 M527.0192261,108.5167923h-32.6900024v57.4500046h32.6900024V153.316803h-17.75
		v-9.8999939h16.7600098v-12.6499939h-16.7600098v-9.5999985h17.75V108.5167923z M451.5891724,108.5167923h-14.9299927v57.4500046
		h14.9299927v-24.9200134l19.4299927,24.9200134h19.3499756l-24.9099731-30.25l22.7800293-27.2000046h-18.4400024
		l-18.210022,23.7000046V108.5167923z M426.4492188,109.8868179c-2.4400024-1.0100098-4.7600098-1.7600098-6.9699707-2.25
		c-2.210022-0.480011-4.460022-0.7200012-6.7399902-0.7200012c-4.0100098,0-7.8499756,0.75-11.5100098,2.25
		c-3.6599731,1.5-6.8699951,3.5799866-9.6400146,6.25s-4.980011,5.8399963-6.6300049,9.519989
		c-1.6499939,3.679985-2.480011,7.7300034-2.480011,12.1499863c0,4.4200134,0.8399963,8.5,2.5100098,12.230011
		c1.6799927,3.730011,3.8999939,6.9599915,6.6700134,9.6799927s5.9699707,4.8299866,9.5999756,6.3200073
		c3.6300049,1.5,7.4299927,2.25,11.3900146,2.25c1.9299927,0,3.8900146-0.1900024,5.8699951-0.5700073
		s4.1099854-0.980011,6.4000244-1.7900085l1.5200195-0.5299988v-17.6799927
		c-3.8099976,4.0599976-8.0999756,6.0899963-12.8800049,6.0899963c-2.1799927,0-4.2199707-0.4100037-6.0999756-1.2200012
		s-3.5200195-1.9299927-4.9099731-3.3500061c-1.4000244-1.4200134-2.4899902-3.1000061-3.2800293-5.0299988
		c-0.789978-1.9299927-1.1799927-4.0400085-1.1799927-6.3200073c0-2.230011,0.3900146-4.3200073,1.1799927-6.25
		s1.8699951-3.5899887,3.2399902-4.9899826s3.0100098-2.5,4.9099731-3.3099976
		c1.9099731-0.8099976,3.9699707-1.2200012,6.210022-1.2200012c5.0800171,0,9.3400269,2.1099854,12.7999878,6.3200073v-17.8299866
		H426.4492188z M375.8591919,108.5167923h-32.6900024v57.4500046h32.6900024V153.316803h-17.75v-9.8999939h16.7600098v-12.6499939
		h-16.7600098v-9.5999985h17.75V108.5167923z M309.8692017,142.4267883c4.1199951-0.9599915,7.230011-2.8099976,9.3299866-5.519989
		c2.1099854-2.7200012,3.1600037-6.2600098,3.1600037-10.6299973c0-2.4400024-0.3900146-4.7200012-1.1799927-6.8599854
		c-0.7900085-2.1300049-1.9599915-4.0100098-3.5100098-5.6400146c-1.5499878-1.6300049-3.519989-2.9100037-5.8999939-3.8500061
		c-2.3900146-0.9400024-5.1799927-1.4100037-8.3800049-1.4100037h-23.2399902v57.4500046h14.9299927v-22.1000061l14.25,22.1000061
		h18.6000061L309.8692017,142.4267883z M295.0892029,120.0268021h2.8200073c2.9400024,0,5.2099915,0.6099854,6.7799988,1.8299866
		s2.3599854,2.9700012,2.3599854,5.2600098c0,2.2900009-0.7900085,4.0400009-2.3599854,5.2600021
		c-1.5700073,1.2200012-3.8399963,1.8299866-6.7799988,1.8299866h-2.8200073V120.0268021z M270.1791992,108.5167923h-32.6900024
		v57.4500046h32.6900024V153.316803h-17.75v-9.8999939h16.7600098v-12.6499939h-16.7600098v-9.5999985h17.75V108.5167923z
		 M179.8891907,165.9667969h22.1000061c3.9599915,0,7.6600037-0.7900085,11.0899963-2.3599854
		c3.4299927-1.5700073,6.4299927-3.6799927,8.9899902-6.3200073s4.5700073-5.7000122,6.019989-9.1799927
		c1.4500122-3.480011,2.1700134-7.1000061,2.1700134-10.8599854c0-3.8099976-0.7399902-7.4500122-2.2099915-10.929985
		c-1.4700012-3.480011-3.4899902-6.5299988-6.0599976-9.1400146c-2.5700073-2.6199951-5.5599976-4.7099915-8.9899902-6.2900085
		c-3.4299927-1.5700073-7.1000061-2.3599854-11.0100098-2.3599854h-22.1000061V165.9667969z M194.8192139,121.1668167h3.4299927
		c2.5400085,0,4.8299866,0.4100037,6.8599854,1.2200012s3.7399902,1.9299927,5.1400146,3.3500061
		c1.3999939,1.4200134,2.480011,3.1199875,3.2399902,5.1099777s1.1400146,4.1099854,1.1400146,6.3999939
		c0,2.3399963-0.3699951,4.480011-1.1099854,6.4400024s-1.7999878,3.6499939-3.2000122,5.0700073
		c-1.3999939,1.4200134-3.1099854,2.5400085-5.1400146,3.3500061c-2.0299988,0.8099976-4.3399963,1.2200012-6.9299927,1.2200012
		h-3.4299927V121.1668167z M157.6391907,111.5668106c-2.8500061-1.519989-5.8200073-2.6799927-8.9100037-3.4700012
		c-3.1000061-0.7900085-6.0700073-1.1799927-8.9200134-1.1799927c-3.0499878,0-5.7999878,0.4599915-8.2700043,1.3699951
		c-2.4600067,0.9200134-4.5499954,2.2000122-6.2499924,3.8500061s-3.0200043,3.6300049-3.9600067,5.9400024
		s-1.4100037,4.8900146-1.4100037,7.730011c0,2.8499985,0.4400024,5.1899948,1.3300018,7.0499802
		c0.8899994,1.8500061,2.0599976,3.3900146,3.5,4.6099854c1.4499969,1.2200012,3.1000061,2.2000122,4.9499893,2.9299927
		c1.8500061,0.7399902,3.7399902,1.4100037,5.6799927,2.019989c1.6199951,0.5599976,3.0100098,1.0700073,4.1499939,1.519989
		c1.1400146,0.4599915,2.0700073,0.9500122,2.7799988,1.4899902s1.2200012,1.1199951,1.519989,1.75
		c0.3099976,0.6400146,0.4599915,1.3900146,0.4599915,2.25c0,1.4200134-0.6000061,2.6900024-1.7900085,3.8099976
		s-3.0100098,1.6799927-5.4500122,1.6799927c-2.1300049,0-4.2900085-0.480011-6.4799957-1.4500122
		c-2.1900024-0.9599915-4.3899918-2.4400024-6.6299973-4.4200134l-6.3999939,12.0400085
		c6.1999969,4.3200073,12.9300003,6.480011,20.1899796,6.480011c3.5100098,0,6.6400146-0.4700012,9.4100037-1.4100037
		s5.1099854-2.2600098,7.0100098-3.9599915c1.8999939-1.7000122,3.3500061-3.7399902,4.3399963-6.1300049
		s1.4899902-5.0499878,1.4899902-8c0-4.3699951-1.1300049-7.9100037-3.3900146-10.6300049s-5.8299866-4.8900146-10.7000122-6.519989
		c-1.2200012-0.4100037-2.4500122-0.7900085-3.7000122-1.1400146c-1.2399902-0.3500061-2.3599854-0.769989-3.3500061-1.2600098
		c-0.9899902-0.480011-1.7900085-1.0499802-2.3999939-1.7099838s-0.9200134-1.5-0.9200134-2.5100098
		c0-1.4700012,0.6099854-2.6700134,1.8299866-3.5799866c1.2200012-0.9200134,2.7900085-1.3699951,4.7200012-1.3699951
		c1.519989,0,3.1000061,0.3200073,4.7200012,0.9500122c1.6199951,0.6400146,3.25,1.6099854,4.8800049,2.9299927
		L157.6391907,111.5668106z M61.8692093,108.5167923v33.2999802c0,8.9400024,2.0599976,15.4700012,6.1699982,19.5799866
		c4.1199951,4.1099854,10.4100037,6.1700134,18.8999939,6.1700134c8.4799957,0,14.7700043-2.0599976,18.8600006-6.1700134
		c4.0899963-4.1099854,6.1300049-10.6400146,6.1300049-19.5799866v-33.2999802H97.0692062v31.2399826
		c0,1.6799927-0.0599976,3.3900146-0.1900024,5.1400146s-0.5200043,3.3399963-1.1799927,4.7600098
		c-0.6600037,1.4200134-1.6600037,2.5799866-3.0099945,3.4700012c-1.3500061,0.8900146-3.2599945,1.3299866-5.75,1.3299866
		s-4.4199982-0.4400024-5.7899933-1.3299866c-1.3699951-0.8900146-2.3800049-2.0400085-3.0099945-3.4700012
		c-0.6399994-1.4200134-1.0200043-3.0100098-1.1399994-4.7600098c-0.1300049-1.75-0.1900024-3.4700012-0.1900024-5.1400146
		v-31.2399826H61.8692093z M44.799202,165.9667969h15.9299927l-21.8699951-57.4500046h-16.300005L0.6891922,165.9667969h15.9200058
		l3.4299927-9.980011H41.369194L44.799202,165.9667969z M23.9992123,144.6368103l6.7100067-19.1199875l6.6999989,19.1199875
		H23.9992123z"/>
	<path fill="#CD1719" d="M209.3792114,25.8468056c-2.8500061-1.5200043-5.8200073-2.6799927-8.9100037-3.4700012
		c-3.1000061-0.7899933-6.0700073-1.1799927-8.9100037-1.1799927c-3.0499878,0-5.7999878,0.4600067-8.269989,1.3699951
		c-2.4599915,0.9100037-4.5499878,2.1999969-6.25,3.8500061c-1.7000122,1.6499939-3.019989,3.6300049-3.9599915,5.9400024
		s-1.4100037,4.8899994-1.4100037,7.7299957c0,2.8500061,0.4400024,5.1900024,1.3299866,7.0500031
		c0.8900146,1.8500061,2.0599976,3.3899994,3.5100098,4.6100006c1.4500122,1.219986,3.1000061,2.1999969,4.9500122,2.9300079
		c1.8500061,0.7399902,3.75,1.4100037,5.6799927,2.019989c1.6199951,0.5599976,3.0100098,1.0700073,4.1499939,1.519989
		c1.1400146,0.4599915,2.0700073,0.9500122,2.7799988,1.4899902c0.7099915,0.5299988,1.2200012,1.1199951,1.519989,1.75
		c0.2999878,0.6400146,0.4599915,1.3800049,0.4599915,2.25c0,1.4200172-0.6000061,2.6900063-1.7900085,3.8100014
		s-3.0100098,1.6799927-5.4500122,1.6799927c-2.1300049,0-4.2900085-0.480011-6.480011-1.4500122
		c-2.1799927-0.9599915-4.3900146-2.4400024-6.6300049-4.4200172l-6.3999939,12.0400124
		c6.2000122,4.3200073,12.9299927,6.480011,20.1900024,6.480011c3.5,0,6.6400146-0.4700012,9.4100037-1.4100037
		s5.1099854-2.2600098,7.0100098-3.9599915c1.8999939-1.7000122,3.3500061-3.7399902,4.3399963-6.1300049
		s1.4899902-5.0499878,1.4899902-8.0000038c0-4.3699951-1.1300049-7.9100037-3.3900146-10.6300049
		s-5.8299866-4.8899994-10.7000122-6.5099945c-1.2200012-0.3999939-2.4500122-0.7899933-3.7000122-1.1399994
		c-1.2399902-0.3500061-2.3599854-0.7700043-3.3500061-1.2599945c-0.9899902-0.4799957-1.7900085-1.0500031-2.3999939-1.7100067
		s-0.9100037-1.5-0.9100037-2.5099945c0-1.4700012,0.6099854-2.6699982,1.8299866-3.5800018
		s2.7900085-1.3699951,4.7200012-1.3699951c1.519989,0,3.1000061,0.3200073,4.7200012,0.9499969
		c1.6199951,0.6300049,3.25,1.6100006,4.8800049,2.9299927L209.3792114,25.8468056z M113.6091995,22.806797v33.2999878
		c0,8.9400063,2.0599976,15.470005,6.1699982,19.5799904s10.409996,6.1700134,18.9000015,6.1700134
		c8.480011,0,14.769989-2.0599976,18.8599854-6.1700134c4.0899963-4.1099854,6.1300049-10.6400146,6.1300049-19.5799904V22.8067818
		h-14.8599854v31.2400055c0,1.6799927-0.0599976,3.3900146-0.1900024,5.1400146s-0.519989,3.3399963-1.1799927,4.7600098
		c-0.6600037,1.4200172-1.6600037,2.5799904-3.0100098,3.470005s-3.2600098,1.3299866-5.75,1.3299866
		s-4.4200134-0.4400024-5.7900085-1.3299866c-1.3699951-0.8900146-2.3800049-2.0400085-3.0099945-3.470005
		c-0.6300049-1.4200134-1.0200043-3.0100098-1.1399994-4.7600098c-0.1300049-1.75-0.1900024-3.4700012-0.1900024-5.1400146
		V22.8067818h-14.9399948V22.806797z M96.5392075,80.2468033h15.9199982L90.5892105,22.7968025H74.2892075L52.4192123,80.2468033
		h15.9199982l3.4299927-9.980011H93.099205L96.5392075,80.2468033z M75.7392044,58.9168129l6.7100067-19.1199951
		l6.6999969,19.1199951H75.7392044z M35.8892136,56.7067909c4.1199951-0.9599915,7.2299957-2.8099976,9.3300018-5.5200043
		c2.1100006-2.7200012,3.1600037-6.2599945,3.1600037-10.6300049c0-2.4400024-0.3899994-4.7200012-1.1799927-6.8600006
		c-0.7899933-2.1300049-1.9600067-4.0099945-3.5099945-5.6399994c-1.5500031-1.6199951-3.5200043-2.9100037-5.8999939-3.8500061
		c-2.3899994-0.9400024-5.1799927-1.4100037-8.3800068-1.4100037H6.1692262v57.4500008h14.9299927V58.1467628l14.2500019,22.1000099
		h18.5899963L35.8892136,56.7067909z M21.1091976,34.306797h2.8200073c2.9499969,0,5.2100067,0.6100006,6.7799988,1.8300018
		c1.5700092,1.2200012,2.3600025,2.9700012,2.3600025,5.2599945s-0.7899933,4.0399933-2.3600025,5.2599945
		c-1.5700073,1.2200012-3.8399963,1.8300018-6.7799988,1.8300018h-2.8200073V34.306797z"/>
</g>
</svg>
