<svg enable-background="new 0 0 681.4 250.8" viewBox="0 0 681.4 250.8" xmlns="http://www.w3.org/2000/svg"><g fill="#cd1719"><path d="m526.4 245.4c.5 1.1 1.1 2 1.9 2.9.8.8 1.8 1.5 2.9 1.9 1.1.5 2.2.7 3.5.7s2.4-.2 3.5-.7 2-1.1 2.9-1.9c.8-.8 1.5-1.8 1.9-2.9.5-1.1.7-2.2.7-3.5s-.2-2.4-.7-3.5-1.1-2-1.9-2.9c-.8-.8-1.8-1.5-2.9-1.9-1.1-.5-2.2-.7-3.5-.7s-2.4.2-3.5.7-2 1.1-2.9 1.9-1.5 1.8-1.9 2.9c-.5 1.1-.7 2.2-.7 3.5s.2 2.4.7 3.5m3.1-41v-12.6h-39.5v12.6h12.3v44.8h14.9v-44.8zm-69.2-12.6v57.5h32.8v-12.7h-17.9v-44.8zm-10 0h-32.7v57.5h32.7v-12.7h-17.8v-9.9h16.8v-12.7h-16.8v-9.6h17.8zm-40.1 12.6v-12.6h-39.5v12.6h12.3v44.8h14.9v-44.8zm-45.2 0v-12.6h-39.5v12.6h12.3v44.8h14.9v-44.8zm-87.8-20.3c1.4 1.5 3.2 2.2 5.4 2.2 1 0 1.9-.2 2.8-.6s1.7-.9 2.4-1.6 1.2-1.5 1.6-2.4.6-1.9.6-2.9-.2-2-.6-2.9-1-1.7-1.6-2.4c-.7-.7-1.5-1.2-2.4-1.6s-1.8-.6-2.9-.6c-1 0-2 .2-2.9.6s-1.7.9-2.4 1.6-1.2 1.5-1.6 2.4-.6 1.8-.6 2.8c.1 2.1.8 3.9 2.2 5.4m20.8 0c1.4 1.5 3.2 2.2 5.3 2.2s3.8-.7 5.3-2.1 2.2-3.2 2.2-5.3c0-1-.2-2-.6-2.9s-1-1.7-1.6-2.4c-.7-.7-1.5-1.2-2.4-1.6s-1.8-.6-2.9-.6c-1 0-2 .2-2.9.6s-1.7.9-2.4 1.6-1.2 1.5-1.6 2.4-.6 1.8-.6 2.8c0 2.1.7 3.9 2.2 5.3m-30 7.7v33.3c0 8.9 2.1 15.5 6.2 19.6s10.4 6.2 18.9 6.2 14.8-2.1 18.9-6.2 6.1-10.6 6.1-19.6v-33.3h-14.9v31.2c0 1.7-.1 3.4-.2 5.1s-.5 3.3-1.2 4.8c-.7 1.4-1.7 2.6-3 3.5-1.4.9-3.3 1.3-5.8 1.3s-4.4-.4-5.8-1.3-2.4-2-3-3.5c-.6-1.4-1-3-1.1-4.8s-.2-3.5-.2-5.1v-31.2zm-47.1 0h-14.9v57.5h14.9v-23.7h21.6v23.7h14.9v-57.5h-14.9v22.2h-21.6zm-24.5 1.3c-2.4-1-4.8-1.8-7-2.2-2.2-.5-4.5-.7-6.7-.7-4 0-7.9.8-11.5 2.2s-6.9 3.6-9.6 6.2c-2.8 2.7-5 5.8-6.6 9.5s-2.5 7.7-2.5 12.1.8 8.5 2.5 12.2 3.9 7 6.7 9.7 6 4.8 9.6 6.3 7.4 2.2 11.4 2.2c1.9 0 3.9-.2 5.9-.6s4.1-1 6.4-1.8l1.5-.5v-17.7c-3.8 4.1-8.1 6.1-12.9 6.1-2.2 0-4.2-.4-6.1-1.2s-3.5-1.9-4.9-3.4c-1.4-1.4-2.5-3.1-3.3-5s-1.2-4-1.2-6.3c0-2.2.4-4.3 1.2-6.2s1.9-3.6 3.2-5 3-2.5 4.9-3.3 4-1.2 6.2-1.2c5.1 0 9.4 2.1 12.8 6.3zm-50.8 1.7c-2.9-1.5-5.8-2.7-8.9-3.5s-6.1-1.2-8.9-1.2c-3 0-5.8.5-8.3 1.4s-4.5 2.2-6.2 3.9-3 3.6-4 5.9-1.4 4.9-1.4 7.7c0 2.9.5 5.2 1.3 7 .9 1.9 2.1 3.4 3.5 4.6 1.5 1.2 3.1 2.2 5 2.9s3.7 1.4 5.7 2c1.6.6 3 1.1 4.1 1.5 1.1.5 2.1 1 2.8 1.5s1.2 1.1 1.5 1.8c.3.6.5 1.4.5 2.2 0 1.4-.6 2.7-1.8 3.8s-3 1.7-5.5 1.7c-2.1 0-4.3-.5-6.5-1.5s-4.4-2.4-6.6-4.4l-6.4 12c6.2 4.3 12.9 6.5 20.2 6.5 3.5 0 6.6-.5 9.4-1.4s5.1-2.3 7-4 3.4-3.7 4.3-6.1 1.5-5 1.5-8c0-4.4-1.1-7.9-3.4-10.6s-5.8-4.9-10.7-6.5c-1.2-.4-2.5-.8-3.7-1.1-1.2-.4-2.4-.8-3.4-1.3s-1.8-1-2.4-1.7-.9-1.5-.9-2.5c0-1.5.6-2.7 1.8-3.6s2.8-1.4 4.7-1.4c1.5 0 3.1.3 4.7 1s3.2 1.6 4.9 2.9zm-46-3h-32.6v57.5h32.7v-12.7h-17.8v-9.9h16.8v-12.7h-16.8v-9.6h17.8v-12.6zm-69.1 36.9h12.3c-.2 1.7-.7 3.1-1.4 4.3s-1.6 2.1-2.7 2.9c-1.1.7-2.3 1.3-3.7 1.6s-2.8.5-4.3.5c-2.5 0-4.7-.4-6.6-1.3s-3.5-2-4.7-3.5c-1.3-1.5-2.2-3.3-2.9-5.4-.6-2.1-.9-4.3-.9-6.8 0-2.7.4-5.1 1.1-7.3s1.8-4 3.1-5.6c1.3-1.5 2.9-2.7 4.7-3.6s3.9-1.3 6.1-1.3c2.7 0 5.1.7 7.2 2.1s3.8 3.6 5.1 6.8l14.2-5.9c-2.6-5.4-6.2-9.5-10.7-12s-9.8-3.9-15.8-3.9c-4.6 0-8.8.7-12.6 2.2s-7 3.5-9.6 6.2-4.7 5.8-6.2 9.6-2.2 7.6-2.2 12.1.7 8.6 2.2 12.4 3.5 6.9 6.2 9.6 5.8 4.7 9.5 6.2 7.8 2.2 12.2 2.2c3.2 0 6.4-.4 9.3-1.2s5.6-2 8.1-3.5 4.6-3.5 6.4-5.8 3.3-5 4.3-8c.8-2.1 1.3-4.4 1.5-6.9s.4-5.3.4-8.3h-29.5z"/><path d="m249.7 118.7v-12.6h-39.5v12.6h12.3v44.8h14.9v-44.8zm-84.8-12.6h-14.9v57.5h14.9v-23.7h21.6v23.7h14.9v-57.5h-14.9v22.2h-21.6zm-26.1 1.3c-2.4-1-4.8-1.8-7-2.2s-4.5-.7-6.7-.7c-4 0-7.9.8-11.5 2.2s-6.9 3.6-9.6 6.2-5 5.8-6.6 9.5-2.5 7.7-2.5 12.1.8 8.5 2.5 12.2 3.9 7 6.7 9.7 6 4.8 9.6 6.3 7.4 2.2 11.4 2.2c1.9 0 3.9-.2 5.9-.6s4.1-1 6.4-1.8l1.5-.5v-17.7c-3.8 4.1-8.1 6.1-12.9 6.1-2.2 0-4.2-.4-6.1-1.2s-3.5-1.9-4.9-3.4c-1.4-1.4-2.5-3.1-3.3-5s-1.2-4-1.2-6.3c0-2.2.4-4.3 1.2-6.2s1.9-3.6 3.2-5 3-2.5 4.9-3.3 4-1.2 6.2-1.2c5.1 0 9.4 2.1 12.8 6.3zm-67.6 56.1h14.9v-57.5h-14.9zm-53.7 0v-35.1l27.6 35.1h14.9v-57.5h-14.9v35.1l-27.6-35.1h-14.9v57.5z"/><path d="m346 88.4h8.8l14-25.2h-13zm7.8-55.4v-12.7h-39.5v12.7h12.3v44.8h14.9v-44.8zm-56.1 21.2c4.1-1 7.2-2.8 9.3-5.5s3.2-6.3 3.2-10.6c0-2.4-.4-4.7-1.2-6.9-.8-2.1-2-4-3.5-5.6s-3.5-2.9-5.9-3.9c-2.4-.9-5.2-1.4-8.4-1.4h-23.2v57.4h14.9v-22l14.2 22.1h18.6zm-14.8-22.4h2.8c3 0 5.2.6 6.8 1.8s2.4 3 2.4 5.3-.8 4-2.4 5.3c-1.6 1.2-3.8 1.8-6.8 1.8h-2.8zm-62.7-11.5h-14.9v57.4h14.9v-23.6h21.6v23.7h14.9v-57.5h-14.9v22.2h-21.6zm-67.1-7.7c1.4 1.5 3.2 2.2 5.4 2.2 1 0 1.9-.2 2.8-.6s1.7-.9 2.4-1.6 1.2-1.5 1.6-2.4.6-1.9.6-2.9-.2-2-.6-2.9-1-1.7-1.6-2.4-1.5-1.2-2.4-1.6c-.9-.4-1.8-.6-2.9-.6s-2 .2-2.9.6-1.7.9-2.4 1.6-1.2 1.5-1.6 2.4-.5 2-.5 2.9c0 2.1.7 3.9 2.1 5.3m20.8.1c1.4 1.4 3.2 2.2 5.3 2.2s3.9-.7 5.3-2.1c1.5-1.4 2.2-3.2 2.2-5.3 0-1-.2-2-.6-2.9s-1-1.7-1.6-2.4-1.5-1.2-2.4-1.6-1.8-.6-2.9-.6-2 .2-2.9.6-1.7.9-2.4 1.6-1.2 1.5-1.6 2.4-.6 1.8-.6 2.8c0 2 .7 3.8 2.2 5.3m-30.1 7.6v33.3c0 8.9 2.1 15.5 6.2 19.6s10.4 6.2 18.9 6.2 14.8-2.1 18.9-6.2 6.1-10.6 6.1-19.6v-33.3h-14.9v31.2c0 1.7-.1 3.4-.2 5.1s-.5 3.3-1.2 4.8-1.7 2.6-3 3.5c-1.4.9-3.3 1.3-5.8 1.3s-4.4-.4-5.8-1.3-2.4-2-3-3.5c-.6-1.4-1-3-1.1-4.8s-.2-3.5-.2-5.1v-31.2zm-19.9 33.9c4.1-1 7.2-2.8 9.3-5.5s3.2-6.3 3.2-10.6c0-2.4-.4-4.7-1.2-6.9-.8-2.1-2-4-3.5-5.6s-3.5-2.9-5.9-3.9c-2.4-.9-5.2-1.4-8.4-1.4h-23.2v57.4h14.9v-22l14.2 22.1h18.6zm-14.8-22.4h2.8c3 0 5.2.6 6.8 1.8s2.4 3 2.4 5.3-.8 4-2.4 5.3c-1.6 1.2-3.8 1.8-6.8 1.8h-2.8zm-24.9-11.5h-32.7v57.4h32.7v-12.6h-17.8v-9.9h16.8v-12.6h-16.8v-9.6h17.8zm-81.6 57.5h24c3.1 0 5.8-.4 8.2-1.1s4.5-1.8 6.2-3.2 3-3.2 4-5.3c.9-2.1 1.4-4.5 1.4-7.2 0-1.7-.2-3.4-.6-4.9s-1.1-2.9-2-4.1-2.2-2.2-3.7-3.1-3.3-1.5-5.4-1.9c2.1-1.3 3.7-2.9 4.8-4.8 1-1.9 1.6-4.3 1.6-7.2 0-4.8-1.4-8.4-4.1-11-2.7-2.5-6.8-3.8-12-3.8h-22.4zm14.9-46h2.7c4.7 0 7 1.9 7 5.6s-2.3 5.6-7 5.6h-2.7zm0 22.2h3.3c3.8 0 6.4.5 8.1 1.4 1.6 1 2.4 2.5 2.4 4.6s-.8 3.7-2.4 4.6-4.3 1.4-8.1 1.4h-3.3z"/></g></svg>