<?xml version="1.0" encoding="utf-8"?>
<!-- Generator: Adobe Illustrator 23.1.1, SVG Export Plug-In . SVG Version: 6.00 Build 0)  -->
<svg version="1.1" id="Ebene_1" xmlns="http://www.w3.org/2000/svg" xmlns:xlink="http://www.w3.org/1999/xlink" x="0px" y="0px"
	 viewBox="0 0 681.1 193.4" style="enable-background:new 0 0 681.1 193.4;" xml:space="preserve">
<style type="text/css">
	.st0{fill:#CD1719;}
</style>
<g>
	<path class="st0" d="M598.4,140.9c0.5,1.1,1.1,2,1.9,2.9c0.8,0.8,1.8,1.5,2.9,1.9c1.1,0.5,2.2,0.7,3.5,0.7s2.4-0.2,3.5-0.7
		c1.1-0.5,2-1.1,2.9-1.9c0.8-0.8,1.5-1.8,1.9-2.9c0.5-1.1,0.7-2.2,0.7-3.5s-0.2-2.4-0.7-3.5c-0.5-1.1-1.1-2-1.9-2.9
		c-0.8-0.8-1.8-1.5-2.9-1.9c-1.1-0.5-2.2-0.7-3.5-0.7s-2.4,0.2-3.5,0.7c-1.1,0.5-2,1.1-2.9,1.9s-1.5,1.8-1.9,2.9
		c-0.5,1.1-0.7,2.2-0.7,3.5S597.9,139.8,598.4,140.9 M548.6,144.8v-35.1l27.6,35.1h14.9V87.3h-14.9v35.1l-27.6-35.1h-14.9v57.5
		H548.6z M523.7,87.3H491v57.5h32.7v-12.6H506v-9.9h16.8v-12.6H506V100h17.8V87.3z M453.5,124.2h12.3c-0.3,1.7-0.7,3.1-1.5,4.3
		c-0.7,1.2-1.6,2.1-2.7,2.9s-2.3,1.3-3.7,1.6c-1.4,0.3-2.8,0.5-4.3,0.5c-2.5,0-4.7-0.4-6.5-1.3s-3.5-2-4.7-3.5
		c-1.3-1.5-2.2-3.3-2.9-5.4c-0.6-2.1-1-4.3-1-6.8c0-2.7,0.4-5.1,1.1-7.3c0.7-2.2,1.8-4,3-5.6c1.3-1.5,2.9-2.7,4.7-3.6
		s3.9-1.3,6.1-1.3c2.7,0,5.1,0.7,7.2,2.1c2.1,1.4,3.8,3.6,5.1,6.8l14.2-5.9c-2.6-5.4-6.2-9.5-10.7-12s-9.8-3.9-15.8-3.9
		c-4.6,0-8.8,0.7-12.6,2.2s-7,3.5-9.6,6.2c-2.7,2.6-4.7,5.8-6.2,9.6s-2.2,7.8-2.2,12.3c0,4.5,0.7,8.6,2.2,12.4
		c1.5,3.7,3.5,6.9,6.2,9.6c2.6,2.7,5.8,4.7,9.5,6.2c3.7,1.5,7.8,2.2,12.2,2.2c3.2,0,6.3-0.4,9.3-1.2c3-0.8,5.7-2,8.1-3.5
		c2.5-1.5,4.6-3.5,6.4-5.8s3.3-5,4.3-8c0.8-2.1,1.3-4.4,1.5-6.9s0.4-5.3,0.4-8.3h-29.6L453.5,124.2L453.5,124.2z M416.3,87.3h-32.7
		v57.5h32.7v-12.6h-17.8v-9.9h16.8v-12.6h-16.8V100h17.8L416.3,87.3L416.3,87.3z M357.4,144.8h14.9V87.3h-14.9V144.8z M264.8,87.3
		l17.1,57.5h15.2l11.3-33.3l11.3,33.3H335l17.1-57.5h-15.6l-9.9,37.1l-12.2-37.1h-11.9l-12.2,37.1l-9.9-37.1L264.8,87.3L264.8,87.3z
		 M223.1,87.3h-14.9v57.5h14.9v-23.7h21.6v23.7h14.9V87.3h-14.9v22.2h-21.6V87.3z M197.6,88.7c-2.4-1-4.8-1.8-7-2.2
		s-4.5-0.7-6.7-0.7c-4,0-7.9,0.8-11.5,2.2s-6.9,3.6-9.6,6.2c-2.8,2.7-5,5.8-6.6,9.5s-2.5,7.7-2.5,12.1s0.8,8.5,2.5,12.2
		c1.7,3.7,3.9,7,6.7,9.7c2.8,2.7,6,4.8,9.6,6.3c3.6,1.5,7.4,2.2,11.4,2.2c1.9,0,3.9-0.2,5.9-0.6c2-0.4,4.1-1,6.4-1.8l1.5-0.5v-17.7
		c-3.8,4.1-8.1,6.1-12.9,6.1c-2.2,0-4.2-0.4-6.1-1.2s-3.5-1.9-4.9-3.4c-1.4-1.4-2.5-3.1-3.3-5s-1.2-4-1.2-6.3c0-2.2,0.4-4.3,1.2-6.2
		c0.8-1.9,1.9-3.6,3.2-5s3-2.5,4.9-3.3s4-1.2,6.2-1.2c5.1,0,9.4,2.1,12.8,6.3L197.6,88.7L197.6,88.7z M146,90.4
		c-2.9-1.5-5.8-2.7-8.9-3.5c-3.1-0.8-6.1-1.2-8.9-1.2c-3.1,0-5.8,0.5-8.3,1.4c-2.5,0.9-4.6,2.2-6.2,3.9s-3,3.6-4,5.9
		s-1.4,4.9-1.4,7.7c0,2.9,0.4,5.2,1.3,7c0.9,1.9,2.1,3.4,3.5,4.6c1.4,1.2,3.1,2.2,4.9,2.9c1.9,0.7,3.8,1.4,5.7,2
		c1.6,0.6,3,1.1,4.1,1.5c1.1,0.5,2.1,1,2.8,1.5c0.7,0.5,1.2,1.1,1.5,1.8c0.3,0.6,0.5,1.4,0.5,2.2c0,1.4-0.6,2.7-1.8,3.8
		c-1.2,1.1-3,1.7-5.4,1.7c-2.1,0-4.3-0.5-6.5-1.5c-2.2-1-4.4-2.4-6.6-4.4l-6.4,12c6.2,4.3,12.9,6.5,20.2,6.5c3.5,0,6.6-0.5,9.4-1.4
		s5.1-2.3,7-4c1.9-1.7,3.3-3.7,4.3-6.1c1-2.4,1.5-5,1.5-8c0-4.4-1.1-7.9-3.4-10.6c-2.3-2.7-5.8-4.9-10.7-6.5
		c-1.2-0.4-2.4-0.8-3.7-1.1c-1.2-0.4-2.4-0.8-3.4-1.3c-1-0.5-1.8-1-2.4-1.7s-0.9-1.5-0.9-2.5c0-1.5,0.6-2.7,1.8-3.6
		c1.2-0.9,2.8-1.4,4.7-1.4c1.5,0,3.1,0.3,4.7,1s3.2,1.6,4.9,2.9L146,90.4z M100,87.3H67.3v57.5H100v-12.6H82.3v-9.9H99v-12.6H82.3
		V100H100V87.3z M30.5,124.2h12.3c-0.2,1.7-0.7,3.1-1.4,4.3c-0.7,1.2-1.6,2.1-2.7,2.9c-1.1,0.7-2.3,1.3-3.7,1.6
		c-1.4,0.3-2.8,0.5-4.3,0.5c-2.5,0-4.7-0.4-6.6-1.3s-3.5-2-4.7-3.5c-1.3-1.5-2.2-3.3-2.9-5.4c-0.6-2.1-0.9-4.3-0.9-6.8
		c0-2.7,0.4-5.1,1.1-7.3c0.7-2.2,1.8-4,3.1-5.6c1.3-1.5,2.9-2.7,4.7-3.6s3.9-1.3,6.1-1.3c2.7,0,5.1,0.7,7.2,2.1
		c2.1,1.4,3.8,3.6,5.1,6.8l14.2-5.9c-2.6-5.4-6.2-9.5-10.7-12s-9.8-3.9-15.8-3.9c-4.6,0-8.8,0.7-12.6,2.2c-3.8,1.5-7,3.5-9.6,6.2
		s-4.7,5.8-6.2,9.6S0,111.5,0,116c0,4.5,0.7,8.6,2.2,12.4s3.5,6.9,6.2,9.6s5.8,4.7,9.5,6.2c3.7,1.5,7.8,2.2,12.2,2.2
		c3.2,0,6.4-0.4,9.3-1.2c2.9-0.8,5.6-2,8.1-3.5c2.5-1.5,4.6-3.5,6.4-5.8s3.3-5,4.3-8c0.8-2.1,1.3-4.4,1.5-6.9s0.4-5.3,0.4-8.3H30.5
		L30.5,124.2L30.5,124.2z"/>
	<path class="st0" d="M552.8,38.5H565c-0.3,1.7-0.7,3.1-1.5,4.3c-0.7,1.2-1.6,2.1-2.7,2.9c-1.1,0.7-2.3,1.3-3.7,1.6
		c-1.4,0.3-2.8,0.5-4.3,0.5c-2.5,0-4.7-0.4-6.5-1.3s-3.5-2-4.7-3.5c-1.3-1.5-2.2-3.3-2.9-5.4c-0.6-2.1-1-4.3-1-6.8
		c0-2.7,0.4-5.1,1.1-7.3c0.7-2.2,1.8-4.1,3-5.6s2.9-2.7,4.7-3.6s3.9-1.3,6.1-1.3c2.7,0,5.1,0.7,7.2,2.1c2.1,1.4,3.8,3.6,5.1,6.8
		l14.2-5.9c-2.6-5.4-6.2-9.4-10.7-12S558.7,0,552.8,0c-4.6,0-8.8,0.7-12.6,2.2s-7,3.5-9.6,6.2c-2.7,2.6-4.7,5.8-6.2,9.6
		s-2.2,7.8-2.2,12.3c0,4.5,0.7,8.6,2.2,12.4c1.5,3.7,3.5,6.9,6.2,9.6c2.6,2.7,5.8,4.7,9.5,6.2c3.7,1.5,7.8,2.2,12.2,2.2
		c3.2,0,6.3-0.4,9.3-1.2s5.7-2,8.1-3.5c2.5-1.5,4.6-3.5,6.4-5.8s3.3-5,4.3-8c0.8-2.1,1.3-4.4,1.5-6.9s0.4-5.3,0.4-8.3h-29.6
		L552.8,38.5L552.8,38.5z M464.2,1.6v33.3c0,8.9,2.1,15.5,6.2,19.6s10.4,6.2,18.9,6.2c8.5,0,14.8-2.1,18.9-6.2
		c4.1-4.1,6.1-10.6,6.1-19.6V1.6h-14.9v31.2c0,1.7-0.1,3.4-0.2,5.1s-0.5,3.3-1.2,4.8s-1.7,2.6-3,3.5c-1.3,0.9-3.3,1.3-5.8,1.3
		s-4.4-0.4-5.8-1.3c-1.4-0.9-2.4-2-3-3.5c-0.6-1.4-1-3-1.1-4.8c-0.1-1.8-0.2-3.5-0.2-5.1V1.6L464.2,1.6L464.2,1.6z M411.3,59.1V23.9
		l27.6,35.1h14.9V1.6h-14.9v35.1L411.3,1.6h-14.9v57.5L411.3,59.1L411.3,59.1z M386.4,1.6h-32.7v57.5h32.7V46.4h-17.8v-9.9h16.8
		V23.9h-16.8v-9.6h17.8V1.6z M316.9,38.5h12.3c-0.2,1.7-0.7,3.1-1.5,4.3c-0.7,1.2-1.6,2.1-2.7,2.9s-2.3,1.3-3.7,1.6
		c-1.4,0.3-2.8,0.5-4.3,0.5c-2.5,0-4.7-0.4-6.5-1.3s-3.5-2-4.7-3.5c-1.3-1.5-2.2-3.3-2.9-5.4c-0.6-2.1-1-4.3-1-6.8
		c0-2.7,0.4-5.1,1.1-7.3c0.7-2.2,1.8-4.1,3-5.6s2.9-2.7,4.7-3.6c1.8-0.8,3.9-1.3,6.1-1.3c2.7,0,5.1,0.7,7.2,2.1
		c2.1,1.4,3.8,3.6,5.1,6.8l14.2-5.9c-2.6-5.4-6.2-9.4-10.7-12c-4.5-2.6-9.8-3.9-15.8-3.9c-4.6,0-8.8,0.7-12.6,2.2s-7,3.5-9.6,6.2
		c-2.7,2.6-4.7,5.8-6.2,9.6s-2.2,7.8-2.2,12.3c0,4.5,0.7,8.6,2.2,12.4c1.5,3.7,3.5,6.9,6.2,9.6s5.8,4.7,9.5,6.2
		c3.7,1.5,7.8,2.2,12.2,2.2c3.2,0,6.3-0.4,9.3-1.2s5.6-2,8.1-3.5c2.5-1.5,4.6-3.5,6.4-5.8c1.8-2.3,3.3-5,4.3-8
		c0.8-2.1,1.3-4.4,1.5-6.9s0.4-5.3,0.4-8.3h-29.6L316.9,38.5L316.9,38.5z M264.6,1.6h-32.7v57.5h32.7V46.4h-17.8v-9.9h16.8V23.9
		h-16.8v-9.6h17.8V1.6z M195.1,38.5h12.3c-0.3,1.7-0.7,3.1-1.5,4.3c-0.7,1.2-1.6,2.1-2.7,2.9c-1.1,0.7-2.3,1.3-3.7,1.6
		c-1.4,0.3-2.8,0.5-4.3,0.5c-2.5,0-4.7-0.4-6.5-1.3c-1.9-0.8-3.5-2-4.7-3.5c-1.3-1.5-2.2-3.3-2.9-5.4c-0.6-2.1-1-4.3-1-6.8
		c0-2.7,0.4-5.1,1.1-7.3c0.7-2.2,1.8-4.1,3-5.6s2.9-2.7,4.7-3.6c1.8-0.8,3.9-1.3,6.1-1.3c2.7,0,5.1,0.7,7.2,2.1
		c2.1,1.4,3.8,3.6,5.1,6.8l14.2-5.9c-2.6-5.4-6.2-9.4-10.7-12S201.1,0,195.1,0c-4.6,0-8.8,0.7-12.6,2.2s-7,3.5-9.6,6.2
		s-4.7,5.8-6.2,9.6s-2.2,7.8-2.2,12.3c0,4.5,0.7,8.6,2.2,12.4s3.5,6.9,6.2,9.6s5.8,4.7,9.5,6.2c3.7,1.5,7.8,2.2,12.2,2.2
		c3.2,0,6.4-0.4,9.3-1.2c3-0.8,5.6-2,8.1-3.5c2.5-1.5,4.6-3.5,6.4-5.8c1.8-2.3,3.3-5,4.3-8c0.8-2.1,1.3-4.4,1.5-6.9s0.4-5.3,0.4-8.3
		h-29.6L195.1,38.5L195.1,38.5z M115.4,59.1V23.9L143,59.1h14.9V1.6H143v35.1L115.4,1.6h-14.9v57.5L115.4,59.1L115.4,59.1z
		 M81.8,59.1h15.9L75.9,1.6H59.6L37.7,59.1h15.9l3.4-10h21.3L81.8,59.1z M61,37.7l6.7-19.1l6.7,19.1H61z M2.6,1.6v57.5h32.8V46.4
		H17.5V1.6L2.6,1.6L2.6,1.6z"/>
</g>
</svg>
