<?xml version="1.0" encoding="iso-8859-1"?>
<!-- Generator: Adobe Illustrator 24.0.3, SVG Export Plug-In . SVG Version: 6.00 Build 0)  -->
<svg version="1.1" id="Ebene_1" xmlns="http://www.w3.org/2000/svg" xmlns:xlink="http://www.w3.org/1999/xlink" x="0px" y="0px"
	 width="841.8900146px" height="530.6400146px" viewBox="0 0 841.8900146 530.6400146"
	 enable-background="new 0 0 841.8900146 530.6400146" xml:space="preserve">
<g>
	<path fill="#CD1719" d="M529.9779053,247.9282837c0.460022,1.0899963,1.0900269,2.0499878,1.9099731,2.8599854
		c0.8099976,0.8099976,1.7600098,1.4500122,2.8599854,1.9100037c1.0900269,0.4599915,2.25,0.6900024,3.4699707,0.6900024
		s2.3699951-0.230011,3.4699707-0.6900024c1.0900269-0.4599915,2.039978-1.0899963,2.8599854-1.9100037
		c0.8099976-0.8099976,1.4500122-1.7600098,1.9099731-2.8599854c0.460022-1.0899963,0.6900024-2.25,0.6900024-3.4700012
		s-0.2299805-2.3699951-0.6900024-3.4700012c-0.460022-1.0899963-1.0900269-2.0400085-1.9099731-2.8599854
		c-0.8099976-0.8099976-1.7600098-1.4500122-2.8599854-1.8999939c-1.0900269-0.4599915-2.25-0.6900024-3.4699707-0.6900024
		s-2.3800049,0.230011-3.4699707,0.6900024c-1.0900269,0.4599915-2.0499878,1.0899963-2.8599854,1.8999939
		s-1.4500122,1.769989-1.9099731,2.8599854c-0.460022,1.0899963-0.6900024,2.25-0.6900024,3.4700012
		S529.5178833,246.8382874,529.9779053,247.9282837 M533.0979004,206.9782715v-12.6499939h-39.4700317v12.6499939h12.2700195
		v44.7999878h14.9299927v-44.7999878H533.0979004z M463.8378906,194.3282776v57.4500122h32.8400269v-12.6500244h-17.9000244
		v-44.7999878H463.8378906z M453.8579102,194.3282776h-32.6900024v57.4500122h32.6900024v-12.6500244h-17.75v-9.8999939h16.7600098
		v-12.6499939h-16.7600098v-9.6000061h17.75V194.3282776z M413.7778931,206.9782715v-12.6499939h-39.4699707v12.6499939h12.2700195
		v44.7999878h14.9299927v-44.7999878H413.7778931z M368.5278931,206.9782715v-12.6499939h-39.4700012v12.6499939h12.269989
		v44.7999878h14.9299927v-44.7999878H368.5278931z M280.8278809,186.6382751
		c1.4200134,1.4700012,3.230011,2.2099915,5.4100037,2.2099915c0.9599915,0,1.8999939-0.1900024,2.8200073-0.5700073
		s1.7000122-0.9100037,2.3599854-1.6000061s1.1900024-1.4700012,1.6000061-2.3599854
		c0.4100037-0.8900146,0.6099854-1.8699951,0.6099854-2.9299927c0-1.019989-0.2000122-1.980011-0.6099854-2.8900146
		c-0.4100037-0.9100037-0.9500122-1.7000122-1.6400146-2.3599854c-0.6799927-0.6600037-1.4700012-1.1799927-2.3599854-1.5599976
		c-0.8900146-0.3800049-1.8399963-0.5700073-2.8599854-0.5700073s-1.980011,0.1900024-2.8900146,0.5700073
		c-0.9200134,0.3800049-1.7200012,0.9200134-2.3999939,1.6000061c-0.6900024,0.6900024-1.2200012,1.4700012-1.6000061,2.3599854
		c-0.3800049,0.8900146-0.5700073,1.8200073-0.5700073,2.7799988
		C278.697876,183.3882751,279.4078979,185.1582642,280.8278809,186.6382751 M301.5478821,186.6682739
		c1.4200134,1.4500122,3.2000122,2.1700134,5.3299866,2.1700134c2.0799866,0,3.8500061-0.7099915,5.2999878-2.1300049
		c1.4500122-1.4200134,2.1700134-3.2000122,2.1700134-5.3299866c0-1.019989-0.2000122-1.980011-0.6099854-2.8900146
		c-0.4100037-0.9100037-0.9500122-1.7000122-1.6400146-2.3599854c-0.6799927-0.6600037-1.4700012-1.1799927-2.3599854-1.5599976
		c-0.8900146-0.3800049-1.8399963-0.5700073-2.8599854-0.5700073s-1.980011,0.1900024-2.8999939,0.5700073
		s-1.7099915,0.9200134-2.3999939,1.6000061c-0.6900024,0.6900024-1.2200012,1.4700012-1.6000061,2.3599854
		c-0.3800049,0.8900146-0.5700073,1.8200073-0.5700073,2.7799988
		C299.4178772,183.4382629,300.1278992,185.2282715,301.5478821,186.6682739 M271.5278931,194.3282776v33.2999878
		c0,8.9400024,2.0599976,15.4700012,6.1700134,19.5799866c4.1099854,4.1199951,10.4100037,6.1700134,18.8899841,6.1700134
		s14.769989-2.0599976,18.8599854-6.1700134c4.0899963-4.1099854,6.1300049-10.6400146,6.1300049-19.5799866v-33.2999878
		h-14.8599854v31.2399902c0,1.6799927-0.0599976,3.3900146-0.1900024,5.1400146s-0.519989,3.3399963-1.1799927,4.7600098
		s-1.6600037,2.5799866-3.0100098,3.4700012s-3.2600098,1.3299866-5.75,1.3299866s-4.4200134-0.4400024-5.7900085-1.3299866
		c-1.3699951-0.8900146-2.3699951-2.0400085-3.0100098-3.4700012c-0.6400146-1.4200134-1.019989-3.0100098-1.1400146-4.7600098
		c-0.1300049-1.75-0.1900024-3.4700012-0.1900024-5.1400146v-31.2399902H271.5278931z M224.5178833,194.3282776h-14.9299927
		v57.4500122h14.9299927v-23.7000122h21.5599976v23.7000122h14.9299927v-57.4500122h-14.9299927v22.1700134h-21.5599976V194.3282776
		z M199.9878845,195.6982727c-2.4400024-1.019989-4.7600098-1.7600098-6.9700012-2.25
		c-2.2099915-0.480011-4.4599915-0.7200012-6.7399902-0.7200012c-4.0100098,0-7.8500061,0.75-11.5100098,2.25
		s-6.8699951,3.5799866-9.6400146,6.25c-2.769989,2.6700134-4.980011,5.8399963-6.6300049,9.519989
		s-2.480011,7.730011-2.480011,12.1499939s0.8399963,8.4899902,2.5100098,12.230011
		c1.6799927,3.730011,3.8999939,6.9599915,6.6700134,9.6799927c2.769989,2.7200012,5.9700012,4.8299866,9.6000061,6.3200073
		c3.6300049,1.5,7.4299927,2.25,11.3900146,2.25c1.9299927,0,3.8900146-0.1900024,5.8699951-0.5700073
		c1.980011-0.3800049,4.1199951-0.980011,6.3999939-1.7900085l1.519989-0.5299988v-17.6799927
		c-3.8099976,4.0599976-8.1000061,6.1000061-12.8800049,6.1000061c-2.1799927,0-4.2200012-0.4100037-6.1000061-1.2200012
		s-3.519989-1.9299927-4.9100037-3.3500061c-1.3999939-1.4200134-2.4899902-3.1000061-3.2799988-5.0299988
		s-1.1799927-4.0400085-1.1799927-6.3200073c0-2.230011,0.3900146-4.3200073,1.1799927-6.25
		c0.7900085-1.9299927,1.8699951-3.5899963,3.2399902-4.9899902s3.0100098-2.5,4.9100037-3.3099976
		s3.9700012-1.2200012,6.2099915-1.2200012c5.0799866,0,9.3500061,2.1099854,12.7999878,6.3200073v-17.8399963H199.9878845z
		 M149.1678772,197.3782654c-2.8500061-1.519989-5.8200073-2.6799927-8.9200134-3.4700012s-6.0700073-1.1799927-8.9100037-1.1799927
		c-3.0499878,0-5.7999802,0.4599915-8.2699814,1.3699951c-2.4599915,0.9100037-4.5499878,2.2000122-6.25,3.8500061
		s-3.019989,3.6300049-3.9599915,5.9400024s-1.4100037,4.8900146-1.4100037,7.730011
		c0,2.8500061,0.4500122,5.1900024,1.3299866,7.0499878c0.8900146,1.8599854,2.0599976,3.3900146,3.5,4.6099854
		c1.4500122,1.2200012,3.1000061,2.2000122,4.9500122,2.9299927c1.8500061,0.7399902,3.7399902,1.4100037,5.6799927,2.019989
		c1.6299973,0.5599976,3.0100021,1.0700073,4.1499863,1.519989c1.1400146,0.4599915,2.0700073,0.9500122,2.7799988,1.4899902
		c0.7099915,0.5299988,1.2200012,1.1199951,1.519989,1.75c0.3099976,0.6300049,0.4599915,1.3800049,0.4599915,2.25
		c0,1.4200134-0.6000061,2.6900024-1.7900085,3.8099976s-3.0100098,1.6799927-5.4500122,1.6799927
		c-2.1299973,0-4.2900009-0.480011-6.4800034-1.4500122c-2.1799927-0.9599915-4.3900146-2.4400024-6.6300049-4.4200134
		l-6.3999939,12.0400085c6.2000122,4.3200073,12.9299927,6.480011,20.1899948,6.480011
		c3.5,0,6.6400146-0.4700012,9.4100037-1.4100037s5.1099854-2.2600098,7.0100098-3.9599915
		c1.8999939-1.7000122,3.3500061-3.7399902,4.3399963-6.1300049s1.480011-5.0499878,1.480011-8
		c0-4.3699951-1.1300049-7.9100037-3.3900146-10.6300049s-5.8299866-4.8900146-10.7000122-6.5100098
		c-1.2200012-0.4100037-2.4500122-0.7900085-3.7000122-1.1400146c-1.25-0.3599854-2.3599854-0.769989-3.3500061-1.2600098
		c-0.9899902-0.480011-1.7900085-1.0499878-2.3999863-1.7099915c-0.6099854-0.6600037-0.9100037-1.5-0.9100037-2.5100098
		c0-1.4700012,0.6099854-2.6700134,1.8299789-3.5799866c1.2200012-0.9100037,2.7900085-1.3699951,4.7200012-1.3699951
		c1.519989,0,3.1000061,0.3200073,4.7200012,0.9500122s3.25,1.6099854,4.8800049,2.9299927L149.1678772,197.3782654z
		 M103.2278976,194.3282776H70.5378952v57.4500122h32.6900024v-12.6500244h-17.75v-9.8999939h16.7599945v-12.6499939H85.4778976
		v-9.6000061h17.75V194.3282776z M34.1178932,231.2082825h12.2700043c-0.25,1.6799927-0.7400055,3.1000061-1.4499969,4.269989
		c-0.7100067,1.1700134-1.6100006,2.1199951-2.7100067,2.8599854c-1.0899963,0.7399902-2.3200073,1.269989-3.6900024,1.6000061
		c-1.3699951,0.3299866-2.7899933,0.4899902-4.2700043,0.4899902c-2.4900036,0-4.6699963-0.4200134-6.5500011-1.2600098
		s-3.4600067-2.019989-4.7200012-3.5400085c-1.2700043-1.519989-2.2200012-3.3299866-2.8600006-5.4100037
		c-0.6399994-2.0799866-0.9499969-4.3399963-0.9499969-6.7799988c0-2.6900024,0.3699951-5.1300049,1.1000061-7.3099976
		c0.7400055-2.1799927,1.75-4.0499878,3.0500031-5.6000061c1.2899933-1.5499878,2.8600006-2.7399902,4.6900024-3.5799866
		s3.8600006-1.2600098,6.1000042-1.2600098c2.6900024,0,5.0899963,0.6799927,7.1999969,2.0599976
		c2.1100006,1.3699951,3.8200073,3.6300049,5.1399994,6.7799988l14.1699982-5.8699951
		c-2.6399994-5.4299927-6.2200012-9.4500122-10.7400055-12.0400085s-9.7799988-3.8900146-15.7700043-3.8900146
		c-4.6199932,0-8.8099957,0.7399902-12.5699902,2.2099915s-6.9700012,3.5299988-9.6399994,6.1700134
		S7.197897,206.9382019,5.7479,210.6682129s-2.1699984,7.8399963-2.1699984,12.2999878
		c0,4.519989,0.7400057,8.6499939,2.210007,12.3800049s3.5299988,6.9299927,6.1699982,9.6000061
		s5.8000031,4.7399902,9.4900055,6.2099915c3.6799927,1.4700012,7.7599945,2.2099915,12.2299938,2.2099915
		c3.25,0,6.3500061-0.4100037,9.2899933-1.2200012c2.9499969-0.8099976,5.6499939-1.9899902,8.1199951-3.5400085
		c2.4600067-1.5499878,4.6100006-3.480011,6.4400024-5.7900085s3.2799988-4.9599915,4.3399963-7.9599915
		c0.7599945-2.1300049,1.2700043-4.4400024,1.5200043-6.9299927s0.3800049-5.2600098,0.3800049-8.2999878H34.127903v11.5800781
		H34.1178932z"/>
	<path fill="#CD1719" d="M253.3278809,121.2582703v-12.6499939h-39.4700012v12.6499939h12.269989v44.7999878h14.9299927v-44.7999878
		H253.3278809z M168.447876,108.6082764h-14.9299927v57.4500122h14.9299927v-23.7000122h21.5599976v23.7000122h14.9299927
		v-57.4500122h-14.9299927v22.1700134H168.447876V108.6082764z M142.3878784,109.9882812
		c-2.4400024-1.019989-4.7600098-1.769989-6.9700012-2.25s-4.4599915-0.7200012-6.7399902-0.7200012
		c-4.0100021,0-7.8499985,0.75-11.5100021,2.25s-6.8699951,3.5799866-9.6399994,6.25s-4.9799957,5.8399963-6.6300049,9.519989
		c-1.6499939,3.6799927-2.4799957,7.730011-2.4799957,12.1499939s0.8399963,8.5,2.5099945,12.230011
		c1.6799927,3.730011,3.8999939,6.9599915,6.6699982,9.6799927s5.9700012,4.8299866,9.6000061,6.3200073
		c3.6300049,1.5,7.4299927,2.25,11.390007,2.25c1.9299927,0,3.8900146-0.1900024,5.8699951-0.5700073
		c1.980011-0.3800049,4.1199951-0.980011,6.3999939-1.7900085l1.519989-0.5299988v-17.6799927
		c-3.8099976,4.0700073-8.1000061,6.1000061-12.8800049,6.1000061c-2.179985,0-4.2199936-0.4100037-6.0999985-1.2200012
		s-3.519989-1.9299927-4.9100037-3.3500061c-1.3999939-1.4200134-2.4899902-3.1000061-3.2799988-5.0299988
		s-1.1799927-4.0400085-1.1799927-6.3200073c0-2.230011,0.3900146-4.3200073,1.1799927-6.25
		c0.7900085-1.9299927,1.8699951-3.5899963,3.2399902-4.9899902s3.0100098-2.5,4.9100037-3.3099976
		s3.9700012-1.2200012,6.2099838-1.2200012c5.0799866,0,9.3500061,2.1099854,12.7999878,6.3200073v-17.8399963H142.3878784z
		 M74.8078995,166.0582886h14.9299927v-57.4500122H74.8078995V166.0582886z M21.0878963,166.0582886v-35.1199951
		l27.5799999,35.1199951h14.8600006v-57.4500122H48.6678963v35.1199951l-27.5799999-35.1199951H6.1579037v57.4500122H21.0878963z"/>
	<path fill="#CD1719" d="M349.5578918,91.0082703h8.8399963l14.0200195-25.2200012h-12.9500122L349.5578918,91.0082703z
		 M357.3978882,35.5482788V22.898283H317.927887v12.6499958h12.269989v44.8000031h14.9299927V35.5482788H357.3978882z
		 M301.2478943,56.7982788c4.1099854-0.9600067,7.230011-2.8099976,9.3299866-5.5200043
		c2.1099854-2.7200012,3.1600037-6.2599945,3.1600037-10.6300049c0-2.4400024-0.3900146-4.7200012-1.1799927-6.8600006
		c-0.7900085-2.1300068-1.9599915-4.0099964-3.5100098-5.6400013c-1.5499878-1.6199951-3.519989-2.9100037-5.8999939-3.8500061
		c-2.3900146-0.9400024-5.1799927-1.4100037-8.3800049-1.4100037h-23.2399902v57.4499969h14.9299927V58.2382507l14.25,22.1000061
		h18.5899963L301.2478943,56.7982788z M286.4678955,34.3982849h2.8200073c2.9500122,0,5.2099915,0.6100006,6.7799988,1.8300018
		s2.3599854,2.9700012,2.3599854,5.2599945s-0.7900085,4.0399933-2.3599854,5.2599945
		c-1.5799866,1.2200012-3.8399963,1.8300018-6.7799988,1.8300018h-2.8200073V34.3982849z M223.7578735,22.898283h-14.9299927
		v57.4499969h14.9299927V56.6482849h21.5599976v23.6999969h14.9299927V22.898283h-14.9299927v22.1700001h-21.5599976V22.898283z
		 M156.7178955,15.1982708c1.4200134,1.4700012,3.2200012,2.2100067,5.4100037,2.2100067
		c0.9599915,0,1.8999939-0.1900024,2.8200073-0.5700073c0.9100037-0.3800049,1.7000122-0.9100037,2.3599854-1.6000061
		c0.6600037-0.6900024,1.1900024-1.4700012,1.6000061-2.3600006s0.6099854-1.8699951,0.6099854-2.9299927
		c0-1.0099945-0.2000122-1.9799957-0.6099854-2.8999939c-0.4100037-0.9100037-0.9500122-1.6999969-1.6400146-2.3600006
		s-1.4700012-1.1799924-2.3599854-1.5599973c-0.8900146-0.3800049-1.8399963-0.5700073-2.8599854-0.5700073
		s-1.980011,0.1900024-2.8900146,0.5700073s-1.7099915,0.9100034-2.3999939,1.6000059s-1.2200012,1.4700012-1.6000061,2.3600006
		s-0.5700073,1.8200073-0.5700073,2.7799988C154.5778809,11.9482708,155.2879028,13.7282696,156.7178955,15.1982708
		 M177.4378967,15.2382793c1.4200134,1.4499969,3.2000122,2.1699982,5.3299866,2.1699982
		c2.0799866,0,3.8500061-0.7100067,5.2999878-2.1300049c1.4500122-1.4199982,2.1700134-3.1999969,2.1700134-5.3300018
		c0-1.0099945-0.2000122-1.9799957-0.6099854-2.8999939c-0.4100037-0.9100037-0.9500122-1.6999969-1.6400146-2.3600006
		s-1.4700012-1.1799924-2.3599854-1.5599973c-0.8900146-0.3800049-1.8399963-0.5700073-2.8599854-0.5700073
		s-1.980011,0.1900024-2.8999939,0.5700073c-0.9100037,0.3800049-1.7099915,0.9100034-2.3999939,1.6000059
		c-0.6799927,0.6900024-1.2200012,1.4700012-1.6000061,2.3600006s-0.5700073,1.8200073-0.5700073,2.7799988
		C175.3078918,11.9982738,176.0178833,13.7882824,177.4378967,15.2382793 M147.4178772,22.898283V56.198288
		c0,8.9400024,2.0599976,15.4700012,6.1700134,19.5800018c4.1099854,4.1100006,10.4100037,6.1699982,18.8999939,6.1699982
		c8.480011,0,14.769989-2.0599976,18.8600159-6.1699982c4.0899963-4.1100006,6.1300049-10.6399994,6.1300049-19.5800018V22.898283
		h-14.8599854v31.2400074c0,1.6799927-0.0599976,3.3899994-0.1900024,5.1399994s-0.519989,3.3399963-1.1799927,4.7599945
		s-1.6700134,2.5800018-3.0100098,3.4700012c-1.3500061,0.8899994-3.2600098,1.3300018-5.75,1.3300018
		s-4.4200134-0.4400024-5.7900085-1.3300018s-2.3800049-2.0399933-3.0100098-3.4700012
		c-0.6300049-1.4199982-1.019989-3.0099945-1.1400146-4.7599945c-0.1300049-1.75-0.1900024-3.4700012-0.1900024-5.1399994V22.898283
		H147.4178772z M127.4578934,56.7982788c4.1099777-0.9600067,7.2300034-2.8099976,9.3299789-5.5200043
		c2.1099854-2.7200012,3.1600037-6.2599945,3.1600037-10.6300049c0-2.4400024-0.3900146-4.7200012-1.1799927-6.8600006
		c-0.7900085-2.1300068-1.9599915-4.0099964-3.5100098-5.6400013c-1.5499878-1.6199951-3.519989-2.9100037-5.8999939-3.8500061
		c-2.390007-0.9400024-5.179985-1.4100037-8.3799973-1.4100037H97.7378769v57.4499969h14.9300079V58.2382507l14.25,22.1000061
		h18.5899887L127.4578934,56.7982788z M112.6778946,34.3982849h2.8200073c2.9500122,0,5.2099915,0.6100006,6.7799988,1.8300018
		s2.3599854,2.9700012,2.3599854,5.2599945s-0.7900085,4.0399933-2.3599854,5.2599945
		c-1.5799866,1.2200012-3.8299866,1.8300018-6.7799988,1.8300018h-2.8200073V34.3982849z M87.7578964,22.898283H55.0678902
		v57.4499969h32.6900063V67.698288h-17.75v-9.8999939h16.7599945V45.1483002H70.0078964v-9.6000061h17.75V22.898283z
		 M6.1578884,80.3482819h24c3.0500011,0,5.7899914-0.3500061,8.2299938-1.0700073
		c2.4400024-0.7100067,4.5099945-1.7799988,6.2100067-3.1999969c1.6999969-1.4199982,3.0200043-3.1699982,3.9600067-5.2599945
		c0.9400024-2.0800018,1.4100037-4.4700012,1.4100037-7.1600037c0-1.7299957-0.1999969-3.3500061-0.6100006-4.8800049
		c-0.4100037-1.5200043-1.0800018-2.8999939-2.0200043-4.1199951s-2.1600037-2.25-3.6600037-3.0899963
		s-3.3099976-1.4600067-5.4499969-1.8699951c2.1300049-1.3200073,3.7200012-2.9299927,4.7599945-4.8399963
		c1.0399933-1.8999939,1.5599976-4.3099976,1.5599976-7.1999969c0-4.7700043-1.3699951-8.4299946-4.1100006-10.9700031
		c-2.7400055-2.5399933-6.7599945-3.8099976-12.0399914-3.8099976h-22.25v57.469986H6.1578884z M21.0878963,34.3282776h2.7400055
		c4.6699982,0,7.0099945,1.8500061,7.0099945,5.5599976c0,3.7100067-2.3399963,5.5599976-7.0099945,5.5599976h-2.7400055V34.3282776
		z M21.0878963,56.5782776h3.2799988c3.7599945,0,6.4499969,0.4799957,8.0799999,1.4499969
		c1.6199951,0.9600067,2.4400024,2.5099945,2.4400024,4.6499939c0,2.1300049-0.8099976,3.6799927-2.4400024,4.6499939
		c-1.630003,0.9700012-4.3200054,1.4499969-8.0799999,1.4499969h-3.2799988V56.5782776z"/>
</g>
</svg>
