<?xml version="1.0" encoding="iso-8859-1"?>
<!-- Generator: Adobe Illustrator 24.0.3, SVG Export Plug-In . SVG Version: 6.00 Build 0)  -->
<svg version="1.1" id="Ebene_1" xmlns="http://www.w3.org/2000/svg" xmlns:xlink="http://www.w3.org/1999/xlink" x="0px" y="0px"
	 width="841.8900146px" height="530.6400146px" viewBox="0 0 841.8900146 530.6400146"
	 enable-background="new 0 0 841.8900146 530.6400146" xml:space="preserve">
<g>
	<path fill="#CD1719" d="M154.7007446,366.0541077c-0.75-0.5400085-1.6799927-0.8399963-2.5899963-0.8399963
		c-2.4599915,0-4.480011,1.9299927-4.480011,4.4299927c0,2.5400085,1.9299927,4.4299927,4.4599915,4.4299927
		c1,0,1.8399963-0.2999878,2.6600037-0.8599854v-1.9100037h-0.0400085c-0.7000122,0.9100037-1.5400085,1.4500122-2.730011,1.4500122
		c-1.75,0-2.8900146-1.4500122-2.8900146-3.1099854c0-1.6799927,1.230011-3.1099854,2.9599915-3.1099854
		c1.1199951,0,1.9500122,0.5700073,2.6099854,1.4100037h0.0400085v-1.8900452H154.7007446z M139.540741,368.7341003
		c0.1799927-1.2099915,1.3200073-2.2000122,2.5499878-2.2000122c1.25,0,2.269989,0.980011,2.4599915,2.2000122H139.540741z
		 M146.06073,369.9541016c0.1400146-2.5-1.2900085-4.730011-3.980011-4.730011
		c-2.6199951,0-4.0700073,2.0499878-4.0700073,4.5400085c0,2.4100037,1.6099854,4.3200073,4.1099854,4.3200073
		c1.7099915,0,3.0700073-0.8599854,3.8800049-2.3599854l-1.2099915-0.7000122c-0.5499878,1-1.3399963,1.730011-2.5499878,1.730011
		c-1.6199951,0-2.730011-1.25-2.75-2.7999878h6.5700073V369.9541016z M133.4707336,360.374115h-1.5v13.4599915h5.2099915v-1.3800049
		h-3.7099915V360.374115z M120.8007202,373.0541077l-2.7099915,5.5h1.6199951l6.2000122-13.1099854h-1.6199951l-2.7099915,6.019989
		l-2.9700012-6.019989h-1.6600037L120.8007202,373.0541077z M109.9707336,372.5241089l6.0400085-7.0700073h-7.8000031v1.3200073
		h4.9299927l-6.0500031,7.0700073h8.6799927v-1.3200073H109.9707336z M103.5507355,365.4541016h-1.4299927v8.3900146h1.4299927
		v-4.2000122c0-1.0899963,0.0700073-3.1099854,1.6399994-3.1099854c0.3800049,0,0.5700073,0.1799927,0.8600006,0.3800049
		l0.6799927-1.2999878c-0.4100037-0.230011-0.8000031-0.3900146-1.2899933-0.3900146
		c-0.9299927,0-1.3600006,0.480011-1.8600006,1.1400146h-0.0299988V365.4541016z M93.2607422,368.7341003
		c0.1799927-1.2099915,1.3200073-2.2000122,2.5500031-2.2000122c1.25,0,2.2700043,0.980011,2.4600067,2.2000122H93.2607422z
		 M99.7807312,369.9541016c0.1399994-2.5-1.2899933-4.730011-3.9799957-4.730011
		c-2.6199951,0-4.0700073,2.0499878-4.0700073,4.5400085c0,2.4100037,1.6100006,4.3200073,4.1100006,4.3200073
		c1.7200012,0,3.0700073-0.8599854,3.8800049-2.3599854l-1.2100067-0.7000122c-0.5500031,1-1.3399963,1.730011-2.5500031,1.730011
		c-1.6199951,0-2.7299957-1.25-2.75-2.7999878h6.5700073V369.9541016z M89.6407318,360.374115h-1.5v10.6600037
		c0,1.0499878,0,2.7999878-1.4600067,2.7999878c-0.6999969,0-1.1100006-0.3200073-1.5899963-0.769989l-0.8399963,1.1600037
		c0.6799927,0.5700073,1.5,1,2.3899994,1c0.9100037,0,1.7700043-0.3800049,2.3200073-1.1099854
		c0.6799927-0.8900146,0.6799927-2.019989,0.6799927-3.0899963V360.374115z M69.5007324,365.4541016h-1.6199951l4.1199951,8.980011
		l2.5899963-6.25l2.5899963,6.25l4.1600037-8.980011h-1.6199951l-2.5,5.6799927l-2.6199951-6.3200073l-2.6100006,6.3200073
		L69.5007324,365.4541016z M65.7307281,365.4541016h-1.4299927v1.2000122h-0.0399933
		c-0.6999969-0.8900146-1.7299957-1.4299927-2.8800049-1.4299927c-2.5200043,0-4.0399933,2.0499878-4.0399933,4.4500122
		c0,2.3200073,1.5500031,4.4100037,4.0200043,4.4100037c1.1799927,0,2.1600037-0.4599915,2.8899994-1.3900146h0.0399933v1.1600037
		h1.4299927v-8.4000244H65.7307281z M61.5507355,366.5440979c1.7700043,0,2.8200073,1.3599854,2.8200073,3.0299988
		c0,1.7000122-0.9600067,3.1799927-2.8000031,3.1799927c-1.7899933,0-2.75-1.5499878-2.75-3.2000122
		C58.8207397,367.9841003,59.8907318,366.5440979,61.5507355,366.5440979 M54.9607391,359.1141052h-1.4299927v14.730011h1.4299927
		V359.1141052z M50.5907288,366.7741089c-0.3800049-0.8800049-1.2700043-1.5499878-2.2299957-1.5499878
		c-1.3600006,0-2.5,0.9599915-2.5,2.3800049c0,2.6400146,3.7899933,2,3.7899933,3.8800049
		c0,0.769989-0.5899963,1.2900085-1.3600006,1.2900085c-0.9499969,0-1.3600006-0.5499878-1.7100067-1.3399963l-1.2700043,0.5400085
		c0.4499969,1.3200073,1.5500031,2.1199951,2.9600067,2.1199951c1.5500031,0,2.8399963-1.1400146,2.8399963-2.730011
		c0-1.4100037-0.9600067-2-1.9499969-2.4100037c-0.9799957-0.4100037-1.9499969-0.7000122-1.9499969-1.4599915
		c0-0.5400085,0.5399933-0.9299927,1.0399933-0.9299927c0.5200043,0,0.9499969,0.4100037,1.1399994,0.8599854
		L50.5907288,366.7741089z M42.040741,361.2741089c-0.5500031,0-1.0200043,0.4599915-1.0200043,1.019989
		c0,0.5700073,0.4600067,1.019989,1.0200043,1.019989c0.5500031,0,1.0200043-0.4500122,1.0200043-1.019989
		C43.0507355,361.7341003,42.5907288,361.2741089,42.040741,361.2741089 M42.7507324,365.4541016h-1.4299927v8.3900146h1.4299927
		V365.4541016z M32.790741,365.4541016h-1.4299927v8.3900146h1.4299927v-3.980011c0-1.5,0.1199951-3.3200073,2.0899963-3.3200073
		c1.6600037,0,1.7700043,1.2099915,1.7700043,2.5700073v4.730011h1.4299927v-4.980011
		c0-1.9599915-0.5399933-3.6400146-2.8600006-3.6400146c-1.0399933,0-1.8000031,0.4500122-2.3899994,1.25H32.790741V365.4541016z
		 M28.2707367,365.4541016H26.840744v1.2000122h-0.0399933c-0.6999969-0.8900146-1.7299957-1.4299927-2.8800049-1.4299927
		c-2.5200043,0-4.0399933,2.0499878-4.0399933,4.4500122c0,2.3200073,1.5500031,4.4100037,4.0200043,4.4100037
		c1.1799927,0,2.1600037-0.4599915,2.8899994-1.3900146h0.0399933v1.1600037h1.4299927v-8.4000244H28.2707367z
		 M24.0907288,366.5440979c1.7700043,0,2.8200073,1.3599854,2.8200073,3.0299988
		c0,1.7000122-0.9600067,3.1799927-2.8000031,3.1799927c-1.7899933,0-2.75-1.5499878-2.75-3.2000122
		C21.360733,367.9841003,22.4307404,366.5440979,24.0907288,366.5440979 M17.3707275,366.7741089h1.5v-1.3200073h-1.5v-3.019989
		h-1.4299927v3.019989H15.06073v1.3200073h0.8800049v7.0700073h1.4299927V366.7741089z M13.110733,362.2341003
		c-0.7100067-1.3200073-1.9799957-2.0899963-3.4799957-2.0899963c-2.0000005,0-3.7700047,1.3399963-3.7700047,3.4299927
		c0,1.9299927,1.3600006,2.730011,2.9299932,3.4500122l0.8200073,0.3599854c1.25,0.5700073,2.4799957,1.1099854,2.4799957,2.6799927
		c0,1.519989-1.3200073,2.6199951-2.7700043,2.6199951s-2.5000005-1.1199951-2.6999974-2.5l-1.4600067,0.4100037
		c0.4299927,2.0899963,2.0399933,3.480011,4.1999974,3.480011c2.3399963,0,4.2299957-1.7999878,4.2299957-4.1600037
		c0-2.1400146-1.4799957-3.019989-3.2299957-3.7900085l-0.8899994-0.3900146
		c-0.9100037-0.4100037-2.1100011-0.9500122-2.1100011-2.1099854c0-1.230011,1.0399938-2.0899963,2.2299962-2.0899963
		c1.1399994,0,1.7899933,0.5299988,2.3200073,1.4599915L13.110733,362.2341003z"/>
	<path fill="#CD1719" d="M536.6907349,333.4941101c0.460022,1.0899963,1.0900269,2.0400085,1.9000244,2.8599854
		c0.8099976,0.8099976,1.7700195,1.4500122,2.8599854,1.8999939c1.0900269,0.4599915,2.25,0.6900024,3.4699707,0.6900024
		s2.3699951-0.230011,3.4699707-0.6900024c1.0900269-0.4599915,2.039978-1.0899963,2.8599854-1.8999939
		c0.8099976-0.8099976,1.4500122-1.7600098,1.9000244-2.8599854c0.460022-1.0899963,0.6900024-2.25,0.6900024-3.4700012
		s-0.2299805-2.3699951-0.6900024-3.4700012c-0.460022-1.0899963-1.0900269-2.0400085-1.9000244-2.8599854
		c-0.8099976-0.8099976-1.7700195-1.4500122-2.8599854-1.8999939c-1.0900269-0.4599915-2.25-0.6900024-3.4699707-0.6900024
		s-2.3800049,0.230011-3.4699707,0.6900024c-1.0900269,0.4599915-2.0499878,1.0899963-2.8599854,1.8999939
		s-1.4500122,1.769989-1.9000244,2.8599854c-0.460022,1.0899963-0.6900024,2.25-0.6900024,3.4700012
		S536.2307129,332.4041138,536.6907349,333.4941101 M486.9307251,337.3441162v-35.1199951l27.5800171,35.1199951h14.8599854
		V279.894104h-14.8599854v35.1199951l-27.5800171-35.1199951h-14.9299927v57.4500122H486.9307251z M463.5407104,279.894104
		H430.850708v57.4500122h32.6900024v-12.6499939h-17.75v-9.8999939h16.7600098v-12.6499939h-16.7600098v-9.6000061h17.75V279.894104
		z M394.06073,316.7741089h12.2700195c-0.25,1.6799927-0.7399902,3.1000061-1.4500122,4.269989
		c-0.710022,1.1700134-1.6099854,2.1199951-2.710022,2.8599854c-1.0900269,0.7399902-2.3200073,1.269989-3.7000122,1.6000061
		c-1.3699951,0.3299866-2.789978,0.4899902-4.2700195,0.4899902c-2.4899902,0-4.6699829-0.4200134-6.5499878-1.2600098
		s-3.4500122-2.019989-4.7199707-3.5400085c-1.2700195-1.519989-2.2199707-3.3299866-2.8599854-5.4100037
		c-0.6400146-2.0799866-0.9500122-4.3399963-0.9500122-6.7799988c0-2.6900024,0.3699951-5.1300049,1.0999756-7.3099976
		s1.75-4.0499878,3.0499878-5.6000061c1.289978-1.5499878,2.8599854-2.7399902,4.6900024-3.5799866
		s3.8599854-1.2600098,6.0999756-1.2600098c2.6900024,0,5.0900269,0.6799927,7.2000122,2.0599976
		c2.1099854,1.3699951,3.8200073,3.6300049,5.1400146,6.7799988l14.1699829-5.8699951
		c-2.6400146-5.4299927-6.2199707-9.4500122-10.7399902-12.0400085s-9.7800293-3.8900146-15.7700195-3.8900146
		c-4.6199951,0-8.8099976,0.7399902-12.5700073,2.2099915s-6.9699707,3.5299988-9.6400146,6.1700134
		c-2.6700134,2.6400146-4.7200012,5.8299866-6.1700134,9.5599976s-2.1700134,7.8399963-2.1700134,12.2999878
		c0,4.519989,0.7399902,8.6499939,2.2099915,12.3800049s3.5299988,6.9299927,6.1700134,9.6000061
		s5.7999878,4.7399902,9.4899902,6.2099915c3.6799927,1.4700012,7.7600098,2.2099915,12.2299805,2.2099915
		c3.25,0,6.3499756-0.4100037,9.2999878-1.2200012s5.6500244-1.9899902,8.1099854-3.5400085
		c2.460022-1.5499878,4.6099854-3.480011,6.4400024-5.7900085s3.2800293-4.9599915,4.3400269-7.9599915
		c0.7600098-2.1300049,1.2700195-4.4400024,1.5200195-6.9299927s0.3800049-5.2600098,0.3800049-8.3099976h-29.6400146v11.5900879
		H394.06073z M314.3607483,337.3441162v-35.1199951l27.5799866,35.1199951h14.8599854V279.894104h-14.8599854v35.1199951
		l-27.5799866-35.1199951h-14.9299927v57.4500122H314.3607483z M239.6207275,279.894104v33.2999878
		c0,8.9400024,2.0599976,15.4700012,6.1700134,19.5799866c4.1099854,4.1099854,10.4100037,6.1700134,18.8899841,6.1700134
		c8.480011,0,14.769989-2.0599976,18.8599854-6.1700134c4.0899963-4.1099854,6.1300049-10.6400146,6.1300049-19.5799866V279.894104
		H274.81073v31.2399902c0,1.6799927-0.0599976,3.3900146-0.1900024,5.1400146s-0.519989,3.3399963-1.1799927,4.7600098
		s-1.6600037,2.5799866-3.0100098,3.4700012s-3.269989,1.3299866-5.75,1.3299866
		c-2.4899902,0-4.4200134-0.4400024-5.7900085-1.3299866c-1.3699951-0.8900146-2.3800049-2.0400085-3.0100098-3.4700012
		c-0.6400146-1.4200134-1.019989-3.0100098-1.1400146-4.7600098c-0.1300049-1.75-0.1900024-3.4700012-0.1900024-5.1400146
		V279.894104H239.6207275z M232.2307434,292.5440979V279.894104h-39.4700012v12.6499939h12.269989v44.7999878h14.9299927
		v-44.7999878H232.2307434z M148.8707275,279.894104h-14.9299927v57.4500122h14.9299927V313.644104h21.5700073v23.7000122
		h14.9299927V279.894104h-14.9299927v22.1700134h-21.5599976V279.894104H148.8707275z M124.3407288,281.2640991
		c-2.4400024-1.0100098-4.7600098-1.7600098-6.9700012-2.25c-2.2099915-0.480011-4.4600067-0.7200012-6.7400055-0.7200012
		c-4.0099945,0-7.8500061,0.75-11.5099945,2.25c-3.6600037,1.5-6.8699951,3.5799866-9.6399994,6.25
		s-4.9799957,5.8399963-6.6300049,9.519989c-1.6499939,3.6799927-2.4799957,7.730011-2.4799957,12.1499939
		c0,4.4200134,0.8399963,8.4899902,2.5099945,12.230011c1.6799927,3.730011,3.8999939,6.9599915,6.6699982,9.6799927
		s5.9700012,4.8299866,9.6000061,6.3200073c3.6300049,1.5,7.4299927,2.25,11.3899994,2.25
		c1.9299927,0,3.8800049-0.1900024,5.8700104-0.5700073c1.980011-0.3800049,4.1099854-0.980011,6.3999939-1.7900085
		l1.519989-0.5299988v-17.6799927c-3.8099976,4.0599976-8.1000061,6.1000061-12.8800049,6.1000061
		c-2.1799927,0-4.2200012-0.4100037-6.1000061-1.2200012s-3.5200043-1.9299927-4.9100037-3.3500061
		c-1.3999939-1.4200134-2.4900055-3.1000061-3.2799988-5.0299988s-1.1799927-4.0400085-1.1799927-6.3200073
		c0-2.230011,0.3899994-4.3200073,1.1799927-6.25s1.8699951-3.5899963,3.2400055-4.9899902
		c1.3699951-1.3999939,3.0099945-2.5,4.9100037-3.3099976c1.8999939-0.8099976,3.9700012-1.2200012,6.2100067-1.2200012
		c5.0799866,0,9.3399963,2.1099854,12.7999878,6.3200073v-17.8399963H124.3407288z M57.5207367,337.3441162h14.9300079V279.894104
		H57.520752v57.4500122H57.5207367z M35.8807373,313.8041077c4.1199951-0.9599915,7.2299957-2.8099976,9.3300018-5.519989
		c2.1100006-2.7200012,3.1600037-6.2600098,3.1600037-10.6300049c0-2.4400024-0.3899994-4.7200012-1.1799927-6.8599854
		c-0.7899933-2.1300049-1.9600067-4.0100098-3.5099945-5.6400146c-1.5500031-1.6199951-3.5200043-2.9100037-5.8999939-3.8500061
		c-2.3899994-0.9400024-5.1799927-1.4100037-8.3800049-1.4100037H6.1607509v57.4500122h14.9300079v-22.1000061l14.25,22.1000061
		h18.5899963L35.8807373,313.8041077z M21.1007385,291.4041138h2.8200073c2.9400024,0,5.2100067,0.6099854,6.7799988,1.8299866
		c1.5700073,1.2200012,2.3600006,2.9700012,2.3600006,5.2600098s-0.7899933,4.0400085-2.3600006,5.2600098
		s-3.8399963,1.8299866-6.7799988,1.8299866h-2.8200073V291.4041138z"/>
	<path fill="#CD1719" d="M354.5907288,228.0841064c4.1099854-0.9599915,7.230011-2.8099976,9.3299866-5.519989
		c2.1099854-2.7200012,3.1600037-6.2600098,3.1600037-10.6300049c0-2.4400024-0.3900146-4.7200012-1.1799927-6.8599854
		c-0.7900085-2.1300049-1.9599915-4.0100098-3.5-5.6400146c-1.5499878-1.6199951-3.519989-2.9100037-5.8999939-3.8500061
		c-2.3900146-0.9400024-5.1799927-1.4100037-8.3800049-1.4100037h-23.2399902v57.4500122H339.81073v-22.1000061l14.25,22.1000061
		h18.5900269L354.5907288,228.0841064z M339.81073,205.6841125h2.8200073c2.9500122,0,5.2099915,0.6099854,6.7799988,1.8299866
		s2.3599854,2.9700012,2.3599854,5.2600098s-0.7900085,4.0400085-2.3599854,5.2600098
		c-1.5700073,1.2200012-3.8399963,1.8299866-6.7799988,1.8299866H339.81073V205.6841125z M304.6907349,251.624115h15.9200134
		l-21.8699951-57.4500122h-16.3000183l-21.8699951,57.4500122h15.9200134l3.4299927-9.980011h21.3299866L304.6907349,251.624115z
		 M283.8907471,230.2940979l6.7000122-19.1199951l6.7000122,19.1199951H283.8907471z M243.5807495,251.624115h15.9200134
		l-21.8699951-57.4500122h-16.3099976l-21.8699951,57.4500122h15.9200134l3.4299927-9.980011h21.3299866L243.5807495,251.624115z
		 M222.7807312,230.2940979l6.7000122-19.1199951l6.7099915,19.1199951H222.7807312z M175.2407227,232.5841064h8.8399963
		c6.4500122,0,11.3900146-1.6799927,14.8200073-5.0299988s5.1400146-8.0799866,5.1400146-14.1700134
		c0-6.1000061-1.7099915-10.8200073-5.1400146-14.1700134c-3.4299927-3.3500061-8.3699951-5.0299988-14.8200073-5.0299988H160.31073
		v57.4500122h14.9299927V232.5841064z M175.2407227,206.2141113h4.9500122c5.4899902,0,8.230011,2.3900146,8.230011,7.1600037
		s-2.7399902,7.1600037-8.230011,7.1600037h-4.9500122V206.2141113z M90.7407379,251.624115v-35.1199951l27.5800018,35.1199951
		h14.8599854v-57.4500122h-14.8599854v35.1199951l-27.5800018-35.1199951H75.81073v57.4500122H90.7407379z M48.8407288,251.624115
		h14.9299927v-57.4500122H48.8407288V251.624115z M38.8507385,194.1741028H6.1607356v57.4500122h32.6900024v-12.6499939h-17.75
		v-9.8999939H37.860733v-12.6499939H21.1007385v-9.6000061h17.75V194.1741028z"/>
	<path fill="#CD1719" d="M480.5307617,165.914093v-35.1199951l27.5800171,35.1199951h14.8599854v-57.4500046h-14.8599854v35.1200027
		l-27.5800171-35.1200027H465.600769v57.4500046H480.5307617z M444.3407593,142.3641052
		c4.1099854-0.9600067,7.2199707-2.8099976,9.3300171-5.5200043c2.1099854-2.7200012,3.1599731-6.2599945,3.1599731-10.6300125
		c0-2.4400024-0.3900146-4.7200012-1.1799927-6.8600006c-0.789978-2.1300049-1.960022-4.0099945-3.5100098-5.6399994
		c-1.5499878-1.6199951-3.5200195-2.9100037-5.9000244-3.8500061c-2.3900146-0.9400024-5.1799927-1.4100037-8.3800049-1.4100037
		h-23.2399902v57.4500046h14.9299927v-22.1000061l14.25,22.1000061h18.5900269L444.3407593,142.3641052z M429.56073,119.9640884
		h2.8200073c2.9500122,0,5.210022,0.6100006,6.7800293,1.8300018s2.3599854,2.9700012,2.3599854,5.2599945
		c0,2.2900009-0.789978,4.0400009-2.3599854,5.2600021c-1.5800171,1.2200012-3.8400269,1.8300018-6.7800293,1.8300018H429.56073
		V119.9640884z M404.6507568,108.4640884h-32.6900024v57.4500046h32.6900024v-12.6499939h-17.75v-9.8999939h16.7600098v-12.6499939
		h-16.7600098v-9.6000137h17.75V108.4640884z M312.1507263,108.4640884v33.3000107
		c0,8.9400024,2.0599976,15.4700012,6.1700134,19.5799866c4.1099854,4.1199951,10.4100037,6.1700134,18.8999939,6.1700134
		s14.769989-2.0599976,18.8600159-6.1700134c4.0899963-4.1100006,6.1300049-10.6399994,6.1300049-19.5800018v-33.3000107H347.350769
		v31.2400131c0,1.6799927-0.0599976,3.3899994-0.1900024,5.1399994s-0.519989,3.3399963-1.1799927,4.7599945
		s-1.6600037,2.5800018-3.0100098,3.4700012s-3.2600098,1.3300018-5.75,1.3300018s-4.4200134-0.4400024-5.7900085-1.3300018
		s-2.3800049-2.0399933-3.0100098-3.4700012c-0.6400146-1.4199982-1.019989-3.0099945-1.1400146-4.7599945
		c-0.1300049-1.75-0.1900024-3.4700012-0.1900024-5.1399994v-31.2400131h-14.9400024V108.4640884z M295.0807495,165.914093
		h15.9200134l-21.8699951-57.4500046h-16.2900391l-21.8699951,57.4500046h15.9200134l3.4299927-9.9799957h21.3299866
		L295.0807495,165.914093z M274.2807312,144.5740967l6.7099915-19.1200027l6.7000122,19.1200027H274.2807312z
		 M215.8507385,108.4640884v57.4500046h32.8399963v-12.6499939H230.790741v-44.8000107H215.8507385z M188.4907227,108.4640884
		h-32.6900024v57.4500046h32.6900024v-12.6499939h-17.75v-9.8999939h16.7600098v-12.6499939h-16.7600098v-9.6000137h17.75
		V108.4640884z M114.2107391,108.4640884H99.2807312v57.4500046h14.9299927v-24.9100037l19.4299927,24.9100037h19.3500061
		l-24.9100037-30.25l22.7799988-27.2000046h-18.4400024l-18.2099915,23.7000046v-23.7000046H114.2107391z M89.4507294,109.8340988
		c-2.4400024-1.0099945-4.7599945-1.7599945-6.9700012-2.25c-2.2100067-0.4799957-4.4600067-0.7200012-6.7400055-0.7200012
		c-4.0099945,0-7.8500061,0.75-11.5099945,2.25c-3.6600037,1.5-6.8699951,3.5800018-9.6399994,6.25
		s-4.9799957,5.8399963-6.6300049,9.5200043c-1.6499939,3.6800003-2.4799957,7.7300034-2.4799957,12.1500015
		s0.8399963,8.4900055,2.5099945,12.2299957c1.6799927,3.7299957,3.8999939,6.9600067,6.6699982,9.6799927
		c2.7700043,2.7200012,5.9700012,4.8299866,9.6000061,6.3200073c3.6300049,1.5,7.4299927,2.25,11.3899994,2.25
		c1.9299927,0,3.8899994-0.1900024,5.8699951-0.5700073s4.1100006-0.980011,6.3999939-1.7900085l1.5200043-0.5299988v-17.6799927
		c-3.8099976,4.0599976-8.1000061,6.1000061-12.8800049,6.1000061c-2.1799927,0-4.2200012-0.4100037-6.1000061-1.2200012
		s-3.5200043-1.9299927-4.9100037-3.3500061c-1.3999939-1.4199982-2.4900055-3.1000061-3.2799988-5.0299988
		s-1.1799927-4.0399933-1.1799927-6.3200073c0-2.2299957,0.3899994-4.3200073,1.1799927-6.25
		s1.8699951-3.590004,3.2400055-4.9900131c1.3699951-1.3999939,3.0099945-2.5,4.9100037-3.3099976
		c1.8999939-0.8099976,3.9700012-1.2200012,6.2100067-1.2200012c5.0800018,0,9.3500061,2.1100006,12.8000031,6.3200073v-17.8399811
		H89.4507294z M38.8507385,108.4640884H6.1607356v57.4500046h32.6900024v-12.6499939h-17.75v-9.8999939H37.860733v-12.6499939
		H21.1007385v-9.6000137h17.75V108.4640884z"/>
	<path fill="#CD1719" d="M525.0907593,56.6540909c4.1099854-0.9600067,7.2199707-2.8099976,9.3300171-5.5200043
		c2.1099854-2.7200012,3.1599731-6.2599945,3.1599731-10.6300049c0-2.4400024-0.3900146-4.7200012-1.1799927-6.8600006
		c-0.789978-2.130003-1.960022-4.0100002-3.5100098-5.6399975c-1.5499878-1.6200027-3.5200195-2.9100037-5.9000244-3.8499985
		c-2.3900146-0.9400024-5.1799927-1.4100037-8.3800049-1.4100037h-23.2399902v57.4500046h14.9299927V58.0940781l14.25,22.1000061
		h18.5900269L525.0907593,56.6540909z M510.3007202,34.254097h2.8200073c2.9500122,0,5.210022,0.6100006,6.7800293,1.8300018
		s2.3599854,2.9700012,2.3599854,5.2599945s-0.789978,4.0399933-2.3599854,5.2599945
		c-1.5800171,1.2200012-3.8400269,1.8300018-6.7800293,1.8300018h-2.8200073V34.254097z M485.3907471,22.7440968h-32.6900024
		v57.4500046h32.6900024V67.5441055h-17.75v-9.8999939h16.7600098V44.9941177h-16.7600098v-9.6000061h17.75V22.7440968z
		 M395.100708,80.1940994h22.0999756c3.960022,0,7.6599731-0.7899933,11.0900269-2.3600006
		c3.4299927-1.5700073,6.4199829-3.6799927,8.9899902-6.3200073c2.5700073-2.6399994,4.5700073-5.6999969,6.0200195-9.1799927
		s2.1699829-7.1000061,2.1699829-10.8600006c0-3.8099976-0.7399902-7.4499969-2.210022-10.9300079
		c-1.4699707-3.4799957-3.4899902-6.5299988-6.0599976-9.1399975c-2.5700073-2.6200027-5.5599976-4.7099991-8.9899902-6.2900009
		c-3.4299927-1.5699997-7.0999756-2.3600006-11.0100098-2.3600006H395.100708V80.1940994z M410.0407104,35.3940964h3.4299927
		c2.539978,0,4.8300171,0.4100037,6.8599854,1.2200012c2.0300293,0.8099976,3.7399902,1.9299927,5.1400146,3.3500061
		c1.4000244,1.4199982,2.4799805,3.1199951,3.2399902,5.1000061c0.7600098,1.9799957,1.1400146,4.1199951,1.1400146,6.3999939
		c0,2.3399963-0.3699951,4.4799957-1.0999756,6.4400024c-0.7399902,1.9600067-1.7999878,3.6399994-3.2000122,5.0700073
		c-1.4000244,1.4199982-3.1099854,2.5399933-5.1400146,3.3500061c-2.0300293,0.8099976-4.3400269,1.2200012-6.9299927,1.2200012
		h-3.4299927V35.3940964H410.0407104z M385.1207275,22.7440968h-32.6799927v57.4500046h32.6900024V67.5441055h-17.75v-9.8999939
		h16.7600098V44.9941177h-16.7600098v-9.6000061h17.75V22.7440968H385.1207275z M327.6707458,22.7440968v39.6200027
		c0,4.4199982-1.3999939,6.6300049-4.1900024,6.6300049c-1.269989,0-2.3399963-0.5099945-3.2000122-1.5200043
		c-0.8599854-1.0200043-1.4200134-2.3899994-1.6799927-4.1100006l-9.75,9.9799957
		c3.8599854,5.6399994,8.8599854,8.4600067,15.0100098,8.4600067c2.0299988,0,3.9700012-0.2700043,5.8299866-0.8000031
		c1.8500061-0.5299988,3.5400085-1.2700043,5.0700073-2.2100067c1.519989-0.9400024,2.8599854-2.0800018,4-3.4299927
		c1.1400146-1.3500061,2.0400085-2.8300018,2.7000122-4.4600067c0.3999939-1.0200043,0.7000122-2.2299957,0.8800049-3.6600037
		c0.1799927-1.4199982,0.269989-2.9700012,0.269989-4.6499939V22.7440968H327.6707458z M278.7007446,56.6540909
		c4.1199951-0.9600067,7.230011-2.8099976,9.3299866-5.5200043c2.1099854-2.7200012,3.1600037-6.2599945,3.1600037-10.6300049
		c0-2.4400024-0.3900146-4.7200012-1.1799927-6.8600006c-0.7900085-2.130003-1.9599915-4.0100002-3.5100098-5.6399975
		c-1.5499878-1.6200027-3.519989-2.9100037-5.8999939-3.8499985c-2.3900146-0.9400024-5.1799927-1.4100037-8.3800049-1.4100037
		h-23.2399902v57.4500046h14.9299927V58.0940781l14.25,22.1000061h18.5899963L278.7007446,56.6540909z M263.9207458,34.254097
		h2.8200073c2.9500122,0,5.2099915,0.6100006,6.7799988,1.8300018s2.3599854,2.9700012,2.3599854,5.2599945
		s-0.7900085,4.0399933-2.3599854,5.2599945c-1.5799866,1.2200012-3.8299866,1.8300018-6.7799988,1.8300018h-2.8200073V34.254097z
		 M239.7707214,22.7440968H207.080719v57.4500046h32.6900024V67.5441055h-17.75v-9.8999939h16.7600098V44.9941177h-16.7600098
		v-9.6000061h17.75V22.7440968z M199.6907349,35.3940964V22.7440968h-39.4700012v12.6499996h12.269989v44.8000031h14.9299927
		V35.3940964H199.6907349z M111.1607361,80.1940994V45.0741043l27.5799866,35.1199951h14.8599854V22.7441044h-14.8599854v35.1300049
		l-27.5800018-35.1300049H96.2307129v57.4499969H111.1607361z M69.2607422,80.1940994h14.9299927V22.7441044H69.2607422V80.1940994z
		 M21.1007385,22.7440968H6.1707454v57.4500046h14.9299927V56.4941025h21.5599976v23.6999969h14.9299927V22.7441044H42.6607361
		v22.1699963H21.1007385V22.7440968z"/>
</g>
</svg>
