<?xml version="1.0" encoding="utf-8"?>
<!-- Generator: Adobe Illustrator 23.1.1, SVG Export Plug-In . SVG Version: 6.00 Build 0)  -->
<svg version="1.1" id="Ebene_1" xmlns="http://www.w3.org/2000/svg" xmlns:xlink="http://www.w3.org/1999/xlink" x="0px" y="0px"
	 viewBox="0 0 679.2 172.2" style="enable-background:new 0 0 679.2 172.2;" xml:space="preserve">
<style type="text/css">
	.st0{fill:#CD1719;}
</style>
<g>
	<path class="st0" d="M471.3,148.7c0.5,1.1,1.1,2,1.9,2.9c0.8,0.8,1.8,1.5,2.9,1.9c1.1,0.5,2.2,0.7,3.5,0.7s2.4-0.2,3.5-0.7
		c1.1-0.5,2-1.1,2.9-1.9c0.8-0.8,1.5-1.8,1.9-2.9c0.5-1.1,0.7-2.2,0.7-3.5s-0.2-2.4-0.7-3.5c-0.5-1.1-1.1-2-1.9-2.9
		c-0.8-0.8-1.8-1.5-2.9-1.9c-1.1-0.5-2.2-0.7-3.5-0.7s-2.4,0.2-3.5,0.7c-1.1,0.5-2,1.1-2.9,1.9c-0.8,0.8-1.5,1.8-1.9,2.9
		c-0.5,1.1-0.7,2.2-0.7,3.5S470.8,147.6,471.3,148.7 M475.9,107.7V95.1h-39.5v12.6h12.3v44.8h14.9v-44.8H475.9z M419.8,129
		c4.1-1,7.2-2.8,9.3-5.5c2.1-2.7,3.2-6.3,3.2-10.6c0-2.4-0.4-4.7-1.2-6.9c-0.8-2.1-2-4-3.5-5.6c-1.5-1.6-3.5-2.9-5.9-3.9
		c-2.4-0.9-5.2-1.4-8.4-1.4H390v57.5H405v-22.1l14.2,22.1h18.6L419.8,129z M405,106.6h2.8c3,0,5.2,0.6,6.8,1.8s2.4,3,2.4,5.3
		s-0.8,4-2.4,5.3c-1.6,1.2-3.8,1.8-6.8,1.8H405V106.6z M381.6,95.1h-32.7v57.5h32.7v-12.6h-17.8V130h16.8v-12.7h-16.8v-9.6h17.8
		V95.1z M257.8,95.1l17.1,57.5h15.2l11.3-33.3l11.3,33.3H328l17.1-57.5h-15.6l-9.9,37.1l-12.2-37.1h-11.9l-12.2,37.1l-9.9-37.1
		L257.8,95.1L257.8,95.1z M232.1,129c4.1-1,7.2-2.8,9.3-5.5c2.1-2.7,3.2-6.3,3.2-10.6c0-2.4-0.4-4.7-1.2-6.9c-0.8-2.1-2-4-3.5-5.6
		c-1.5-1.6-3.5-2.9-5.9-3.9c-2.4-0.9-5.2-1.4-8.4-1.4h-23.2v57.5h14.9v-22.1l14.2,22.1h18.6L232.1,129z M217.3,106.6h2.8
		c3,0,5.2,0.6,6.8,1.8s2.4,3,2.4,5.3s-0.8,4-2.4,5.3c-1.6,1.2-3.8,1.8-6.8,1.8h-2.8V106.6z M174.6,152.5h14.9V95.1h-14.9V152.5z
		 M110.3,152.5l5-33.1l12.9,33.1h5.9l13.6-33.1l5,33.1h14.9l-9.8-57.5h-14.8l-11.4,30.6L120,95.1h-14.8l-9.8,57.5H110.3z M78.9,98.1
		c-2.9-1.5-5.8-2.7-8.9-3.5c-3.1-0.8-6.1-1.2-8.9-1.2c-3.1,0-5.8,0.5-8.3,1.4c-2.5,0.9-4.6,2.2-6.2,3.9s-3,3.6-4,5.9
		s-1.4,4.9-1.4,7.7s0.4,5.2,1.3,7c0.9,1.9,2.1,3.4,3.5,4.6c1.4,1.2,3.1,2.2,4.9,2.9c1.9,0.7,3.8,1.4,5.7,2c1.6,0.6,3,1.1,4.1,1.5
		c1.1,0.5,2.1,1,2.8,1.5c0.7,0.5,1.2,1.1,1.5,1.8c0.3,0.6,0.5,1.4,0.5,2.2c0,1.4-0.6,2.7-1.8,3.8c-1.2,1.1-3,1.7-5.4,1.7
		c-2.1,0-4.3-0.5-6.5-1.5c-2.2-1-4.4-2.4-6.6-4.4l-6.4,12c6.2,4.3,12.9,6.5,20.2,6.5c3.5,0,6.6-0.5,9.4-1.4s5.1-2.3,7-4
		c1.9-1.7,3.4-3.7,4.3-6.1s1.5-5,1.5-8c0-4.4-1.1-7.9-3.4-10.6s-5.8-4.9-10.7-6.5c-1.2-0.4-2.4-0.8-3.7-1.1
		c-1.2-0.4-2.4-0.8-3.4-1.3c-1-0.5-1.8-1-2.4-1.7s-0.9-1.5-0.9-2.5c0-1.5,0.6-2.7,1.8-3.6c1.2-0.9,2.8-1.4,4.7-1.4
		c1.5,0,3.1,0.3,4.7,1c1.6,0.6,3.2,1.6,4.9,2.9L78.9,98.1z M32.9,95.1H0.2v57.5h32.7v-12.6H15.2V130h16.8v-12.7H15.2v-9.6h17.8V95.1
		z"/>
	<path class="st0" d="M246.4,66.8V31.7L274,66.8h14.9V9.4H274v35.1L246.4,9.4h-14.9v57.5L246.4,66.8L246.4,66.8z M204.9,66.8h14.9
		V9.4h-14.9V66.8z M155.2,66.8h24c3,0,5.8-0.4,8.2-1.1c2.4-0.7,4.5-1.8,6.2-3.2c1.7-1.4,3-3.2,4-5.3c0.9-2.1,1.4-4.5,1.4-7.2
		c0-1.7-0.2-3.4-0.6-4.9c-0.4-1.5-1.1-2.9-2-4.1c-0.9-1.2-2.2-2.2-3.7-3.1s-3.3-1.5-5.5-1.9c2.1-1.3,3.7-2.9,4.8-4.8
		c1-1.9,1.6-4.3,1.6-7.2c0-4.8-1.4-8.4-4.1-11c-2.7-2.5-6.8-3.8-12-3.8h-22.2L155.2,66.8L155.2,66.8z M170.1,20.8h2.7
		c4.7,0,7,1.9,7,5.6c0,3.7-2.3,5.6-7,5.6h-2.7V20.8z M170.1,43h3.3c3.8,0,6.5,0.5,8.1,1.5c1.6,1,2.4,2.5,2.4,4.6
		c0,2.1-0.8,3.7-2.4,4.6s-4.3,1.5-8.1,1.5h-3.3V43z M93.1,9.4H78.2v57.5h14.9V43.1h21.6v23.7h14.9V9.4h-14.9v22.2H93.1V9.4z
		 M67.1,10.7c-2.4-1-4.8-1.8-7-2.2c-2.2-0.5-4.5-0.7-6.7-0.7c-4,0-7.9,0.8-11.5,2.2c-3.7,1.5-6.9,3.6-9.6,6.2s-5,5.8-6.6,9.5
		c-1.6,3.7-2.5,7.7-2.5,12.1s0.8,8.5,2.5,12.2c1.7,3.7,3.9,7,6.7,9.7s6,4.8,9.6,6.3c3.6,1.5,7.4,2.2,11.4,2.2c1.9,0,3.9-0.2,5.9-0.6
		s4.1-1,6.4-1.8l1.5-0.5V47.9c-3.8,4.1-8.1,6.1-12.9,6.1c-2.2,0-4.2-0.4-6.1-1.2s-3.5-1.9-4.9-3.4c-1.4-1.4-2.5-3.1-3.3-5
		s-1.2-4-1.2-6.3c0-2.2,0.4-4.3,1.2-6.2s1.9-3.6,3.2-5c1.4-1.4,3-2.5,4.9-3.3c1.9-0.8,4-1.2,6.2-1.2c5.1,0,9.4,2.1,12.8,6.3
		L67.1,10.7L67.1,10.7z M0.2,66.8h14.9V9.4H0.2V66.8z"/>
</g>
</svg>
