<?xml version="1.0" encoding="iso-8859-1"?>
<!-- Generator: Adobe Illustrator 24.0.3, SVG Export Plug-In . SVG Version: 6.00 Build 0)  -->
<svg version="1.1" id="Ebene_1" xmlns="http://www.w3.org/2000/svg" xmlns:xlink="http://www.w3.org/1999/xlink" x="0px" y="0px"
	 width="841.8900146px" height="530.6400146px" viewBox="0 0 841.8900146 530.6400146"
	 enable-background="new 0 0 841.8900146 530.6400146" xml:space="preserve">
<g>
	<path fill="#CD1719" d="M423.8348389,162.0640717c0.460022,1.0899963,1.0900269,2.0499878,1.9000244,2.8599854
		s1.7600098,1.4500122,2.8599854,1.8999939c1.0900269,0.4599915,2.25,0.6900024,3.4699707,0.6900024
		s2.3699951-0.230011,3.4699707-0.6900024c1.0900269-0.4599915,2.039978-1.0899963,2.8599854-1.8999939
		c0.8099976-0.8099976,1.4500122-1.7600098,1.9000244-2.8599854c0.460022-1.0899963,0.6900024-2.25,0.6900024-3.4700012
		s-0.2299805-2.3699951-0.6900024-3.4700012c-0.460022-1.0899963-1.0900269-2.0400085-1.9000244-2.8599854
		c-0.8099976-0.8099976-1.7700195-1.4500122-2.8599854-1.8999939c-1.0900269-0.4599915-2.25-0.6900024-3.4699707-0.6900024
		s-2.3800049,0.230011-3.4699707,0.6900024c-1.0900269,0.4599915-2.039978,1.0899963-2.8599854,1.8999939
		c-0.8099976,0.8099976-1.4500122,1.7600098-1.9000244,2.8599854c-0.460022,1.0899963-0.6900024,2.25-0.6900024,3.4700012
		C423.1448364,159.8240814,423.3748779,160.9740753,423.8348389,162.0640717 M414.2648315,111.5140533
		c-2.8499756-1.519989-5.8200073-2.6799927-8.9099731-3.4700012c-3.0999756-0.7900085-6.0700073-1.1799927-8.9099731-1.1799927
		c-3.0499878,0-5.7999878,0.4599915-8.2700195,1.3699951c-2.460022,0.9100037-4.5499878,2.2000122-6.25,3.8500061
		s-3.0200195,3.6300049-3.960022,5.9400024s-1.4099731,4.8900146-1.4099731,7.730011
		c0,2.8500061,0.4400024,5.1900024,1.3300171,7.0499878c0.8900146,1.8500061,2.0599976,3.3900146,3.5100098,4.6099854
		c1.4500122,1.2200012,3.0999756,2.2000122,4.9500122,2.9299927c1.8499756,0.7399902,3.7399902,1.4100037,5.6799927,2.019989
		c1.6199951,0.5599976,3.0100098,1.0700073,4.1500244,1.519989c1.1400146,0.4599915,2.0700073,0.9500122,2.7800293,1.4899902
		c0.710022,0.5299988,1.2199707,1.1199951,1.5200195,1.75c0.2999878,0.6300049,0.460022,1.3800049,0.460022,2.25
		c0,1.4200134-0.5999756,2.6900024-1.789978,3.8099976s-3.0100098,1.6799927-5.4500122,1.6799927
		c-2.1300049,0-4.289978-0.480011-6.4799805-1.4500122c-2.1799927-0.9599915-4.3900146-2.4400024-6.6300049-4.4200134
		l-6.4000244,12.0400085c6.2000122,4.3200073,12.9299927,6.480011,20.1900024,6.480011
		c3.5100098,0,6.6400146-0.4700012,9.4099731-1.4100037c2.7700195-0.9400024,5.0999756-2.2600098,7.0100098-3.9599915
		c1.9000244-1.7000122,3.3499756-3.75,4.3400269-6.1300049c0.9899902-2.3900146,1.4799805-5.0499878,1.4799805-8
		c0-4.3699951-1.1300049-7.9100037-3.3900146-10.6300049s-5.8300171-4.8900146-10.710022-6.5100098
		c-1.2199707-0.4100037-2.4500122-0.7900085-3.7000122-1.1400146c-1.2399902-0.3599854-2.3599854-0.769989-3.3499756-1.2600098
		c-0.9899902-0.480011-1.789978-1.0499878-2.4000244-1.7099915c-0.6099854-0.6600037-0.9099731-1.5-0.9099731-2.5100098
		c0-1.4700012,0.6099854-2.6700134,1.8300171-3.5799866c1.2199707-0.9100037,2.789978-1.3699951,4.7199707-1.3699951
		c1.5200195,0,3.0999756,0.3200073,4.7199707,0.9500122c1.6199951,0.6400146,3.25,1.6099854,4.8800049,2.9299927
		L414.2648315,111.5140533z M352.244873,133.7640533h8.8400269l14.0200195-25.2999878h-13.0300293L352.244873,133.7640533z
		 M334.8748779,142.3740692c4.1099854-0.9700012,7.2199707-2.8099976,9.3300171-5.519989
		c2.1099854-2.7200012,3.1599731-6.2600098,3.1599731-10.6300049c0-2.4400024-0.3900146-4.7200012-1.1799927-6.8599854
		c-0.789978-2.1300049-1.960022-4.0100098-3.5100098-5.6400146c-1.5499878-1.6199951-3.5200195-2.9100037-5.9099731-3.8500061
		c-2.3900146-0.9400024-5.1799927-1.4100037-8.3800049-1.4100037h-23.2399902v57.4500122h14.9299927v-22.1000061l14.25,22.1000061
		h18.5900269L334.8748779,142.3740692z M320.0948486,119.9740753h2.8200073c2.9500122,0,5.210022,0.6099854,6.7800293,1.8299866
		s2.3599854,2.9700012,2.3599854,5.2600098s-0.789978,4.0400085-2.3599854,5.2600098s-3.8400269,1.8299866-6.7800293,1.8299866
		h-2.8200073V119.9740753z M286.1148682,165.9140778h15.9200134l-21.8700256-57.4500122h-16.2999878l-21.8699951,57.4500122
		h15.9200134l3.4299927-9.980011h21.3299866L286.1148682,165.9140778z M265.3148499,144.5840607l6.7099915-19.1199951
		l6.7000122,19.1199951H265.3148499z M161.0048523,108.4640656l17.1399841,57.4500122h15.2399902l11.2799988-33.2999878
		l11.2799988,33.2999878h15.2399902l17.1400146-57.4500122H232.704834l-9.8999939,37.1100159l-12.1900024-37.1099854H198.724823
		l-12.1900024,37.1099854l-9.8999939-37.1099854h-15.6299744V108.4640656z M102.5848694,108.4640656H87.6548767v57.4500122
		h14.9299927v-23.7000122h21.5599976v23.7000122h14.9299927v-57.4500122h-14.9299927v22.1700134h-21.5599976V108.4640656z
		 M76.5348511,109.8340607c-2.4400024-1.019989-4.7600098-1.7600098-6.9700012-2.25
		c-2.2099915-0.480011-4.4599915-0.7200012-6.7399902-0.7200012c-4.0100098,0-7.8500061,0.75-11.5099945,2.25
		c-3.6600037,1.5-6.8699951,3.5799866-9.6399994,6.25s-4.9799957,5.8399963-6.6300049,9.519989
		c-1.6499939,3.6799927-2.4799957,7.730011-2.4799957,12.1499939s0.8399963,8.5,2.5099945,12.230011
		c1.6799927,3.730011,3.8999939,6.9599915,6.6699982,9.6799927s5.9700012,4.8299866,9.6000061,6.3200073
		c3.6300049,1.5,7.4300079,2.25,11.3899994,2.25c1.9299927,0,3.8900146-0.1900024,5.8699951-0.5700073
		c1.980011-0.3800049,4.1199951-0.980011,6.3999939-1.7900085l1.519989-0.5299988V146.944046
		c-3.8099976,4.0700073-8.1000061,6.1000061-12.8800049,6.1000061c-2.1799927,0-4.2200012-0.4100037-6.1000061-1.2200012
		s-3.5200043-1.9299927-4.9100037-3.3500061c-1.3999939-1.4200134-2.4900055-3.1000061-3.2799988-5.0299988
		s-1.1799927-4.0400085-1.1799927-6.3200073c0-2.230011,0.3899994-4.3200073,1.1799927-6.25
		s1.8699951-3.5899963,3.2400055-4.9899902c1.3699951-1.3999939,3.0099945-2.5,4.9099884-3.3099976
		s3.9700012-1.2200012,6.2099915-1.2200012c5.0799866,0,9.3500061,2.1099854,12.7999878,6.3200073v-17.8399963H76.5348511z
		 M8.9448528,165.9140778h14.9299927v-57.4500122H8.9448528V165.9140778z"/>
	<path fill="#CD1719" d="M101.5248413,90.8640594h8.8399963l14.019989-25.2200012h-12.9500122L101.5248413,90.8640594z
		 M84.2248535,80.1940765h15.9200134L78.2748718,22.7440815H61.974884L40.1048889,80.1940765h15.9199982l3.4300079-9.980011
		h21.3299866L84.2248535,80.1940765z M63.4248657,58.8640594l6.7000122-19.1199951l6.7099915,19.1199951H63.4248657z
		 M22.2848492,22.754076v39.6199951c0,4.4200134-1.3999939,6.6300049-4.1900024,6.6300049
		c-1.2700043,0-2.3399963-0.5100098-3.1999969-1.519989c-0.8600006-1.019989-1.4199982-2.3900146-1.6799927-4.1099854
		l-9.75,9.980011c3.8600006,5.6400146,8.8600006,8.4599915,15.0099945,8.4599915
		c2.0299988,0,3.9700012-0.269989,5.8300018-0.7999878c1.8500061-0.5299988,3.5399933-1.269989,5.0700073-2.2099915
		c1.5200043-0.9400024,2.8600025-2.0799866,4.0000019-3.4299927s2.0399933-2.8299866,2.7100067-4.4599915
		c0.4100037-1.019989,0.6999969-2.230011,0.8800049-3.6600037c0.1799927-1.4200134,0.2700043-2.9700012,0.2700043-4.6499939
		V22.754137H22.2848492V22.754076z"/>
</g>
</svg>
