<svg version="1.1" id="Ebene_1" xmlns="http://www.w3.org/2000/svg" x="0" y="0" viewBox="0 0 681.1 193.4" xml:space="preserve"><style>.st0{fill:#cd1719}</style><path class="st0" d="M598.4 140.9c.5 1.1 1.1 2 1.9 2.9.8.8 1.8 1.5 2.9 1.9 1.1.5 2.2.7 3.5.7s2.4-.2 3.5-.7c1.1-.5 2-1.1 2.9-1.9.8-.8 1.5-1.8 1.9-2.9.5-1.1.7-2.2.7-3.5s-.2-2.4-.7-3.5c-.5-1.1-1.1-2-1.9-2.9-.8-.8-1.8-1.5-2.9-1.9-1.1-.5-2.2-.7-3.5-.7s-2.4.2-3.5.7c-1.1.5-2 1.1-2.9 1.9s-1.5 1.8-1.9 2.9c-.5 1.1-.7 2.2-.7 3.5s.2 2.4.7 3.5m-49.8 3.9v-35.1l27.6 35.1h14.9V87.3h-14.9v35.1l-27.6-35.1h-14.9v57.5h14.9zm-24.9-57.5H491v57.5h32.7v-12.6H506v-9.9h16.8v-12.6H506V100h17.8V87.3zm-70.2 36.9h12.3c-.3 1.7-.7 3.1-1.5 4.3-.7 1.2-1.6 2.1-2.7 2.9s-2.3 1.3-3.7 1.6c-1.4.3-2.8.5-4.3.5-2.5 0-4.7-.4-6.5-1.3s-3.5-2-4.7-3.5c-1.3-1.5-2.2-3.3-2.9-5.4-.6-2.1-1-4.3-1-6.8 0-2.7.4-5.1 1.1-7.3.7-2.2 1.8-4 3-5.6 1.3-1.5 2.9-2.7 4.7-3.6s3.9-1.3 6.1-1.3c2.7 0 5.1.7 7.2 2.1 2.1 1.4 3.8 3.6 5.1 6.8l14.2-5.9c-2.6-5.4-6.2-9.5-10.7-12s-9.8-3.9-15.8-3.9c-4.6 0-8.8.7-12.6 2.2s-7 3.5-9.6 6.2c-2.7 2.6-4.7 5.8-6.2 9.6s-2.2 7.8-2.2 12.3c0 4.5.7 8.6 2.2 12.4 1.5 3.7 3.5 6.9 6.2 9.6 2.6 2.7 5.8 4.7 9.5 6.2s7.8 2.2 12.2 2.2c3.2 0 6.3-.4 9.3-1.2 3-.8 5.7-2 8.1-3.5 2.5-1.5 4.6-3.5 6.4-5.8s3.3-5 4.3-8c.8-2.1 1.3-4.4 1.5-6.9s.4-5.3.4-8.3h-29.6l.2 11.4zm-37.2-36.9h-32.7v57.5h32.7v-12.6h-17.8v-9.9h16.8v-12.6h-16.8V100h17.8V87.3zm-58.9 57.5h14.9V87.3h-14.9v57.5zm-92.6-57.5l17.1 57.5h15.2l11.3-33.3 11.3 33.3H335l17.1-57.5h-15.6l-9.9 37.1-12.2-37.1h-11.9l-12.2 37.1-9.9-37.1h-15.6zm-41.7 0h-14.9v57.5h14.9v-23.7h21.6v23.7h14.9V87.3h-14.9v22.2h-21.6V87.3zm-25.5 1.4c-2.4-1-4.8-1.8-7-2.2s-4.5-.7-6.7-.7c-4 0-7.9.8-11.5 2.2s-6.9 3.6-9.6 6.2c-2.8 2.7-5 5.8-6.6 9.5s-2.5 7.7-2.5 12.1.8 8.5 2.5 12.2c1.7 3.7 3.9 7 6.7 9.7 2.8 2.7 6 4.8 9.6 6.3 3.6 1.5 7.4 2.2 11.4 2.2 1.9 0 3.9-.2 5.9-.6 2-.4 4.1-1 6.4-1.8l1.5-.5v-17.7c-3.8 4.1-8.1 6.1-12.9 6.1-2.2 0-4.2-.4-6.1-1.2s-3.5-1.9-4.9-3.4c-1.4-1.4-2.5-3.1-3.3-5s-1.2-4-1.2-6.3c0-2.2.4-4.3 1.2-6.2.8-1.9 1.9-3.6 3.2-5s3-2.5 4.9-3.3 4-1.2 6.2-1.2c5.1 0 9.4 2.1 12.8 6.3V88.7zM146 90.4c-2.9-1.5-5.8-2.7-8.9-3.5-3.1-.8-6.1-1.2-8.9-1.2-3.1 0-5.8.5-8.3 1.4-2.5.9-4.6 2.2-6.2 3.9s-3 3.6-4 5.9-1.4 4.9-1.4 7.7c0 2.9.4 5.2 1.3 7 .9 1.9 2.1 3.4 3.5 4.6 1.4 1.2 3.1 2.2 4.9 2.9 1.9.7 3.8 1.4 5.7 2 1.6.6 3 1.1 4.1 1.5 1.1.5 2.1 1 2.8 1.5.7.5 1.2 1.1 1.5 1.8.3.6.5 1.4.5 2.2 0 1.4-.6 2.7-1.8 3.8-1.2 1.1-3 1.7-5.4 1.7-2.1 0-4.3-.5-6.5-1.5s-4.4-2.4-6.6-4.4l-6.4 12c6.2 4.3 12.9 6.5 20.2 6.5 3.5 0 6.6-.5 9.4-1.4s5.1-2.3 7-4c1.9-1.7 3.3-3.7 4.3-6.1 1-2.4 1.5-5 1.5-8 0-4.4-1.1-7.9-3.4-10.6-2.3-2.7-5.8-4.9-10.7-6.5-1.2-.4-2.4-.8-3.7-1.1-1.2-.4-2.4-.8-3.4-1.3s-1.8-1-2.4-1.7-.9-1.5-.9-2.5c0-1.5.6-2.7 1.8-3.6 1.2-.9 2.8-1.4 4.7-1.4 1.5 0 3.1.3 4.7 1s3.2 1.6 4.9 2.9l6.1-11.5zm-46-3.1H67.3v57.5H100v-12.6H82.3v-9.9H99v-12.6H82.3V100H100V87.3zm-69.5 36.9h12.3c-.2 1.7-.7 3.1-1.4 4.3-.7 1.2-1.6 2.1-2.7 2.9-1.1.7-2.3 1.3-3.7 1.6-1.4.3-2.8.5-4.3.5-2.5 0-4.7-.4-6.6-1.3s-3.5-2-4.7-3.5c-1.3-1.5-2.2-3.3-2.9-5.4-.6-2.1-.9-4.3-.9-6.8 0-2.7.4-5.1 1.1-7.3.7-2.2 1.8-4 3.1-5.6 1.3-1.5 2.9-2.7 4.7-3.6s3.9-1.3 6.1-1.3c2.7 0 5.1.7 7.2 2.1 2.1 1.4 3.8 3.6 5.1 6.8l14.2-5.9c-2.6-5.4-6.2-9.5-10.7-12s-9.8-3.9-15.8-3.9c-4.6 0-8.8.7-12.6 2.2-3.8 1.5-7 3.5-9.6 6.2s-4.7 5.8-6.2 9.6S0 111.5 0 116c0 4.5.7 8.6 2.2 12.4s3.5 6.9 6.2 9.6 5.8 4.7 9.5 6.2 7.8 2.2 12.2 2.2c3.2 0 6.4-.4 9.3-1.2 2.9-.8 5.6-2 8.1-3.5s4.6-3.5 6.4-5.8 3.3-5 4.3-8c.8-2.1 1.3-4.4 1.5-6.9s.4-5.3.4-8.3H30.5v11.5zM552.8 38.5H565c-.3 1.7-.7 3.1-1.5 4.3-.7 1.2-1.6 2.1-2.7 2.9-1.1.7-2.3 1.3-3.7 1.6-1.4.3-2.8.5-4.3.5-2.5 0-4.7-.4-6.5-1.3s-3.5-2-4.7-3.5c-1.3-1.5-2.2-3.3-2.9-5.4-.6-2.1-1-4.3-1-6.8 0-2.7.4-5.1 1.1-7.3.7-2.2 1.8-4.1 3-5.6s2.9-2.7 4.7-3.6 3.9-1.3 6.1-1.3c2.7 0 5.1.7 7.2 2.1 2.1 1.4 3.8 3.6 5.1 6.8l14.2-5.9c-2.6-5.4-6.2-9.4-10.7-12s-9.7-4-15.6-4c-4.6 0-8.8.7-12.6 2.2s-7 3.5-9.6 6.2c-2.7 2.6-4.7 5.8-6.2 9.6s-2.2 7.8-2.2 12.3c0 4.5.7 8.6 2.2 12.4 1.5 3.7 3.5 6.9 6.2 9.6 2.6 2.7 5.8 4.7 9.5 6.2s7.8 2.2 12.2 2.2c3.2 0 6.3-.4 9.3-1.2s5.7-2 8.1-3.5c2.5-1.5 4.6-3.5 6.4-5.8s3.3-5 4.3-8c.8-2.1 1.3-4.4 1.5-6.9s.4-5.3.4-8.3h-29.6l.1 11.5zM464.2 1.6v33.3c0 8.9 2.1 15.5 6.2 19.6s10.4 6.2 18.9 6.2c8.5 0 14.8-2.1 18.9-6.2 4.1-4.1 6.1-10.6 6.1-19.6V1.6h-14.9v31.2c0 1.7-.1 3.4-.2 5.1s-.5 3.3-1.2 4.8-1.7 2.6-3 3.5c-1.3.9-3.3 1.3-5.8 1.3s-4.4-.4-5.8-1.3c-1.4-.9-2.4-2-3-3.5-.6-1.4-1-3-1.1-4.8-.1-1.8-.2-3.5-.2-5.1V1.6h-14.9zm-52.9 57.5V23.9L438.9 59h14.9V1.6h-14.9v35.1L411.3 1.6h-14.9v57.5h14.9zM386.4 1.6h-32.7v57.5h32.7V46.4h-17.8v-9.9h16.8V23.9h-16.8v-9.6h17.8V1.6zm-69.5 36.9h12.3c-.2 1.7-.7 3.1-1.5 4.3-.7 1.2-1.6 2.1-2.7 2.9s-2.3 1.3-3.7 1.6c-1.4.3-2.8.5-4.3.5-2.5 0-4.7-.4-6.5-1.3s-3.5-2-4.7-3.5c-1.3-1.5-2.2-3.3-2.9-5.4-.6-2.1-1-4.3-1-6.8 0-2.7.4-5.1 1.1-7.3.7-2.2 1.8-4.1 3-5.6s2.9-2.7 4.7-3.6c1.8-.8 3.9-1.3 6.1-1.3 2.7 0 5.1.7 7.2 2.1 2.1 1.4 3.8 3.6 5.1 6.8l14.2-5.9c-2.6-5.4-6.2-9.4-10.7-12-4.5-2.6-9.8-3.9-15.8-3.9-4.6 0-8.8.7-12.6 2.2s-7 3.5-9.6 6.2c-2.7 2.6-4.7 5.8-6.2 9.6s-2.2 7.8-2.2 12.3c0 4.5.7 8.6 2.2 12.4 1.5 3.7 3.5 6.9 6.2 9.6s5.8 4.7 9.5 6.2 7.8 2.2 12.2 2.2c3.2 0 6.3-.4 9.3-1.2s5.6-2 8.1-3.5 4.6-3.5 6.4-5.8c1.8-2.3 3.3-5 4.3-8 .8-2.1 1.3-4.4 1.5-6.9s.4-5.3.4-8.3h-29.6l.2 11.4zM264.6 1.6h-32.7v57.5h32.7V46.4h-17.8v-9.9h16.8V23.9h-16.8v-9.6h17.8V1.6zm-69.5 36.9h12.3c-.3 1.7-.7 3.1-1.5 4.3-.7 1.2-1.6 2.1-2.7 2.9-1.1.7-2.3 1.3-3.7 1.6-1.4.3-2.8.5-4.3.5-2.5 0-4.7-.4-6.5-1.3-1.9-.8-3.5-2-4.7-3.5-1.3-1.5-2.2-3.3-2.9-5.4-.6-2.1-1-4.3-1-6.8 0-2.7.4-5.1 1.1-7.3.7-2.2 1.8-4.1 3-5.6s2.9-2.7 4.7-3.6c1.8-.8 3.9-1.3 6.1-1.3 2.7 0 5.1.7 7.2 2.1 2.1 1.4 3.8 3.6 5.1 6.8l14.2-5.9c-2.6-5.4-6.2-9.4-10.7-12s-9.7-4-15.7-4c-4.6 0-8.8.7-12.6 2.2s-7 3.5-9.6 6.2-4.7 5.8-6.2 9.6-2.2 7.8-2.2 12.3c0 4.5.7 8.6 2.2 12.4s3.5 6.9 6.2 9.6 5.8 4.7 9.5 6.2 7.8 2.2 12.2 2.2c3.2 0 6.4-.4 9.3-1.2 3-.8 5.6-2 8.1-3.5s4.6-3.5 6.4-5.8c1.8-2.3 3.3-5 4.3-8 .8-2.1 1.3-4.4 1.5-6.9s.4-5.3.4-8.3H195l.1 11.5zm-79.7 20.6V23.9L143 59.1h14.9V1.6H143v35.1L115.4 1.6h-14.9v57.5h14.9zm-33.6 0h15.9L75.9 1.6H59.6L37.7 59.1h15.9l3.4-10h21.3l3.5 10zM61 37.7l6.7-19.1 6.7 19.1H61zM2.6 1.6v57.5h32.8V46.4H17.5V1.6H2.6z"/></svg>