<?xml version="1.0" encoding="utf-8"?>
<!-- Generator: Adobe Illustrator 23.1.1, SVG Export Plug-In . SVG Version: 6.00 Build 0)  -->
<svg version="1.1" id="Ebene_1" xmlns="http://www.w3.org/2000/svg" xmlns:xlink="http://www.w3.org/1999/xlink" x="0px" y="0px"
	 viewBox="0 0 684.5 438.7" style="enable-background:new 0 0 684.5 438.7;" xml:space="preserve">
<style type="text/css">
	.st0{fill:#CD1719;}
</style>
<g>
	<path class="st0" d="M75.9,431.3h1.5V430h-1.5v-3h-1.4v3h-0.9v1.3h0.9v7.1h1.4V431.3z M66.3,430h-1.4v8.4h1.4v-4
		c0-1.5,0.1-3.3,2.1-3.3c1.7,0,1.8,1.2,1.8,2.6v4.7h1.4v-5c0-2-0.5-3.6-2.9-3.6c-1,0-1.8,0.5-2.4,1.2h0L66.3,430L66.3,430z
		 M56,433.3c0.2-1.2,1.3-2.2,2.6-2.2c1.2,0,2.3,1,2.5,2.2H56z M62.5,434.5c0.1-2.5-1.3-4.7-4-4.7c-2.6,0-4.1,2-4.1,4.5
		c0,2.4,1.6,4.3,4.1,4.3c1.7,0,3.1-0.9,3.9-2.4l-1.2-0.7c-0.6,1-1.3,1.7-2.6,1.7c-1.6,0-2.7-1.2-2.8-2.8H62.5z M51.4,425.8
		c-0.6,0-1,0.5-1,1c0,0.6,0.5,1,1,1s1-0.5,1-1C52.4,426.3,52,425.8,51.4,425.8 M52.1,430h-1.4v8.4h1.4V430z M47.3,423.7h-1.4v14.7
		h1.4V423.7z M36.4,430.7v-5.8h-1.5v13.5h1.5v-5.8l0.4-0.4l5.5,6.2h2.1l-6.5-7.2l6.3-6.3h-2L36.4,430.7z M22.2,430h-1.4v8.4h1.4v-4
		c0-1.5,0.1-3.3,2.1-3.3c1.7,0,1.8,1.2,1.8,2.6v4.7h1.4v-5c0-2-0.5-3.6-2.9-3.6c-1,0-1.8,0.5-2.4,1.2h0V430z M16.6,425.8
		c-0.6,0-1,0.5-1,1c0,0.6,0.5,1,1,1c0.6,0,1-0.5,1-1C17.6,426.3,17.2,425.8,16.6,425.8 M17.3,430h-1.4v8.4h1.4V430z M6,438.4h7V437
		H7.5v-5.3h5.3v-1.4H7.5v-4H13v-1.4H6V438.4z"/>
	<path class="st0" d="M206.3,398.1c0.5,1.1,1.1,2,1.9,2.9c0.8,0.8,1.8,1.5,2.9,1.9c1.1,0.5,2.2,0.7,3.5,0.7s2.4-0.2,3.5-0.7
		c1.1-0.5,2-1.1,2.9-1.9c0.8-0.8,1.5-1.8,1.9-2.9c0.5-1.1,0.7-2.2,0.7-3.5s-0.2-2.4-0.7-3.5s-1.1-2-1.9-2.9
		c-0.8-0.8-1.8-1.5-2.9-1.9c-1.1-0.5-2.2-0.7-3.5-0.7s-2.4,0.2-3.5,0.7s-2,1.1-2.9,1.9c-0.8,0.8-1.5,1.8-1.9,2.9s-0.7,2.2-0.7,3.5
		S205.9,397,206.3,398.1 M211,357.1v-12.6h-39.5v12.6h12.3v44.8h14.9v-44.8H211z M165.7,344.5h-32.9v57.5h14.9v-22.5h16.4v-12.6
		h-16.4v-9.6h18V344.5z M94.9,344.5v57.5h32.8v-12.6h-17.9v-44.8L94.9,344.5L94.9,344.5z M68.7,401.9h14.9v-57.5H68.7V401.9z
		 M21,344.5H6v57.5H21v-23.7h21.6v23.7h14.9v-57.5H42.5v22.2H21V344.5z"/>
	<path class="st0" d="M541,292.6c4.1-1,7.2-2.8,9.3-5.5c2.1-2.7,3.2-6.3,3.2-10.6c0-2.4-0.4-4.7-1.2-6.9c-0.8-2.1-2-4-3.5-5.6
		c-1.5-1.6-3.5-2.9-5.9-3.9c-2.4-0.9-5.2-1.4-8.4-1.4h-23.2v57.5h14.9v-22.1l14.2,22.1H559L541,292.6z M526.2,270.2h2.8
		c3,0,5.2,0.6,6.8,1.8s2.4,3,2.4,5.3s-0.8,4-2.4,5.3c-1.6,1.2-3.8,1.8-6.8,1.8h-2.8V270.2z M485,316.2H500v-57.5H485V316.2z
		 M420.7,316.2l5-33.1l12.9,33.1h5.9l13.6-33.1l5,33.1h14.9l-9.8-57.5h-14.8l-11.4,30.6l-11.5-30.6h-14.8l-9.8,57.5H420.7z
		 M386.2,261.8c-2.9-1.5-5.8-2.7-8.9-3.5s-6.1-1.2-8.9-1.2c-3,0-5.8,0.5-8.3,1.4c-2.5,0.9-4.5,2.2-6.2,3.9s-3,3.6-4,5.9
		s-1.4,4.9-1.4,7.7s0.4,5.2,1.3,7c0.9,1.9,2.1,3.4,3.5,4.6c1.5,1.2,3.1,2.2,5,2.9c1.9,0.7,3.7,1.4,5.7,2c1.6,0.6,3,1.1,4.1,1.5
		s2.1,1,2.8,1.5c0.7,0.5,1.2,1.1,1.5,1.8c0.3,0.6,0.5,1.4,0.5,2.2c0,1.4-0.6,2.7-1.8,3.8s-3,1.7-5.5,1.7c-2.1,0-4.3-0.5-6.5-1.5
		c-2.2-1-4.4-2.4-6.6-4.4l-6.4,12c6.2,4.3,12.9,6.5,20.2,6.5c3.5,0,6.6-0.5,9.4-1.4s5.1-2.3,7-4c1.9-1.7,3.4-3.7,4.3-6.1
		s1.5-5,1.5-8c0-4.4-1.1-7.9-3.4-10.6s-5.8-4.9-10.7-6.5c-1.2-0.4-2.5-0.8-3.7-1.1c-1.2-0.4-2.4-0.8-3.4-1.3c-1-0.5-1.8-1-2.4-1.7
		s-0.9-1.5-0.9-2.5c0-1.5,0.6-2.7,1.8-3.6c1.2-0.9,2.8-1.4,4.7-1.4c1.5,0,3.1,0.3,4.7,1c1.6,0.6,3.2,1.6,4.9,2.9L386.2,261.8z
		 M329.3,316.2h15.9l-21.9-57.5h-16.3l-21.9,57.5h15.9l3.4-10h21.3L329.3,316.2z M308.5,294.9l6.7-19.1l6.7,19.1H308.5z M205,258.7
		l17.1,57.5h15.2l11.3-33.3l11.3,33.3h15.2l17.1-57.5h-15.6l-9.9,37.1l-12.2-37.1h-11.9l-12.2,37.1l-9.9-37.1H205z M136,316.2h22.1
		c4,0,7.7-0.8,11.1-2.4c3.4-1.6,6.4-3.7,9-6.3s4.6-5.7,6-9.2c1.5-3.5,2.2-7.1,2.2-10.9c0-3.8-0.7-7.5-2.2-10.9
		c-1.5-3.5-3.5-6.5-6.1-9.1s-5.6-4.7-9-6.3c-3.4-1.6-7.1-2.4-11-2.4H136V316.2z M150.9,271.4h3.4c2.5,0,4.8,0.4,6.9,1.2
		c2,0.8,3.8,1.9,5.1,3.4c1.4,1.4,2.5,3.1,3.2,5.1c0.8,2,1.1,4.1,1.1,6.4c0,2.3-0.4,4.5-1.1,6.4c-0.7,2-1.8,3.6-3.2,5.1
		c-1.4,1.4-3.1,2.5-5.1,3.4s-4.3,1.2-6.9,1.2h-3.4L150.9,271.4L150.9,271.4z M81.5,316.2v-35.1l27.6,35.1H124v-57.5h-14.9v35.1
		l-27.6-35.1H66.6v57.5H81.5z M6,258.7V292c0,8.9,2.1,15.5,6.2,19.6s10.4,6.2,18.9,6.2c8.5,0,14.8-2.1,18.9-6.2
		c4.1-4.1,6.1-10.6,6.1-19.6v-33.3H41.2V290c0,1.7-0.1,3.4-0.2,5.1c-0.1,1.8-0.5,3.3-1.2,4.8s-1.7,2.6-3,3.5s-3.3,1.3-5.8,1.3
		s-4.4-0.4-5.8-1.3c-1.4-0.9-2.4-2-3-3.5c-0.6-1.4-1-3-1.1-4.8c-0.1-1.8-0.2-3.5-0.2-5.1v-31.2H6z"/>
	<path class="st0" d="M664.3,185.7V173h-39.5v12.6h12.3v44.8H652v-44.8H664.3z M581,173H566v57.5H581v-23.7h21.6v23.7h14.9V173
		h-14.9v22.2H581V173z M556,173h-32.7v57.5H556v-12.6h-17.8v-9.9H555v-12.7h-16.8v-9.6H556V173z M487.3,209.9h12.3
		c-0.2,1.7-0.7,3.1-1.5,4.3c-0.7,1.2-1.6,2.1-2.7,2.9c-1.1,0.7-2.3,1.3-3.7,1.6c-1.4,0.3-2.8,0.5-4.3,0.5c-2.5,0-4.7-0.4-6.5-1.3
		s-3.5-2-4.7-3.5c-1.3-1.5-2.2-3.3-2.9-5.4c-0.6-2.1-1-4.3-1-6.8c0-2.7,0.4-5.1,1.1-7.3s1.8-4,3-5.6c1.3-1.5,2.9-2.7,4.7-3.6
		s3.9-1.3,6.1-1.3c2.7,0,5.1,0.7,7.2,2.1c2.1,1.4,3.8,3.6,5.1,6.8l14.2-5.9c-2.6-5.4-6.2-9.5-10.7-12c-4.5-2.6-9.8-3.9-15.8-3.9
		c-4.6,0-8.8,0.7-12.6,2.2s-7,3.5-9.6,6.2c-2.7,2.6-4.7,5.8-6.2,9.6s-2.2,7.8-2.2,12.3c0,4.5,0.7,8.6,2.2,12.4
		c1.5,3.7,3.5,6.9,6.2,9.6c2.6,2.7,5.8,4.7,9.5,6.2c3.7,1.5,7.8,2.2,12.2,2.2c3.2,0,6.3-0.4,9.3-1.2s5.7-2,8.1-3.5
		c2.5-1.5,4.6-3.5,6.4-5.8s3.3-5,4.3-8c0.8-2.1,1.3-4.4,1.5-6.9s0.4-5.3,0.4-8.3h-29.6L487.3,209.9L487.3,209.9z M437.1,176.1
		c-2.8-1.5-5.8-2.7-8.9-3.5c-3.1-0.8-6.1-1.2-8.9-1.2c-3,0-5.8,0.5-8.3,1.4c-2.5,0.9-4.5,2.2-6.2,3.9s-3,3.6-4,5.9s-1.4,4.9-1.4,7.7
		s0.5,5.2,1.3,7c0.9,1.9,2.1,3.4,3.5,4.6c1.5,1.2,3.1,2.2,5,2.9c1.9,0.7,3.7,1.4,5.7,2c1.6,0.6,3,1.1,4.1,1.5c1.1,0.5,2.1,1,2.8,1.5
		c0.7,0.5,1.2,1.1,1.5,1.8c0.3,0.6,0.5,1.4,0.5,2.2c0,1.4-0.6,2.7-1.8,3.8s-3,1.7-5.5,1.7c-2.1,0-4.3-0.5-6.5-1.5
		c-2.2-1-4.4-2.4-6.6-4.4l-6.4,12c6.2,4.3,12.9,6.5,20.2,6.5c3.5,0,6.6-0.5,9.4-1.4s5.1-2.3,7-4c1.9-1.7,3.3-3.7,4.3-6.1
		c1-2.4,1.5-5,1.5-8c0-4.4-1.1-7.9-3.4-10.6s-5.8-4.9-10.7-6.5c-1.2-0.4-2.5-0.8-3.7-1.1c-1.2-0.4-2.4-0.8-3.4-1.3
		c-1-0.5-1.8-1-2.4-1.7s-0.9-1.5-0.9-2.5c0-1.5,0.6-2.7,1.8-3.6c1.2-0.9,2.8-1.4,4.7-1.4c1.5,0,3.1,0.3,4.7,1
		c1.6,0.6,3.2,1.6,4.9,2.9L437.1,176.1z M391.9,173h-32.7v57.5h32.7v-12.6h-17.8v-9.9h16.8v-12.7h-16.8v-9.6h17.8V173z M279.1,230.5
		l5-33.1l12.9,33.1h5.9l13.6-33.1l5,33.1h14.9l-9.8-57.4h-14.8l-11.4,30.6L288.8,173H274l-9.8,57.5H279.1z M208.5,173v33.3
		c0,8.9,2.1,15.5,6.2,19.6c4.1,4.1,10.4,6.2,18.9,6.2s14.8-2.1,18.9-6.2c4.1-4.1,6.1-10.6,6.1-19.6V173h-14.9v31.2
		c0,1.7-0.1,3.4-0.2,5.1s-0.5,3.3-1.2,4.8s-1.7,2.6-3,3.5s-3.3,1.3-5.8,1.3c-2.5,0-4.4-0.4-5.8-1.3c-1.4-0.9-2.4-2-3-3.5
		c-0.6-1.4-1-3-1.1-4.8c-0.1-1.8-0.2-3.5-0.2-5.1V173H208.5L208.5,173z M188.6,206.9c4.1-1,7.2-2.8,9.3-5.5
		c2.1-2.7,3.2-6.3,3.2-10.6c0-2.4-0.4-4.7-1.2-6.9c-0.8-2.1-2-4-3.5-5.6c-1.5-1.6-3.5-2.9-5.9-3.9c-2.4-0.9-5.2-1.4-8.4-1.4h-23.2
		v57.5h14.9v-22.1l14.2,22.1h18.6L188.6,206.9z M173.8,184.5h2.8c3,0,5.2,0.6,6.8,1.8s2.4,3,2.4,5.3s-0.8,4-2.4,5.3
		c-1.6,1.2-3.8,1.8-6.8,1.8h-2.8V184.5z M89.7,213.7c1.6,3.7,3.8,6.9,6.6,9.6c2.8,2.7,6.1,4.9,10,6.4s8.2,2.3,12.8,2.3
		c4.6,0,8.9-0.8,12.8-2.3c3.9-1.5,7.3-3.7,10.1-6.4s5-6,6.6-9.6c1.6-3.7,2.4-7.7,2.4-11.9c0-4.3-0.8-8.2-2.4-11.9
		c-1.6-3.7-3.8-6.9-6.6-9.6c-2.8-2.7-6.2-4.9-10.1-6.4c-3.9-1.5-8.2-2.3-12.8-2.3c-4.7,0-8.9,0.8-12.8,2.3c-3.9,1.6-7.2,3.7-10,6.4
		c-2.8,2.7-5,6-6.6,9.6c-1.6,3.7-2.4,7.7-2.4,11.9C87.3,206,88.1,210,89.7,213.7 M104.2,195.4c0.9-1.9,2-3.6,3.5-5
		c1.5-1.4,3.2-2.5,5.1-3.3c2-0.8,4-1.2,6.2-1.2c2.2,0,4.2,0.4,6.2,1.2c2,0.8,3.7,1.9,5.2,3.3c1.5,1.4,2.7,3.1,3.5,5s1.3,4,1.3,6.3
		c0,2.3-0.4,4.4-1.3,6.3c-0.9,1.9-2,3.6-3.5,5s-3.2,2.5-5.2,3.3c-2,0.8-4,1.2-6.2,1.2c-2.2,0-4.3-0.4-6.2-1.2
		c-2-0.8-3.7-1.9-5.1-3.3c-1.5-1.4-2.6-3.1-3.5-5c-0.9-1.9-1.3-4-1.3-6.3C102.9,199.5,103.4,197.4,104.2,195.4 M0,173l17.1,57.5
		h15.2l11.3-33.3l11.3,33.3h15.2L87.3,173H71.7l-9.9,37.1L49.6,173H37.7l-12.2,37.1L15.6,173L0,173L0,173z"/>
	<path class="st0" d="M625.9,155.4h8.8l14-25.2h-13L625.9,155.4z M607.8,121.2c4.1-1,7.2-2.8,9.3-5.5c2.1-2.7,3.2-6.3,3.2-10.6
		c0-2.4-0.4-4.7-1.2-6.9c-0.8-2.1-2-4-3.5-5.6c-1.5-1.6-3.5-2.9-5.9-3.9c-2.4-0.9-5.2-1.4-8.4-1.4h-23.2v57.5H593v-22.1l14.2,22.1
		h18.6L607.8,121.2z M593,98.8h2.8c3,0,5.2,0.6,6.8,1.8s2.4,3,2.4,5.3s-0.8,4-2.4,5.3c-1.6,1.2-3.8,1.8-6.8,1.8H593V98.8z
		 M569.6,87.3h-32.7v57.5h32.7v-12.6h-17.8v-9.9h16.8v-12.6h-16.8V100h17.8V87.3z M497.2,87.3v57.5H530v-12.6h-17.9V87.3H497.2z
		 M457.4,87.3v57.5h32.8v-12.6h-17.9V87.3H457.4z M447.4,87.3h-32.7v57.5h32.7v-12.6h-17.8v-9.9h16.8v-12.6h-16.8V100h17.8V87.3z
		 M361,144.8v-35.1l27.6,35.1h14.9V87.3h-14.9v35.1L361,87.3h-14.9v57.5H361z M298.3,87.3h-14.9v57.5h14.9v-23.7h21.6v23.7h14.9
		V87.3h-14.9v22.2h-21.6V87.3z M273.8,88.7c-2.4-1-4.8-1.8-7-2.2c-2.2-0.5-4.5-0.7-6.7-0.7c-4,0-7.9,0.8-11.5,2.2s-6.9,3.6-9.6,6.2
		c-2.8,2.7-5,5.8-6.6,9.5c-1.6,3.7-2.5,7.7-2.5,12.1s0.8,8.5,2.5,12.2c1.7,3.7,3.9,7,6.7,9.7c2.8,2.7,6,4.8,9.6,6.3
		c3.6,1.5,7.4,2.2,11.4,2.2c1.9,0,3.9-0.2,5.9-0.6c2-0.4,4.1-1,6.4-1.8l1.5-0.5v-17.7c-3.8,4.1-8.1,6.1-12.9,6.1
		c-2.2,0-4.2-0.4-6.1-1.2s-3.5-1.9-4.9-3.3c-1.4-1.4-2.5-3.1-3.3-5s-1.2-4-1.2-6.3c0-2.2,0.4-4.3,1.2-6.2c0.8-1.9,1.9-3.6,3.2-5
		c1.4-1.4,3-2.5,4.9-3.3c1.9-0.8,4-1.2,6.2-1.2c5.1,0,9.4,2.1,12.8,6.3L273.8,88.7L273.8,88.7z M222.9,90.4
		c-2.9-1.5-5.8-2.7-8.9-3.5c-3.1-0.8-6.1-1.2-8.9-1.2c-3,0-5.8,0.5-8.3,1.4c-2.5,0.9-4.5,2.2-6.2,3.9c-1.7,1.6-3,3.6-4,5.9
		s-1.4,4.9-1.4,7.7s0.4,5.2,1.3,7.1c0.9,1.9,2.1,3.4,3.5,4.6s3.1,2.2,5,2.9c1.9,0.7,3.8,1.4,5.7,2c1.6,0.6,3,1.1,4.1,1.5
		s2.1,0.9,2.8,1.5c0.7,0.5,1.2,1.1,1.5,1.8c0.3,0.6,0.5,1.4,0.5,2.2c0,1.4-0.6,2.7-1.8,3.8s-3,1.7-5.5,1.7c-2.1,0-4.3-0.5-6.5-1.4
		c-2.2-1-4.4-2.4-6.6-4.4l-6.4,12c6.2,4.3,12.9,6.5,20.2,6.5c3.5,0,6.6-0.5,9.4-1.4s5.1-2.3,7-4c1.9-1.7,3.4-3.7,4.3-6.1
		c1-2.4,1.5-5.1,1.5-8c0-4.4-1.1-7.9-3.4-10.6s-5.8-4.9-10.7-6.5c-1.2-0.4-2.5-0.8-3.7-1.1c-1.2-0.4-2.4-0.8-3.4-1.3
		c-1-0.5-1.8-1.1-2.4-1.7s-0.9-1.5-0.9-2.5c0-1.5,0.6-2.7,1.8-3.6c1.2-0.9,2.8-1.4,4.7-1.4c1.5,0,3.1,0.3,4.7,0.9
		c1.6,0.6,3.2,1.6,4.9,2.9L222.9,90.4z M132.9,87.3v57.5h32.8v-12.6h-17.9V87.3H132.9z M122.9,87.3H90.2v57.5h32.7v-12.6h-17.8v-9.9
		h16.8v-12.6h-16.8V100h17.8V87.3z M64,144.8h14.9V87.3H64V144.8z M0,87.3l24.2,57.5H36l24.2-57.5H44l-14,35l-13.9-35H0z"/>
	<path class="st0" d="M647.8,1.6h-14.9V59h14.9V35.3h21.6V59h14.9V1.6h-14.9v22.2h-21.6V1.6z M623.2,3c-2.4-1-4.8-1.8-7-2.2
		c-2.2-0.5-4.5-0.7-6.7-0.7c-4,0-7.8,0.8-11.5,2.2c-3.7,1.5-6.9,3.6-9.6,6.2s-5,5.8-6.6,9.5c-1.7,3.7-2.5,7.7-2.5,12.2
		s0.8,8.5,2.5,12.2c1.7,3.7,3.9,7,6.7,9.7c2.8,2.7,6,4.8,9.6,6.3c3.6,1.5,7.4,2.2,11.4,2.2c1.9,0,3.9-0.2,5.9-0.6s4.1-1,6.4-1.8
		l1.5-0.5V40.1c-3.8,4.1-8.1,6.1-12.9,6.1c-2.2,0-4.2-0.4-6.1-1.2s-3.5-1.9-4.9-3.3c-1.4-1.4-2.5-3.1-3.3-5c-0.8-1.9-1.2-4-1.2-6.3
		c0-2.2,0.4-4.3,1.2-6.2s1.9-3.6,3.2-5s3-2.5,4.9-3.3c1.9-0.8,4-1.2,6.2-1.2c5.1,0,9.3,2.1,12.8,6.3L623.2,3L623.2,3z M557.2,59
		h14.9V1.6h-14.9V59z M529.8,1.6h-32.7V59h32.7V46.4h-17.8v-9.9h16.8V23.8h-16.8v-9.6h17.8V1.6z M455.5,1.6h-14.9V59h14.9V34.1
		L475,59h19.3l-24.9-30.2l22.8-27.2h-18.4l-18.2,23.7L455.5,1.6L455.5,1.6z M420.1,35.5c4.1-1,7.2-2.8,9.3-5.5
		c2.1-2.7,3.2-6.3,3.2-10.6c0-2.4-0.4-4.7-1.2-6.9c-0.8-2.1-2-4-3.5-5.6c-1.5-1.6-3.5-2.9-5.9-3.8c-2.4-0.9-5.2-1.4-8.4-1.4h-23.2
		V59h14.9V36.9L419.6,59h18.6L420.1,35.5z M405.3,13.1h2.8c3,0,5.2,0.6,6.8,1.8s2.4,3,2.4,5.3s-0.8,4-2.4,5.3
		c-1.6,1.2-3.8,1.8-6.8,1.8h-2.8V13.1z M380.4,1.6h-32.7V59h32.7V46.4h-17.8v-9.9h16.8V23.8h-16.8v-9.6h17.8V1.6z M285,59l5-33.1
		L302.8,59h5.9L322.3,26l5,33.1h14.9l-9.8-57.4h-14.8l-11.4,30.6L294.6,1.6h-14.8L270.1,59H285z M245.3,1.6h-32.7V59h32.7V46.4
		h-17.8v-9.9h16.8V23.8h-16.8v-9.6h17.8V1.6z M205.3,14.2V1.6h-39.5v12.7h12.3V59H193V14.2L205.3,14.2L205.3,14.2z M108.3,1.6v33.3
		c0,8.9,2.1,15.5,6.2,19.6s10.4,6.2,18.9,6.2s14.8-2.1,18.9-6.2s6.1-10.6,6.1-19.6V1.6h-14.9v31.2c0,1.7-0.1,3.4-0.2,5.1
		c-0.1,1.8-0.5,3.3-1.2,4.8s-1.7,2.6-3,3.5c-1.4,0.9-3.3,1.3-5.8,1.3s-4.4-0.4-5.8-1.3s-2.4-2-3-3.5c-0.6-1.4-1-3-1.1-4.8
		c-0.1-1.8-0.2-3.5-0.2-5.1V1.6H108.3z M99.9,1.6H67.2V59h32.7V46.4H82.1v-9.9h16.8V23.8H82.1v-9.6h17.8V1.6z M21,1.6H6V59H21V35.3
		h21.6V59h14.9V1.6H42.5v22.2H21V1.6z"/>
</g>
</svg>
