<svg version="1.1" id="Ebene_1" xmlns="http://www.w3.org/2000/svg" x="0" y="0" viewBox="0 0 679.2 172.2" xml:space="preserve"><style>.st0{fill:#cd1719}</style><path class="st0" d="M471.3 148.7c.5 1.1 1.1 2 1.9 2.9.8.8 1.8 1.5 2.9 1.9 1.1.5 2.2.7 3.5.7s2.4-.2 3.5-.7c1.1-.5 2-1.1 2.9-1.9.8-.8 1.5-1.8 1.9-2.9.5-1.1.7-2.2.7-3.5s-.2-2.4-.7-3.5c-.5-1.1-1.1-2-1.9-2.9-.8-.8-1.8-1.5-2.9-1.9-1.1-.5-2.2-.7-3.5-.7s-2.4.2-3.5.7c-1.1.5-2 1.1-2.9 1.9-.8.8-1.5 1.8-1.9 2.9-.5 1.1-.7 2.2-.7 3.5s.2 2.4.7 3.5m4.6-41V95.1h-39.5v12.6h12.3v44.8h14.9v-44.8h12.3zM419.8 129c4.1-1 7.2-2.8 9.3-5.5 2.1-2.7 3.2-6.3 3.2-10.6 0-2.4-.4-4.7-1.2-6.9-.8-2.1-2-4-3.5-5.6-1.5-1.6-3.5-2.9-5.9-3.9-2.4-.9-5.2-1.4-8.4-1.4H390v57.5h15v-22.1l14.2 22.1h18.6l-18-23.6zM405 106.6h2.8c3 0 5.2.6 6.8 1.8s2.4 3 2.4 5.3-.8 4-2.4 5.3c-1.6 1.2-3.8 1.8-6.8 1.8H405v-14.2zm-23.4-11.5h-32.7v57.5h32.7V140h-17.8v-10h16.8v-12.7h-16.8v-9.6h17.8V95.1zm-123.8 0l17.1 57.5h15.2l11.3-33.3 11.3 33.3H328l17.1-57.5h-15.6l-9.9 37.1-12.2-37.1h-11.9l-12.2 37.1-9.9-37.1h-15.6zM232.1 129c4.1-1 7.2-2.8 9.3-5.5 2.1-2.7 3.2-6.3 3.2-10.6 0-2.4-.4-4.7-1.2-6.9-.8-2.1-2-4-3.5-5.6-1.5-1.6-3.5-2.9-5.9-3.9-2.4-.9-5.2-1.4-8.4-1.4h-23.2v57.5h14.9v-22.1l14.2 22.1h18.6l-18-23.6zm-14.8-22.4h2.8c3 0 5.2.6 6.8 1.8s2.4 3 2.4 5.3-.8 4-2.4 5.3c-1.6 1.2-3.8 1.8-6.8 1.8h-2.8v-14.2zm-42.7 45.9h14.9V95.1h-14.9v57.4zm-64.3 0l5-33.1 12.9 33.1h5.9l13.6-33.1 5 33.1h14.9L157.8 95H143l-11.4 30.6L120 95.1h-14.8l-9.8 57.5h14.9zM78.9 98.1c-2.9-1.5-5.8-2.7-8.9-3.5-3.1-.8-6.1-1.2-8.9-1.2-3.1 0-5.8.5-8.3 1.4-2.5.9-4.6 2.2-6.2 3.9s-3 3.6-4 5.9-1.4 4.9-1.4 7.7.4 5.2 1.3 7c.9 1.9 2.1 3.4 3.5 4.6 1.4 1.2 3.1 2.2 4.9 2.9 1.9.7 3.8 1.4 5.7 2 1.6.6 3 1.1 4.1 1.5 1.1.5 2.1 1 2.8 1.5.7.5 1.2 1.1 1.5 1.8.3.6.5 1.4.5 2.2 0 1.4-.6 2.7-1.8 3.8-1.2 1.1-3 1.7-5.4 1.7-2.1 0-4.3-.5-6.5-1.5s-4.4-2.4-6.6-4.4l-6.4 12c6.2 4.3 12.9 6.5 20.2 6.5 3.5 0 6.6-.5 9.4-1.4s5.1-2.3 7-4c1.9-1.7 3.4-3.7 4.3-6.1s1.5-5 1.5-8c0-4.4-1.1-7.9-3.4-10.6s-5.8-4.9-10.7-6.5c-1.2-.4-2.4-.8-3.7-1.1-1.2-.4-2.4-.8-3.4-1.3s-1.8-1-2.4-1.7-.9-1.5-.9-2.5c0-1.5.6-2.7 1.8-3.6 1.2-.9 2.8-1.4 4.7-1.4 1.5 0 3.1.3 4.7 1 1.6.6 3.2 1.6 4.9 2.9l6.1-11.5zm-46-3H.2v57.5h32.7V140H15.2v-10H32v-12.7H15.2v-9.6H33V95.1zM246.4 66.8V31.7L274 66.8h14.9V9.4H274v35.1L246.4 9.4h-14.9v57.5l14.9-.1zm-41.5 0h14.9V9.4h-14.9v57.4zm-49.7 0h24c3 0 5.8-.4 8.2-1.1 2.4-.7 4.5-1.8 6.2-3.2 1.7-1.4 3-3.2 4-5.3.9-2.1 1.4-4.5 1.4-7.2 0-1.7-.2-3.4-.6-4.9-.4-1.5-1.1-2.9-2-4.1-.9-1.2-2.2-2.2-3.7-3.1s-3.3-1.5-5.5-1.9c2.1-1.3 3.7-2.9 4.8-4.8 1-1.9 1.6-4.3 1.6-7.2 0-4.8-1.4-8.4-4.1-11-2.7-2.5-6.8-3.8-12-3.8h-22.2l-.1 57.6zm14.9-46h2.7c4.7 0 7 1.9 7 5.6 0 3.7-2.3 5.6-7 5.6h-2.7V20.8zm0 22.2h3.3c3.8 0 6.5.5 8.1 1.5 1.6 1 2.4 2.5 2.4 4.6 0 2.1-.8 3.7-2.4 4.6s-4.3 1.5-8.1 1.5h-3.3V43zm-77-33.6H78.2v57.5h14.9V43.1h21.6v23.7h14.9V9.4h-14.9v22.2H93.1V9.4zm-26 1.3c-2.4-1-4.8-1.8-7-2.2-2.2-.5-4.5-.7-6.7-.7-4 0-7.9.8-11.5 2.2-3.7 1.5-6.9 3.6-9.6 6.2s-5 5.8-6.6 9.5c-1.6 3.7-2.5 7.7-2.5 12.1s.8 8.5 2.5 12.2c1.7 3.7 3.9 7 6.7 9.7s6 4.8 9.6 6.3c3.6 1.5 7.4 2.2 11.4 2.2 1.9 0 3.9-.2 5.9-.6s4.1-1 6.4-1.8l1.5-.5V47.9C63.4 52 59.1 54 54.3 54c-2.2 0-4.2-.4-6.1-1.2s-3.5-1.9-4.9-3.4c-1.4-1.4-2.5-3.1-3.3-5s-1.2-4-1.2-6.3c0-2.2.4-4.3 1.2-6.2s1.9-3.6 3.2-5c1.4-1.4 3-2.5 4.9-3.3 1.9-.8 4-1.2 6.2-1.2 5.1 0 9.4 2.1 12.8 6.3v-18zM.2 66.8h14.9V9.4H.2v57.4z"/></svg>