<svg version="1.1" id="Ebene_1" xmlns="http://www.w3.org/2000/svg" x="0" y="0" viewBox="0 0 684.3 172.2" xml:space="preserve"><style>.st0{fill:#cd1719}</style><path class="st0" d="M420.4 149.4c.5 1.1 1.1 2 1.9 2.9s1.8 1.5 2.9 1.9c1.1.5 2.2.7 3.5.7s2.4-.2 3.5-.7c1.1-.5 2-1.1 2.9-1.9.8-.8 1.5-1.8 1.9-2.9.5-1.1.7-2.2.7-3.5s-.2-2.4-.7-3.5c-.5-1.1-1.1-2-1.9-2.9-.8-.8-1.8-1.5-2.9-1.9-1.1-.5-2.2-.7-3.5-.7s-2.4.2-3.5.7c-1.1.5-2 1.1-2.9 1.9-.8.8-1.5 1.8-1.9 2.9-.5 1.1-.7 2.2-.7 3.5 0 1.3.2 2.4.7 3.5m-9.6-50.5c-2.8-1.5-5.8-2.7-8.9-3.5-3.1-.8-6.1-1.2-8.9-1.2-3 0-5.8.5-8.3 1.4-2.5.9-4.5 2.2-6.2 3.9s-3 3.6-4 5.9-1.4 4.9-1.4 7.7c0 2.9.4 5.2 1.3 7 .9 1.9 2.1 3.4 3.5 4.6 1.5 1.2 3.1 2.2 5 2.9 1.8.7 3.7 1.4 5.7 2 1.6.6 3 1.1 4.2 1.5 1.1.5 2.1 1 2.8 1.5.7.5 1.2 1.1 1.5 1.8.3.6.5 1.4.5 2.2 0 1.4-.6 2.7-1.8 3.8s-3 1.7-5.5 1.7c-2.1 0-4.3-.5-6.5-1.5s-4.4-2.4-6.6-4.4l-6.4 12c6.2 4.3 12.9 6.5 20.2 6.5 3.5 0 6.6-.5 9.4-1.4 2.8-.9 5.1-2.3 7-4 1.9-1.7 3.3-3.8 4.3-6.1 1-2.4 1.5-5 1.5-8 0-4.4-1.1-7.9-3.4-10.6s-5.8-4.9-10.7-6.5c-1.2-.4-2.5-.8-3.7-1.1-1.2-.4-2.4-.8-3.3-1.3-1-.5-1.8-1-2.4-1.7-.6-.7-.9-1.5-.9-2.5 0-1.5.6-2.7 1.8-3.6 1.2-.9 2.8-1.4 4.7-1.4 1.5 0 3.1.3 4.7 1 1.6.6 3.2 1.6 4.9 2.9l5.9-11.5zm-62 22.2h8.8l14-25.3h-13l-9.8 25.3zm-17.4 8.6c4.1-1 7.2-2.8 9.3-5.5 2.1-2.7 3.2-6.3 3.2-10.6 0-2.4-.4-4.7-1.2-6.9-.8-2.1-2-4-3.5-5.6-1.5-1.6-3.5-2.9-5.9-3.9-2.4-.9-5.2-1.4-8.4-1.4h-23.2v57.5h14.9v-22.1l14.2 22.1h18.6l-18-23.6zm-14.8-22.4h2.8c3 0 5.2.6 6.8 1.8s2.4 3 2.4 5.3-.8 4-2.4 5.3-3.8 1.8-6.8 1.8h-2.8v-14.2zm-33.9 46h15.9l-21.9-57.5h-16.3l-21.9 57.5h15.9l3.4-10h21.3l3.6 10zm-20.9-21.4l6.7-19.1 6.7 19.1h-13.4zM157.5 95.8l17.1 57.5h15.2l11.3-33.3 11.3 33.3h15.2l17.1-57.5h-15.6l-9.9 37.1L207 95.8h-11.9l-12.2 37.1-9.9-37.1h-15.5zm-58.4 0H84.2v57.5h14.9v-23.7h21.6v23.7h14.9V95.8h-14.9V118H99.1V95.8zm-26 1.4c-2.4-1-4.8-1.8-7-2.2-2.2-.5-4.5-.7-6.7-.7-4 0-7.9.8-11.5 2.2-3.7 1.5-6.9 3.6-9.6 6.2s-5 5.8-6.6 9.5c-1.6 3.7-2.5 7.7-2.5 12.1s.8 8.5 2.5 12.2c1.7 3.7 3.9 7 6.7 9.7s6 4.8 9.6 6.3c3.6 1.5 7.4 2.2 11.4 2.2 1.9 0 3.9-.2 5.9-.6 2-.4 4.1-1 6.4-1.8l1.5-.5v-17.7c-3.8 4.1-8.1 6.1-12.9 6.1-2.2 0-4.2-.4-6.1-1.2s-3.5-1.9-4.9-3.4c-1.4-1.4-2.5-3.1-3.3-5s-1.2-4-1.2-6.3c0-2.2.4-4.3 1.2-6.2s1.9-3.6 3.2-5c1.4-1.4 3-2.5 4.9-3.3s4-1.2 6.2-1.2c5.1 0 9.4 2.1 12.8 6.3V97.2zM5.5 153.3h14.9V95.8H5.5v57.5zM98.1 78.2h8.8l14-25.2h-13l-9.8 25.2zM80.8 67.6h15.9L74.8 10.1H58.5L36.6 67.6h15.9l3.4-10h21.3l3.6 10zM60 46.2l6.7-19.1 6.7 19.1H60zM18.8 10.1v39.6c0 4.4-1.4 6.6-4.2 6.6-1.3 0-2.3-.5-3.2-1.5-.9-1-1.4-2.4-1.7-4.1L0 60.7c3.9 5.6 8.9 8.5 15 8.5 2 0 4-.3 5.8-.8 1.9-.5 3.5-1.3 5.1-2.2 1.5-.9 2.9-2.1 4-3.4 1.1-1.4 2-2.8 2.7-4.5.4-1 .7-2.2.9-3.7.2-1.4.3-3 .3-4.6V10.1h-15z"/></svg>