<?xml version="1.0" encoding="utf-8"?>
<!-- Generator: Adobe Illustrator 23.1.1, SVG Export Plug-In . SVG Version: 6.00 Build 0)  -->
<svg version="1.1" id="Ebene_1" xmlns="http://www.w3.org/2000/svg" xmlns:xlink="http://www.w3.org/1999/xlink" x="0px" y="0px"
	 viewBox="0 0 137.8 137.3" style="enable-background:new 0 0 137.8 137.3;" xml:space="preserve">
<style type="text/css">
	.st0{fill:#67717F;}
	.st1{fill:#C4151C;}
</style>
<g>
	<path class="st0" d="M78.5,60.7v-3.2H78V58l0,0c-0.3-0.3-0.6-0.5-1.1-0.5c-1,0-1.5,0.8-1.5,1.7s0.6,1.7,1.5,1.7
		c0.4,0,0.8-0.2,1.1-0.5l0,0v0.4L78.5,60.7L78.5,60.7z M76.9,60.3c-0.7,0-1-0.6-1-1.2c0-0.6,0.4-1.1,1-1.1c0.7,0,1.1,0.5,1.1,1.1
		C78,59.7,77.6,60.3,76.9,60.3z M90.5,82.6v-2.7H91v-0.5h-0.6v-1.1h-0.5v1.1h-0.3v0.5h0.3v2.7H90.5z M110.3,112.9l0.3-0.5
		c-0.1-0.1-0.3-0.1-0.5-0.1c-0.4,0-0.5,0.2-0.7,0.4l0,0v-0.3h-0.5v3.2h0.5V114c0-0.4,0-1.2,0.6-1.2
		C110.1,112.8,110.2,112.8,110.3,112.9z M81.5,68.5h-0.6L80,70.6l-1-2.4l-1,2.4l-1-2.1h-0.6l1.5,3.4l1-2.4l1,2.4L81.5,68.5z
		 M83.1,68.4c-1,0-1.5,0.8-1.5,1.7c0,0.9,0.6,1.6,1.5,1.6c0.6,0,1.2-0.3,1.5-0.9l-0.5-0.3c-0.2,0.4-0.5,0.6-1,0.6c-0.6,0-1-0.5-1-1
		h2.5C84.7,69.2,84.1,68.4,83.1,68.4z M82.2,69.7c0.1-0.5,0.5-0.8,1-0.8s0.9,0.4,0.9,0.8H82.2z M79.5,57.5v3.2H80v-1.5
		c0-0.6,0-1.2,0.8-1.2c0.6,0,0.7,0.5,0.7,1v1.8H82v-1.9c0-0.7-0.2-1.4-1.1-1.4c-0.4,0-0.7,0.2-0.9,0.5l0,0v-0.4L79.5,57.5L79.5,57.5
		z M69.6,111c-0.6-0.5-1.2-0.6-2-0.6h-1v5.1h0.9c0.8,0,1.4-0.1,2-0.6s0.8-1.1,0.8-1.9C70.4,112.2,70.2,111.5,69.6,111z M69.2,114.5
		c-0.5,0.4-1,0.5-1.6,0.5h-0.4v-4h0.4c0.6,0,1.1,0.1,1.6,0.5c0.4,0.4,0.7,0.9,0.7,1.5C69.9,113.5,69.7,114.1,69.2,114.5z M76.7,79.4
		v1.8c0,0.8,0.3,1.4,1.2,1.4s1.2-0.6,1.2-1.4v-1.8h-0.5v1.8c0,0.5-0.1,1-0.7,1s-0.7-0.5-0.7-1v-1.8H76.7z M96.5,82.6v-3.2H96v0.5
		l0,0c-0.3-0.3-0.6-0.5-1.1-0.5c-1,0-1.5,0.8-1.5,1.7c0,0.9,0.6,1.7,1.5,1.7c0.4,0,0.8-0.2,1.1-0.5l0,0v0.4L96.5,82.6L96.5,82.6z
		 M94.9,82.2c-0.7,0-1-0.6-1-1.2s0.4-1.1,1-1.1c0.7,0,1.1,0.5,1.1,1.1S95.6,82.2,94.9,82.2z M80.8,82.7c0.6,0,1.1-0.4,1.1-1
		c0-0.5-0.4-0.8-0.7-0.9c-0.4-0.1-0.7-0.3-0.7-0.5s0.2-0.4,0.4-0.4s0.4,0.1,0.4,0.3l0.5-0.2c-0.1-0.3-0.5-0.6-0.8-0.6
		c-0.5,0-0.9,0.4-0.9,0.9c0,1,1.4,0.8,1.4,1.5c0,0.3-0.2,0.5-0.5,0.5c-0.4,0-0.5-0.2-0.6-0.5L79.9,82C79.9,82.4,80.3,82.7,80.8,82.7
		z M81.3,90c-1,0-1.5,0.8-1.5,1.7c0,0.9,0.6,1.6,1.5,1.6c0.6,0,1.2-0.3,1.5-0.9l-0.5-0.3c-0.2,0.4-0.5,0.6-1,0.6c-0.6,0-1-0.5-1-1
		h2.5C82.8,90.9,82.3,90,81.3,90z M80.3,91.4c0.1-0.5,0.5-0.8,1-0.8s0.9,0.4,0.9,0.8H80.3z M83.1,56.4v1.1h-0.3V58h0.3v2.7h0.5V58
		h0.6v-0.5h-0.6v-1.1H83.1z M84.5,35.6v1.8c0,0.8,0.3,1.4,1.2,1.4s1.2-0.6,1.2-1.4v-1.8h-0.5v1.8c0,0.5-0.1,1-0.7,1s-0.7-0.5-0.7-1
		v-1.8H84.5z M83.5,44.6v5.5H84v-1.5c0-0.6,0-1.2,0.8-1.2c0.6,0,0.7,0.5,0.7,1v1.8H86v-1.9c0-0.7-0.2-1.4-1.1-1.4
		c-0.4,0-0.7,0.2-0.9,0.5l0,0v-2.8L83.5,44.6L83.5,44.6z M79.2,36c0.4,0,0.7,0.2,1,0.5l0,0v-0.7c-0.3-0.2-0.6-0.3-1-0.3
		c-0.9,0-1.7,0.7-1.7,1.7s0.7,1.7,1.7,1.7c0.4,0,0.7-0.1,1-0.3v-0.7l0,0c-0.3,0.3-0.6,0.5-1,0.5c-0.7,0-1.1-0.5-1.1-1.2
		S78.6,36,79.2,36z M76.1,38.3c-0.4,0-0.5-0.2-0.6-0.5L74.9,38c0.2,0.5,0.6,0.8,1.1,0.8c0.6,0,1.1-0.4,1.1-1c0-0.5-0.4-0.8-0.7-0.9
		c-0.4-0.1-0.7-0.3-0.7-0.5s0.2-0.4,0.4-0.4s0.4,0.1,0.4,0.3l0.5-0.2c-0.1-0.3-0.5-0.6-0.8-0.6c-0.5,0-0.9,0.4-0.9,0.9
		c0,1,1.4,0.8,1.4,1.5C76.6,38.1,76.4,38.3,76.1,38.3z M81.1,33.2v5.5h0.5v-1.5c0-0.6,0-1.2,0.8-1.2c0.6,0,0.7,0.5,0.7,1v1.8h0.5
		v-1.9c0-0.7-0.2-1.4-1.1-1.4c-0.4,0-0.7,0.2-0.9,0.5l0,0v-2.8L81.1,33.2L81.1,33.2z M111.9,125.1c0,0.5-0.1,1-0.7,1s-0.7-0.5-0.7-1
		v-1.8H110v1.8c0,0.8,0.3,1.4,1.2,1.4s1.2-0.6,1.2-1.4v-1.8h-0.5C111.9,123.3,111.9,125.1,111.9,125.1z M86,93.3v-1.9
		c0-0.7-0.2-1.4-1.1-1.4c-0.4,0-0.7,0.2-0.9,0.5l0,0v-2.8h-0.5v5.5H84v-1.5c0-0.6,0-1.2,0.8-1.2c0.6,0,0.7,0.5,0.7,1v1.8H86L86,93.3
		z M85,79.9L85,79.9c-0.3-0.3-0.7-0.5-1.1-0.5c-0.9,0-1.5,0.8-1.5,1.7c0,0.9,0.6,1.6,1.5,1.6c0.4,0,0.8-0.2,1.1-0.5l0,0v0.4
		c0,0.7-0.2,1.3-1,1.3c-0.6,0-1-0.4-1-1h-0.5c0,0.9,0.6,1.5,1.5,1.5c0.5,0,1-0.2,1.3-0.6s0.3-0.9,0.3-1.4v-3h-0.5L85,79.9L85,79.9z
		 M83.9,82.2c-0.7,0-1-0.6-1-1.2s0.4-1.1,1-1.1c0.7,0,1.1,0.5,1.1,1.1S84.6,82.2,83.9,82.2z M113.4,112.3h-0.5v1.8
		c0,0.5-0.1,1-0.7,1s-0.7-0.5-0.7-1v-1.8H111v1.8c0,0.8,0.3,1.4,1.2,1.4s1.2-0.6,1.2-1.4V112.3z M85.4,71.6H86v-3.2h-0.5L85.4,71.6
		L85.4,71.6z M106.5,123.3v0.5h1.9l-2.3,2.7h3.3V126h-2.2l2.3-2.7H106.5z M80.8,104.3c0.4,0,0.8-0.2,1.1-0.5l0,0v0.4h0.5V101h-0.5
		v0.5l0,0c-0.3-0.3-0.6-0.5-1.1-0.5c-1,0-1.5,0.8-1.5,1.7C79.3,103.5,79.9,104.3,80.8,104.3z M80.9,101.5c0.7,0,1.1,0.5,1.1,1.1
		s-0.4,1.2-1,1.2c-0.7,0-1-0.6-1-1.2C79.9,102,80.3,101.5,80.9,101.5z M104.1,110.8c-0.2,0-0.4,0.2-0.4,0.4c0,0.2,0.2,0.4,0.4,0.4
		s0.4-0.2,0.4-0.4C104.5,110.9,104.3,110.8,104.1,110.8z M74.4,91.7c0-0.9-0.6-1.7-1.5-1.7c-0.4,0-0.8,0.2-1.1,0.5l0,0v-2.8h-0.5
		v5.5h0.5v-0.4l0,0c0.3,0.3,0.6,0.5,1.1,0.5C73.9,93.4,74.4,92.6,74.4,91.7z M72.8,92.9c-0.7,0-1-0.6-1-1.2s0.4-1.1,1-1.1
		c0.7,0,1.1,0.5,1.1,1.1S73.5,92.9,72.8,92.9z M103.9,115.5h0.5v-3.2h-0.5V115.5z M101.3,101.6l0.3-0.5c-0.1-0.1-0.3-0.1-0.5-0.1
		c-0.4,0-0.5,0.2-0.7,0.4l0,0v-0.3h-0.5v3.2h0.5v-1.6c0-0.4,0-1.2,0.6-1.2C101.1,101.5,101.2,101.6,101.3,101.6z M82.4,113.9
		c0-0.4,0-1.2,0.6-1.2c0.1,0,0.2,0.1,0.3,0.1l0.3-0.5c-0.1-0.1-0.3-0.1-0.5-0.1c-0.4,0-0.5,0.2-0.7,0.4l0,0v-0.3h-0.5v3.2h0.5
		L82.4,113.9L82.4,113.9z M87.9,60.9l1.6-3.4h-0.6L88,59.7l-1-2.4l-1,2.4l-0.9-2.1h-0.6L86,61l1-2.4L87.9,60.9z M87.9,38.8h0.5v-5.5
		h-0.5V38.8z M103.2,123.8L103.2,123.8c-0.3-0.3-0.7-0.5-1.1-0.5c-0.9,0-1.5,0.8-1.5,1.7c0,0.9,0.6,1.6,1.5,1.6
		c0.4,0,0.8-0.2,1.1-0.5l0,0v0.4c0,0.7-0.2,1.3-1,1.3c-0.6,0-1-0.4-1-1h-0.5c0,0.9,0.7,1.5,1.5,1.5c0.5,0,0.9-0.2,1.2-0.6
		c0.3-0.4,0.3-0.9,0.3-1.4v-3h-0.5V123.8L103.2,123.8z M102.2,126c-0.7,0-1-0.6-1-1.2s0.4-1.1,1-1.1c0.7,0,1.1,0.5,1.1,1.1
		C103.3,125.5,102.9,126,102.2,126z M84,102.9L84,102.9l1.4,1.3h0.7l-1.6-1.8l1.4-1.3h-0.7l-1.1,1.2v-3.5h-0.5v5.5H84V102.9
		L84,102.9z M85.7,66.9c-0.2,0-0.4,0.2-0.4,0.4c0,0.2,0.2,0.4,0.4,0.4s0.4-0.2,0.4-0.4S85.9,66.9,85.7,66.9z M97.8,47v3.2h0.5v-1.5
		c0-0.6,0-1.2,0.8-1.2c0.6,0,0.7,0.5,0.7,1v1.8h0.5v-1.9c0-0.7-0.2-1.4-1.1-1.4c-0.4,0-0.7,0.2-0.9,0.5l0,0V47H97.8L97.8,47z
		 M97.3,36.1L97.3,36.1c-0.3-0.3-0.7-0.5-1.1-0.5c-0.9,0-1.5,0.8-1.5,1.7s0.6,1.6,1.5,1.6c0.4,0,0.8-0.2,1.1-0.5l0,0v0.4
		c0,0.7-0.2,1.3-1,1.3c-0.6,0-1-0.4-1-1h-0.5c0,0.9,0.7,1.5,1.5,1.5c0.5,0,0.9-0.2,1.2-0.6c0.3-0.4,0.3-0.9,0.3-1.4v-3h-0.5V36.1
		L97.3,36.1z M96.2,38.3c-0.7,0-1-0.6-1-1.2c0-0.6,0.4-1.1,1-1.1c0.7,0,1.1,0.5,1.1,1.1C97.3,37.8,96.9,38.3,96.2,38.3z M73.3,71.6
		h0.5v-1.5c0-0.6,0-1.2,0.8-1.2c0.6,0,0.7,0.5,0.7,1v1.8h0.5v-1.9c0-0.7-0.2-1.4-1.1-1.4c-0.4,0-0.7,0.2-0.9,0.5l0,0v-2.8h-0.5V71.6
		L73.3,71.6z M79.7,48.6c0,0.9,0.6,1.6,1.5,1.6c0.6,0,1.2-0.3,1.5-0.9L82.2,49c-0.2,0.4-0.5,0.6-1,0.6c-0.6,0-1-0.5-1-1h2.5
		c0-0.9-0.5-1.8-1.5-1.8C80.3,46.9,79.7,47.7,79.7,48.6z M81.3,47.4c0.5,0,0.9,0.4,0.9,0.8h-1.9C80.4,47.8,80.8,47.4,81.3,47.4z
		 M108.1,114.7l-0.5-0.3c-0.2,0.4-0.5,0.6-1,0.6c-0.6,0-1-0.5-1-1h2.5c0-0.9-0.5-1.8-1.5-1.8s-1.5,0.8-1.5,1.7
		c0,0.9,0.6,1.6,1.5,1.6C107.3,115.6,107.8,115.3,108.1,114.7z M106.6,112.8c0.5,0,0.9,0.4,0.9,0.8h-1.9
		C105.7,113.1,106.2,112.8,106.6,112.8z M72.7,81c0,0.9,0.6,1.7,1.5,1.7c0.4,0,0.8-0.2,1.1-0.5l0,0v0.4h0.5v-3.2h-0.5v0.5l0,0
		c-0.3-0.3-0.6-0.5-1.1-0.5C73.3,79.3,72.7,80.1,72.7,81z M74.3,79.8c0.7,0,1.1,0.5,1.1,1.1s-0.4,1.2-1,1.2c-0.7,0-1-0.6-1-1.2
		C73.3,80.4,73.7,79.8,74.3,79.8z M71.5,71.7c0.4,0,0.7-0.1,1-0.3v-0.7l0,0c-0.3,0.3-0.6,0.5-1,0.5c-0.7,0-1.1-0.5-1.1-1.2
		s0.5-1.2,1.1-1.2c0.4,0,0.7,0.2,1,0.5l0,0v-0.7c-0.3-0.2-0.6-0.3-1-0.3c-0.9,0-1.7,0.7-1.7,1.7S70.6,71.7,71.5,71.7z M77.1,48
		l1,2.4l1.6-3.4H79l-0.9,2.1l-1-2.4l-1,2.4L75.2,47h-0.6l1.5,3.4L77.1,48z M69.5,82.6H70v-1.5c0-0.6,0-1.2,0.8-1.2
		c0.6,0,0.7,0.5,0.7,1v1.8H72v-1.9c0-0.7-0.2-1.4-1.1-1.4c-0.4,0-0.7,0.2-0.9,0.5l0,0v-0.4h-0.5V82.6L69.5,82.6z M104,102.8
		c0,0.5-0.1,1-0.7,1s-0.7-0.5-0.7-1V101H102v1.8c0,0.8,0.3,1.4,1.2,1.4s1.2-0.6,1.2-1.4V101H104V102.8z M71.4,57.4
		c-1,0-1.5,0.8-1.5,1.7s0.6,1.6,1.5,1.6c0.6,0,1.2-0.3,1.5-0.9l-0.5-0.3c-0.2,0.4-0.5,0.6-1,0.6c-0.6,0-1-0.5-1-1h2.5
		C72.9,58.3,72.4,57.4,71.4,57.4z M70.4,58.8c0.1-0.5,0.5-0.8,1-0.8s0.9,0.4,0.9,0.8H70.4z M97.7,57.5v1.8c0,0.8,0.3,1.4,1.2,1.4
		s1.2-0.6,1.2-1.4v-1.8h-0.5v1.8c0,0.5-0.1,1-0.7,1s-0.7-0.5-0.7-1v-1.8H97.7z M78.4,104.2v-2.7H79V101h-0.6v-1.1h-0.5v1.1h-0.3v0.5
		h0.3v2.7H78.4z M117.9,93.3v-1.7c0-0.5,0.1-1.1,0.7-1.1c0.5,0,0.6,0.5,0.6,0.9v1.8h0.5v-1.9c0-0.7-0.2-1.3-1-1.3
		c-0.4,0-0.8,0.2-1,0.5c-0.2-0.3-0.5-0.5-0.9-0.5c-0.3,0-0.6,0.2-0.8,0.4l0,0v-0.3h-0.5v3.2h0.5v-1.6c0-0.5,0.1-1.1,0.7-1.1
		c0.5,0,0.6,0.6,0.6,1v1.8L117.9,93.3L117.9,93.3z M119.3,116.8c-0.6,0-1-0.4-1-1h-0.5c0,0.9,0.7,1.5,1.5,1.5c0.5,0,0.9-0.2,1.2-0.6
		c0.3-0.4,0.3-0.9,0.3-1.4v-3h-0.5v0.5l0,0c-0.3-0.3-0.6-0.5-1.1-0.5c-0.9,0-1.5,0.8-1.5,1.7c0,0.9,0.6,1.6,1.5,1.6
		c0.4,0,0.8-0.2,1.1-0.5l0,0v0.4C120.3,116.1,120.1,116.8,119.3,116.8z M119.2,115.1c-0.7,0-1-0.6-1-1.2s0.4-1.1,1-1.1
		c0.7,0,1.1,0.5,1.1,1.1C120.3,114.5,119.9,115.1,119.2,115.1z M114.7,93.3v-1.9c0-0.7-0.2-1.4-1.1-1.4c-0.4,0-0.7,0.2-0.9,0.5l0,0
		v-0.4h-0.5v3.2h0.5v-1.5c0-0.6,0-1.2,0.8-1.2c0.6,0,0.7,0.5,0.7,1v1.8L114.7,93.3L114.7,93.3z M135.1,126.5h0.5V121h-0.5V126.5z
		 M123.5,93.3v-3.2H123v0.5l0,0c-0.3-0.3-0.6-0.5-1.1-0.5c-1,0-1.5,0.8-1.5,1.7c0,0.9,0.6,1.7,1.5,1.7c0.4,0,0.8-0.2,1.1-0.5l0,0
		v0.4L123.5,93.3L123.5,93.3z M121.9,92.9c-0.7,0-1-0.6-1-1.2s0.4-1.1,1-1.1c0.7,0,1.1,0.5,1.1,1.1S122.6,92.9,121.9,92.9z
		 M116.8,82.6l-2.5-2.7l2.4-2.4H116l-2.2,2.2v-2.2h-0.6v5.1h0.6v-2.2l0.1-0.1l2.1,2.3L116.8,82.6L116.8,82.6z M131.3,93.3h0.5v-2.7
		h0.6v-0.5h-0.6V89h-0.5v1.1H131v0.5h0.3V93.3z M121.1,58L121.1,58c-0.3-0.3-0.7-0.5-1.1-0.5c-0.9,0-1.5,0.8-1.5,1.7
		s0.6,1.6,1.5,1.6c0.4,0,0.8-0.2,1.1-0.5l0,0v0.4c0,0.7-0.2,1.3-1,1.3c-0.6,0-1-0.4-1-1h-0.5c0,0.9,0.7,1.5,1.5,1.5
		c0.5,0,0.9-0.2,1.2-0.6c0.3-0.4,0.3-0.9,0.3-1.4v-3H121L121.1,58L121.1,58z M120,60.3c-0.7,0-1-0.6-1-1.2c0-0.6,0.4-1.1,1-1.1
		c0.7,0,1.1,0.5,1.1,1.1C121.1,59.7,120.7,60.3,120,60.3z M123.7,60.8c0.4,0,0.8-0.2,1.1-0.5l0,0v0.4h0.5v-3.2h-0.5V58l0,0
		c-0.3-0.3-0.6-0.5-1.1-0.5c-1,0-1.5,0.8-1.5,1.7C122.2,60,122.8,60.8,123.7,60.8z M123.8,57.9c0.7,0,1.1,0.5,1.1,1.1
		s-0.4,1.2-1,1.2c-0.7,0-1-0.6-1-1.2C122.8,58.5,123.2,57.9,123.8,57.9z M121.4,79.8v-0.4h-0.5v3.2h0.5v-1.5c0-0.6,0-1.2,0.8-1.2
		c0.6,0,0.7,0.5,0.7,1v1.8h0.5v-1.9c0-0.7-0.2-1.4-1.1-1.4C122,79.4,121.7,79.5,121.4,79.8L121.4,79.8L121.4,79.8z M118.5,82.7
		c0.9,0,1.7-0.7,1.7-1.7s-0.7-1.7-1.7-1.7s-1.7,0.8-1.7,1.7S117.6,82.7,118.5,82.7z M118.5,79.8c0.7,0,1.1,0.5,1.1,1.2
		s-0.5,1.2-1.1,1.2c-0.7,0-1.1-0.5-1.1-1.2C117.4,80.4,117.8,79.8,118.5,79.8z M119.6,50.2c0.4,0,0.8-0.2,1.1-0.5l0,0v0.4h0.5v-5.5
		h-0.5v2.8l0,0c-0.3-0.3-0.7-0.5-1.1-0.5c-1,0-1.5,0.8-1.5,1.7C118.1,49.4,118.7,50.2,119.6,50.2z M119.7,47.4
		c0.7,0,1.1,0.5,1.1,1.1s-0.4,1.2-1,1.2c-0.7,0-1-0.6-1-1.2C118.7,47.9,119.1,47.4,119.7,47.4z M133.6,123.8L133.6,123.8
		c-0.3-0.3-0.7-0.5-1.1-0.5c-1,0-1.5,0.8-1.5,1.7c0,0.9,0.6,1.7,1.5,1.7c0.4,0,0.8-0.2,1.1-0.5l0,0v0.4h0.5v-3.2h-0.5V123.8
		L133.6,123.8z M132.5,126c-0.7,0-1-0.6-1-1.2s0.4-1.1,1-1.1c0.7,0,1.1,0.5,1.1,1.1C133.6,125.5,133.2,126,132.5,126z M130.2,93.3
		v-1.9c0-0.7-0.2-1.4-1.1-1.4c-0.4,0-0.7,0.2-0.9,0.5l0,0v-2.8h-0.5v5.5h0.5v-1.5c0-0.6,0-1.2,0.8-1.2c0.6,0,0.7,0.5,0.7,1v1.8
		H130.2L130.2,93.3z M128.7,78.2c0-0.2-0.2-0.4-0.4-0.4s-0.4,0.2-0.4,0.4c0,0.2,0.2,0.4,0.4,0.4S128.7,78.5,128.7,78.2z M128,82.6
		h0.5v-3.2H128V82.6z M130.2,81.3l0.1-0.1l1.3,1.4h0.7l-1.6-1.8l1.4-1.3h-0.7l-1.1,1.2v-3.5h-0.5v5.5h0.5L130.2,81.3L130.2,81.3z
		 M131.5,60.8c0.6,0,1.2-0.3,1.5-0.9l-0.5-0.3c-0.2,0.4-0.5,0.6-1,0.6c-0.6,0-1-0.5-1-1h2.5c0-0.9-0.5-1.8-1.5-1.8s-1.5,0.8-1.5,1.7
		C130,60.1,130.6,60.8,131.5,60.8z M131.5,57.9c0.5,0,0.9,0.4,0.9,0.8h-1.9C130.6,58.3,131,57.9,131.5,57.9z M132.9,78.3v1.1h-0.3
		v0.5h0.3v2.7h0.5v-2.7h0.6v-0.5h-0.6v-1.1H132.9z M126.4,82.6h0.5V77h-0.5V82.6z M124.6,77.4c-0.1,0.2-0.1,0.6-0.1,0.8v1.3h-0.3V80
		h0.3v2.7h0.5V80h0.8v-0.5H125v-1.1c0-0.6,0-0.9,0.4-0.9c0.1,0,0.2,0,0.4,0.1V77c-0.1,0-0.3-0.1-0.4-0.1
		C125.1,77,124.8,77.1,124.6,77.4z M137.2,123.3v-1.1h-0.5v1.1h-0.3v0.5h0.3v2.7h0.5v-2.7h0.6v-0.5H137.2z M124.2,91.7
		c0,1,0.7,1.7,1.7,1.7c0.4,0,0.7-0.1,1-0.3v-0.7l0,0c-0.3,0.3-0.6,0.5-1,0.5c-0.7,0-1.1-0.5-1.1-1.2s0.5-1.2,1.1-1.2
		c0.4,0,0.7,0.2,1,0.5l0,0v-0.7c-0.3-0.2-0.6-0.3-1-0.3C124.9,90,124.2,90.8,124.2,91.7z M137.1,81.8l-0.5-0.3
		c-0.2,0.4-0.5,0.6-1,0.6c-0.6,0-1-0.5-1-1h2.5c0-0.9-0.5-1.8-1.5-1.8s-1.5,0.8-1.5,1.7c0,0.9,0.6,1.6,1.5,1.6
		C136.3,82.7,136.8,82.4,137.1,81.8z M135.7,79.8c0.5,0,0.9,0.4,0.9,0.8h-1.9C134.8,80.2,135.2,79.8,135.7,79.8z M126.9,60.2
		L126.9,60.2c0.3,0.3,0.7,0.5,1.1,0.5c0.9,0,1.5-0.8,1.5-1.7s-0.6-1.7-1.5-1.7c-0.4,0-0.8,0.2-1.1,0.5l0,0V55h-0.5v5.5h0.5V60.2
		L126.9,60.2z M127.9,57.9c0.7,0,1.1,0.5,1.1,1.1s-0.4,1.2-1,1.2c-0.7,0-1-0.6-1-1.2C126.9,58.5,127.3,57.9,127.9,57.9z M76.8,104.2
		v-1.9c0-0.7-0.2-1.4-1.1-1.4c-0.4,0-0.7,0.2-0.9,0.5l0,0V101h-0.5v3.2h0.5v-1.5c0-0.6,0-1.2,0.8-1.2c0.6,0,0.7,0.5,0.7,1v1.8
		L76.8,104.2L76.8,104.2z M79,90.1l-0.9,2.1l-1-2.4l-1,2.4l-0.9-2.1h-0.6l1.5,3.4l1-2.4l1,2.4l1.6-3.4H79z M117.3,44.6h-0.5v5.5h0.5
		V44.6z M99.7,110.8c-0.2,0-0.4,0.2-0.4,0.4c0,0.2,0.2,0.4,0.4,0.4s0.4-0.2,0.4-0.4C100.1,110.9,99.9,110.8,99.7,110.8z M74,38.8
		v-2.7h0.6v-0.5H74v-1.1h-0.5v1.1h-0.3v0.5h0.3v2.7H74z M98.3,115.5V110h-0.5v5.5H98.3z M92.9,115.5v-1.9c0-0.7-0.2-1.4-1.1-1.4
		c-0.4,0-0.7,0.2-0.9,0.5l0,0v-0.4h-0.5v3.2h0.5V114c0-0.6,0-1.2,0.8-1.2c0.6,0,0.7,0.5,0.7,1v1.8L92.9,115.5L92.9,115.5z
		 M87.2,104.2v-2.7h0.6V101h-0.6v-1.1h-0.5v1.1h-0.3v0.5h0.3v2.7H87.2z M73.6,57.5v3.2h0.5v-1.6c0-0.4,0-1.2,0.6-1.2
		c0.1,0,0.2,0.1,0.3,0.1l0.3-0.5c-0.1-0.1-0.3-0.1-0.5-0.1c-0.4,0-0.5,0.2-0.7,0.4l0,0v-0.3L73.6,57.5L73.6,57.5z M72.3,112.2
		c-1,0-1.5,0.8-1.5,1.7c0,0.9,0.6,1.6,1.5,1.6c0.6,0,1.2-0.3,1.5-0.9l-0.5-0.3c-0.2,0.4-0.5,0.6-1,0.6c-0.6,0-1-0.5-1-1h2.5
		C73.9,113.1,73.4,112.2,72.3,112.2z M71.4,113.6c0.1-0.5,0.5-0.8,1-0.8s0.9,0.4,0.9,0.8H71.4z M71.9,104.3c0.9,0,1.7-0.7,1.7-1.7
		s-0.7-1.7-1.7-1.7s-1.7,0.8-1.7,1.7S71,104.3,71.9,104.3z M71.9,101.5c0.7,0,1.1,0.5,1.1,1.2s-0.5,1.2-1.1,1.2
		c-0.7,0-1.1-0.5-1.1-1.2S71.2,101.5,71.9,101.5z M66.7,99.2v5.1h0.6v-2.2l0.1-0.1l2.1,2.3h0.8l-2.5-2.7l2.4-2.4h-0.8l-2.2,2.2v-2.2
		L66.7,99.2L66.7,99.2z M114,123.6L114,123.6v-0.3h-0.5v3.2h0.5v-1.6c0-0.4,0-1.2,0.6-1.2c0.1,0,0.2,0.1,0.3,0.1l0.3-0.5
		c-0.1-0.1-0.3-0.1-0.5-0.1C114.3,123.2,114.2,123.4,114,123.6z M115.9,112.2c-0.4,0-0.7,0.2-0.9,0.5l0,0v-0.4h-0.5v3.2h0.5V114
		c0-0.6,0-1.2,0.8-1.2c0.6,0,0.7,0.5,0.7,1v1.8h0.5v-1.9C116.9,112.9,116.7,112.2,115.9,112.2z M99.1,102.6c0-0.9-0.6-1.7-1.5-1.7
		c-0.4,0-0.8,0.2-1.1,0.5l0,0v-2.8H96v5.5h0.5v-0.4l0,0c0.3,0.3,0.6,0.5,1.1,0.5C98.5,104.3,99.1,103.5,99.1,102.6z M97.5,103.8
		c-0.7,0-1-0.6-1-1.2s0.4-1.1,1-1.1c0.7,0,1.1,0.5,1.1,1.1C98.5,103.3,98.2,103.8,97.5,103.8z M124,123.2c-1,0-1.5,0.8-1.5,1.7
		c0,0.9,0.6,1.6,1.5,1.6c0.6,0,1.2-0.3,1.5-0.9l-0.5-0.3c-0.2,0.4-0.5,0.6-1,0.6c-0.6,0-1-0.5-1-1h2.5
		C125.6,124.1,125,123.2,124,123.2z M123.1,124.5c0.1-0.5,0.5-0.8,1-0.8s0.9,0.4,0.9,0.8H123.1z M111.4,104.2v-1.9
		c0-0.7-0.2-1.4-1.1-1.4c-0.4,0-0.7,0.2-0.9,0.5l0,0v-2.8h-0.5v5.5h0.5v-1.5c0-0.6,0-1.2,0.8-1.2c0.6,0,0.7,0.5,0.7,1v1.8H111.4
		L111.4,104.2z M110.7,59.1c0,0.9,0.6,1.7,1.5,1.7c0.4,0,0.8-0.2,1.1-0.5l0,0v0.4h0.5v-3.2h-0.5V58l0,0c-0.3-0.3-0.6-0.5-1.1-0.5
		C111.3,57.4,110.7,58.2,110.7,59.1z M113.4,59.1c0,0.6-0.4,1.2-1,1.2c-0.7,0-1-0.6-1-1.2c0-0.6,0.4-1.1,1-1.1
		C113,57.9,113.4,58.4,113.4,59.1z M129.3,125.4l-1-2.4l-1,2.4l-0.9-2.1h-0.6l1.5,3.4l1-2.4l1,2.4l1.6-3.4h-0.6L129.3,125.4z
		 M115.4,58L115.4,58v-2.8h-0.5v5.5h0.5v-0.4l0,0c0.3,0.3,0.6,0.5,1.1,0.5c0.9,0,1.5-0.8,1.5-1.7s-0.6-1.7-1.5-1.7
		C116,57.4,115.7,57.6,115.4,58z M116.4,57.9c0.7,0,1.1,0.5,1.1,1.1s-0.4,1.2-1,1.2c-0.7,0-1-0.6-1-1.2
		C115.4,58.5,115.8,57.9,116.4,57.9z M114.6,50.2c0.9,0,1.2-0.6,1.2-1.4V47h-0.5v1.8c0,0.5-0.1,1-0.7,1s-0.7-0.5-0.7-1V47h-0.5v1.8
		C113.3,49.6,113.6,50.2,114.6,50.2z M106.9,101.5c0.4,0,0.7,0.2,1,0.5l0,0v-0.7c-0.3-0.2-0.6-0.3-1-0.3c-0.9,0-1.7,0.7-1.7,1.7
		s0.7,1.7,1.7,1.7c0.4,0,0.7-0.1,1-0.3v-0.7l0,0c-0.3,0.3-0.6,0.5-1,0.5c-0.7,0-1.1-0.5-1.1-1.2S106.2,101.5,106.9,101.5z
		 M100.3,93.3v-1.9c0-0.7-0.2-1.4-1.1-1.4c-0.4,0-0.7,0.2-0.9,0.5l0,0v-0.4h-0.5v3.2h0.5v-1.5c0-0.6,0-1.2,0.8-1.2
		c0.6,0,0.7,0.5,0.7,1v1.8L100.3,93.3L100.3,93.3z M119.9,124.4h1.5c0,0.9-0.9,1.6-1.8,1.6c-0.5,0-1.1-0.3-1.4-0.6
		c-0.4-0.4-0.6-0.9-0.6-1.4c0-1.1,0.9-2.1,2.1-2.1c0.8,0,1.3,0.4,1.7,1l0.4-0.4c-0.5-0.7-1.3-1.1-2.1-1.1c-1.5,0-2.6,1.2-2.6,2.6
		s1.2,2.6,2.6,2.6c0.7,0,1.4-0.3,1.9-0.9s0.5-1.1,0.5-1.8H120L119.9,124.4L119.9,124.4z M105.4,88.1c-1.4,0-2.6,1.2-2.6,2.6
		c0,1.5,1.2,2.6,2.6,2.6s2.6-1.2,2.6-2.6C108,89.3,106.8,88.1,105.4,88.1z M105.4,92.9c-1.1,0-2.1-1-2.1-2.1s0.9-2.1,2.1-2.1
		s2.1,1,2.1,2.1S106.5,92.9,105.4,92.9z M101.9,112.8c0.2,0,0.4,0.1,0.4,0.3l0.5-0.2c-0.1-0.3-0.5-0.6-0.8-0.6
		c-0.5,0-0.9,0.4-0.9,0.9c0,1,1.4,0.8,1.4,1.5c0,0.3-0.2,0.5-0.5,0.5c-0.4,0-0.5-0.2-0.6-0.5l-0.5,0.2c0.2,0.5,0.6,0.8,1.1,0.8
		c0.6,0,1.1-0.4,1.1-1c0-0.5-0.4-0.8-0.7-0.9c-0.4-0.1-0.7-0.3-0.7-0.5C101.5,112.9,101.7,112.8,101.9,112.8z M89.9,27.6
		c0.4,0,0.8-0.2,1.1-0.5l0,0v0.4h0.5V22H91v2.8l0,0c-0.3-0.3-0.7-0.5-1.1-0.5c-1,0-1.5,0.8-1.5,1.7C88.3,26.8,88.9,27.6,89.9,27.6z
		 M89.9,24.7c0.7,0,1.1,0.5,1.1,1.1S90.6,27,90,27c-0.7,0-1-0.6-1-1.2C88.9,25.3,89.3,24.7,89.9,24.7z M66.7,25.3L66.7,25.3l1.6,2.2
		H69l-1.6-2.3c0.8-0.1,1.3-0.6,1.3-1.4c0-1.1-0.9-1.4-1.9-1.4h-0.7v5.1h0.6V25.3z M66.7,23h0.2c0.7,0,1.3,0.1,1.3,0.9
		s-0.6,0.9-1.3,0.9h-0.2V23L66.7,23z M70.8,27.6c0.6,0,1.2-0.3,1.5-0.9l-0.5-0.3c-0.2,0.4-0.5,0.6-1,0.6c-0.6,0-1-0.5-1-1.1h2.5
		c0-0.9-0.5-1.8-1.5-1.8s-1.5,0.8-1.5,1.7C69.2,26.9,69.8,27.6,70.8,27.6z M70.8,24.7c0.5,0,0.9,0.4,0.9,0.8h-1.9
		C69.9,25.1,70.3,24.7,70.8,24.7z M69.4,16.5V16h-2.2l2.3-2.7h-2.9v0.5h1.9l-2.3,2.7H69.4z M76.2,112.2c-0.4,0-0.8,0.2-1.1,0.5l0,0
		v-0.5h-0.5v4.9h0.5V115l0,0c0.3,0.3,0.6,0.5,1.1,0.5c1,0,1.5-0.8,1.5-1.7C77.7,113.1,77.1,112.2,76.2,112.2z M76.1,115.1
		c-0.7,0-1-0.6-1-1.2s0.4-1.1,1-1.1c0.7,0,1.1,0.5,1.1,1.1S76.8,115.1,76.1,115.1z M71.3,16.6c0.9,0,1.2-0.6,1.2-1.4v-1.8H72v1.8
		c0,0.5-0.1,1-0.7,1s-0.7-0.5-0.7-1v-1.8H70v1.8C70,16,70.4,16.6,71.3,16.6z M69.9,35.6v3.2h0.5v-1.5c0-0.6,0-1.2,0.8-1.2
		c0.6,0,0.7,0.5,0.7,1v1.8h0.5V37c0-0.7-0.2-1.4-1.1-1.4c-0.4,0-0.7,0.2-0.9,0.5l0,0v-0.4L69.9,35.6L69.9,35.6z M74.4,122.2h-0.5
		v1.1h-0.3v0.5h0.3v2.7h0.5v-2.7H75v-0.5h-0.6V122.2z M70.3,55.6h-0.6l-1.4,3.9l-1.4-3.9h-0.6l2.1,5.4L70.3,55.6z M88.4,72.9
		c-0.6,0-1-0.4-1-1h-0.5c0,0.9,0.7,1.5,1.5,1.5c0.5,0,0.9-0.2,1.2-0.6c0.3-0.4,0.3-0.9,0.3-1.4v-3h-0.5v0.5l0,0
		c-0.3-0.3-0.6-0.5-1.1-0.5c-0.9,0-1.5,0.8-1.5,1.7c0,0.9,0.6,1.6,1.5,1.6c0.4,0,0.8-0.2,1.1-0.5l0,0v0.4
		C89.4,72.3,89.2,72.9,88.4,72.9z M88.4,71.2c-0.7,0-1-0.6-1-1.2s0.4-1.1,1-1.1c0.7,0,1.1,0.5,1.1,1.1
		C89.4,70.7,89.1,71.2,88.4,71.2z M67.7,71.7c0.9,0,1.6-0.7,1.6-1.6c0-0.8-0.6-1.1-1.2-1.4l-0.3-0.1c-0.3-0.1-0.8-0.4-0.8-0.8
		c0-0.5,0.4-0.8,0.8-0.8s0.7,0.2,0.9,0.5l0.5-0.3c-0.3-0.5-0.8-0.8-1.3-0.8c-0.8,0-1.4,0.5-1.4,1.3c0,0.7,0.5,1,1.1,1.3l0.3,0.1
		c0.5,0.2,0.9,0.4,0.9,1s-0.5,1-1,1s-0.9-0.4-1-0.9l-0.5,0.2C66.3,71.2,66.9,71.7,67.7,71.7z M76.6,124.6c-0.4-0.1-0.7-0.3-0.7-0.5
		s0.2-0.4,0.4-0.4s0.4,0.1,0.4,0.3l0.5-0.2c-0.1-0.3-0.5-0.6-0.8-0.6c-0.5,0-0.9,0.4-0.9,0.9c0,1,1.4,0.8,1.4,1.5
		c0,0.3-0.2,0.5-0.5,0.5c-0.4,0-0.5-0.2-0.6-0.5l-0.5,0.2c0.2,0.5,0.6,0.8,1.1,0.8c0.6,0,1.1-0.4,1.1-1
		C77.3,125,77,124.8,76.6,124.6z M71.7,47.4L71.7,47.4v-2.8h-0.5v5.5h0.5v-0.4l0,0c0.3,0.3,0.6,0.5,1.1,0.5c0.9,0,1.5-0.8,1.5-1.7
		s-0.6-1.7-1.5-1.7C72.4,46.9,72,47.1,71.7,47.4z M72.7,47.4c0.7,0,1.1,0.5,1.1,1.1s-0.4,1.2-1,1.2c-0.7,0-1-0.6-1-1.2
		C71.7,47.9,72.1,47.4,72.7,47.4z M67.7,38.8c0.6,0,1.2-0.3,1.5-0.9l-0.5-0.3c-0.2,0.4-0.5,0.6-1,0.6c-0.6,0-1-0.5-1-1h2.5
		c0-0.9-0.5-1.8-1.5-1.8s-1.5,0.8-1.5,1.7C66.2,38.1,66.8,38.8,67.7,38.8z M67.7,36c0.5,0,0.9,0.4,0.9,0.8h-1.9
		C66.8,36.4,67.2,36,67.7,36z M76.1,16.1c-0.4,0-0.5-0.2-0.6-0.5L75,15.8c0.2,0.5,0.6,0.8,1.1,0.8c0.6,0,1.1-0.4,1.1-1
		c0-0.5-0.4-0.8-0.7-0.9c-0.4-0.1-0.7-0.3-0.7-0.6c0-0.2,0.2-0.4,0.4-0.4s0.4,0.1,0.4,0.3l0.5-0.2c-0.1-0.3-0.5-0.6-0.8-0.6
		c-0.5,0-0.9,0.4-0.9,0.9c0,1,1.4,0.8,1.4,1.5C76.6,15.9,76.4,16.1,76.1,16.1z M83.2,15c0-0.6,0-1.2,0.8-1.2c0.6,0,0.7,0.5,0.7,1
		v1.8h0.5v-1.9c0-0.7-0.2-1.4-1.1-1.4c-0.4,0-0.7,0.2-0.9,0.5l0,0V11h-0.5v5.5h0.5V15L83.2,15z M80.8,16.6c0.4,0,0.7-0.1,1-0.3v-0.7
		l0,0c-0.3,0.3-0.6,0.5-1,0.5c-0.7,0-1.1-0.5-1.1-1.2s0.5-1.2,1.1-1.2c0.4,0,0.7,0.2,1,0.5l0,0v-0.7c-0.3-0.2-0.6-0.3-1-0.3
		c-0.9,0-1.7,0.7-1.7,1.7C79.1,15.9,79.9,16.6,80.8,16.6z M85.1,24.3v3.2h0.5V26c0-0.6,0-1.2,0.8-1.2c0.6,0,0.7,0.5,0.7,1v1.8h0.5
		v-1.9c0-0.7-0.2-1.4-1.1-1.4c-0.4,0-0.7,0.2-0.9,0.5l0,0v-0.4L85.1,24.3L85.1,24.3z M79.4,126c-0.7,0-1.1-0.5-1.1-1.2
		s0.5-1.2,1.1-1.2c0.4,0,0.7,0.2,1,0.5l0,0v-0.7c-0.3-0.2-0.6-0.3-1-0.3c-0.9,0-1.7,0.7-1.7,1.7s0.7,1.7,1.7,1.7
		c0.4,0,0.7-0.1,1-0.3v-0.7l0,0C80.2,125.8,79.9,126,79.4,126z M87.6,47.3V47H87v3.2h0.5v-1.6c0-0.4,0-1.2,0.6-1.2
		c0.1,0,0.2,0.1,0.3,0.1l0.3-0.5c-0.1-0.1-0.3-0.1-0.5-0.1C87.9,46.9,87.8,47.1,87.6,47.3L87.6,47.3L87.6,47.3z M88.4,15.2l0.1-0.1
		l1.3,1.4h0.7l-1.6-1.8l1.4-1.3h-0.7l-1.1,1.2V11H88v5.5h0.5L88.4,15.2L88.4,15.2z M81.6,24.3v1.8c0,0.8,0.3,1.4,1.2,1.4
		s1.2-0.6,1.2-1.4v-1.8h-0.5v1.8c0,0.5-0.1,1-0.7,1s-0.7-0.5-0.7-1v-1.8H81.6z M67.4,82.7c0.9,0,1.2-0.6,1.2-1.4v-1.8h-0.5v1.8
		c0,0.5-0.1,1-0.7,1s-0.7-0.5-0.7-1v-1.8h-0.5v1.8C66.2,82.1,66.5,82.7,67.4,82.7z M74.2,27.6c0.9,0,1.2-0.6,1.2-1.4v-1.8h-0.5v1.8
		c0,0.5-0.1,1-0.7,1s-0.7-0.5-0.7-1v-1.8H73v1.8C73,27,73.3,27.6,74.2,27.6z M78.1,12.6c0.2,0,0.4-0.2,0.4-0.4s-0.2-0.4-0.4-0.4
		s-0.4,0.2-0.4,0.4C77.7,12.4,77.9,12.6,78.1,12.6z M77.9,16.5h0.5v-3.2h-0.5V16.5z M76.2,26c0,0.9,0.6,1.6,1.5,1.6
		c0.6,0,1.2-0.3,1.5-0.9l-0.5-0.3c-0.2,0.4-0.5,0.6-1,0.6c-0.6,0-1-0.5-1-1.1h2.5c0-0.9-0.5-1.8-1.5-1.8C76.7,24.2,76.2,25,76.2,26z
		 M77.7,24.7c0.5,0,0.9,0.4,0.9,0.8h-1.9C76.8,25.1,77.2,24.7,77.7,24.7z M4.4,8.5C3.1,8.5,2,9.6,2,10.9s1.1,2.4,2.4,2.4
		s2.4-1.1,2.4-2.4S5.7,8.5,4.4,8.5z M59.2,67.2c-0.2-0.2-0.4-0.4-0.7-0.5s-0.5-0.2-0.9-0.2c-0.3,0-0.6,0.1-0.9,0.2
		c-0.3,0.1-0.5,0.3-0.7,0.5s-0.4,0.4-0.5,0.7c-0.1,0.3-0.2,0.6-0.2,0.9s0.1,0.6,0.2,0.9s0.3,0.5,0.5,0.7s0.4,0.4,0.7,0.5
		s0.5,0.2,0.9,0.2c0.3,0,0.6-0.1,0.9-0.2s0.5-0.3,0.7-0.5s0.4-0.4,0.5-0.7c0.1-0.3,0.2-0.6,0.2-0.9s-0.1-0.6-0.2-0.8
		C59.6,67.6,59.4,67.4,59.2,67.2z M59.2,34.3c-0.2-0.2-0.4-0.4-0.7-0.5s-0.5-0.2-0.9-0.2c-0.3,0-0.6,0.1-0.9,0.2
		c-0.3,0.1-0.5,0.3-0.7,0.5s-0.4,0.4-0.5,0.7s-0.2,0.6-0.2,0.9s0.1,0.6,0.2,0.9s0.3,0.5,0.5,0.7s0.4,0.4,0.7,0.5s0.5,0.2,0.9,0.2
		c0.3,0,0.6-0.1,0.9-0.2s0.5-0.3,0.7-0.5s0.4-0.4,0.5-0.7s0.2-0.6,0.2-0.9c0-0.3-0.1-0.6-0.2-0.8C59.6,34.7,59.4,34.5,59.2,34.3z
		 M59.2,45.2c-0.2-0.2-0.4-0.4-0.7-0.5s-0.5-0.2-0.9-0.2c-0.3,0-0.6,0.1-0.9,0.2c-0.3,0.1-0.5,0.3-0.7,0.5s-0.4,0.4-0.5,0.7
		s-0.2,0.6-0.2,0.9s0.1,0.6,0.2,0.9s0.3,0.5,0.5,0.7s0.4,0.4,0.7,0.5s0.5,0.2,0.9,0.2c0.3,0,0.6-0.1,0.9-0.2s0.5-0.3,0.7-0.5
		s0.4-0.4,0.5-0.7s0.2-0.6,0.2-0.9c0-0.3-0.1-0.6-0.2-0.8C59.6,45.7,59.4,45.4,59.2,45.2z M59.2,56.2c-0.2-0.2-0.4-0.4-0.7-0.5
		s-0.5-0.2-0.9-0.2c-0.3,0-0.6,0.1-0.9,0.2c-0.3,0.1-0.5,0.3-0.7,0.5s-0.4,0.4-0.5,0.7s-0.2,0.6-0.2,0.9s0.1,0.6,0.2,0.9
		s0.3,0.5,0.5,0.7s0.4,0.4,0.7,0.5s0.5,0.2,0.9,0.2c0.3,0,0.6-0.1,0.9-0.2s0.5-0.3,0.7-0.5s0.4-0.4,0.5-0.7s0.2-0.6,0.2-0.9
		c0-0.3-0.1-0.6-0.2-0.8C59.6,56.6,59.4,56.4,59.2,56.2z M59.2,78.1c-0.2-0.2-0.4-0.4-0.7-0.5s-0.5-0.2-0.9-0.2
		c-0.3,0-0.6,0.1-0.9,0.2c-0.3,0.1-0.5,0.3-0.7,0.5s-0.4,0.4-0.5,0.7c-0.1,0.3-0.2,0.6-0.2,0.9s0.1,0.6,0.2,0.9s0.3,0.5,0.5,0.7
		s0.4,0.4,0.7,0.5s0.5,0.2,0.9,0.2c0.3,0,0.6-0.1,0.9-0.2s0.5-0.3,0.7-0.5s0.4-0.4,0.5-0.7c0.1-0.3,0.2-0.6,0.2-0.9
		s-0.1-0.6-0.2-0.8C59.6,78.6,59.4,78.3,59.2,78.1z M59.2,89.1c-0.2-0.2-0.4-0.4-0.7-0.5s-0.5-0.2-0.9-0.2c-0.3,0-0.6,0.1-0.9,0.2
		c-0.3,0.1-0.5,0.3-0.7,0.5s-0.4,0.4-0.5,0.7c-0.1,0.3-0.2,0.6-0.2,0.9s0.1,0.6,0.2,0.9s0.3,0.5,0.5,0.7s0.4,0.4,0.7,0.5
		s0.5,0.2,0.9,0.2c0.3,0,0.6-0.1,0.9-0.2s0.5-0.3,0.7-0.5s0.4-0.4,0.5-0.7c0.1-0.3,0.2-0.6,0.2-0.9s-0.1-0.6-0.2-0.8
		C59.6,89.5,59.4,89.3,59.2,89.1z M59.2,12.3c-0.2-0.2-0.4-0.4-0.7-0.5s-0.5-0.2-0.9-0.2c-0.3,0-0.6,0.1-0.9,0.2
		c-0.3,0.1-0.5,0.3-0.7,0.5s-0.4,0.4-0.5,0.7s-0.2,0.6-0.2,0.9s0.1,0.6,0.2,0.9c0.1,0.3,0.3,0.5,0.5,0.7s0.4,0.4,0.7,0.5
		c0.3,0.1,0.5,0.2,0.9,0.2c0.3,0,0.6-0.1,0.9-0.2c0.3-0.1,0.5-0.3,0.7-0.5s0.4-0.4,0.5-0.7s0.2-0.6,0.2-0.9c0-0.3-0.1-0.6-0.2-0.8
		C59.6,12.8,59.4,12.6,59.2,12.3z M66.7,126.5h2.6V126h-2.1v-2h2v-0.5h-2V122h2.1v-0.5h-2.6V126.5z M67.4,91.9h2.2l0.6,1.4h0.6
		L68.5,88l-2.3,5.3h0.6L67.4,91.9z M68.5,89.3l0.9,2h-1.7L68.5,89.3z M71.7,123.2c-0.4,0-0.7,0.2-0.9,0.5l0,0v-0.4h-0.5v3.2h0.5V125
		c0-0.6,0-1.2,0.8-1.2c0.6,0,0.7,0.5,0.7,1v1.8h0.5v-1.9C72.8,123.8,72.6,123.2,71.7,123.2z M59.2,100c-0.2-0.2-0.4-0.4-0.7-0.5
		s-0.5-0.2-0.9-0.2c-0.3,0-0.6,0.1-0.9,0.2c-0.3,0.1-0.5,0.3-0.7,0.5s-0.4,0.4-0.5,0.7c-0.1,0.3-0.2,0.6-0.2,0.9s0.1,0.6,0.2,0.9
		s0.3,0.5,0.5,0.7s0.4,0.4,0.7,0.5s0.5,0.2,0.9,0.2c0.3,0,0.6-0.1,0.9-0.2s0.5-0.3,0.7-0.5s0.4-0.4,0.5-0.7c0.1-0.3,0.2-0.6,0.2-0.9
		s-0.1-0.6-0.2-0.8C59.6,100.5,59.4,100.2,59.2,100z M59.2,23.3c-0.2-0.2-0.4-0.4-0.7-0.5s-0.5-0.2-0.9-0.2c-0.3,0-0.6,0.1-0.9,0.2
		c-0.3,0.1-0.5,0.3-0.7,0.5s-0.4,0.4-0.5,0.7c-0.1,0.3-0.2,0.6-0.2,0.9s0.1,0.6,0.2,0.9c0.1,0.3,0.3,0.5,0.5,0.7s0.4,0.4,0.7,0.5
		s0.5,0.2,0.9,0.2c0.3,0,0.6-0.1,0.9-0.2s0.5-0.3,0.7-0.5s0.4-0.4,0.5-0.7c0.1-0.3,0.2-0.6,0.2-0.9s-0.1-0.6-0.2-0.8
		C59.6,23.8,59.4,23.5,59.2,23.3z M33.8,16.4c-1.3,0-2.4,1.1-2.4,2.4s1.1,2.4,2.4,2.4s2.4-1.1,2.4-2.4S35.1,16.4,33.8,16.4z
		 M10.2,30.1c-1.3,0-2.4,1.1-2.4,2.4s1.1,2.4,2.4,2.4s2.4-1.1,2.4-2.4C12.6,31.1,11.5,30.1,10.2,30.1z M18.1,32.2
		c-1.3,0-2.4,1.1-2.4,2.4s1.1,2.4,2.4,2.4s2.4-1.1,2.4-2.4C20.5,33.2,19.4,32.2,18.1,32.2z M10.2,2.8c-1.3,0-2.4,1.1-2.4,2.4
		s1.1,2.4,2.4,2.4s2.4-1.1,2.4-2.4C12.6,3.8,11.5,2.8,10.2,2.8z M59.2,111c-0.2-0.2-0.4-0.4-0.7-0.5s-0.5-0.2-0.9-0.2
		c-0.3,0-0.6,0.1-0.9,0.2c-0.3,0.1-0.5,0.3-0.7,0.5s-0.4,0.4-0.5,0.7c-0.1,0.3-0.2,0.6-0.2,0.9s0.1,0.6,0.2,0.9s0.3,0.5,0.5,0.7
		s0.4,0.4,0.7,0.5s0.5,0.2,0.9,0.2c0.3,0,0.6-0.1,0.9-0.2s0.5-0.3,0.7-0.5s0.4-0.4,0.5-0.7c0.1-0.3,0.2-0.6,0.2-0.9
		s-0.1-0.6-0.2-0.8C59.6,111.5,59.4,111.2,59.2,111z M4.4,24.3c-1.3,0-2.4,1.1-2.4,2.4S3.1,29,4.4,29s2.4-1.1,2.4-2.4
		C6.8,25.4,5.7,24.3,4.4,24.3z M4.7,18.8c0-1.3-1.1-2.4-2.4-2.4S0,17.5,0,18.8s1.1,2.4,2.4,2.4S4.7,20.1,4.7,18.8z M92.2,16.6
		c0.9,0,1.7-0.7,1.7-1.7s-0.7-1.7-1.7-1.7s-1.7,0.8-1.7,1.7S91.2,16.6,92.2,16.6z M92.2,13.8c0.7,0,1.1,0.5,1.1,1.2
		s-0.5,1.2-1.1,1.2S91,15.6,91,14.9C91,14.3,91.5,13.8,92.2,13.8z M59.2,122c-0.2-0.2-0.4-0.4-0.7-0.5s-0.5-0.2-0.9-0.2
		c-0.3,0-0.6,0.1-0.9,0.2c-0.3,0.1-0.5,0.3-0.7,0.5s-0.4,0.4-0.5,0.7c-0.1,0.3-0.2,0.6-0.2,0.9s0.1,0.6,0.2,0.9s0.3,0.5,0.5,0.7
		s0.4,0.4,0.7,0.5s0.5,0.2,0.9,0.2c0.3,0,0.6-0.1,0.9-0.2s0.5-0.3,0.7-0.5s0.4-0.4,0.5-0.7c0.1-0.3,0.2-0.6,0.2-0.9
		s-0.1-0.6-0.2-0.8C59.6,122.4,59.4,122.2,59.2,122z M31.8,13.3c1.3,0,2.4-1.1,2.4-2.4s-1.1-2.4-2.4-2.4s-2.4,1.1-2.4,2.4
		S30.4,13.3,31.8,13.3z M26,2.8c-1.3,0-2.4,1.1-2.4,2.4s1.1,2.4,2.4,2.4s2.4-1.1,2.4-2.4C28.3,3.8,27.3,2.8,26,2.8z M31.8,24.3
		c-1.3,0-2.4,1.1-2.4,2.4s1.1,2.4,2.4,2.4s2.4-1.1,2.4-2.4C34.1,25.4,33.1,24.3,31.8,24.3z M26,30.1c-1.3,0-2.4,1.1-2.4,2.4
		s1.1,2.4,2.4,2.4s2.4-1.1,2.4-2.4C28.3,31.1,27.3,30.1,26,30.1z M67.4,48.7h2.2l0.6,1.4h0.6l-2.3-5.3l-2.3,5.3h0.6L67.4,48.7z
		 M68.5,46.1l0.9,2h-1.7L68.5,46.1z M87.7,82.7c0.6,0,1.2-0.3,1.5-0.9l-0.5-0.3c-0.2,0.4-0.5,0.6-1,0.6c-0.6,0-1-0.5-1-1h2.5
		c0-0.9-0.5-1.8-1.5-1.8s-1.5,0.8-1.5,1.7C86.1,82,86.7,82.7,87.7,82.7z M87.7,79.8c0.5,0,0.9,0.4,0.9,0.8h-1.9
		C86.8,80.2,87.2,79.8,87.7,79.8z M88.2,90.5c0.1,0,0.2,0.1,0.3,0.1l0.3-0.5C88.7,90,88.5,90,88.3,90c-0.4,0-0.5,0.2-0.7,0.4l0,0
		v-0.3H87v3.2h0.5v-1.6C87.6,91.3,87.6,90.5,88.2,90.5z M92.4,123.8L92.4,123.8c-0.3-0.3-0.7-0.5-1.1-0.5c-1,0-1.5,0.8-1.5,1.7
		c0,0.9,0.6,1.7,1.5,1.7c0.4,0,0.8-0.2,1.1-0.5l0,0v0.4H93v-5.5h-0.5L92.4,123.8L92.4,123.8z M91.4,126c-0.7,0-1-0.6-1-1.2
		s0.4-1.1,1-1.1c0.7,0,1.1,0.5,1.1,1.1C92.5,125.5,92.1,126,91.4,126z M89.5,104.3c0.4,0,0.8-0.2,1.1-0.5l0,0v0.4h0.5V101h-0.5v0.5
		l0,0c-0.3-0.3-0.6-0.5-1.1-0.5c-1,0-1.5,0.8-1.5,1.7C87.9,103.5,88.5,104.3,89.5,104.3z M89.5,101.5c0.7,0,1.1,0.5,1.1,1.1
		s-0.4,1.2-1,1.2c-0.7,0-1-0.6-1-1.2C88.5,102,88.9,101.5,89.5,101.5z M91.8,36.1L91.8,36.1c-0.3-0.3-0.7-0.5-1.1-0.5
		c-1,0-1.5,0.8-1.5,1.7s0.6,1.7,1.5,1.7c0.4,0,0.8-0.2,1.1-0.5l0,0v0.4h0.5v-5.5h-0.5V36.1L91.8,36.1z M90.8,38.3
		c-0.7,0-1-0.6-1-1.2c0-0.6,0.4-1.1,1-1.1c0.7,0,1.1,0.5,1.1,1.1C91.8,37.8,91.5,38.3,90.8,38.3z M95.9,125.1c0,0.5-0.1,1-0.7,1
		s-0.7-0.5-0.7-1v-1.8H94v1.8c0,0.8,0.3,1.4,1.2,1.4s1.2-0.6,1.2-1.4v-1.8h-0.5V125.1z M88.1,112.2c-0.9,0-1.7,0.8-1.7,1.7
		s0.7,1.7,1.7,1.7s1.7-0.7,1.7-1.7S89,112.2,88.1,112.2z M88.1,115.1c-0.7,0-1.1-0.5-1.1-1.2c0-0.6,0.5-1.2,1.1-1.2s1.1,0.5,1.1,1.2
		S88.8,115.1,88.1,115.1z M88.7,121.7c-0.2,0-0.4,0.2-0.4,0.4c0,0.2,0.2,0.4,0.4,0.4s0.4-0.2,0.4-0.4
		C89.1,121.9,88.9,121.7,88.7,121.7z M95.2,102.6c0-0.9-0.6-1.7-1.5-1.7c-0.4,0-0.8,0.2-1.1,0.5l0,0v-2.8h-0.5v5.5h0.5v-0.4l0,0
		c0.3,0.3,0.6,0.5,1.1,0.5C94.6,104.3,95.2,103.5,95.2,102.6z M92.6,102.6c0-0.6,0.4-1.1,1-1.1c0.7,0,1.1,0.5,1.1,1.1
		s-0.4,1.2-1,1.2C92.9,103.8,92.6,103.2,92.6,102.6z M100.3,79.4h-0.5v0.5l0,0c-0.3-0.3-0.6-0.5-1.1-0.5c-0.9,0-1.5,0.8-1.5,1.7
		c0,0.9,0.6,1.6,1.5,1.6c0.4,0,0.8-0.2,1.1-0.5l0,0v0.4c0,0.7-0.2,1.3-1,1.3c-0.6,0-1-0.4-1-1h-0.5c0,0.9,0.6,1.5,1.5,1.5
		c0.5,0,1-0.2,1.3-0.6s0.3-0.9,0.3-1.4L100.3,79.4L100.3,79.4z M98.8,82.2c-0.7,0-1-0.6-1-1.2s0.4-1.1,1-1.1c0.7,0,1.1,0.5,1.1,1.1
		C99.8,81.6,99.5,82.2,98.8,82.2z M97,91.7c0-0.9-0.7-1.7-1.7-1.7s-1.7,0.8-1.7,1.7c0,0.9,0.7,1.7,1.7,1.7S97,92.6,97,91.7z
		 M94.2,91.7c0-0.6,0.5-1.2,1.1-1.2c0.7,0,1.1,0.5,1.1,1.2s-0.5,1.2-1.1,1.2S94.2,92.4,94.2,91.7z M92.1,49.1l-1-2.1h-0.6l1.5,3.4
		l1.5-3.4H93L92.1,49.1z M91.3,57.4c-0.9,0-1.7,0.8-1.7,1.7s0.7,1.7,1.7,1.7s1.7-0.7,1.7-1.7C92.9,58.2,92.2,57.4,91.3,57.4z
		 M91.3,60.3c-0.7,0-1.1-0.5-1.1-1.2c0-0.6,0.5-1.2,1.1-1.2c0.7,0,1.1,0.5,1.1,1.2C92.4,59.7,91.9,60.3,91.3,60.3z M92.2,68.4
		c-1,0-1.5,0.8-1.5,1.7c0,0.9,0.6,1.6,1.5,1.6c0.6,0,1.2-0.3,1.5-0.9l-0.5-0.3c-0.2,0.4-0.5,0.6-1,0.6c-0.6,0-1-0.5-1-1h2.5
		C93.8,69.2,93.3,68.4,92.2,68.4z M91.3,69.7c0.1-0.5,0.5-0.8,1-0.8s0.9,0.4,0.9,0.8H91.3z M91.6,79.4v3.2h0.5V81
		c0-0.4,0-1.2,0.6-1.2c0.1,0,0.2,0.1,0.3,0.1l0.3-0.5c-0.1-0.1-0.3-0.1-0.5-0.1c-0.4,0-0.5,0.2-0.7,0.4l0,0v-0.3H91.6L91.6,79.4z
		 M98.8,123.2c-0.4,0-0.7,0.2-0.9,0.5l0,0v-0.4h-0.5v3.2h0.5V125c0-0.6,0-1.2,0.8-1.2c0.6,0,0.7,0.5,0.7,1v1.8h0.5v-1.9
		C99.9,123.8,99.7,123.2,98.8,123.2z M99.4,115.5h0.5v-3.2h-0.5V115.5z M93.6,57.5v3.2h0.5v-1.6c0-0.4,0-1.2,0.6-1.2
		c0.1,0,0.2,0.1,0.3,0.1l0.3-0.5c-0.1-0.1-0.3-0.1-0.5-0.1c-0.4,0-0.5,0.2-0.7,0.4l0,0v-0.3L93.6,57.5L93.6,57.5z M101.4,38
		l-0.5-0.3c-0.2,0.4-0.5,0.6-1,0.6c-0.6,0-1-0.5-1-1h2.5c0-0.9-0.5-1.8-1.5-1.8s-1.5,0.8-1.5,1.7s0.6,1.6,1.5,1.6
		C100.6,38.8,101.1,38.5,101.4,38z M100,36c0.5,0,0.9,0.4,0.9,0.8H99C99.1,36.4,99.5,36,100,36z M96.3,112.8L96.3,112.8
		c-0.3-0.3-0.7-0.5-1.1-0.5c-1,0-1.5,0.8-1.5,1.7c0,0.9,0.6,1.7,1.5,1.7c0.4,0,0.8-0.2,1.1-0.5l0,0v0.4h0.5v-3.2h-0.5V112.8
		L96.3,112.8z M95.2,115.1c-0.7,0-1-0.6-1-1.2s0.4-1.1,1-1.1c0.7,0,1.1,0.5,1.1,1.1C96.3,114.5,95.9,115.1,95.2,115.1z M93.7,48.6
		c0,0.9,0.7,1.7,1.7,1.7s1.7-0.7,1.7-1.7s-0.7-1.7-1.7-1.7S93.7,47.6,93.7,48.6z M95.4,47.4c0.7,0,1.1,0.5,1.1,1.2s-0.5,1.2-1.1,1.2
		s-1.1-0.5-1.1-1.2C94.2,47.9,94.7,47.4,95.4,47.4z M93.3,38.8h0.5v-3.2h-0.5V38.8z M97.2,57.5h-0.6v-1.1h-0.5v1.1h-0.3V58h0.3v2.7
		h0.5V58h0.6V57.5z M97,69.8c0-0.7-0.2-1.4-1.1-1.4c-0.4,0-0.7,0.2-0.9,0.5l0,0v-0.4h-0.5v3.2H95v-1.5c0-0.6,0-1.2,0.8-1.2
		c0.6,0,0.7,0.5,0.7,1v1.8H97V69.8L97,69.8z M93.6,90.1H93l-0.9,2.1l-0.9-2.1h-0.6l1.5,3.4L93.6,90.1z M79.7,112.2
		c-1,0-1.5,0.8-1.5,1.7c0,0.9,0.6,1.6,1.5,1.6c0.6,0,1.2-0.3,1.5-0.9l-0.5-0.3c-0.2,0.4-0.5,0.6-1,0.6c-0.6,0-1-0.5-1-1h2.5
		C81.3,113.1,80.7,112.2,79.7,112.2z M78.7,113.6c0.1-0.5,0.5-0.8,1-0.8s0.9,0.4,0.9,0.8H78.7z M106.1,16.6c0.6,0,1.2-0.3,1.5-0.9
		l-0.5-0.3c-0.2,0.4-0.5,0.6-1,0.6c-0.6,0-1-0.5-1-1.1h2.5c0-0.9-0.5-1.8-1.5-1.8s-1.5,0.8-1.5,1.7
		C104.6,15.9,105.2,16.6,106.1,16.6z M106.1,13.8c0.5,0,0.9,0.4,0.9,0.8h-1.9C105.2,14.2,105.7,13.8,106.1,13.8z M82.7,123.2
		c-0.4,0-0.7,0.2-0.9,0.5l0,0v-2.8h-0.5v5.5h0.5V125c0-0.6,0-1.2,0.8-1.2c0.6,0,0.7,0.5,0.7,1v1.8h0.5v-1.9
		C83.8,123.8,83.6,123.2,82.7,123.2z M105.9,27.6c0.4,0,0.8-0.2,1.1-0.5l0,0v0.4h0.5v-3.2H107v0.4l0,0c-0.3-0.3-0.6-0.5-1.1-0.5
		c-1,0-1.5,0.8-1.5,1.7C104.4,26.8,105,27.6,105.9,27.6z M106,24.7c0.7,0,1.1,0.5,1.1,1.1s-0.4,1.2-1,1.2c-0.7,0-1-0.6-1-1.2
		C105,25.3,105.4,24.7,106,24.7z M102.8,36L102.8,36v-0.4h-0.5v3.2h0.5v-1.5c0-0.6,0-1.2,0.8-1.2c0.6,0,0.7,0.5,0.7,1v1.8h0.5V37
		c0-0.7-0.2-1.4-1.1-1.4C103.3,35.5,103,35.7,102.8,36z M86,114.6c0-0.5-0.4-0.8-0.7-0.9c-0.4-0.1-0.7-0.3-0.7-0.5s0.2-0.4,0.4-0.4
		s0.4,0.1,0.4,0.3l0.5-0.2c-0.1-0.3-0.5-0.6-0.8-0.6c-0.5,0-0.9,0.4-0.9,0.9c0,1,1.4,0.8,1.4,1.5c0,0.3-0.2,0.5-0.5,0.5
		c-0.4,0-0.5-0.2-0.6-0.5l-0.5,0.2c0.2,0.5,0.6,0.8,1.1,0.8C85.5,115.6,86,115.1,86,114.6z M106.4,48.6c0,1,0.7,1.7,1.7,1.7
		c0.4,0,0.7-0.1,1-0.3v-0.7l0,0c-0.3,0.3-0.6,0.5-1,0.5c-0.7,0-1.1-0.5-1.1-1.2s0.5-1.2,1.1-1.2c0.4,0,0.7,0.2,1,0.5l0,0v-0.7
		c-0.3-0.2-0.6-0.3-1-0.3C107.2,46.9,106.4,47.6,106.4,48.6z M108.9,15c0-0.6,0-1.2,0.8-1.2c0.6,0,0.7,0.5,0.7,1v1.8h0.5v-1.9
		c0-0.7-0.2-1.4-1.1-1.4c-0.4,0-0.7,0.2-0.9,0.5l0,0v-0.4h-0.5v3.2h0.5V15L108.9,15z M95.5,27.1c-0.5,0-0.9-0.4-1-0.9L94,26.3
		c0.2,0.8,0.8,1.3,1.6,1.3c0.9,0,1.6-0.7,1.6-1.6c0-0.8-0.6-1.1-1.2-1.4l-0.3-0.1c-0.3-0.1-0.8-0.4-0.8-0.8c0-0.5,0.4-0.8,0.8-0.8
		s0.7,0.2,0.9,0.6l0.5-0.3c-0.3-0.5-0.8-0.8-1.3-0.8c-0.8,0-1.4,0.5-1.4,1.3c0,0.7,0.5,1,1.1,1.3l0.3,0.1c0.5,0.2,0.9,0.4,0.9,1
		C96.6,26.6,96.1,27.1,95.5,27.1z M93.2,34.4c0,0.2,0.2,0.4,0.4,0.4s0.4-0.2,0.4-0.4S93.8,34,93.6,34C93.4,34,93.2,34.2,93.2,34.4z
		 M95.1,14.9c0-0.5,0.1-1.1,0.7-1.1c0.5,0,0.6,0.6,0.6,0.9v1.8h0.5v-1.7c0-0.5,0.1-1.1,0.7-1.1c0.5,0,0.6,0.5,0.6,0.9v1.8h0.5v-1.9
		c0-0.7-0.2-1.3-1-1.3c-0.4,0-0.8,0.2-1,0.5c-0.2-0.3-0.5-0.5-0.9-0.5c-0.3,0-0.6,0.2-0.8,0.4l0,0v-0.3h-0.5v3.2H95L95.1,14.9
		L95.1,14.9z M100.3,14.9c0-0.5,0.1-1.1,0.7-1.1c0.5,0,0.6,0.6,0.6,0.9v1.8h0.5v-1.7c0-0.5,0.1-1.1,0.7-1.1c0.5,0,0.6,0.5,0.6,0.9
		v1.8h0.5v-1.9c0-0.7-0.2-1.3-1-1.3c-0.4,0-0.8,0.2-1,0.5c-0.2-0.3-0.5-0.5-0.9-0.5c-0.3,0-0.6,0.2-0.8,0.4l0,0v-0.3h-0.5v3.2h0.5
		L100.3,14.9L100.3,14.9z M97.6,25.9c0,0.9,0.7,1.7,1.7,1.7c0.4,0,0.7-0.1,1-0.3v-0.7l0,0c-0.3,0.3-0.6,0.5-1,0.5
		c-0.7,0-1.1-0.5-1.1-1.2s0.5-1.2,1.1-1.2c0.4,0,0.7,0.2,1,0.5l0,0v-0.7c-0.3-0.2-0.6-0.3-1-0.3C98.4,24.2,97.6,25,97.6,25.9z
		 M110.7,24.8c-0.2-0.3-0.5-0.5-0.9-0.5c-0.3,0-0.6,0.2-0.8,0.4l0,0v-0.3h-0.5v3.2h0.5V26c0-0.5,0.1-1.1,0.7-1.1
		c0.5,0,0.6,0.6,0.6,0.9v1.8h0.5v-1.7c0-0.5,0.1-1.1,0.7-1.1c0.5,0,0.6,0.5,0.6,0.9v1.8h0.5v-1.9c0-0.7-0.2-1.3-1-1.3
		C111.3,24.2,110.9,24.4,110.7,24.8z M101.1,22v5.5h0.5V26c0-0.6,0-1.2,0.8-1.2c0.6,0,0.7,0.5,0.7,1v1.8h0.5v-1.9
		c0-0.7-0.2-1.4-1.1-1.4c-0.4,0-0.7,0.2-0.9,0.5l0,0V22H101.1L101.1,22z M101.6,57.9L101.6,57.9v-0.4H101v3.2h0.5v-1.5
		c0-0.6,0-1.2,0.8-1.2c0.6,0,0.7,0.5,0.7,1v1.8h0.5v-1.9c0-0.7-0.2-1.4-1.1-1.4C102.1,57.4,101.8,57.6,101.6,57.9z M86.1,123.2
		c-1,0-1.5,0.8-1.5,1.7c0,0.9,0.6,1.6,1.5,1.6c0.6,0,1.2-0.3,1.5-0.9l-0.5-0.3c-0.2,0.4-0.5,0.6-1,0.6c-0.6,0-1-0.5-1-1h2.5
		C87.6,124.1,87.1,123.2,86.1,123.2z M85.1,124.5c0.1-0.5,0.5-0.8,1-0.8s0.9,0.4,0.9,0.8H85.1z M88.4,126.5H89v-3.2h-0.5L88.4,126.5
		L88.4,126.5z M104.3,49.7c-0.5,0-0.9-0.4-1-0.9l-0.5,0.2c0.2,0.8,0.8,1.3,1.6,1.3c0.9,0,1.6-0.7,1.6-1.6c0-0.8-0.6-1.1-1.2-1.4
		l-0.3-0.1c-0.3-0.1-0.8-0.4-0.8-0.8c0-0.5,0.4-0.8,0.8-0.8s0.7,0.2,0.9,0.5l0.5-0.3c-0.3-0.5-0.8-0.8-1.3-0.8
		c-0.8,0-1.4,0.5-1.4,1.3c0,0.7,0.5,1,1.1,1.3l0.3,0.1c0.5,0.2,0.9,0.4,0.9,1C105.4,49.3,104.9,49.7,104.3,49.7z M107.3,82.6v-1.9
		c0-0.7-0.2-1.4-1.1-1.4c-0.4,0-0.7,0.2-0.9,0.5l0,0v-0.4h-0.5v3.2h0.5v-1.5c0-0.6,0-1.2,0.8-1.2c0.6,0,0.7,0.5,0.7,1v1.8
		L107.3,82.6L107.3,82.6z M107.4,57.5h-0.5V58l0,0c-0.3-0.3-0.6-0.5-1.1-0.5c-0.9,0-1.5,0.8-1.5,1.7s0.6,1.6,1.5,1.6
		c0.4,0,0.8-0.2,1.1-0.5l0,0v0.4c0,0.7-0.2,1.3-1,1.3c-0.6,0-1-0.4-1-1h-0.5c0,0.9,0.7,1.5,1.5,1.5c0.5,0,0.9-0.2,1.2-0.6
		c0.3-0.4,0.3-0.9,0.3-1.4V57.5L107.4,57.5z M105.8,60.3c-0.7,0-1-0.6-1-1.2c0-0.6,0.4-1.1,1-1.1c0.7,0,1.1,0.5,1.1,1.1
		C106.9,59.7,106.5,60.3,105.8,60.3z M109.3,91.8c0-0.6,0-1.2,0.8-1.2c0.6,0,0.7,0.5,0.7,1v1.8h0.5v-1.9c0-0.7-0.2-1.4-1.1-1.4
		c-0.4,0-0.7,0.2-0.9,0.5l0,0v-2.8h-0.6v5.5h0.5L109.3,91.8L109.3,91.8z M109.8,44.6v5.5h0.5v-1.5c0-0.6,0-1.2,0.8-1.2
		c0.6,0,0.7,0.5,0.7,1v1.8h0.5v-1.9c0-0.7-0.2-1.4-1.1-1.4c-0.4,0-0.7,0.2-0.9,0.5l0,0v-2.8L109.8,44.6L109.8,44.6z M109.5,82.7
		c0.6,0,1.2-0.3,1.5-0.9l-0.5-0.3c-0.2,0.4-0.5,0.6-1,0.6c-0.6,0-1-0.5-1-1h2.5c0-0.9-0.5-1.8-1.5-1.8S108,80.1,108,81
		C108,82,108.6,82.7,109.5,82.7z M109.5,79.8c0.5,0,0.9,0.4,0.9,0.8h-1.9C108.6,80.2,109.1,79.8,109.5,79.8z M102.5,82.7
		c0.6,0,1.2-0.3,1.5-0.9l-0.5-0.3c-0.2,0.4-0.5,0.6-1,0.6c-0.6,0-1-0.5-1-1h2.5c0-0.9-0.5-1.8-1.5-1.8S101,80.1,101,81
		C101,82,101.6,82.7,102.5,82.7z M102.5,79.8c0.5,0,0.9,0.4,0.9,0.8h-1.9C101.6,80.2,102,79.8,102.5,79.8z M109.2,60.3
		c-0.4,0-0.5-0.2-0.6-0.5l-0.5,0.2c0.2,0.5,0.6,0.8,1.1,0.8c0.6,0,1.1-0.4,1.1-1c0-0.5-0.4-0.8-0.7-0.9c-0.4-0.1-0.7-0.3-0.7-0.5
		s0.2-0.4,0.4-0.4s0.4,0.1,0.4,0.3l0.5-0.2c-0.1-0.3-0.5-0.6-0.8-0.6c-0.5,0-0.9,0.4-0.9,0.9c0,1,1.4,0.8,1.4,1.5
		C109.7,60.1,109.5,60.3,109.2,60.3z"/>
	<path class="st1" d="M59.2,1.4C59,1.2,58.8,1,58.5,0.9S58,0.7,57.6,0.7c-0.3,0-0.6,0.1-0.9,0.2C56.4,1,56.2,1.2,56,1.4
		s-0.4,0.4-0.5,0.7S55.3,2.7,55.3,3s0.1,0.6,0.2,0.9c0.1,0.3,0.3,0.5,0.5,0.7s0.4,0.4,0.7,0.5s0.5,0.2,0.9,0.2
		c0.3,0,0.6-0.1,0.9-0.2s0.5-0.3,0.7-0.5s0.4-0.4,0.5-0.7s0.2-0.6,0.2-0.9s-0.1-0.6-0.2-0.8C59.6,1.8,59.4,1.6,59.2,1.4z M73.2,5.6
		c0.2,0.1,0.5,0.1,0.8,0.1c1,0,1.5-0.4,1.8-1.2h-1.2c-0.1,0.2-0.3,0.3-0.6,0.3c-0.5,0-0.7-0.3-0.7-0.8h2.6V3.9c0-0.3,0-0.6-0.1-0.8
		s-0.2-0.4-0.4-0.6S75,2.2,74.7,2.1C74.5,2,74.3,2,74,2s-0.6,0-0.8,0.1c-0.2,0.1-0.4,0.2-0.6,0.4s-0.3,0.4-0.4,0.6S72,3.6,72,3.9
		s0,0.5,0.1,0.8c0.1,0.2,0.2,0.4,0.4,0.6C72.8,5.4,73,5.5,73.2,5.6z M73.5,2.9c0.1-0.1,0.3-0.1,0.5-0.1s0.3,0.1,0.5,0.1
		c0.1,0.1,0.2,0.2,0.2,0.4h-1.4C73.3,3.2,73.4,3,73.5,2.9z M78.5,5.6l0.8-1.9l0.9,1.9H81l1.8-3.4h-1.4L80.6,4l-0.9-1.9H79l-0.9,1.8
		l-0.8-1.8h-1.4l1.8,3.4L78.5,5.6L78.5,5.6z M67.7,5.5c0.3,0.1,0.7,0.2,1.1,0.2c0.3,0,0.6,0,0.8-0.1s0.5-0.2,0.7-0.3
		c0.2-0.1,0.4-0.3,0.6-0.5s0.3-0.4,0.4-0.7c0.1-0.2,0.1-0.4,0.1-0.6c0-0.2,0-0.5,0-0.7h-2.6v1h1.1c0,0.1-0.1,0.3-0.1,0.4
		c-0.1,0.1-0.1,0.2-0.2,0.2c-0.1,0.1-0.2,0.1-0.3,0.1c-0.1,0-0.2,0-0.4,0c-0.2,0-0.4,0-0.6-0.1S68,4.2,67.9,4.1
		c-0.1-0.1-0.2-0.3-0.2-0.5c-0.1-0.2-0.1-0.4-0.1-0.6c0-0.2,0-0.4,0.1-0.6C67.8,2.2,67.8,2,68,1.9c0.1-0.1,0.2-0.2,0.4-0.3
		c0.2-0.1,0.3-0.1,0.5-0.1s0.5,0.1,0.6,0.2C69.7,1.8,69.8,2,70,2.3l1.2-0.5c-0.2-0.5-0.5-0.8-1-1.1s-0.9-0.3-1.4-0.3
		c-0.4,0-0.8,0.1-1.1,0.2c-0.3,0.1-0.6,0.3-0.9,0.5c-0.2,0.2-0.4,0.5-0.5,0.8S66.1,2.6,66.1,3s0.1,0.8,0.2,1.1s0.3,0.6,0.5,0.9
		C67.1,5.2,67.4,5.4,67.7,5.5z M83.3,5.2c0.2,0.2,0.3,0.3,0.5,0.4s0.4,0.1,0.7,0.1c0.4,0,0.8-0.2,1-0.5v0.4h1.2V2.1h-1.2v0.3
		C85.3,2.2,85,2,84.5,2c-0.3,0-0.5,0.1-0.7,0.1c-0.2,0.1-0.4,0.2-0.5,0.4S83,2.9,82.9,3.1s-0.1,0.5-0.1,0.7c0,0.3,0,0.5,0.1,0.7
		C83,4.8,83.2,5,83.3,5.2z M84.1,3.5c0-0.1,0.1-0.2,0.2-0.2s0.1-0.1,0.2-0.2S84.7,3,84.8,3s0.2,0,0.3,0.1s0.2,0.1,0.2,0.2
		c0.1,0.1,0.1,0.2,0.2,0.2c0,0.1,0.1,0.2,0.1,0.3s0,0.2-0.1,0.3s-0.1,0.2-0.2,0.2s-0.1,0.1-0.2,0.2S85,4.6,84.9,4.6s-0.2,0-0.3-0.1
		c-0.1,0-0.2-0.1-0.2-0.2c-0.1-0.1-0.1-0.2-0.2-0.2c0-0.1-0.1-0.2-0.1-0.3C84.1,3.7,84.1,3.6,84.1,3.5z M96.5,5.7
		c0.4,0,0.8-0.2,1-0.5v0.4h1.2V2.2h-1.2v0.3c-0.3-0.3-0.6-0.4-1.1-0.4c-0.3,0-0.5,0.1-0.7,0.1c-0.2,0.1-0.4,0.2-0.5,0.4
		C95.1,2.8,95,3,94.9,3.2s-0.1,0.5-0.1,0.7c0,0.3,0,0.5,0.1,0.7s0.2,0.4,0.4,0.6c0.2,0.2,0.3,0.3,0.5,0.4S96.2,5.7,96.5,5.7z
		 M96.1,3.6c0-0.1,0.1-0.2,0.2-0.2s0.1-0.1,0.2-0.2s0.2-0.1,0.3-0.1s0.2,0,0.3,0.1s0.2,0.1,0.2,0.2c0.1,0.1,0.1,0.2,0.2,0.2
		c0,0.1,0.1,0.2,0.1,0.3c0,0.1,0,0.2-0.1,0.3s-0.1,0.2-0.2,0.2s-0.1,0.1-0.2,0.2s-0.2,0.1-0.3,0.1s-0.2,0-0.3-0.1
		c-0.1,0-0.2-0.1-0.2-0.2c-0.1-0.1-0.1-0.2-0.2-0.2C96,4.1,96,4,96,3.9C96,3.8,96,3.7,96.1,3.6z M93.8,5.6V3.1h0.7v-1h-0.7v-1h-1.2
		v1h-0.4v1h0.4v2.4L93.8,5.6L93.8,5.6z M100.9,5.6V3.2h0.7v-1h-0.7v-1h-1.2v1h-0.4v1h0.4v2.4L100.9,5.6L100.9,5.6z M91.1,5.6V3.1
		h0.7v-1h-0.7v-1h-1.2v1h-0.4v1h0.4v2.4L91.1,5.6L91.1,5.6z M88.9,0h-1.2v5.6h1.2V0z M59.2,132.9c-0.2-0.2-0.4-0.4-0.7-0.5
		s-0.5-0.2-0.9-0.2c-0.3,0-0.6,0.1-0.9,0.2c-0.3,0.1-0.5,0.3-0.7,0.5s-0.4,0.4-0.5,0.7s-0.2,0.6-0.2,0.9s0.1,0.6,0.2,0.9
		s0.3,0.5,0.5,0.7s0.4,0.4,0.7,0.5s0.5,0.2,0.9,0.2c0.3,0,0.6-0.1,0.9-0.2s0.5-0.3,0.7-0.5s0.4-0.4,0.5-0.7s0.2-0.6,0.2-0.9
		c0-0.3-0.1-0.6-0.2-0.8C59.6,133.4,59.4,133.1,59.2,132.9z M18.1,0.7c-1.3,0-2.4,1.1-2.4,2.4s1.1,2.4,2.4,2.4s2.4-1.1,2.4-2.4
		S19.4,0.7,18.1,0.7z M94.5,132.6h-1.2v1h-0.4v1h0.4v2.4h1.2v-2.4h0.7v-1h-0.7V132.6z M101.6,133.7v-1h-1.2v1H100v1h0.4v2.4h1.2
		v-2.4h0.7v-1H101.6z M98.1,134c-0.3-0.3-0.6-0.5-1.1-0.5c-0.3,0-0.5,0-0.7,0.1s-0.4,0.2-0.5,0.4s-0.3,0.4-0.4,0.6s-0.1,0.5-0.1,0.7
		c0,0.3,0,0.5,0.1,0.7s0.2,0.4,0.4,0.6c0.2,0.2,0.3,0.3,0.5,0.4c0.2,0.1,0.4,0.1,0.7,0.1c0.4,0,0.8-0.2,1-0.5v0.4h1.2v-3.4H98
		L98.1,134L98.1,134z M98.1,135.7c0,0.1-0.1,0.2-0.2,0.2s-0.1,0.1-0.2,0.2s-0.2,0.1-0.3,0.1s-0.2,0-0.3-0.1c-0.1,0-0.2-0.1-0.2-0.2
		s-0.1-0.2-0.2-0.2c0-0.1-0.1-0.2-0.1-0.3s0-0.2,0.1-0.3s0.1-0.2,0.2-0.2c0.1-0.1,0.1-0.1,0.2-0.2s0.2-0.1,0.3-0.1s0.2,0,0.3,0.1
		s0.2,0.1,0.2,0.2s0.1,0.2,0.2,0.2c0,0.1,0.1,0.2,0.1,0.3S98.2,135.6,98.1,135.7z M82,133.7l-0.9,1.9l-0.9-1.9h-0.8l-0.9,1.8
		l-0.8-1.8h-1.4l1.8,3.4h0.8l0.8-1.9l0.9,1.9h0.8l1.8-3.4H82z M75.9,134.1c-0.2-0.2-0.4-0.3-0.6-0.4s-0.5-0.1-0.8-0.1
		s-0.6,0-0.8,0.1s-0.4,0.2-0.6,0.4s-0.3,0.4-0.4,0.6s-0.1,0.5-0.1,0.8s0,0.5,0.1,0.8c0.1,0.2,0.2,0.4,0.4,0.6
		c0.2,0.2,0.4,0.3,0.6,0.4c0.2,0.1,0.5,0.1,0.8,0.1c1,0,1.5-0.4,1.8-1.2h-1.2c-0.1,0.2-0.3,0.3-0.6,0.3c-0.5,0-0.7-0.3-0.7-0.8h2.6
		v-0.1c0-0.3,0-0.6-0.1-0.8C76.1,134.4,76,134.2,75.9,134.1z M73.8,134.9c0-0.2,0.1-0.3,0.2-0.4c0.1-0.1,0.3-0.1,0.5-0.1
		s0.3,0,0.5,0.1s0.2,0.2,0.2,0.4H73.8L73.8,134.9z M88.3,137.1h1.2v-5.6h-1.2V137.1z M86.1,134c-0.3-0.3-0.6-0.5-1.1-0.5
		c-0.3,0-0.5,0-0.7,0.1s-0.4,0.2-0.5,0.4s-0.3,0.4-0.4,0.6s-0.1,0.5-0.1,0.7c0,0.3,0,0.5,0.1,0.7s0.2,0.4,0.4,0.6
		c0.2,0.2,0.3,0.3,0.5,0.4c0.2,0.1,0.4,0.1,0.7,0.1c0.4,0,0.8-0.2,1-0.5v0.4h1.2v-3.4H86L86.1,134L86.1,134z M86.1,135.7
		c0,0.1-0.1,0.2-0.2,0.2s-0.1,0.1-0.2,0.2s-0.2,0.1-0.3,0.1s-0.2,0-0.3-0.1c-0.1,0-0.2-0.1-0.2-0.2s-0.1-0.2-0.2-0.2
		c0-0.1-0.1-0.2-0.1-0.3s0-0.2,0.1-0.3s0.1-0.2,0.2-0.2c0.1-0.1,0.1-0.1,0.2-0.2s0.2-0.1,0.3-0.1s0.2,0,0.3,0.1s0.2,0.1,0.2,0.2
		s0.1,0.2,0.2,0.2c0,0.1,0.1,0.2,0.1,0.3S86.2,135.6,86.1,135.7z M91.7,132.6h-1.2v1h-0.4v1h0.4v2.4h1.2v-2.4h0.7v-1h-0.7V132.6z
		 M69.4,135.3h1.1c0,0.1-0.1,0.3-0.1,0.4c-0.1,0.1-0.1,0.2-0.2,0.2c-0.1,0.1-0.2,0.1-0.3,0.1c-0.1,0-0.2,0-0.4,0
		c-0.2,0-0.4,0-0.6-0.1s-0.3-0.2-0.4-0.3s-0.2-0.3-0.2-0.5c-0.1-0.2-0.1-0.4-0.1-0.6c0-0.2,0-0.5,0.1-0.6c0.1-0.2,0.1-0.4,0.3-0.5
		c0.1-0.1,0.2-0.2,0.4-0.3s0.3-0.1,0.5-0.1s0.5,0.1,0.6,0.2c0.2,0.1,0.3,0.3,0.5,0.6l1.2-0.5c-0.2-0.5-0.5-0.8-1-1.1
		c-0.4-0.2-0.9-0.3-1.4-0.3c-0.4,0-0.8,0.1-1.1,0.2c-0.3,0.1-0.6,0.3-0.9,0.5c-0.2,0.2-0.4,0.5-0.5,0.8s-0.2,0.7-0.2,1.1
		c0,0.4,0.1,0.8,0.2,1.1s0.3,0.6,0.5,0.9c0.2,0.2,0.5,0.4,0.8,0.5s0.7,0.2,1.1,0.2c0.3,0,0.6,0,0.8-0.1c0.3-0.1,0.5-0.2,0.7-0.3
		s0.4-0.3,0.6-0.5s0.3-0.4,0.4-0.7c0.1-0.2,0.1-0.4,0.1-0.6c0-0.2,0-0.5,0-0.7h-2.6L69.4,135.3L69.4,135.3z"/>
</g>
</svg>
