<?xml version="1.0" encoding="utf-8"?>
<!-- Generator: Adobe Illustrator 18.1.1, SVG Export Plug-In . SVG Version: 6.00 Build 0)  -->
<!DOCTYPE svg PUBLIC "-//W3C//DTD SVG 1.1//EN" "http://www.w3.org/Graphics/SVG/1.1/DTD/svg11.dtd">
<svg version="1.1" id="Ebene_1" xmlns="http://www.w3.org/2000/svg" xmlns:xlink="http://www.w3.org/1999/xlink" x="0px" y="0px"
	 viewBox="0 0 183 183" enable-background="new 0 0 183 183" xml:space="preserve">
<g>
	<path fill="#C3161C" d="M91.5,182.5c50.3,0,91-40.7,91-91c0-50.3-40.7-91-91-91c-50.3,0-91,40.7-91,91
		C0.5,141.8,41.2,182.5,91.5,182.5"/>
	<path fill="#FFFFFF" d="M136.6,111c-1.6,0-2.9,1.3-2.9,2.9c0,1.6,1.3,2.9,2.9,2.9s2.9-1.3,2.9-2.9C139.5,112.2,138.2,111,136.6,111
		 M128.4,101.6h4v-4.1h-13v4.1h4v14.7h4.9V101.6z M112.1,97.5h-4.9v18.8h10.7v-4.1h-5.9V97.5z M95.4,109.3h-4.1l2-6h0L95.4,109.3z
		 M96.8,113l1.2,3.3h5.2l-7.1-18.8h-5.3l-7.2,18.8h5.2L90,113H96.8z M59.6,97.5h-5.1l5.6,18.8h5l3.7-10.9h0.1l3.3,10.9h5l6-18.8
		h-5.1l-3.5,12.1h0l-3.7-12.1h-3.9L63,109.6h0L59.6,97.5z M51.3,101.6v-4.1H40.6v18.8h10.7v-4.1h-5.8v-3.2H51v-4.1h-5.5v-3.1H51.3z
		 M26.9,105.8v3.8h4c-0.2,2.2-1.8,3.3-3.9,3.3c-3.2,0-5-3-5-5.9c0-2.9,1.7-5.9,4.9-5.9c2,0,3.4,1.2,4.1,3l4.6-1.9
		c-1.6-3.5-4.6-5.3-8.5-5.3c-6.1,0-10.2,4-10.2,10.1c0,5.9,4.1,9.9,10,9.9c3.1,0,5.9-1.1,7.8-3.7c1.7-2.3,1.9-4.7,1.9-7.4H26.9z"/>
	<path fill="#FFFFFF" d="M164,80.5c-1.6,0-2.9,1.3-2.9,2.9c0,1.6,1.3,2.9,2.9,2.9s2.9-1.3,2.9-2.9C166.9,81.8,165.6,80.5,164,80.5
		 M155.8,71.2h4v-4.1h-13v4.1h4v14.7h4.9V71.2z M132.3,74.8L132.3,74.8l-0.1-7.8h-4.9v18.8h4.9v-8.1h0.1l6.3,8.1h6.3l-8.1-9.9
		l7.5-8.9h-6.1L132.3,74.8z M120.9,67.1H116v18.8h4.9V67.1z M105.9,67.1H101v18.8h10.7v-4.1h-5.9V67.1z M96.3,71.2v-4.1H85.5v18.8
		h4.9v-7.4h5.4v-4.1h-5.4v-3.1H96.3z M61,85.8h4.9V74.3h0.1l8.9,11.5h4.9V67.1h-4.9v11.5h-0.1l-8.9-11.5H61V85.8z M46.4,71.2
		c2.9,0,5.3,2.4,5.3,5c0,3.2-2.4,5.6-5.3,5.6c-2.9,0-5.3-2.4-5.3-5.6C41.1,73.5,43.5,71.2,46.4,71.2 M46.4,66.4
		c-5.4,0-10.4,4-10.4,9.7c0,6.1,4.4,10.4,10.4,10.4c6,0,10.4-4.3,10.4-10.4C56.8,70.4,51.8,66.4,46.4,66.4 M22.8,74.8L22.8,74.8
		l-0.1-7.8h-4.9v18.8h4.9v-8.1h0.1l6.3,8.1h6.3l-8.1-9.9l7.5-8.9h-6.1L22.8,74.8z"/>
	<rect x="0.5" y="0.5" fill="none" width="182" height="182"/>
</g>
</svg>
