<svg viewBox="0 0 679.9 355.8" xmlns="http://www.w3.org/2000/svg"><g fill="#cd1719"><path d="M149.5 343.3c-.8-.5-1.7-.8-2.6-.8-2.5 0-4.5 1.9-4.5 4.4s1.9 4.4 4.5 4.4c1 0 1.8-.3 2.7-.9v-1.9c-.7.9-1.5 1.5-2.7 1.5-1.8 0-2.9-1.5-2.9-3.1 0-1.7 1.2-3.1 3-3.1 1.1 0 2 .6 2.6 1.4zm-15.1 2.7c.2-1.2 1.3-2.2 2.5-2.2s2.3 1 2.5 2.2zm6.5 1.2c.1-2.5-1.3-4.7-4-4.7-2.6 0-4.1 2-4.1 4.5 0 2.4 1.6 4.3 4.1 4.3 1.7 0 3.1-.9 3.9-2.4l-1.2-.7c-.5 1-1.3 1.7-2.5 1.7-1.6 0-2.7-1.2-2.8-2.8zm-12.6-9.6h-1.5v13.5h5.2v-1.4h-3.7zm-12.7 12.7l-2.7 5.5h1.6l6.2-13.1h-1.6l-2.7 6-3-6h-1.7zm-10.8-.5l6-7.1H103v1.3h4.9l-6.1 7.1h8.7v-1.3zm-6.4-7.1H97v8.4h1.4v-4.2c0-1.1.1-3.1 1.6-3.1.4 0 .6.2.9.4l.7-1.3c-.4-.2-.8-.4-1.3-.4-.9 0-1.4.5-1.9 1.1zM88.1 346c.2-1.2 1.3-2.2 2.6-2.2 1.2 0 2.3 1 2.5 2.2zm6.5 1.2c.1-2.5-1.3-4.7-4-4.7-2.6 0-4.1 2-4.1 4.5 0 2.4 1.6 4.3 4.1 4.3 1.7 0 3.1-.9 3.9-2.4l-1.2-.7c-.6 1-1.3 1.7-2.6 1.7-1.6 0-2.7-1.2-2.8-2.8zm-10.1-9.6H83v10.7c0 1 0 2.8-1.5 2.8-.7 0-1.1-.3-1.6-.8l-.8 1.2c.7.6 1.5 1 2.4 1s1.8-.4 2.3-1.1c.7-.9.7-2 .7-3.1zm-20.2 5.1h-1.6l4.1 9 2.6-6.2 2.6 6.2 4.2-9h-1.6l-2.5 5.7-2.6-6.3-2.6 6.3zm-3.7 0h-1.4v1.2c-.7-.9-1.7-1.4-2.9-1.4-2.5 0-4 2-4 4.5 0 2.3 1.6 4.4 4 4.4 1.2 0 2.2-.5 2.9-1.4v1.2h1.4zm-4.2 1.1c1.8 0 2.8 1.4 2.8 3 0 1.7-1 3.2-2.8 3.2s-2.8-1.5-2.8-3.2c.1-1.6 1.1-3 2.8-3m-6.6-7.4h-1.4v14.7h1.4zm-4.4 7.6c-.4-.9-1.3-1.5-2.2-1.5-1.4 0-2.5 1-2.5 2.4 0 2.6 3.8 2 3.8 3.9 0 .8-.6 1.3-1.4 1.3-.9 0-1.4-.5-1.7-1.3l-1.3.5c.4 1.3 1.6 2.1 3 2.1 1.6 0 2.8-1.1 2.8-2.7 0-1.4-1-2-1.9-2.4-1-.4-1.9-.7-1.9-1.5 0-.5.5-.9 1-.9s.9.4 1.1.9zm-8.5-5.5c-.6 0-1 .5-1 1 0 .6.5 1 1 1 .6 0 1-.5 1-1s-.5-1-1-1m.7 4.2h-1.4v8.4h1.4zm-10 0h-1.4v8.4h1.4v-4c0-1.5.1-3.3 2.1-3.3 1.7 0 1.8 1.2 1.8 2.6v4.7h1.4v-5c0-2-.5-3.6-2.9-3.6-1 0-1.8.5-2.4 1.2zm-4.5 0h-1.4v1.2c-.7-.9-1.7-1.4-2.9-1.4-2.5 0-4 2-4 4.5 0 2.3 1.6 4.4 4 4.4 1.2 0 2.2-.5 2.9-1.4v1.2h1.4zm-4.2 1.1c1.8 0 2.8 1.4 2.8 3 0 1.7-1 3.2-2.8 3.2s-2.8-1.5-2.8-3.2c.1-1.6 1.2-3 2.8-3m-6.7.2h1.5v-1.3h-1.5v-3h-1.4v3h-.9v1.3h.9v7.1h1.4zM8 339.5c-.7-1.3-2-2.1-3.5-2.1-2 0-3.8 1.3-3.8 3.4 0 1.9 1.4 2.7 2.9 3.5l.8.4c1.2.6 2.5 1.1 2.5 2.7 0 1.5-1.3 2.6-2.8 2.6s-2.5-1.1-2.7-2.5l-1.4.4c.4 2.1 2 3.5 4.2 3.5 2.3 0 4.2-1.8 4.2-4.2 0-2.1-1.5-3-3.2-3.8l-.9-.4c-.9-.4-2.1-1-2.1-2.1 0-1.2 1-2.1 2.2-2.1 1.1 0 1.8.5 2.3 1.5zM531.5 310.8c.5 1.1 1.1 2 1.9 2.9.8.8 1.8 1.5 2.9 1.9 1.1.5 2.2.7 3.5.7s2.4-.2 3.5-.7 2-1.1 2.9-1.9c.8-.8 1.5-1.8 1.9-2.9.5-1.1.7-2.2.7-3.5s-.2-2.4-.7-3.5-1.1-2-1.9-2.9c-.8-.8-1.8-1.5-2.9-1.9-1.1-.5-2.2-.7-3.5-.7s-2.4.2-3.5.7-2 1.1-2.9 1.9-1.5 1.8-1.9 2.9c-.5 1.1-.7 2.2-.7 3.5s.3 2.4.7 3.5m-49.7 3.8v-35.1l27.6 35.1h14.9v-57.5h-14.9v35.1l-27.6-35.1h-14.9v57.5zm-23.4-57.4h-32.7v57.5h32.7V302h-17.8v-9.9h16.8v-12.6h-16.8v-9.6h17.8zM388.9 294h12.3c-.2 1.7-.7 3.1-1.5 4.3-.7 1.2-1.6 2.1-2.7 2.9-1.1.7-2.3 1.3-3.7 1.6s-2.8.5-4.3.5c-2.5 0-4.7-.4-6.5-1.3s-3.5-2-4.7-3.5c-1.3-1.5-2.2-3.3-2.9-5.4-.6-2.1-1-4.3-1-6.8 0-2.7.4-5.1 1.1-7.3s1.8-4 3-5.6c1.3-1.5 2.9-2.7 4.7-3.6s3.9-1.3 6.1-1.3c2.7 0 5.1.7 7.2 2.1s3.8 3.6 5.1 6.8l14.2-5.9c-2.6-5.4-6.2-9.5-10.7-12s-9.8-3.9-15.8-3.9c-4.6 0-8.8.7-12.6 2.2s-7 3.5-9.6 6.2-4.7 5.8-6.2 9.6-2.2 7.8-2.2 12.3.7 8.6 2.2 12.4c1.5 3.7 3.5 6.9 6.2 9.6s5.8 4.7 9.5 6.2 7.8 2.2 12.2 2.2c3.2 0 6.3-.4 9.3-1.2s5.7-2 8.1-3.5c2.5-1.5 4.6-3.5 6.4-5.8s3.3-5 4.3-8c.8-2.1 1.3-4.4 1.5-6.9s.4-5.3.4-8.3h-29.6zm-79.7 20.6v-35.1l27.6 35.1h14.9v-57.5h-14.9v35.1l-27.6-35.1h-14.9v57.5zm-74.7-57.4v33.3c0 8.9 2.1 15.5 6.2 19.6s10.4 6.2 18.9 6.2 14.8-2.1 18.9-6.2 6.1-10.6 6.1-19.6v-33.3h-14.9v31.2c0 1.7-.1 3.4-.2 5.1s-.5 3.3-1.2 4.8c-.7 1.4-1.7 2.6-3 3.5-1.4.9-3.3 1.3-5.8 1.3s-4.4-.4-5.8-1.3-2.4-2-3-3.5c-.6-1.4-1-3-1.1-4.8s-.2-3.5-.2-5.1v-31.2zm-7.4 12.6v-12.6h-39.5v12.6h12.3v44.8h14.9v-44.8zm-83.4-12.6h-14.9v57.5h14.9V291h21.6v23.7h14.9v-57.5h-14.9v22.2h-21.6zm-24.5 1.3c-2.4-1-4.8-1.8-7-2.2-2.2-.5-4.5-.7-6.7-.7-4 0-7.9.8-11.5 2.2-3.7 1.5-6.9 3.6-9.6 6.2s-5 5.8-6.6 9.5-2.5 7.7-2.5 12.1.8 8.5 2.5 12.2 3.9 7 6.7 9.7 6 4.8 9.6 6.3 7.4 2.2 11.4 2.2c1.9 0 3.9-.2 5.9-.6s4.1-1 6.4-1.8l1.5-.5v-17.7c-3.8 4.1-8.1 6.1-12.9 6.1-2.2 0-4.2-.4-6.1-1.2s-3.5-1.9-4.9-3.4c-1.4-1.4-2.5-3.1-3.3-5s-1.2-4-1.2-6.3c0-2.2.4-4.3 1.2-6.2s1.9-3.6 3.2-5c1.4-1.4 3-2.5 4.9-3.3s4-1.2 6.2-1.2c5.1 0 9.3 2.1 12.8 6.3zm-66.8 56.1h14.9v-57.5H52.4zm-21.7-23.5c4.1-1 7.2-2.8 9.3-5.5s3.2-6.3 3.2-10.6c0-2.4-.4-4.7-1.2-6.9-.8-2.1-2-4-3.5-5.6-1.6-1.6-3.5-2.9-5.9-3.9-2.4-.9-5.2-1.4-8.4-1.4H1v57.5h14.9v-22.1l14.2 22.1h18.6zm-14.8-22.4h2.8c2.9 0 5.2.6 6.8 1.8s2.4 3 2.4 5.3-.8 4-2.4 5.3-3.8 1.8-6.8 1.8h-2.8zM349.4 205.3c4.1-1 7.2-2.8 9.3-5.5s3.2-6.3 3.2-10.6c0-2.4-.4-4.7-1.2-6.9-.8-2.1-2-4-3.5-5.6s-3.5-2.9-5.9-3.9c-2.4-.9-5.2-1.4-8.4-1.4h-23.2v57.5h14.9v-22.1l14.2 22.1h18.6zm-14.7-22.4h2.8c3 0 5.2.6 6.8 1.8s2.4 3 2.4 5.3-.8 4-2.4 5.3-3.8 1.8-6.8 1.8h-2.8zm-35.2 46h15.9l-21.9-57.5h-16.3l-21.9 57.5h15.9l3.4-10h21.3zm-20.8-21.3l6.7-19.1 6.7 19.1zm-40.3 21.3h15.9l-21.9-57.5h-16.3l-21.9 57.5h15.9l3.4-10H235zm-20.8-21.3l6.7-19.1 6.7 19.1zm-47.5 2.2h8.8c6.5 0 11.4-1.7 14.8-5s5.1-8.1 5.1-14.2-1.7-10.8-5.1-14.2-8.4-5-14.8-5h-23.8v57.5H170v-19.1zm0-26.3h5c5.5 0 8.2 2.4 8.2 7.2s-2.7 7.2-8.2 7.2h-5zm-84.5 45.4v-35.1l27.6 35.1H128v-57.5h-14.9v35.1l-27.6-35.1H70.7v57.5zm-41.9 0h14.9v-57.5H43.7zm-10-57.5H1v57.5h32.7v-12.6H15.9v-9.9h16.8v-12.6H15.9v-9.6h17.8zM475.4 143.2v-35.1l27.6 35.1h14.9V85.7H503v35.1l-27.6-35.1h-14.9v57.5zm-36.2-23.6c4.1-1 7.2-2.8 9.3-5.5s3.2-6.3 3.2-10.6c0-2.4-.4-4.7-1.2-6.9-.8-2.1-2-4-3.5-5.6s-3.5-2.9-5.9-3.9c-2.4-.9-5.2-1.4-8.4-1.4h-23.2v57.5h14.9v-22.1l14.2 22.1h18.6zm-14.8-22.4h2.8c3 0 5.2.6 6.8 1.8s2.4 3 2.4 5.3-.8 4-2.4 5.3c-1.6 1.2-3.8 1.8-6.8 1.8h-2.8zm-24.9-11.5h-32.7v57.5h32.7v-12.6h-17.8v-9.9h16.8V108h-16.8v-9.6h17.8zm-92.5 0V119c0 8.9 2.1 15.5 6.2 19.6s10.4 6.2 18.9 6.2 14.8-2.1 18.9-6.2 6.1-10.6 6.1-19.6V85.7h-14.9V117c0 1.7-.1 3.4-.2 5.1s-.5 3.3-1.2 4.8c-.7 1.4-1.7 2.6-3 3.5-1.4.9-3.3 1.3-5.8 1.3s-4.4-.4-5.8-1.3-2.4-2-3-3.5c-.6-1.4-1-3-1.1-4.8s-.2-3.5-.2-5.1V85.7zm-17.1 57.5h15.9L284 85.7h-16.3l-21.9 57.5h15.9l3.4-10h21.3zm-20.8-21.4l6.7-19.1 6.7 19.1zm-58.4-36.1v57.5h32.8v-12.6h-17.9V85.7zm-27.4 0h-32.7v57.5h32.7v-12.6h-17.8v-9.9h16.8V108h-16.8v-9.6h17.8zm-74.2 0h-15v57.5H109v-24.9l19.4 24.9h19.4l-24.9-30.3 22.8-27.2h-18.4l-18.2 23.7zm-24.8 1.4c-2.4-1-4.8-1.8-7-2.2-2.2-.5-4.5-.7-6.7-.7-4 0-7.9.8-11.5 2.2-3.7 1.5-6.9 3.6-9.6 6.2s-5 5.8-6.6 9.5-2.5 7.7-2.5 12.1.8 8.5 2.5 12.2 3.9 7 6.7 9.7 6 4.8 9.6 6.3 7.4 2.2 11.4 2.2c1.9 0 3.9-.2 5.9-.6s4.1-1 6.4-1.8l1.5-.5V124c-3.8 4.1-8.1 6.1-12.9 6.1-2.2 0-4.2-.4-6.1-1.2s-3.5-1.9-4.9-3.4c-1.4-1.4-2.5-3.1-3.3-5s-1.2-4-1.2-6.3c0-2.2.4-4.3 1.2-6.2s1.9-3.6 3.2-5c1.4-1.4 3-2.5 4.9-3.3s4-1.2 6.2-1.2c5.1 0 9.4 2.1 12.8 6.3zm-50.6-1.4H1v57.5h32.7v-12.6H15.9v-9.9h16.8V108H15.9v-9.6h17.8zM519.9 33.9c4.1-1 7.2-2.8 9.3-5.5s3.2-6.3 3.2-10.6c0-2.4-.4-4.7-1.2-6.9-.8-2.1-2-4-3.5-5.6s-3.5-2.9-5.9-3.8-5.2-1.4-8.4-1.4h-23.2v57.5h14.9V35.3l14.2 22.1H538zm-14.8-22.4h2.8c3 0 5.2.6 6.8 1.8s2.4 3 2.4 5.3-.8 4-2.4 5.3c-1.6 1.2-3.8 1.8-6.8 1.8h-2.8zM480.2 0h-32.7v57.5h32.7V44.8h-17.8v-9.9h16.8V22.3h-16.8v-9.6h17.8zm-90.3 57.5H412c4 0 7.7-.8 11.1-2.4s6.4-3.7 9-6.3 4.6-5.7 6-9.2 2.2-7.1 2.2-10.9-.7-7.4-2.2-10.9-3.5-6.5-6.1-9.1-5.6-4.7-9-6.3C419.6.8 416 0 412 0h-22.1zm15-44.8h3.4c2.5 0 4.8.4 6.9 1.2 2 .8 3.7 1.9 5.1 3.4 1.4 1.4 2.5 3.1 3.2 5.1.8 2 1.1 4.1 1.1 6.4s-.4 4.5-1.1 6.4c-.7 2-1.8 3.6-3.2 5.1-1.4 1.4-3.1 2.5-5.1 3.4-2 .8-4.3 1.2-6.9 1.2h-3.4zM380 0h-32.7v57.5H380V44.8h-17.8v-9.9H379V22.3h-16.8v-9.6H380zm-57.5 0v39.6c0 4.4-1.4 6.6-4.2 6.6-1.3 0-2.3-.5-3.2-1.5s-1.4-2.4-1.7-4.1l-9.8 10c3.9 5.6 8.9 8.5 15 8.5 2 0 4-.3 5.8-.8s3.5-1.3 5.1-2.2c1.5-.9 2.9-2.1 4-3.4 1.1-1.4 2-2.8 2.7-4.5.4-1 .7-2.2.9-3.7.2-1.4.3-3 .3-4.6V0zm-49 33.9c4.1-1 7.2-2.8 9.3-5.5s3.2-6.3 3.2-10.6c0-2.4-.4-4.7-1.2-6.9-.8-2.1-2-4-3.5-5.6s-3.5-2.9-5.9-3.8c-2.4-1-5.1-1.5-8.3-1.5h-23.2v57.5h14.9V35.3L273 57.5h18.6zm-14.7-22.4h2.8c3 0 5.2.6 6.8 1.8s2.4 3 2.4 5.3-.8 4-2.4 5.3c-1.6 1.2-3.8 1.8-6.8 1.8h-2.8zM234.6 0h-32.7v57.5h32.7V44.8h-17.8v-9.9h16.8V22.3h-16.8v-9.6h17.8zm-40.1 12.7V0H155v12.7h12.3v44.8h14.9V12.7zM106 57.5V22.3l27.6 35.1h14.9V0h-14.9v35.1L106 0H91.1v57.4H106zm-41.9 0H79V0H64.1zM15.9 0H1v57.5h14.9V33.8h21.6v23.7h14.9V0H37.5v22.2H15.9z"/></g></svg>