<svg viewBox="0 0 679.2 146.4" xmlns="http://www.w3.org/2000/svg"><g fill="#cd1719"><path d="M284.9 140.9c.5 1.1 1.1 2 1.9 2.9.8.8 1.8 1.5 2.9 1.9 1.1.5 2.2.7 3.5.7s2.4-.2 3.5-.7 2-1.1 2.9-1.9c.8-.8 1.5-1.8 1.9-2.9.5-1.1.7-2.2.7-3.5s-.2-2.4-.7-3.5-1.1-2-1.9-2.9c-.8-.8-1.8-1.5-2.9-1.9-1.1-.5-2.2-.7-3.5-.7s-2.4.2-3.5.7-2 1.1-2.9 1.9-1.5 1.8-1.9 2.9-.7 2.2-.7 3.5.3 2.4.7 3.5m-49.7 3.9v-35.1l27.6 35.1h14.9V87.3h-14.9v35.1l-27.6-35.1h-14.9v57.5zm-24.9-57.5h-32.7v57.5h32.7v-12.6h-17.8v-9.9h16.8v-12.7h-16.8V100h17.8zM170.2 100V87.3h-39.5V100H143v44.8h14.9V100zm-44.5 0V87.3H86.2V100h12.3v44.8h14.9V100zM81.6 87.3H49v57.5h32.7v-12.6H63.9v-9.9h16.8v-12.7H63.9V100h17.8V87.3zM30 121.2c4.1-1 7.2-2.8 9.3-5.5s3.2-6.3 3.2-10.6c0-2.4-.4-4.7-1.2-6.9-.8-2.1-2-4-3.5-5.6-1.6-1.6-3.5-2.9-5.9-3.9-2.4-.9-5.2-1.4-8.4-1.4H.3v57.5h14.9v-22.1l14.2 22.1H48zM15.2 98.8H18c2.9 0 5.2.6 6.8 1.8s2.4 3 2.4 5.3-.8 4-2.4 5.3S21 113 18 113h-2.8zM528.2 59.1V23.9L555.8 59h14.9V1.6h-14.9v35.1L528.2 1.6h-14.9v57.5zM503.3 1.6h-32.7V59h32.7V46.4h-17.8v-9.9h16.8V23.9h-16.8v-9.6h17.8zM433 38.5h12.3c-.2 1.7-.7 3.1-1.5 4.3-.7 1.2-1.6 2.1-2.7 2.9s-2.3 1.3-3.7 1.6-2.8.5-4.3.5c-2.5 0-4.7-.4-6.5-1.3s-3.5-2-4.7-3.5c-1.3-1.5-2.2-3.3-2.9-5.4-.6-2.1-1-4.3-1-6.8 0-2.7.4-5.1 1.1-7.3s1.8-4 3-5.6c1.3-1.5 2.9-2.7 4.7-3.6s3.9-1.3 6.1-1.3c2.7 0 5.1.7 7.2 2.1s3.8 3.6 5.1 6.8l14.2-5.9c-2.6-5.4-6.2-9.4-10.7-12s-9.6-4-15.6-4c-4.6 0-8.8.7-12.6 2.2s-7 3.5-9.6 6.2c-2.7 2.6-4.7 5.8-6.2 9.6s-2.2 7.8-2.2 12.3.7 8.6 2.2 12.4c1.5 3.7 3.5 6.9 6.2 9.6 2.6 2.7 5.8 4.7 9.5 6.2s7.8 2.2 12.2 2.2c3.2 0 6.3-.4 9.3-1.2s5.7-2 8.1-3.5c2.5-1.5 4.6-3.5 6.4-5.8s3.3-5 4.3-8c.8-2.1 1.3-4.4 1.5-6.9s.4-5.3.4-8.3H433zm-81.2 20.6V23.9L379.4 59h14.9V1.6h-14.9v35.1L351.8 1.6h-14.9v57.5zM275.6 1.6v33.3c0 8.9 2.1 15.5 6.2 19.6s10.4 6.2 18.9 6.2 14.8-2.1 18.9-6.2 6.1-10.6 6.1-19.6V1.6h-14.9v31.2c0 1.7-.1 3.4-.2 5.1s-.5 3.3-1.2 4.8-1.7 2.6-3 3.5c-1.4.9-3.3 1.3-5.8 1.3s-4.4-.4-5.8-1.3-2.4-2-3-3.5c-.6-1.4-1-3-1.1-4.8s-.2-3.5-.2-5.1V1.6zm-47.8 0h-14.9V59h14.9V35.4h21.6v23.7h14.9V1.6h-14.9v22.2h-21.6zm-24.9 0h-32.7V59h32.7V46.4h-17.8v-9.9h16.8V23.9h-16.8v-9.6h17.8zM144 59.1h14.9V1.6H144zm-6.4-57.5H90v12.7h22.6L85.5 59.1h49.1V46.4h-24.1zm-55.7 0H49.2V59h32.7V46.4H64.1v-9.9h16.8V23.9H64.1v-9.6h17.8zM.3 59.1h24c3.1 0 5.8-.4 8.2-1.1s4.5-1.8 6.2-3.2 3-3.2 4-5.3c.9-2.1 1.4-4.5 1.4-7.2 0-1.7-.2-3.4-.6-4.9s-1.1-2.9-2-4.1-2.2-2.2-3.7-3.1-3.3-1.5-5.4-1.9c2.1-1.3 3.7-2.9 4.8-4.8 1-1.9 1.6-4.3 1.6-7.2 0-4.8-1.4-8.4-4.1-11-2.7-2.5-6.8-3.8-12-3.8H.3zM15.2 13H18c4.7 0 7 1.9 7 5.6s-2.3 5.6-7 5.6h-2.7V13zm0 22.3h3.3c3.8 0 6.4.5 8.1 1.5 1.6 1 2.4 2.5 2.4 4.6s-.8 3.7-2.4 4.6-4.3 1.5-8.1 1.5h-3.3z"/></g></svg>