<svg xmlns="http://www.w3.org/2000/svg" width="841.89" height="530.64" viewBox="0 0 841.89 530.64"><g fill="#CD1719"><path d="M154.7 366.054c-.75-.54-1.68-.84-2.59-.84-2.46 0-4.48 1.93-4.48 4.43 0 2.54 1.93 4.43 4.46 4.43 1 0 1.84-.3 2.66-.86v-1.91h-.04c-.7.91-1.54 1.45-2.73 1.45-1.75 0-2.89-1.45-2.89-3.11 0-1.68 1.23-3.11 2.96-3.11 1.12 0 1.95.57 2.61 1.41h.04v-1.89zm-15.16 2.68c.18-1.21 1.32-2.2 2.55-2.2 1.25 0 2.27.98 2.46 2.2h-5.01zm6.52 1.22c.14-2.5-1.29-4.73-3.98-4.73-2.62 0-4.07 2.05-4.07 4.54 0 2.41 1.61 4.32 4.11 4.32 1.71 0 3.07-.86 3.88-2.36l-1.21-.7c-.55 1-1.34 1.73-2.55 1.73-1.62 0-2.73-1.25-2.75-2.8h6.57zm-12.59-9.58h-1.5v13.46h5.21v-1.38h-3.71v-12.08zm-12.67 12.68l-2.71 5.5h1.62l6.2-13.11h-1.62l-2.71 6.02-2.97-6.02h-1.66l3.85 7.61zm-10.83-.53l6.04-7.07h-7.8v1.32h4.93l-6.05 7.07h8.68v-1.32h-5.8zm-6.42-7.07h-1.43v8.39h1.43v-4.2c0-1.09.07-3.11 1.64-3.11.38 0 .57.18.86.38l.68-1.3c-.41-.23-.8-.39-1.29-.39-.93 0-1.36.48-1.86 1.14h-.03v-.91zm-10.29 3.28c.18-1.21 1.32-2.2 2.55-2.2 1.25 0 2.27.98 2.46 2.2h-5.01zm6.52 1.22c.14-2.5-1.29-4.73-3.98-4.73-2.62 0-4.07 2.05-4.07 4.54 0 2.41 1.61 4.32 4.11 4.32 1.72 0 3.07-.86 3.88-2.36l-1.21-.7c-.55 1-1.34 1.73-2.55 1.73-1.62 0-2.73-1.25-2.75-2.8h6.57zm-10.14-9.58h-1.5v10.66c0 1.05 0 2.8-1.46 2.8-.7 0-1.11-.32-1.59-.77l-.84 1.16c.68.57 1.5 1 2.39 1 .91 0 1.77-.38 2.32-1.11.68-.89.68-2.02.68-3.09v-10.65zm-20.14 5.08h-1.62l4.12 8.98 2.59-6.25 2.59 6.25 4.16-8.98h-1.62l-2.5 5.68-2.62-6.32-2.61 6.32-2.49-5.68zm-3.77 0H64.3v1.2h-.04c-.7-.89-1.73-1.43-2.88-1.43-2.52 0-4.04 2.05-4.04 4.45 0 2.32 1.55 4.41 4.02 4.41 1.18 0 2.16-.46 2.89-1.39h.04v1.16h1.43v-8.4h.01zm-4.18 1.09c1.77 0 2.82 1.36 2.82 3.03 0 1.7-.96 3.18-2.8 3.18-1.79 0-2.75-1.55-2.75-3.2 0-1.57 1.07-3.01 2.73-3.01m-6.59-7.43h-1.43v14.73h1.43v-14.73zm-4.37 7.66c-.38-.88-1.27-1.55-2.23-1.55-1.36 0-2.5.96-2.5 2.38 0 2.64 3.79 2 3.79 3.88 0 .77-.59 1.29-1.36 1.29-.95 0-1.36-.55-1.71-1.34l-1.27.54c.45 1.32 1.55 2.12 2.96 2.12 1.55 0 2.84-1.14 2.84-2.73 0-1.41-.96-2-1.95-2.41-.98-.41-1.95-.7-1.95-1.46 0-.54.54-.93 1.04-.93.52 0 .95.41 1.14.86l1.2-.65zm-8.55-5.5c-.55 0-1.02.46-1.02 1.02 0 .57.46 1.02 1.02 1.02.55 0 1.02-.45 1.02-1.02-.01-.56-.47-1.02-1.02-1.02m.71 4.18h-1.43v8.39h1.43v-8.39zm-9.96 0h-1.43v8.39h1.43v-3.98c0-1.5.12-3.32 2.09-3.32 1.66 0 1.77 1.21 1.77 2.57v4.73h1.43v-4.98c0-1.96-.54-3.64-2.86-3.64-1.04 0-1.8.45-2.39 1.25h-.04v-1.02zm-4.52 0h-1.43v1.2h-.04c-.7-.89-1.73-1.43-2.88-1.43-2.52 0-4.04 2.05-4.04 4.45 0 2.32 1.55 4.41 4.02 4.41 1.18 0 2.16-.46 2.89-1.39h.04v1.16h1.43v-8.4h.01zm-4.18 1.09c1.77 0 2.82 1.36 2.82 3.03 0 1.7-.96 3.18-2.8 3.18-1.79 0-2.75-1.55-2.75-3.2 0-1.57 1.07-3.01 2.73-3.01m-6.72.23h1.5v-1.32h-1.5v-3.02h-1.43v3.02h-.88v1.32h.88v7.07h1.43v-7.07zm-4.26-4.54c-.71-1.32-1.98-2.09-3.48-2.09-2 0-3.77 1.34-3.77 3.43 0 1.93 1.36 2.73 2.93 3.45l.82.36c1.25.57 2.48 1.11 2.48 2.68 0 1.52-1.32 2.62-2.77 2.62s-2.5-1.12-2.7-2.5l-1.46.41c.43 2.09 2.04 3.48 4.2 3.48 2.34 0 4.23-1.8 4.23-4.16 0-2.14-1.48-3.02-3.23-3.79l-.89-.39c-.91-.41-2.11-.95-2.11-2.11 0-1.23 1.04-2.09 2.23-2.09 1.14 0 1.79.53 2.32 1.46l1.2-.76zM536.69 333.494a8.995 8.995 0 001.9 2.86c.81.81 1.77 1.45 2.86 1.9 1.09.46 2.25.69 3.47.69s2.37-.23 3.47-.69a8.994 8.994 0 002.86-1.9c.81-.81 1.45-1.76 1.9-2.86.46-1.09.69-2.25.69-3.47s-.23-2.37-.69-3.47a8.995 8.995 0 00-1.9-2.86 8.726 8.726 0 00-2.86-1.9c-1.09-.46-2.25-.69-3.47-.69s-2.38.23-3.47.69c-1.09.46-2.05 1.09-2.86 1.9s-1.45 1.77-1.9 2.86c-.46 1.09-.69 2.25-.69 3.47s.23 2.38.69 3.47m-49.76 3.85v-35.12l27.58 35.12h14.86v-57.45h-14.86v35.12l-27.58-35.12H472v57.45h14.93zm-23.39-57.45h-32.69v57.45h32.69v-12.65h-17.75v-9.9h16.76v-12.65h-16.76v-9.6h17.75v-12.65zm-69.48 36.88h12.27c-.25 1.68-.74 3.1-1.45 4.27a9.047 9.047 0 01-2.71 2.86c-1.09.74-2.32 1.27-3.7 1.6-1.37.33-2.79.49-4.27.49-2.49 0-4.67-.42-6.55-1.26s-3.45-2.02-4.72-3.54c-1.27-1.52-2.22-3.33-2.86-5.41-.64-2.08-.95-4.34-.95-6.78 0-2.69.37-5.13 1.1-7.31s1.75-4.05 3.05-5.6c1.29-1.55 2.86-2.74 4.69-3.58s3.86-1.26 6.1-1.26c2.69 0 5.09.68 7.2 2.06 2.11 1.37 3.82 3.63 5.14 6.78l14.17-5.87c-2.64-5.43-6.22-9.45-10.74-12.04s-9.78-3.89-15.77-3.89c-4.62 0-8.81.74-12.57 2.21s-6.97 3.53-9.64 6.17c-2.67 2.64-4.72 5.83-6.17 9.56s-2.17 7.84-2.17 12.3c0 4.52.74 8.65 2.21 12.38s3.53 6.93 6.17 9.6 5.8 4.74 9.49 6.21c3.68 1.47 7.76 2.21 12.23 2.21 3.25 0 6.35-.41 9.3-1.22s5.65-1.99 8.11-3.54c2.46-1.55 4.61-3.48 6.44-5.79s3.28-4.96 4.34-7.96c.76-2.13 1.27-4.44 1.52-6.93s.38-5.26.38-8.31h-29.64v11.59zm-79.7 20.57v-35.12l27.58 35.12h14.86v-57.45h-14.86v35.12l-27.58-35.12h-14.93v57.45h14.93zm-74.74-57.45v33.3c0 8.94 2.06 15.47 6.17 19.58 4.11 4.11 10.41 6.17 18.89 6.17s14.77-2.06 18.86-6.17c4.09-4.11 6.13-10.64 6.13-19.58v-33.3h-14.86v31.24c0 1.68-.06 3.39-.19 5.14s-.52 3.34-1.18 4.76-1.66 2.58-3.01 3.47-3.27 1.33-5.75 1.33c-2.49 0-4.42-.44-5.79-1.33-1.37-.89-2.38-2.04-3.01-3.47-.64-1.42-1.02-3.01-1.14-4.76-.13-1.75-.19-3.47-.19-5.14v-31.24h-14.93zm-7.39 12.65v-12.65h-39.47v12.65h12.27v44.8h14.93v-44.8h12.27zm-83.36-12.65h-14.93v57.45h14.93v-23.7h21.57v23.7h14.93v-57.45h-14.93v22.17h-21.56v-22.17h-.01zm-24.53 1.37c-2.44-1.01-4.76-1.76-6.97-2.25-2.21-.48-4.46-.72-6.74-.72-4.01 0-7.85.75-11.51 2.25s-6.87 3.58-9.64 6.25-4.98 5.84-6.63 9.52c-1.65 3.68-2.48 7.73-2.48 12.15s.84 8.49 2.51 12.23c1.68 3.73 3.9 6.96 6.67 9.68s5.97 4.83 9.6 6.32a29.55 29.55 0 0011.39 2.25c1.93 0 3.88-.19 5.87-.57 1.98-.38 4.11-.98 6.4-1.79l1.52-.53v-17.68c-3.81 4.06-8.1 6.1-12.88 6.1-2.18 0-4.22-.41-6.1-1.22s-3.52-1.93-4.91-3.35c-1.4-1.42-2.49-3.1-3.28-5.03s-1.18-4.04-1.18-6.32c0-2.23.39-4.32 1.18-6.25s1.87-3.59 3.24-4.99c1.37-1.4 3.01-2.5 4.91-3.31 1.9-.81 3.97-1.22 6.21-1.22 5.08 0 9.34 2.11 12.8 6.32v-17.84h.02zm-66.82 56.08h14.93v-57.45H57.52v57.45zm-21.64-23.54c4.12-.96 7.23-2.81 9.33-5.52 2.11-2.72 3.16-6.26 3.16-10.63 0-2.44-.39-4.72-1.18-6.86-.79-2.13-1.96-4.01-3.51-5.64-1.55-1.62-3.52-2.91-5.9-3.85-2.39-.94-5.18-1.41-8.38-1.41H6.16v57.45h14.93v-22.1l14.25 22.1h18.59l-18.05-23.54zm-14.78-22.4h2.82c2.94 0 5.21.61 6.78 1.83 1.57 1.22 2.36 2.97 2.36 5.26s-.79 4.04-2.36 5.26-3.84 1.83-6.78 1.83H21.1v-14.18zM354.59 228.084c4.11-.96 7.23-2.81 9.33-5.52 2.11-2.72 3.16-6.26 3.16-10.63 0-2.44-.39-4.72-1.18-6.86a16.47 16.47 0 00-3.5-5.64c-1.55-1.62-3.52-2.91-5.9-3.85-2.39-.94-5.18-1.41-8.38-1.41h-23.24v57.45h14.93v-22.1l14.25 22.1h18.59l-18.06-23.54zm-14.78-22.4h2.82c2.95 0 5.21.61 6.78 1.83s2.36 2.97 2.36 5.26-.79 4.04-2.36 5.26c-1.57 1.22-3.84 1.83-6.78 1.83h-2.82v-14.18zm-35.12 45.94h15.92l-21.87-57.45h-16.3l-21.87 57.45h15.92l3.43-9.98h21.33l3.44 9.98zm-20.8-21.33l6.7-19.12 6.7 19.12h-13.4zm-40.31 21.33h15.92l-21.87-57.45h-16.31l-21.87 57.45h15.92l3.43-9.98h21.33l3.45 9.98zm-20.8-21.33l6.7-19.12 6.71 19.12h-13.41zm-47.54 2.29h8.84c6.45 0 11.39-1.68 14.82-5.03s5.14-8.08 5.14-14.17c0-6.1-1.71-10.82-5.14-14.17-3.43-3.35-8.37-5.03-14.82-5.03h-23.77v57.45h14.93v-19.05zm0-26.37h4.95c5.49 0 8.23 2.39 8.23 7.16s-2.74 7.16-8.23 7.16h-4.95v-14.32zm-84.5 45.41v-35.12l27.58 35.12h14.86v-57.45h-14.86v35.12l-27.58-35.12H75.81v57.45h14.93zm-41.9 0h14.93v-57.45H48.84v57.45zm-9.99-57.45H6.16v57.45h32.69v-12.65H21.1v-9.9h16.76v-12.65H21.1v-9.6h17.75v-12.65zM480.53 165.914v-35.12l27.58 35.12h14.86v-57.45h-14.86v35.12l-27.58-35.12H465.6v57.45h14.93zm-36.19-23.55c4.11-.96 7.22-2.81 9.33-5.52 2.11-2.72 3.16-6.26 3.16-10.63 0-2.44-.39-4.72-1.18-6.86-.79-2.13-1.96-4.01-3.51-5.64-1.55-1.62-3.52-2.91-5.9-3.85-2.39-.94-5.18-1.41-8.38-1.41h-23.24v57.45h14.93v-22.1l14.25 22.1h18.59l-18.05-23.54zm-14.78-22.4h2.82c2.95 0 5.21.61 6.78 1.83s2.36 2.97 2.36 5.26c0 2.29-.79 4.04-2.36 5.26-1.58 1.22-3.84 1.83-6.78 1.83h-2.82v-14.18zm-24.91-11.5h-32.69v57.45h32.69v-12.65H386.9v-9.9h16.76v-12.65H386.9v-9.6h17.75v-12.65zm-92.5 0v33.3c0 8.94 2.06 15.47 6.17 19.58 4.11 4.12 10.41 6.17 18.9 6.17s14.77-2.06 18.86-6.17c4.09-4.11 6.13-10.64 6.13-19.58v-33.3h-14.86v31.24c0 1.68-.06 3.39-.19 5.14s-.52 3.34-1.18 4.76-1.66 2.58-3.01 3.47-3.26 1.33-5.75 1.33-4.42-.44-5.79-1.33-2.38-2.04-3.01-3.47c-.64-1.42-1.02-3.01-1.14-4.76-.13-1.75-.19-3.47-.19-5.14v-31.24h-14.94zm-17.07 57.45H311l-21.87-57.45h-16.29l-21.87 57.45h15.92l3.43-9.98h21.33l3.43 9.98zm-20.8-21.34l6.71-19.12 6.7 19.12h-13.41zm-58.43-36.11v57.45h32.84v-12.65h-17.9v-44.8h-14.94zm-27.36 0H155.8v57.45h32.69v-12.65h-17.75v-9.9h16.76v-12.65h-16.76v-9.6h17.75v-12.65zm-74.28 0H99.28v57.45h14.93v-24.91l19.43 24.91h19.35l-24.91-30.25 22.78-27.2h-18.44l-18.21 23.7v-23.7zm-24.76 1.37c-2.44-1.01-4.76-1.76-6.97-2.25-2.21-.48-4.46-.72-6.74-.72-4.01 0-7.85.75-11.51 2.25s-6.87 3.58-9.64 6.25-4.98 5.84-6.63 9.52c-1.65 3.68-2.48 7.73-2.48 12.15s.84 8.49 2.51 12.23c1.68 3.73 3.9 6.96 6.67 9.68 2.77 2.72 5.97 4.83 9.6 6.32a29.55 29.55 0 0011.39 2.25c1.93 0 3.89-.19 5.87-.57s4.11-.98 6.4-1.79l1.52-.53v-17.68c-3.81 4.06-8.1 6.1-12.88 6.1-2.18 0-4.22-.41-6.1-1.22s-3.52-1.93-4.91-3.35c-1.4-1.42-2.49-3.1-3.28-5.03s-1.18-4.04-1.18-6.32c0-2.23.39-4.32 1.18-6.25s1.87-3.59 3.24-4.99c1.37-1.4 3.01-2.5 4.91-3.31 1.9-.81 3.97-1.22 6.21-1.22 5.08 0 9.35 2.11 12.8 6.32v-17.84h.02zm-50.6-1.37H6.16v57.45h32.69v-12.65H21.1v-9.9h16.76v-12.65H21.1v-9.6h17.75v-12.65zM525.09 56.654c4.11-.96 7.22-2.81 9.33-5.52 2.11-2.72 3.16-6.26 3.16-10.63 0-2.44-.39-4.72-1.18-6.86-.79-2.13-1.96-4.01-3.51-5.64-1.55-1.62-3.52-2.91-5.9-3.85-2.39-.94-5.18-1.41-8.38-1.41h-23.24v57.45h14.93v-22.1l14.25 22.1h18.59l-18.05-23.54zm-14.79-22.4h2.82c2.95 0 5.21.61 6.78 1.83s2.36 2.97 2.36 5.26-.79 4.04-2.36 5.26c-1.58 1.22-3.84 1.83-6.78 1.83h-2.82v-14.18zm-24.91-11.51H452.7v57.45h32.69v-12.65h-17.75v-9.9h16.76v-12.65h-16.76v-9.6h17.75v-12.65zm-90.29 57.45h22.1c3.96 0 7.66-.79 11.09-2.36a29.64 29.64 0 008.99-6.32c2.57-2.64 4.57-5.7 6.02-9.18s2.17-7.1 2.17-10.86c0-3.81-.74-7.45-2.21-10.93-1.47-3.48-3.49-6.53-6.06-9.14-2.57-2.62-5.56-4.71-8.99-6.29-3.43-1.57-7.1-2.36-11.01-2.36h-22.1v57.44zm14.94-44.8h3.43c2.54 0 4.83.41 6.86 1.22 2.03.81 3.74 1.93 5.14 3.35 1.4 1.42 2.48 3.12 3.24 5.1.76 1.98 1.14 4.12 1.14 6.4 0 2.34-.37 4.48-1.1 6.44-.74 1.96-1.8 3.64-3.2 5.07-1.4 1.42-3.11 2.54-5.14 3.35s-4.34 1.22-6.93 1.22h-3.43v-32.15h-.01zm-24.92-12.65h-32.68v57.45h32.69v-12.65h-17.75v-9.9h16.76v-12.65h-16.76v-9.6h17.75v-12.65h-.01zm-57.45 0v39.62c0 4.42-1.4 6.63-4.19 6.63-1.27 0-2.34-.51-3.2-1.52-.86-1.02-1.42-2.39-1.68-4.11l-9.75 9.98c3.86 5.64 8.86 8.46 15.01 8.46 2.03 0 3.97-.27 5.83-.8a20.33 20.33 0 005.07-2.21c1.52-.94 2.86-2.08 4-3.43a16.41 16.41 0 002.7-4.46c.4-1.02.7-2.23.88-3.66.18-1.42.27-2.97.27-4.65v-39.85h-14.94zm-48.97 33.91c4.12-.96 7.23-2.81 9.33-5.52 2.11-2.72 3.16-6.26 3.16-10.63 0-2.44-.39-4.72-1.18-6.86-.79-2.13-1.96-4.01-3.51-5.64-1.55-1.62-3.52-2.91-5.9-3.85-2.39-.94-5.18-1.41-8.38-1.41h-23.24v57.45h14.93v-22.1l14.25 22.1h18.59l-18.05-23.54zm-14.78-22.4h2.82c2.95 0 5.21.61 6.78 1.83s2.36 2.97 2.36 5.26-.79 4.04-2.36 5.26c-1.58 1.22-3.83 1.83-6.78 1.83h-2.82v-14.18zm-24.15-11.51h-32.69v57.45h32.69v-12.65h-17.75v-9.9h16.76v-12.65h-16.76v-9.6h17.75v-12.65zm-40.08 12.65v-12.65h-39.47v12.65h12.27v44.8h14.93v-44.8h12.27zm-88.53 44.8v-35.12l27.58 35.12h14.86v-57.45h-14.86v35.13l-27.58-35.13H96.23v57.45h14.93zm-41.9 0h14.93v-57.45H69.26v57.45zM21.1 22.744H6.17v57.45H21.1v-23.7h21.56v23.7h14.93v-57.45H42.66v22.17H21.1v-22.17z"/></g></svg>