<svg xmlns="http://www.w3.org/2000/svg" width="841.89" height="530.64" viewBox="0 0 841.89 530.64"><g fill="#CD1719"><path d="M538.98 419.235a8.995 8.995 0 001.9 2.86c.81.81 1.77 1.45 2.86 1.9 1.09.46 2.25.69 3.47.69a8.995 8.995 0 006.33-2.59c.81-.81 1.45-1.76 1.91-2.86.46-1.09.69-2.25.69-3.47s-.23-2.37-.69-3.47a8.86 8.86 0 00-1.91-2.86 8.726 8.726 0 00-2.86-1.9 8.845 8.845 0 00-3.47-.69c-1.22 0-2.38.23-3.47.69s-2.04 1.09-2.86 1.9c-.81.81-1.45 1.77-1.9 2.86-.46 1.09-.68 2.25-.68 3.47s.22 2.37.68 3.47m1.6-40.96v-12.65h-39.47v12.65h12.27v44.8h14.93v-44.8h12.27zm-45.56-12.64h-32.69v57.45h32.69v-12.65h-17.75v-9.9h16.76v-12.65h-16.76v-9.6h17.75v-12.65zm-38.56 12.64v-12.65H417v12.65h12.27v44.8h14.93v-44.8h12.26zm-81.82-12.64H359.7v57.45h14.93v-23.7h21.56v23.7h14.93v-57.45H396.2v22.17h-21.56v-22.17zm-24.54 1.37c-2.44-1.02-4.76-1.76-6.97-2.25-2.21-.48-4.46-.72-6.74-.72-4.01 0-7.85.75-11.51 2.25s-6.87 3.58-9.64 6.25c-2.77 2.67-4.98 5.84-6.63 9.52s-2.48 7.73-2.48 12.15.84 8.49 2.51 12.23c1.68 3.73 3.9 6.96 6.67 9.68 2.77 2.72 5.97 4.83 9.6 6.32a29.55 29.55 0 0011.39 2.25c1.93 0 3.89-.19 5.87-.57 1.98-.38 4.11-.98 6.4-1.79l1.52-.53v-17.68c-3.81 4.06-8.1 6.1-12.88 6.1-2.18 0-4.22-.41-6.09-1.22-1.88-.81-3.52-1.93-4.92-3.35s-2.49-3.1-3.28-5.03-1.18-4.04-1.18-6.32c0-2.23.39-4.32 1.18-6.25.79-1.93 1.87-3.59 3.24-4.99s3.01-2.5 4.91-3.31 3.97-1.22 6.21-1.22c5.08 0 9.35 2.11 12.8 6.32v-17.84h.02zm-66.06 56.07h14.93v-57.45h-14.93v57.45zm-38.24-57.44v57.45h32.84v-12.65h-17.91v-44.8H245.8zm-8.16 0h-32.92v57.45h14.93v-22.55h16.38v-12.65h-16.38v-9.6h17.98v-12.65h.01zm-67.35 38.4h8.84c6.45 0 11.39-1.68 14.82-5.03s5.14-8.08 5.14-14.17c0-6.1-1.71-10.82-5.14-14.17-3.43-3.35-8.37-5.03-14.82-5.03h-23.77v57.45h14.93v-19.05zm0-26.37h4.95c5.49 0 8.23 2.39 8.23 7.16s-2.74 7.16-8.23 7.16h-4.95v-14.32zm-35.43 21.87c4.11-.96 7.22-2.81 9.33-5.52 2.11-2.72 3.16-6.26 3.16-10.63 0-2.44-.39-4.72-1.18-6.86-.79-2.13-1.96-4.01-3.51-5.64-1.55-1.62-3.52-2.91-5.9-3.85-2.39-.94-5.18-1.41-8.38-1.41h-23.24v57.45h14.93v-22.1l14.25 22.1h18.59l-18.05-23.54zm-14.78-22.4h2.82c2.95 0 5.21.61 6.78 1.83s2.36 2.97 2.36 5.26-.79 4.04-2.36 5.26c-1.58 1.22-3.84 1.83-6.78 1.83h-2.82v-14.18zm-23.39-11.5H64v57.45h32.69v-12.65H78.94v-9.9H95.7v-12.65H78.94v-9.6h17.75v-12.65zm-96.69 0l24.15 57.45h11.89l24.23-57.45H44.04l-13.94 34.97-13.87-34.97H0zM437.95 279.915v33.3c0 8.94 2.06 15.47 6.17 19.58 4.11 4.12 10.41 6.17 18.9 6.17 8.48 0 14.77-2.06 18.86-6.17 4.09-4.11 6.13-10.64 6.13-19.58v-33.3h-14.86v31.24c0 1.68-.07 3.39-.19 5.14-.13 1.75-.52 3.34-1.18 4.76s-1.66 2.58-3.01 3.47c-1.35.89-3.26 1.33-5.75 1.33s-4.42-.44-5.79-1.33c-1.37-.89-2.38-2.04-3.01-3.47-.64-1.42-1.02-3.01-1.14-4.76-.13-1.75-.19-3.47-.19-5.14v-31.24h-14.94zm-4.88 0h-47.54v12.65h22.63l-27.2 44.8h49.14v-12.65h-24.08l27.05-44.8zm-68.95 57.45h15.92l-21.87-57.45h-16.31l-21.87 57.45h15.92l3.43-9.98h21.33l3.45 9.98zm-20.8-21.34l6.71-19.12 6.7 19.12h-13.41zm-71.47 21.34h22.1c3.96 0 7.66-.79 11.09-2.36a29.64 29.64 0 008.99-6.32c2.56-2.64 4.57-5.7 6.02-9.18a27.96 27.96 0 002.17-10.86c0-3.81-.74-7.45-2.21-10.93-1.47-3.48-3.49-6.53-6.06-9.14-2.57-2.62-5.56-4.71-8.99-6.29-3.43-1.57-7.1-2.36-11.01-2.36h-22.1v57.44zm14.94-44.8h3.43c2.54 0 4.82.41 6.86 1.22 2.03.81 3.74 1.93 5.14 3.35 1.4 1.42 2.48 3.12 3.24 5.1.76 1.98 1.14 4.12 1.14 6.4 0 2.34-.37 4.48-1.1 6.44-.74 1.96-1.8 3.64-3.2 5.07-1.4 1.42-3.11 2.54-5.14 3.35s-4.34 1.22-6.93 1.22h-3.43v-32.15h-.01zm-38.17 0v-12.65h-39.47v12.65h12.27v44.8h14.93v-44.8h12.27zm-81.83-12.65h-14.93v57.45h14.93v-23.7h21.56v23.7h14.93v-57.45h-14.93v22.17h-21.56v-22.17zm-24.54 1.37c-2.44-1.02-4.76-1.77-6.97-2.25s-4.46-.72-6.74-.72c-4.01 0-7.85.75-11.5 2.25-3.66 1.5-6.87 3.58-9.64 6.25s-4.98 5.84-6.63 9.52c-1.65 3.68-2.48 7.73-2.48 12.15s.84 8.5 2.51 12.23c1.68 3.73 3.9 6.96 6.67 9.68s5.97 4.83 9.6 6.32a29.55 29.55 0 0011.39 2.25c1.93 0 3.89-.19 5.87-.57 1.98-.38 4.11-.98 6.4-1.79l1.52-.53v-17.68c-3.81 4.07-8.1 6.1-12.88 6.1-2.18 0-4.22-.41-6.09-1.22-1.88-.81-3.52-1.93-4.91-3.35-1.4-1.42-2.49-3.1-3.28-5.03s-1.18-4.04-1.18-6.32c0-2.23.39-4.32 1.18-6.25s1.87-3.59 3.24-4.99c1.37-1.4 3.01-2.5 4.91-3.31 1.9-.81 3.97-1.22 6.21-1.22 5.08 0 9.35 2.11 12.8 6.32v-17.84zm-67.58 56.08H89.6v-57.45H74.67v57.45zm-53.71 0v-35.12l27.58 35.12H63.4v-57.45H48.54v35.12l-27.58-35.12H6.03v57.45h14.93zM341.29 228.105c4.11-.96 7.23-2.81 9.33-5.52 2.11-2.72 3.16-6.26 3.16-10.63 0-2.44-.39-4.72-1.18-6.86-.79-2.13-1.96-4.01-3.51-5.64-1.55-1.62-3.52-2.91-5.9-3.85-2.39-.94-5.18-1.41-8.38-1.41h-23.24v57.45h14.93v-22.1l14.25 22.1h18.59l-18.05-23.54zm-14.78-22.4h2.82c2.95 0 5.21.61 6.78 1.83s2.36 2.97 2.36 5.26-.79 4.04-2.36 5.26c-1.58 1.22-3.84 1.83-6.78 1.83h-2.82v-14.18zm-24.91-11.51h-32.69v57.45h32.69v-12.65h-17.75v-9.9h16.76v-12.65h-16.76v-9.6h17.75v-12.65zm-81.6 57.45h24c3.05 0 5.79-.35 8.23-1.07 2.44-.71 4.51-1.78 6.21-3.2 1.7-1.42 3.02-3.17 3.96-5.26.94-2.08 1.41-4.47 1.41-7.16 0-1.73-.2-3.35-.61-4.88-.41-1.52-1.08-2.9-2.02-4.12s-2.16-2.25-3.66-3.09-3.31-1.46-5.45-1.87c2.13-1.32 3.72-2.93 4.76-4.84 1.04-1.9 1.56-4.31 1.56-7.2 0-4.77-1.37-8.43-4.11-10.97s-6.76-3.81-12.04-3.81H220v57.47zm14.93-46.02h2.74c4.67 0 7.01 1.86 7.01 5.56 0 3.71-2.34 5.56-7.01 5.56h-2.74v-11.12zm0 22.25h3.28c3.76 0 6.45.48 8.08 1.45 1.62.96 2.44 2.51 2.44 4.65 0 2.13-.81 3.68-2.44 4.65s-4.32 1.45-8.08 1.45h-3.28v-12.2zm-35.12 23.77h15.92l-21.87-57.45h-16.3l-21.87 57.45h15.92l3.43-9.98h21.33l3.44 9.98zm-20.8-21.33l6.71-19.12 6.7 19.12h-13.41zm-82.93 21.33v-35.12l27.58 35.12h14.86v-57.45h-14.86v35.12l-27.58-35.12H81.15v57.45h14.93zm-39.62 0h14.93v-57.45H56.46v57.45zm-50.44 0h24c3.05 0 5.79-.35 8.23-1.07 2.44-.71 4.51-1.78 6.21-3.2 1.7-1.42 3.02-3.17 3.96-5.26.94-2.08 1.41-4.47 1.41-7.16 0-1.73-.2-3.35-.61-4.88-.41-1.52-1.08-2.9-2.02-4.12s-2.16-2.25-3.66-3.09-3.31-1.46-5.45-1.87c2.13-1.32 3.72-2.93 4.76-4.84 1.04-1.9 1.56-4.31 1.56-7.2 0-4.77-1.37-8.43-4.11-10.97s-6.76-3.81-12.04-3.81H6.01v57.47h.01zm14.94-46.02h2.74c4.67 0 7.01 1.86 7.01 5.56 0 3.71-2.34 5.56-7.01 5.56h-2.74v-11.12zm0 22.25h3.28c3.76 0 6.45.48 8.08 1.45 1.62.96 2.44 2.51 2.44 4.65 0 2.13-.81 3.68-2.44 4.65s-4.32 1.45-8.08 1.45h-3.28v-12.2zM561.23 176.595h8.84l14.02-25.22h-12.95l-9.91 25.22zm-45.03-10.66v-35.12l27.58 35.12h14.86v-57.45h-14.86v35.12l-27.58-35.12h-14.93v57.45h14.93zm-36.95-23.55c4.11-.96 7.22-2.81 9.33-5.52 2.11-2.72 3.16-6.26 3.16-10.63 0-2.44-.39-4.72-1.18-6.86-.79-2.13-1.96-4.01-3.51-5.64-1.55-1.62-3.52-2.91-5.9-3.85-2.39-.94-5.18-1.41-8.38-1.41h-23.24v57.45h14.93v-22.1l14.25 22.1h18.59l-18.05-23.54zm-14.78-22.4h2.82c2.95 0 5.21.61 6.78 1.83s2.36 2.97 2.36 5.26-.79 4.04-2.36 5.26c-1.58 1.22-3.84 1.83-6.78 1.83h-2.82v-14.18zm-24.92-11.5h-32.69v57.45h32.69v-12.65H421.8v-9.9h16.76v-12.65H421.8v-9.6h17.75v-12.65zm-69.49 36.87h12.27c-.26 1.68-.74 3.1-1.45 4.27a9.129 9.129 0 01-2.7 2.86c-1.09.74-2.32 1.27-3.7 1.6-1.37.33-2.79.49-4.27.49-2.49 0-4.67-.42-6.55-1.26-1.88-.84-3.45-2.02-4.72-3.54-1.27-1.52-2.22-3.33-2.86-5.41-.64-2.08-.95-4.34-.95-6.78 0-2.69.37-5.13 1.11-7.32.74-2.18 1.75-4.05 3.05-5.6s2.86-2.74 4.69-3.58c1.83-.84 3.86-1.26 6.1-1.26 2.69 0 5.09.69 7.2 2.06 2.11 1.37 3.82 3.63 5.14 6.78l14.17-5.87c-2.64-5.43-6.22-9.45-10.74-12.04-4.52-2.59-9.78-3.89-15.77-3.89-4.62 0-8.81.74-12.57 2.21s-6.97 3.53-9.64 6.17-4.72 5.83-6.17 9.56-2.17 7.84-2.17 12.3c0 4.52.74 8.65 2.21 12.38 1.47 3.73 3.53 6.93 6.17 9.6s5.8 4.74 9.49 6.21c3.68 1.47 7.76 2.21 12.23 2.21 3.25 0 6.35-.41 9.3-1.22 2.95-.81 5.65-1.99 8.11-3.54 2.46-1.55 4.61-3.48 6.44-5.79s3.28-4.96 4.34-7.96c.76-2.13 1.27-4.44 1.52-6.93.25-2.49.38-5.26.38-8.3h-29.64v11.59h-.02zm-49.22-2.97c4.11-.96 7.23-2.81 9.33-5.52 2.11-2.72 3.16-6.26 3.16-10.63 0-2.44-.39-4.72-1.18-6.86a16.47 16.47 0 00-3.5-5.64c-1.55-1.62-3.52-2.91-5.9-3.85-2.39-.94-5.18-1.41-8.38-1.41h-23.24v57.45h14.93v-22.1l14.25 22.1h18.59l-18.06-23.54zm-14.78-22.4h2.82c2.95 0 5.21.61 6.78 1.83s2.36 2.97 2.36 5.26-.79 4.04-2.36 5.26c-1.57 1.22-3.84 1.83-6.78 1.83h-2.82v-14.18zm-64.99-19.2c1.42 1.47 3.23 2.21 5.41 2.21.96 0 1.9-.19 2.82-.57.91-.38 1.7-.91 2.36-1.6.66-.69 1.19-1.47 1.6-2.36s.61-1.87.61-2.93c0-1.02-.2-1.98-.61-2.9-.41-.91-.95-1.7-1.64-2.36s-1.47-1.18-2.36-1.56c-.89-.38-1.84-.57-2.86-.57s-1.98.19-2.9.57c-.91.38-1.71.91-2.4 1.6s-1.22 1.47-1.6 2.36-.57 1.82-.57 2.78c.01 2.08.72 3.86 2.14 5.33m20.73.04c1.42 1.45 3.2 2.17 5.33 2.17 2.08 0 3.85-.71 5.3-2.13 1.45-1.42 2.17-3.2 2.17-5.33 0-1.02-.2-1.98-.61-2.9-.41-.91-.95-1.7-1.64-2.36s-1.47-1.18-2.36-1.56c-.89-.38-1.84-.57-2.86-.57s-1.98.19-2.9.57c-.91.38-1.71.91-2.4 1.6-.68.69-1.22 1.47-1.6 2.36s-.57 1.82-.57 2.78c0 2.13.71 3.92 2.14 5.37m9.06 65.11h15.92l-21.87-57.45h-16.3l-21.87 57.45h15.92l3.43-9.98h21.33l3.44 9.98zm-20.8-21.34l6.7-19.12 6.71 19.12h-13.41zm-76.87-36.11h-14.93v57.45h14.93v-23.7h21.56v23.7h14.93v-57.45h-14.93v22.17h-21.56v-22.17zm-24.54 1.37c-2.44-1.02-4.76-1.76-6.97-2.25-2.21-.48-4.46-.72-6.74-.72-4.01 0-7.85.75-11.5 2.25-3.66 1.5-6.87 3.58-9.64 6.25s-4.98 5.84-6.63 9.52c-1.65 3.68-2.48 7.73-2.48 12.15s.84 8.5 2.51 12.23c1.68 3.73 3.9 6.96 6.67 9.68 2.77 2.72 5.97 4.83 9.6 6.32a29.55 29.55 0 0011.39 2.25c1.93 0 3.89-.19 5.87-.57 1.98-.38 4.11-.98 6.4-1.79l1.52-.53v-17.68c-3.81 4.07-8.1 6.1-12.88 6.1-2.18 0-4.22-.41-6.1-1.22s-3.52-1.93-4.91-3.35c-1.4-1.42-2.49-3.1-3.28-5.03s-1.18-4.04-1.18-6.32c0-2.23.39-4.32 1.18-6.25s1.87-3.59 3.24-4.99c1.37-1.4 3.01-2.5 4.91-3.31 1.91-.81 3.97-1.22 6.21-1.22 5.08 0 9.35 2.11 12.8 6.32v-17.84h.01zm-66.06 56.08h14.93v-57.45H82.59v57.45zm-64.3 0l4.95-33.07 12.88 33.07h5.94l13.56-33.07 4.95 33.07h14.86l-9.75-57.45H50.9l-11.43 30.63-11.51-30.63H13.18l-9.75 57.45h14.86zM360.69 80.215v-35.12l27.58 35.12h14.86v-57.45h-14.86v35.12l-27.58-35.12h-14.93v57.45h14.93zm-68.65 0v-35.12l27.58 35.12h14.86v-57.45h-14.86v35.12l-27.58-35.12h-14.93v57.45h14.93zm-35.12 0h15.93l-21.87-57.45h-16.3l-21.87 57.45h15.92l3.43-9.98h21.33l3.43 9.98zm-20.8-21.33l6.7-19.12 6.71 19.12h-13.41zm-60.95-36.12h-14.93v57.45h14.93v-24.92l19.43 24.92h19.35l-24.92-30.25 22.78-27.2h-18.44l-18.21 23.7v-23.7h.01zm-78.56 0H81.68v57.45h14.93v-23.7h21.56v23.7h14.93v-57.45h-14.93v22.17H96.61v-22.17zm-24.53 1.37c-2.44-1.02-4.76-1.77-6.97-2.25s-4.46-.72-6.74-.72c-4.01 0-7.85.75-11.51 2.25s-6.87 3.58-9.64 6.25-4.98 5.84-6.63 9.52c-1.65 3.68-2.48 7.73-2.48 12.15s.84 8.5 2.51 12.23c1.68 3.73 3.9 6.96 6.67 9.68 2.77 2.72 5.97 4.83 9.6 6.32a29.55 29.55 0 0011.39 2.25c1.93 0 3.89-.19 5.87-.57s4.11-.98 6.4-1.79l1.52-.53v-17.68c-3.81 4.07-8.1 6.1-12.88 6.1-2.18 0-4.22-.41-6.1-1.22s-3.52-1.93-4.91-3.35c-1.4-1.42-2.49-3.1-3.28-5.03s-1.18-4.04-1.18-6.32c0-2.23.39-4.32 1.18-6.25s1.87-3.59 3.24-4.99c1.37-1.4 3.01-2.5 4.92-3.31 1.9-.81 3.97-1.22 6.21-1.22 5.08 0 9.35 2.11 12.8 6.32v-17.84h.01zM6.02 80.215h14.93v-57.45H6.02v57.45z"/></g></svg>