<svg xmlns="http://www.w3.org/2000/svg" width="841.89" height="530.64" viewBox="0 0 841.89 530.64"><g fill="#CD1719"><path d="M601.865 162.081a8.753 8.753 0 004.77 4.76c1.09.46 2.25.69 3.47.69s2.37-.23 3.47-.69a8.994 8.994 0 002.86-1.9c.81-.81 1.45-1.76 1.9-2.86.46-1.09.68-2.25.68-3.47s-.23-2.37-.68-3.47a8.995 8.995 0 00-1.9-2.86 8.726 8.726 0 00-2.86-1.9c-1.09-.46-2.25-.69-3.47-.69s-2.38.23-3.47.69c-1.09.46-2.05 1.09-2.86 1.9s-1.45 1.77-1.91 2.86c-.46 1.09-.69 2.25-.69 3.47s.23 2.38.69 3.47m-49.76 3.85v-35.12l27.58 35.12h14.86v-57.45h-14.86v35.12l-27.58-35.12h-14.93v57.45h14.93zm-24.91-57.45h-32.69v57.45h32.69v-12.65h-17.75v-9.9h16.76v-12.65h-16.76v-9.6h17.75v-12.65zm-70.25 36.88h12.27c-.26 1.68-.74 3.1-1.45 4.27-.71 1.17-1.61 2.12-2.7 2.86s-2.32 1.27-3.7 1.6c-1.37.33-2.79.5-4.27.5-2.49 0-4.67-.42-6.55-1.26s-3.45-2.02-4.72-3.54c-1.27-1.52-2.22-3.33-2.86-5.41-.64-2.08-.95-4.34-.95-6.78 0-2.69.37-5.13 1.1-7.31.74-2.18 1.75-4.05 3.05-5.6 1.29-1.55 2.86-2.74 4.69-3.58s3.86-1.26 6.09-1.26c2.69 0 5.09.68 7.2 2.06 2.11 1.37 3.82 3.63 5.14 6.78l14.17-5.87c-2.64-5.43-6.22-9.45-10.74-12.04s-9.78-3.89-15.77-3.89c-4.62 0-8.81.74-12.57 2.21s-6.97 3.53-9.64 6.17c-2.67 2.64-4.72 5.83-6.17 9.56-1.45 3.73-2.17 7.84-2.17 12.3 0 4.52.74 8.65 2.21 12.38 1.47 3.73 3.53 6.93 6.17 9.6s5.8 4.74 9.49 6.21c3.68 1.47 7.76 2.21 12.23 2.21 3.25 0 6.35-.41 9.29-1.22 2.95-.81 5.65-1.99 8.11-3.54 2.46-1.55 4.61-3.48 6.44-5.79s3.28-4.96 4.34-7.96c.76-2.13 1.27-4.44 1.52-6.93s.38-5.26.38-8.3h-29.64v11.57h.01zm-37.18-36.88h-32.69v57.45h32.69v-12.65h-17.75v-9.9h16.76v-12.65h-16.76v-9.6h17.75v-12.65zm-58.9 57.45h14.93v-57.45h-14.93v57.45zm-92.57-57.45l17.14 57.45h15.24l11.28-33.3 11.28 33.3h15.24l17.14-57.45h-15.62l-9.9 37.11-12.19-37.11h-11.89l-12.19 37.11-9.9-37.11h-15.63zm-41.75 0h-14.93v57.45h14.93v-23.7h21.56v23.7h14.93v-57.45h-14.93v22.17h-21.56v-22.17zm-25.53 1.37c-2.44-1.02-4.76-1.77-6.97-2.25s-4.46-.72-6.74-.72c-4.01 0-7.85.75-11.51 2.25s-6.87 3.58-9.64 6.25c-2.77 2.67-4.98 5.84-6.63 9.52-1.65 3.68-2.48 7.73-2.48 12.15s.84 8.49 2.52 12.23c1.68 3.73 3.9 6.96 6.67 9.68 2.77 2.72 5.97 4.83 9.6 6.32a29.55 29.55 0 0011.39 2.25c1.93 0 3.89-.19 5.87-.57 1.98-.38 4.11-.98 6.4-1.79l1.52-.53v-17.68c-3.81 4.06-8.1 6.1-12.88 6.1-2.18 0-4.22-.41-6.1-1.22s-3.52-1.93-4.91-3.35c-1.4-1.42-2.49-3.1-3.28-5.03s-1.18-4.04-1.18-6.32c0-2.23.39-4.32 1.18-6.25.79-1.93 1.87-3.59 3.24-4.99s3.01-2.5 4.91-3.31 3.97-1.22 6.21-1.22c5.08 0 9.35 2.11 12.8 6.32v-17.84h.01zm-51.58 1.68a39.862 39.862 0 00-8.91-3.47c-3.1-.79-6.07-1.18-8.91-1.18-3.05 0-5.8.46-8.27 1.37-2.46.91-4.55 2.2-6.25 3.85s-3.02 3.63-3.96 5.94-1.41 4.89-1.41 7.73c0 2.85.45 5.19 1.33 7.05.89 1.86 2.06 3.39 3.51 4.61 1.45 1.22 3.1 2.2 4.95 2.93 1.85.74 3.75 1.41 5.68 2.02 1.62.56 3.01 1.07 4.15 1.52 1.14.46 2.07.95 2.78 1.49.71.53 1.22 1.12 1.52 1.75.31.64.46 1.38.46 2.25 0 1.42-.6 2.69-1.79 3.81s-3.01 1.68-5.45 1.68c-2.13 0-4.29-.48-6.48-1.45-2.18-.96-4.39-2.44-6.63-4.42l-6.4 12.04c6.2 4.32 12.93 6.48 20.19 6.48 3.5 0 6.64-.47 9.41-1.41s5.1-2.26 7.01-3.96c1.9-1.7 3.35-3.74 4.34-6.13.99-2.39 1.48-5.05 1.48-8 0-4.37-1.13-7.91-3.39-10.63-2.26-2.72-5.83-4.89-10.71-6.51-1.22-.41-2.45-.79-3.7-1.14-1.25-.36-2.36-.77-3.35-1.26-.99-.48-1.79-1.05-2.4-1.71s-.91-1.5-.91-2.51c0-1.47.61-2.67 1.83-3.58 1.22-.92 2.79-1.37 4.72-1.37 1.52 0 3.1.32 4.72.95s3.25 1.61 4.88 2.93l5.96-11.67zm-45.94-3.05h-32.69v57.45h32.69v-12.65h-17.75v-9.9h16.76v-12.65h-16.76v-9.6h17.75v-12.65zm-69.49 36.88h12.27c-.25 1.68-.74 3.1-1.45 4.27a9.047 9.047 0 01-2.71 2.86c-1.09.74-2.32 1.27-3.69 1.6-1.37.33-2.79.5-4.27.5-2.49 0-4.67-.42-6.55-1.26s-3.46-2.02-4.72-3.54c-1.27-1.52-2.22-3.33-2.86-5.41-.64-2.08-.95-4.34-.95-6.78 0-2.69.37-5.13 1.1-7.31.74-2.18 1.75-4.05 3.05-5.6 1.29-1.55 2.86-2.74 4.69-3.58s3.86-1.26 6.1-1.26c2.69 0 5.09.68 7.2 2.06 2.11 1.37 3.82 3.63 5.14 6.78l14.17-5.87c-2.64-5.43-6.22-9.45-10.74-12.04s-9.78-3.89-15.77-3.89c-4.62 0-8.81.74-12.57 2.21s-6.97 3.53-9.64 6.17-4.72 5.83-6.17 9.56c-1.45 3.73-2.17 7.84-2.17 12.3 0 4.52.74 8.65 2.21 12.38s3.53 6.93 6.17 9.6 5.8 4.74 9.49 6.21c3.68 1.47 7.76 2.21 12.23 2.21 3.25 0 6.35-.41 9.29-1.22 2.95-.81 5.65-1.99 8.12-3.54 2.46-1.55 4.61-3.48 6.44-5.79s3.28-4.96 4.34-7.96c.76-2.13 1.27-4.44 1.52-6.93s.38-5.26.38-8.3h-29.64v11.57h-.01zM556.225 59.641h12.27c-.26 1.68-.74 3.1-1.45 4.27a9.047 9.047 0 01-2.71 2.86c-1.09.74-2.32 1.27-3.7 1.6-1.37.33-2.79.49-4.27.49-2.49 0-4.67-.42-6.55-1.26s-3.46-2.02-4.72-3.54c-1.27-1.52-2.22-3.33-2.86-5.41-.64-2.08-.95-4.34-.95-6.78 0-2.69.37-5.13 1.1-7.31.74-2.18 1.75-4.05 3.05-5.6s2.86-2.74 4.69-3.58 3.86-1.26 6.09-1.26c2.69 0 5.09.68 7.2 2.06 2.11 1.37 3.82 3.63 5.14 6.78l14.17-5.87c-2.64-5.43-6.22-9.45-10.74-12.04s-9.78-3.89-15.77-3.89c-4.62 0-8.81.74-12.57 2.21s-6.97 3.53-9.64 6.17c-2.67 2.64-4.72 5.83-6.17 9.56s-2.17 7.84-2.17 12.31c0 4.52.74 8.65 2.21 12.38 1.47 3.73 3.53 6.93 6.17 9.6s5.8 4.74 9.49 6.21c3.68 1.47 7.76 2.21 12.23 2.21 3.25 0 6.35-.41 9.3-1.22s5.65-1.99 8.11-3.54c2.46-1.55 4.61-3.48 6.44-5.79s3.28-4.96 4.34-7.96c.76-2.13 1.27-4.44 1.52-6.93s.38-5.26.38-8.31h-29.64v11.58h.01zm-88.54-36.87v33.3c0 8.94 2.06 15.47 6.17 19.58s10.41 6.17 18.9 6.17c8.48 0 14.77-2.06 18.86-6.17 4.09-4.11 6.13-10.64 6.13-19.58v-33.3h-14.86v31.24c0 1.68-.06 3.39-.19 5.14s-.52 3.34-1.18 4.76c-.66 1.42-1.66 2.58-3.01 3.47-1.35.89-3.26 1.33-5.75 1.33s-4.42-.44-5.79-1.33c-1.37-.89-2.38-2.04-3.01-3.47-.64-1.42-1.02-3.01-1.14-4.76-.13-1.75-.19-3.47-.19-5.14v-31.24h-14.94zm-52.95 57.44v-35.12l27.58 35.12h14.86v-57.45h-14.86v35.12l-27.58-35.12h-14.93v57.45h14.93zm-24.91-57.44h-32.69v57.45h32.69v-12.65h-17.75v-9.9h16.76v-12.65h-16.76v-9.6h17.75v-12.65zm-69.49 36.87h12.27c-.25 1.68-.74 3.1-1.45 4.27a9.128 9.128 0 01-2.7 2.86c-1.09.74-2.32 1.27-3.7 1.6-1.37.33-2.79.49-4.27.49-2.49 0-4.67-.42-6.55-1.26-1.88-.84-3.45-2.02-4.72-3.54-1.27-1.52-2.22-3.33-2.86-5.41-.64-2.08-.95-4.34-.95-6.78 0-2.69.37-5.13 1.11-7.31.73-2.18 1.75-4.05 3.05-5.6s2.86-2.74 4.69-3.58c1.83-.84 3.86-1.26 6.1-1.26 2.69 0 5.09.68 7.2 2.06 2.11 1.37 3.82 3.63 5.14 6.78l14.17-5.87c-2.64-5.43-6.22-9.45-10.74-12.04s-9.78-3.89-15.77-3.89c-4.62 0-8.81.74-12.57 2.21s-6.97 3.53-9.64 6.17-4.72 5.83-6.17 9.56-2.17 7.84-2.17 12.31c0 4.52.74 8.65 2.21 12.38 1.47 3.73 3.53 6.93 6.17 9.6s5.8 4.74 9.49 6.21c3.68 1.47 7.76 2.21 12.23 2.21 3.25 0 6.35-.41 9.3-1.22 2.95-.81 5.65-1.99 8.11-3.54a25.53 25.53 0 006.44-5.79c1.83-2.31 3.28-4.96 4.34-7.96.76-2.13 1.27-4.44 1.52-6.93s.38-5.26.38-8.31h-29.64v11.58h-.02zm-52.27-36.87h-32.69v57.45h32.69v-12.65h-17.75v-9.9h16.76v-12.65h-16.76v-9.6h17.75v-12.65zm-69.48 36.87h12.27c-.26 1.68-.74 3.1-1.45 4.27a9.047 9.047 0 01-2.71 2.86c-1.09.74-2.32 1.27-3.7 1.6-1.37.33-2.79.49-4.27.49-2.49 0-4.67-.42-6.55-1.26-1.88-.84-3.46-2.02-4.72-3.54-1.27-1.52-2.22-3.33-2.86-5.41-.64-2.08-.95-4.34-.95-6.78 0-2.69.37-5.13 1.1-7.31.74-2.18 1.75-4.05 3.05-5.6s2.86-2.74 4.69-3.58c1.83-.84 3.86-1.26 6.1-1.26 2.69 0 5.09.68 7.2 2.06 2.11 1.37 3.82 3.63 5.14 6.78l14.17-5.87c-2.64-5.43-6.22-9.45-10.74-12.04s-9.78-3.89-15.77-3.89c-4.62 0-8.81.74-12.57 2.21s-6.97 3.53-9.64 6.17-4.72 5.83-6.17 9.56-2.17 7.84-2.17 12.31c0 4.52.74 8.65 2.21 12.38 1.47 3.73 3.53 6.93 6.17 9.6s5.8 4.74 9.49 6.21c3.68 1.47 7.76 2.21 12.23 2.21 3.25 0 6.35-.41 9.3-1.22 2.95-.81 5.65-1.99 8.11-3.54a25.53 25.53 0 006.44-5.79c1.83-2.31 3.28-4.96 4.34-7.96.76-2.13 1.27-4.44 1.52-6.93s.38-5.26.38-8.31h-29.64v11.58zm-79.7 20.57v-35.12l27.58 35.12h14.86v-57.45h-14.86v35.12l-27.58-35.12h-14.93v57.45h14.93zm-33.6 0h15.92l-21.87-57.45h-16.3l-21.86 57.45h15.92l3.43-9.98h21.33l3.43 9.98zm-20.8-21.33l6.7-19.12 6.71 19.12h-13.41zm-58.44-36.11v57.45h32.84v-12.65h-17.9v-44.8H6.045z"/></g></svg>