<svg xmlns="http://www.w3.org/2000/svg" width="841.89" height="530.64" viewBox="0 0 841.89 530.64"><g fill="#CD1719"><path d="M79.395 452.505h1.5v-1.32h-1.5v-3.02h-1.43v3.02h-.88v1.32h.88v7.07h1.43v-7.07zm-9.59-1.32h-1.43v8.39h1.43v-3.98c0-1.5.12-3.32 2.09-3.32 1.66 0 1.77 1.21 1.77 2.57v4.73h1.43v-4.98c0-1.96-.53-3.64-2.86-3.64-1.04 0-1.8.45-2.39 1.25h-.03v-1.02h-.01zm-10.36 3.28c.18-1.21 1.32-2.2 2.55-2.2 1.25 0 2.27.98 2.46 2.2h-5.01zm6.52 1.22c.14-2.5-1.29-4.73-3.98-4.73-2.62 0-4.07 2.05-4.07 4.54 0 2.41 1.61 4.32 4.11 4.32 1.71 0 3.07-.86 3.88-2.36l-1.21-.7c-.55 1-1.34 1.73-2.55 1.73-1.62 0-2.73-1.25-2.75-2.8h6.57zm-11.09-8.68c-.55 0-1.02.46-1.02 1.02 0 .57.46 1.02 1.02 1.02s1.02-.45 1.02-1.02c0-.56-.46-1.02-1.02-1.02m.72 4.18h-1.43v8.39h1.43v-8.39zm-4.81-6.34h-1.43v14.73h1.43v-14.73zm-10.89 7.03v-5.77h-1.5v13.47h1.5v-5.8l.38-.38 5.52 6.18h2.07l-6.54-7.2 6.32-6.27h-2.02l-5.73 5.77zm-14.24-.69h-1.43v8.39h1.43v-3.98c0-1.5.12-3.32 2.09-3.32 1.66 0 1.77 1.21 1.77 2.57v4.73h1.43v-4.98c0-1.96-.54-3.64-2.86-3.64-1.03 0-1.8.45-2.39 1.25h-.04v-1.02zm-5.58-4.18c-.55 0-1.02.46-1.02 1.02 0 .57.47 1.02 1.02 1.02s1.02-.45 1.02-1.02c0-.56-.46-1.02-1.02-1.02m.72 4.18h-1.43v8.39h1.43v-8.39zm-11.32 8.39h6.98v-1.39h-5.48v-5.29h5.32v-1.39h-5.32v-4h5.48v-1.39h-6.98v13.46zM209.785 419.225a8.994 8.994 0 001.9 2.86c.81.81 1.76 1.45 2.86 1.9 1.09.46 2.25.69 3.47.69s2.37-.23 3.47-.69a8.994 8.994 0 002.86-1.9c.81-.81 1.45-1.76 1.9-2.86.46-1.09.68-2.25.68-3.47s-.23-2.37-.68-3.47-1.09-2.04-1.9-2.86a8.725 8.725 0 00-2.86-1.9c-1.09-.46-2.25-.69-3.47-.69s-2.38.23-3.47.69-2.04 1.09-2.86 1.9c-.81.81-1.45 1.77-1.9 2.86s-.68 2.25-.68 3.47.23 2.38.68 3.47m4.65-40.95v-12.65h-39.47v12.65h12.27v44.8h14.93v-44.8h12.27zm-45.26-12.65h-32.91v57.45h14.93v-22.55h16.38v-12.65h-16.38v-9.6h17.98v-12.65zm-70.78 0v57.45h32.84v-12.65h-17.9v-44.8h-14.94zm-26.21 57.45h14.93v-57.45h-14.93v57.45zm-47.77-57.45H9.485v57.45h14.93v-23.7h21.56v23.7h14.93v-57.45h-14.93v22.17h-21.56v-22.17zM544.425 313.815c4.11-.96 7.22-2.81 9.33-5.52 2.11-2.72 3.16-6.26 3.16-10.63 0-2.44-.39-4.72-1.18-6.86-.79-2.13-1.96-4.01-3.51-5.64-1.55-1.62-3.52-2.91-5.9-3.85-2.39-.94-5.18-1.41-8.38-1.41h-23.24v57.45h14.93v-22.1l14.25 22.1h18.59l-18.05-23.54zm-14.79-22.4h2.82c2.95 0 5.21.61 6.78 1.83s2.36 2.97 2.36 5.26-.79 4.04-2.36 5.26c-1.58 1.22-3.84 1.83-6.78 1.83h-2.82v-14.18zm-41.14 45.94h14.93v-57.45h-14.93v57.45zm-64.3 0l4.95-33.07 12.88 33.07h5.94l13.56-33.07 4.95 33.07h14.86l-9.75-57.45h-14.78l-11.43 30.63-11.51-30.63h-14.78l-9.75 57.45h14.86zm-34.52-54.4c-2.85-1.52-5.82-2.68-8.92-3.47s-6.07-1.18-8.91-1.18c-3.05 0-5.8.46-8.27 1.37-2.46.91-4.55 2.2-6.25 3.85s-3.02 3.63-3.96 5.94-1.41 4.89-1.41 7.73.44 5.19 1.33 7.05c.89 1.86 2.06 3.39 3.51 4.61 1.45 1.22 3.1 2.2 4.95 2.93 1.85.74 3.74 1.41 5.68 2.02 1.62.56 3.01 1.07 4.15 1.52s2.07.95 2.78 1.49c.71.53 1.22 1.12 1.52 1.75.31.64.46 1.38.46 2.25 0 1.42-.6 2.69-1.79 3.81s-3.01 1.68-5.45 1.68c-2.13 0-4.29-.48-6.48-1.45-2.18-.96-4.39-2.44-6.63-4.42l-6.4 12.04c6.2 4.32 12.93 6.48 20.19 6.48 3.51 0 6.64-.47 9.41-1.41s5.1-2.26 7.01-3.96c1.9-1.7 3.35-3.74 4.34-6.13s1.49-5.05 1.49-8c0-4.37-1.13-7.91-3.39-10.63s-5.83-4.89-10.7-6.51c-1.22-.41-2.45-.79-3.7-1.14-1.24-.36-2.36-.77-3.35-1.26-.99-.48-1.79-1.05-2.4-1.71s-.92-1.5-.92-2.51c0-1.47.61-2.67 1.83-3.58 1.22-.92 2.79-1.37 4.72-1.37 1.52 0 3.1.32 4.72.95 1.62.64 3.25 1.61 4.88 2.93l5.96-11.67zm-56.91 54.4h15.92l-21.87-57.45h-16.3l-21.87 57.45h15.92l3.43-9.98h21.33l3.44 9.98zm-20.8-21.33l6.7-19.12 6.71 19.12h-13.41zm-103.55-36.12l17.14 57.45h15.24l11.28-33.3 11.28 33.3h15.24l17.14-57.45h-15.62l-9.9 37.11-12.19-37.11h-11.89l-12.19 37.11-9.9-37.11h-15.63zm-68.95 57.45h22.1c3.96 0 7.66-.79 11.09-2.36 3.43-1.57 6.43-3.68 8.99-6.32s4.57-5.7 6.02-9.18a27.96 27.96 0 002.17-10.86c0-3.81-.74-7.45-2.21-10.93-1.47-3.48-3.49-6.53-6.06-9.14s-5.56-4.71-8.99-6.29c-3.43-1.57-7.1-2.36-11.01-2.36h-22.1v57.44zm14.93-44.8h3.43c2.54 0 4.82.41 6.86 1.22 2.03.81 3.75 1.93 5.14 3.35 1.4 1.42 2.48 3.12 3.24 5.1.76 1.98 1.14 4.12 1.14 6.4 0 2.34-.37 4.48-1.1 6.44-.74 1.96-1.8 3.64-3.2 5.07-1.4 1.42-3.11 2.54-5.14 3.35s-4.34 1.22-6.93 1.22h-3.43v-32.15h-.01zm-69.41 44.8v-35.12l27.58 35.12h14.86v-57.45h-14.86v35.12l-27.58-35.12h-14.93v57.45h14.93zm-75.5-57.45v33.3c0 8.94 2.06 15.47 6.17 19.58s10.41 6.17 18.9 6.17c8.48 0 14.77-2.06 18.86-6.17 4.09-4.11 6.13-10.64 6.13-19.58v-33.3h-14.86v31.24c0 1.68-.07 3.39-.19 5.14-.13 1.75-.52 3.34-1.18 4.76s-1.66 2.58-3.01 3.47-3.26 1.33-5.75 1.33-4.42-.44-5.79-1.33c-1.37-.89-2.38-2.04-3.01-3.47-.64-1.42-1.02-3.01-1.14-4.76-.13-1.75-.19-3.47-.19-5.14v-31.24H9.485zM667.775 206.845v-12.65h-39.47v12.65h12.27v44.8h14.93v-44.8h12.27zm-83.35-12.65h-14.93v57.45h14.93v-23.7h21.56v23.7h14.93v-57.45h-14.93v22.17h-21.56v-22.17zm-24.92 0h-32.69v57.45h32.69v-12.65h-17.75v-9.9h16.76v-12.65h-16.76v-9.6h17.75v-12.65zm-68.72 36.87h12.27c-.25 1.68-.74 3.1-1.45 4.27a9.047 9.047 0 01-2.71 2.86c-1.09.74-2.32 1.27-3.7 1.6-1.37.33-2.79.49-4.27.49-2.49 0-4.67-.42-6.55-1.26s-3.45-2.02-4.72-3.54c-1.27-1.52-2.22-3.33-2.86-5.41-.63-2.08-.95-4.34-.95-6.78 0-2.69.37-5.13 1.1-7.31s1.75-4.05 3.05-5.6c1.3-1.55 2.86-2.74 4.69-3.58s3.86-1.26 6.09-1.26c2.69 0 5.09.68 7.2 2.06 2.11 1.37 3.82 3.63 5.14 6.78l14.17-5.87c-2.64-5.43-6.22-9.45-10.74-12.04-4.52-2.59-9.78-3.89-15.77-3.89-4.62 0-8.81.74-12.57 2.21s-6.97 3.53-9.64 6.17c-2.67 2.64-4.72 5.83-6.17 9.56s-2.17 7.84-2.17 12.31c0 4.52.73 8.65 2.21 12.38 1.47 3.73 3.53 6.93 6.17 9.6s5.8 4.74 9.49 6.21c3.68 1.47 7.76 2.21 12.23 2.21 3.25 0 6.35-.41 9.3-1.22s5.65-1.99 8.11-3.54c2.46-1.55 4.61-3.48 6.44-5.79s3.28-4.96 4.34-7.96c.76-2.13 1.27-4.44 1.52-6.93s.38-5.26.38-8.31h-29.64v11.58h.01zm-50.21-33.82a39.676 39.676 0 00-8.91-3.47c-3.1-.79-6.07-1.18-8.91-1.18-3.05 0-5.8.46-8.27 1.37-2.47.91-4.55 2.2-6.25 3.85-1.7 1.65-3.02 3.63-3.96 5.94s-1.41 4.89-1.41 7.73.45 5.19 1.33 7.05c.89 1.86 2.06 3.39 3.51 4.61 1.45 1.22 3.1 2.2 4.95 2.93 1.85.74 3.74 1.41 5.68 2.02 1.62.56 3.01 1.07 4.15 1.52 1.14.46 2.07.95 2.78 1.49.71.53 1.22 1.12 1.52 1.75.3.64.46 1.39.46 2.25 0 1.42-.6 2.69-1.79 3.81s-3.01 1.68-5.45 1.68c-2.13 0-4.29-.48-6.48-1.45-2.18-.96-4.39-2.44-6.63-4.42l-6.4 12.04c6.2 4.32 12.93 6.48 20.19 6.48 3.51 0 6.64-.47 9.41-1.41s5.11-2.26 7.01-3.96c1.9-1.7 3.35-3.74 4.34-6.13.99-2.39 1.48-5.05 1.48-8 0-4.37-1.13-7.91-3.39-10.63s-5.83-4.89-10.7-6.52c-1.22-.41-2.45-.79-3.7-1.14-1.25-.36-2.36-.77-3.35-1.26-.99-.48-1.79-1.05-2.4-1.71s-.91-1.5-.91-2.51c0-1.47.61-2.67 1.83-3.58 1.22-.92 2.79-1.37 4.72-1.37 1.52 0 3.1.32 4.72.95 1.62.64 3.25 1.61 4.88 2.93l5.95-11.66zm-45.18-3.05h-32.69v57.45h32.69v-12.65h-17.75v-9.9h16.76v-12.65h-16.76v-9.6h17.75v-12.65zm-112.84 57.45l4.95-33.07 12.88 33.07h5.94l13.56-33.07 4.95 33.07h14.86l-9.75-57.45h-14.78l-11.43 30.63-11.51-30.63h-14.78l-9.75 57.45h14.86zm-70.55-57.45v33.3c0 8.94 2.06 15.47 6.17 19.58 4.11 4.12 10.41 6.17 18.9 6.17s14.77-2.06 18.86-6.17c4.09-4.11 6.13-10.64 6.13-19.58v-33.3h-14.86v31.24c0 1.68-.06 3.39-.19 5.14s-.52 3.34-1.18 4.76-1.66 2.58-3.01 3.47-3.27 1.33-5.75 1.33c-2.49 0-4.42-.44-5.79-1.33-1.37-.89-2.38-2.04-3.01-3.47-.64-1.42-1.02-3.01-1.14-4.76-.13-1.75-.19-3.47-.19-5.14v-31.24h-14.94zm-19.97 33.9c4.11-.96 7.22-2.81 9.33-5.52 2.11-2.72 3.16-6.26 3.16-10.63 0-2.44-.39-4.72-1.18-6.86a16.47 16.47 0 00-3.5-5.64c-1.55-1.62-3.52-2.91-5.9-3.85-2.39-.94-5.18-1.41-8.38-1.41h-23.24v57.45h14.93v-22.1l14.25 22.1h18.59l-18.06-23.54zm-14.78-22.4h2.82c2.95 0 5.21.61 6.78 1.83s2.36 2.97 2.36 5.26-.79 4.04-2.36 5.26c-1.58 1.22-3.84 1.83-6.78 1.83h-2.82v-14.18zm-84.11 29.15c1.57 3.68 3.76 6.9 6.55 9.64s6.13 4.89 10.02 6.44 8.17 2.32 12.84 2.32c4.62 0 8.89-.78 12.8-2.32 3.91-1.55 7.28-3.7 10.1-6.44s5.02-5.95 6.59-9.64c1.57-3.68 2.36-7.66 2.36-11.92 0-4.27-.79-8.24-2.36-11.92-1.58-3.68-3.77-6.89-6.59-9.64-2.82-2.74-6.18-4.89-10.1-6.44-3.91-1.55-8.18-2.32-12.8-2.32-4.67 0-8.95.77-12.84 2.32-3.88 1.55-7.23 3.69-10.02 6.44-2.79 2.74-4.98 5.96-6.55 9.64-1.57 3.68-2.36 7.66-2.36 11.92-.01 4.26.78 8.23 2.36 11.92m14.55-18.25c.86-1.93 2.03-3.61 3.51-5.03 1.47-1.42 3.19-2.53 5.14-3.32 1.96-.79 4.03-1.18 6.21-1.18 2.18 0 4.25.39 6.21 1.18 1.96.79 3.68 1.89 5.18 3.32 1.5 1.42 2.68 3.1 3.54 5.03s1.3 4.04 1.3 6.32c0 2.29-.43 4.39-1.3 6.32-.86 1.93-2.04 3.61-3.54 5.03s-3.23 2.53-5.18 3.31c-1.96.79-4.03 1.18-6.21 1.18-2.18 0-4.26-.39-6.21-1.18-1.96-.79-3.67-1.89-5.14-3.31-1.47-1.42-2.64-3.1-3.51-5.03-.86-1.93-1.29-4.04-1.29-6.32-.01-2.28.42-4.39 1.29-6.32m-104.23-22.4l17.14 57.45h15.24l11.28-33.3 11.28 33.3h15.24l17.14-57.45h-15.62l-9.9 37.11-12.19-37.11h-11.89l-12.19 37.11-9.9-37.11H3.465zM629.375 176.595h8.84l14.02-25.22h-12.95l-9.91 25.22zm-18.13-34.21c4.11-.96 7.23-2.81 9.33-5.52 2.11-2.72 3.16-6.26 3.16-10.63 0-2.44-.4-4.72-1.18-6.86-.79-2.13-1.96-4.01-3.51-5.64-1.55-1.62-3.52-2.91-5.9-3.85-2.39-.94-5.18-1.41-8.38-1.41h-23.24v57.45h14.93v-22.1l14.25 22.1h18.59l-18.05-23.54zm-14.79-22.4h2.82c2.95 0 5.21.61 6.78 1.83s2.36 2.97 2.36 5.26-.79 4.04-2.36 5.26c-1.58 1.22-3.84 1.83-6.78 1.83h-2.82v-14.18zm-23.39-11.51h-32.69v57.45h32.69v-12.65h-17.75v-9.9h16.76v-12.65h-16.76v-9.6h17.75v-12.65zm-72.45 0v57.45h32.84v-12.65h-17.91v-44.8h-14.93zm-39.78 0v57.45h32.84v-12.65h-17.9v-44.8h-14.94zm-9.98 0h-32.69v57.45h32.69v-12.65h-17.75v-9.9h16.76v-12.65h-16.76v-9.6h17.75v-12.65zm-86.4 57.45v-35.12l27.58 35.12h14.86v-57.45h-14.86v35.12l-27.58-35.12h-14.93v57.45h14.93zm-62.7-57.45h-14.93v57.45h14.93v-23.7h21.56v23.7h14.93v-57.45h-14.93v22.17h-21.56v-22.17zm-24.54 1.37c-2.44-1.01-4.76-1.76-6.97-2.25-2.21-.48-4.46-.72-6.74-.72-4.01 0-7.85.75-11.51 2.25s-6.87 3.58-9.64 6.25c-2.77 2.67-4.98 5.84-6.63 9.52-1.65 3.68-2.48 7.73-2.48 12.15s.84 8.49 2.51 12.23c1.68 3.73 3.9 6.96 6.67 9.68 2.77 2.72 5.97 4.83 9.6 6.32a29.55 29.55 0 0011.39 2.25c1.93 0 3.89-.19 5.87-.57 1.98-.38 4.11-.98 6.4-1.79l1.52-.53v-17.68c-3.81 4.06-8.1 6.1-12.88 6.1-2.18 0-4.22-.41-6.1-1.22s-3.52-1.93-4.92-3.35-2.49-3.1-3.28-5.03-1.18-4.04-1.18-6.32c0-2.23.39-4.32 1.18-6.25.79-1.93 1.87-3.59 3.24-4.99 1.37-1.4 3.01-2.5 4.92-3.31 1.9-.81 3.97-1.22 6.21-1.22 5.08 0 9.35 2.11 12.8 6.32v-17.84h.02zm-50.82 1.68a39.751 39.751 0 00-8.92-3.47c-3.1-.79-6.07-1.18-8.91-1.18-3.05 0-5.8.46-8.27 1.37-2.46.91-4.55 2.2-6.25 3.85-1.7 1.65-3.02 3.63-3.96 5.94s-1.41 4.89-1.41 7.73.44 5.19 1.33 7.05c.89 1.86 2.06 3.39 3.51 4.61s3.1 2.2 4.95 2.93c1.85.74 3.75 1.41 5.68 2.02 1.62.56 3.01 1.07 4.15 1.52s2.07.95 2.78 1.49c.71.53 1.22 1.12 1.52 1.75.31.64.46 1.38.46 2.25 0 1.42-.6 2.69-1.79 3.81s-3.01 1.68-5.45 1.68c-2.13 0-4.29-.48-6.48-1.45-2.18-.96-4.39-2.44-6.63-4.42l-6.4 12.04c6.2 4.32 12.93 6.48 20.19 6.48 3.51 0 6.64-.47 9.41-1.41s5.11-2.26 7.01-3.96c1.9-1.7 3.35-3.74 4.34-6.13s1.49-5.05 1.49-8c0-4.37-1.13-7.91-3.39-10.63s-5.83-4.89-10.71-6.51c-1.22-.41-2.45-.79-3.7-1.14-1.24-.36-2.36-.77-3.35-1.26-.99-.48-1.79-1.05-2.4-1.71s-.91-1.5-.91-2.51c0-1.47.61-2.67 1.83-3.58 1.22-.92 2.79-1.37 4.72-1.37 1.52 0 3.1.32 4.72.95 1.62.64 3.25 1.61 4.88 2.93l5.96-11.67zm-90.06-3.05v57.45h32.84v-12.65h-17.9v-44.8h-14.94zm-9.98 0h-32.69v57.45h32.69v-12.65h-17.75v-9.9h16.76v-12.65h-16.76v-9.6h17.75v-12.65zm-58.89 57.45h14.93v-57.45h-14.93v57.45zm-64-57.45l24.15 57.45h11.89l24.23-57.45h-16.23l-13.95 34.97-13.87-34.97H3.465zM651.245 22.765h-14.93v57.45h14.93v-23.7h21.56v23.7h14.93v-57.45h-14.93v22.17h-21.56v-22.17zm-24.54 1.37c-2.44-1.01-4.76-1.76-6.97-2.25-2.21-.48-4.46-.72-6.74-.72-4.01 0-7.85.75-11.51 2.25s-6.87 3.58-9.64 6.25-4.98 5.84-6.63 9.52c-1.65 3.68-2.48 7.73-2.48 12.15s.84 8.49 2.51 12.23c1.68 3.73 3.9 6.96 6.67 9.68 2.77 2.72 5.97 4.83 9.6 6.32a29.55 29.55 0 0011.39 2.25c1.93 0 3.89-.19 5.87-.57s4.11-.98 6.4-1.79l1.52-.53v-17.68c-3.81 4.06-8.1 6.1-12.88 6.1-2.18 0-4.22-.41-6.1-1.22s-3.52-1.93-4.91-3.35c-1.4-1.42-2.49-3.1-3.28-5.03-.79-1.93-1.18-4.04-1.18-6.32 0-2.23.39-4.32 1.18-6.25s1.87-3.59 3.24-4.99 3.01-2.5 4.91-3.31c1.9-.81 3.97-1.22 6.21-1.22 5.08 0 9.34 2.11 12.8 6.32v-17.84h.02zm-66.06 56.07h14.93v-57.44h-14.93v57.44zm-27.35-57.44h-32.69v57.45h32.69v-12.65h-17.75v-9.9h16.76v-12.65h-16.76v-9.6h17.75v-12.65zm-74.28 0h-14.93v57.45h14.93v-24.91l19.43 24.91h19.35l-24.91-30.25 22.77-27.2h-18.44l-18.21 23.7v-23.7h.01zm-35.43 33.9c4.11-.96 7.23-2.81 9.33-5.52 2.11-2.72 3.16-6.26 3.16-10.63 0-2.44-.39-4.72-1.18-6.86-.79-2.13-1.96-4.01-3.51-5.64-1.55-1.62-3.52-2.91-5.9-3.85-2.39-.94-5.18-1.41-8.38-1.41h-23.24v57.45h14.93v-22.1l14.25 22.1h18.59l-18.05-23.54zm-14.78-22.4h2.82c2.95 0 5.21.61 6.78 1.83s2.36 2.97 2.36 5.26-.79 4.04-2.36 5.26c-1.58 1.22-3.84 1.83-6.78 1.83h-2.82v-14.18zm-24.92-11.5h-32.69v57.45h32.69v-12.65h-17.75v-9.9h16.76v-12.65h-16.76v-9.6h17.75v-12.65zm-95.47 57.44l4.95-33.07 12.88 33.07h5.94l13.56-33.07 4.95 33.07h14.86l-9.75-57.45h-14.78l-11.43 30.63-11.51-30.63h-14.78l-9.75 57.45h14.86zm-39.62-57.44h-32.69v57.45h32.69v-12.65h-17.75v-9.9h16.76v-12.65h-16.76v-9.6h17.75v-12.65zm-40.07 12.64v-12.64h-39.47v12.65h12.27v44.8h14.93v-44.8h12.27v-.01zm-96.92-12.64v33.3c0 8.94 2.06 15.47 6.17 19.58s10.41 6.17 18.9 6.17 14.77-2.06 18.86-6.17 6.13-10.64 6.13-19.58v-33.3h-14.86v31.24c0 1.68-.07 3.39-.19 5.14-.13 1.75-.52 3.34-1.18 4.76s-1.66 2.58-3.01 3.47c-1.35.89-3.26 1.33-5.75 1.33s-4.42-.44-5.79-1.33-2.38-2.04-3.01-3.47c-.64-1.42-1.02-3.01-1.14-4.76-.13-1.75-.19-3.47-.19-5.14v-31.24h-14.94zm-8.45 0h-32.69v57.45h32.69v-12.65h-17.75v-9.9h16.76v-12.65h-16.76v-9.6h17.75v-12.65zm-78.94 0H9.485v57.45h14.93v-23.7h21.56v23.7h14.93v-57.45h-14.93v22.17h-21.56v-22.17z"/></g></svg>