<svg xmlns="http://www.w3.org/2000/svg" width="841.89" height="530.64" viewBox="0 0 841.89 530.64"><g fill="#CD1719"><path d="M423.835 162.064c.46 1.09 1.09 2.05 1.9 2.86s1.76 1.45 2.86 1.9c1.09.46 2.25.69 3.47.69s2.37-.23 3.47-.69a8.994 8.994 0 002.86-1.9c.81-.81 1.45-1.76 1.9-2.86.46-1.09.69-2.25.69-3.47s-.23-2.37-.69-3.47a8.995 8.995 0 00-1.9-2.86 8.726 8.726 0 00-2.86-1.9c-1.09-.46-2.25-.69-3.47-.69s-2.38.23-3.47.69a8.994 8.994 0 00-2.86 1.9c-.81.81-1.45 1.76-1.9 2.86a8.844 8.844 0 00-.69 3.47c0 1.23.23 2.38.69 3.47m-9.57-50.55a39.862 39.862 0 00-8.91-3.47c-3.1-.79-6.07-1.18-8.91-1.18-3.05 0-5.8.46-8.27 1.37-2.46.91-4.55 2.2-6.25 3.85s-3.02 3.63-3.96 5.94-1.41 4.89-1.41 7.73c0 2.85.44 5.19 1.33 7.05.89 1.85 2.06 3.39 3.51 4.61 1.45 1.22 3.1 2.2 4.95 2.93 1.85.74 3.74 1.41 5.68 2.02 1.62.56 3.01 1.07 4.15 1.52 1.14.46 2.07.95 2.78 1.49.71.53 1.22 1.12 1.52 1.75.3.63.46 1.38.46 2.25 0 1.42-.6 2.69-1.79 3.81s-3.01 1.68-5.45 1.68c-2.13 0-4.29-.48-6.48-1.45-2.18-.96-4.39-2.44-6.63-4.42l-6.4 12.04c6.2 4.32 12.93 6.48 20.19 6.48 3.51 0 6.64-.47 9.41-1.41 2.77-.94 5.1-2.26 7.01-3.96 1.9-1.7 3.35-3.75 4.34-6.13.99-2.39 1.48-5.05 1.48-8 0-4.37-1.13-7.91-3.39-10.63s-5.83-4.89-10.71-6.51c-1.22-.41-2.45-.79-3.7-1.14-1.24-.36-2.36-.77-3.35-1.26-.99-.48-1.79-1.05-2.4-1.71-.61-.66-.91-1.5-.91-2.51 0-1.47.61-2.67 1.83-3.58 1.22-.91 2.79-1.37 4.72-1.37 1.52 0 3.1.32 4.72.95 1.62.64 3.25 1.61 4.88 2.93l5.96-11.67zm-62.02 22.25h8.84l14.02-25.3h-13.03l-9.83 25.3zm-17.37 8.61c4.11-.97 7.22-2.81 9.33-5.52 2.11-2.72 3.16-6.26 3.16-10.63 0-2.44-.39-4.72-1.18-6.86-.79-2.13-1.96-4.01-3.51-5.64-1.55-1.62-3.52-2.91-5.91-3.85s-5.18-1.41-8.38-1.41h-23.24v57.45h14.93v-22.1l14.25 22.1h18.59l-18.04-23.54zm-14.78-22.4h2.82c2.95 0 5.21.61 6.78 1.83s2.36 2.97 2.36 5.26-.79 4.04-2.36 5.26-3.84 1.83-6.78 1.83h-2.82v-14.18zm-33.98 45.94h15.92l-21.87-57.45h-16.3l-21.87 57.45h15.92l3.43-9.98h21.33l3.44 9.98zm-20.8-21.33l6.71-19.12 6.7 19.12h-13.41zm-104.31-36.12l17.14 57.45h15.24l11.28-33.3 11.28 33.3h15.24l17.14-57.45h-15.62l-9.9 37.11-12.19-37.11h-11.89l-12.19 37.11-9.9-37.11h-15.63zm-58.42 0h-14.93v57.45h14.93v-23.7h21.56v23.7h14.93v-57.45h-14.93v22.17h-21.56v-22.17zm-26.05 1.37c-2.44-1.02-4.76-1.76-6.97-2.25-2.21-.48-4.46-.72-6.74-.72-4.01 0-7.85.75-11.51 2.25s-6.87 3.58-9.64 6.25-4.98 5.84-6.63 9.52c-1.65 3.68-2.48 7.73-2.48 12.15s.84 8.5 2.51 12.23c1.68 3.73 3.9 6.96 6.67 9.68s5.97 4.83 9.6 6.32a29.55 29.55 0 0011.39 2.25c1.93 0 3.89-.19 5.87-.57 1.98-.38 4.12-.98 6.4-1.79l1.52-.53v-17.68c-3.81 4.07-8.1 6.1-12.88 6.1-2.18 0-4.22-.41-6.1-1.22s-3.52-1.93-4.91-3.35c-1.4-1.42-2.49-3.1-3.28-5.03s-1.18-4.04-1.18-6.32c0-2.23.39-4.32 1.18-6.25s1.87-3.59 3.24-4.99c1.37-1.4 3.01-2.5 4.91-3.31s3.97-1.22 6.21-1.22c5.08 0 9.35 2.11 12.8 6.32v-17.84h.02zm-67.59 56.08h14.93v-57.45H8.945v57.45zM101.525 90.864h8.84l14.02-25.22h-12.95l-9.91 25.22zm-17.3-10.67h15.92l-21.87-57.45h-16.3l-21.87 57.45h15.92l3.43-9.98h21.33l3.44 9.98zm-20.8-21.33l6.7-19.12 6.71 19.12h-13.41zm-41.14-36.11v39.62c0 4.42-1.4 6.63-4.19 6.63-1.27 0-2.34-.51-3.2-1.52-.86-1.02-1.42-2.39-1.68-4.11l-9.75 9.98c3.86 5.64 8.86 8.46 15.01 8.46 2.03 0 3.97-.27 5.83-.8a20.33 20.33 0 005.07-2.21 16.673 16.673 0 006.71-7.89c.41-1.02.7-2.23.88-3.66.18-1.42.27-2.97.27-4.65v-39.85h-14.95z"/></g></svg>