<svg xmlns="http://www.w3.org/2000/svg" width="841.89" height="530.64" viewBox="0 0 841.89 530.64"><g fill="#CD1719"><path d="M477.168 162.075a8.995 8.995 0 001.9 2.86c.81.81 1.76 1.45 2.86 1.9 1.09.46 2.25.69 3.47.69s2.37-.23 3.47-.69a8.994 8.994 0 002.86-1.9c.81-.81 1.45-1.76 1.9-2.86.46-1.09.69-2.25.69-3.47s-.23-2.37-.69-3.47a8.995 8.995 0 00-1.9-2.86 8.726 8.726 0 00-2.86-1.9c-1.09-.46-2.25-.69-3.47-.69s-2.38.23-3.47.69a8.994 8.994 0 00-2.86 1.9c-.81.81-1.45 1.77-1.9 2.86-.46 1.09-.69 2.25-.69 3.47s.23 2.38.69 3.47m4.65-40.95v-12.65h-39.47v12.65h12.27v44.8h14.93v-44.8h12.27zm-56.15 21.26c4.11-.96 7.22-2.81 9.33-5.52 2.11-2.72 3.16-6.26 3.16-10.63 0-2.44-.39-4.72-1.18-6.86-.79-2.13-1.96-4.01-3.51-5.64-1.55-1.62-3.52-2.91-5.9-3.85-2.39-.94-5.18-1.41-8.38-1.41h-23.24v57.45h14.93v-22.1l14.25 22.1h18.59l-18.05-23.54zm-14.79-22.4h2.82c2.95 0 5.21.61 6.78 1.83s2.36 2.97 2.36 5.26c0 2.29-.79 4.04-2.36 5.26-1.58 1.22-3.84 1.83-6.78 1.83h-2.82v-14.18zm-23.39-11.51h-32.69v57.45h32.69v-12.65h-17.75v-9.9h16.76v-12.65h-16.76v-9.6h17.75v-12.65zm-123.73 0l17.14 57.45h15.24l11.28-33.3 11.28 33.3h15.24l17.14-57.45h-15.62l-9.9 37.11-12.19-37.11h-11.89l-12.19 37.11-9.9-37.11h-15.63zm-25.75 33.91c4.11-.96 7.23-2.81 9.33-5.52 2.11-2.72 3.16-6.26 3.16-10.63 0-2.44-.39-4.72-1.18-6.86-.79-2.13-1.96-4.01-3.51-5.64-1.55-1.62-3.52-2.91-5.9-3.85-2.39-.94-5.18-1.41-8.38-1.41h-23.24v57.45h14.93v-22.1l14.25 22.1h18.59l-18.05-23.54zm-14.79-22.4h2.82c2.95 0 5.21.61 6.78 1.83s2.36 2.97 2.36 5.26c0 2.29-.79 4.04-2.36 5.26-1.58 1.22-3.84 1.83-6.78 1.83h-2.82v-14.18zm-42.66 45.94h14.93v-57.45h-14.93v57.45zm-64.31 0l4.95-33.07 12.88 33.07h5.94l13.56-33.07 4.95 33.07h14.86l-9.75-57.45h-14.78l-11.43 30.63-11.51-30.63h-14.78l-9.75 57.45h14.86zm-31.46-54.4a39.862 39.862 0 00-8.91-3.47c-3.1-.79-6.07-1.18-8.91-1.18-3.05 0-5.8.46-8.27 1.37-2.46.92-4.55 2.2-6.25 3.85s-3.02 3.63-3.96 5.94-1.41 4.89-1.41 7.73c0 2.84.44 5.19 1.33 7.05.89 1.85 2.06 3.39 3.5 4.61 1.45 1.22 3.1 2.2 4.95 2.93 1.85.74 3.75 1.41 5.68 2.02 1.62.56 3.01 1.07 4.15 1.52 1.14.46 2.07.95 2.78 1.49.71.53 1.22 1.12 1.52 1.75.31.64.46 1.39.46 2.25 0 1.42-.6 2.69-1.79 3.81s-3.01 1.68-5.45 1.68c-2.13 0-4.29-.48-6.48-1.45-2.18-.96-4.39-2.44-6.63-4.42l-6.4 12.04c6.2 4.32 12.93 6.48 20.19 6.48 3.5 0 6.64-.47 9.41-1.41s5.1-2.26 7.01-3.96c1.9-1.7 3.35-3.74 4.34-6.13s1.49-5.05 1.49-8c0-4.37-1.13-7.91-3.39-10.63s-5.83-4.89-10.71-6.52c-1.22-.41-2.45-.79-3.7-1.14s-2.36-.77-3.35-1.26c-.99-.48-1.79-1.05-2.4-1.71-.61-.66-.91-1.5-.91-2.51 0-1.47.61-2.67 1.83-3.58 1.22-.92 2.79-1.37 4.72-1.37 1.52 0 3.1.32 4.72.95 1.62.64 3.25 1.61 4.88 2.93l5.96-11.66zm-45.95-3.05H6.148v57.45h32.69v-12.65h-17.75v-9.9h16.76v-12.65h-16.76v-9.6h17.75v-12.65zM252.328 80.205v-35.13l27.58 35.13h14.86v-57.45h-14.86v35.12l-27.58-35.12h-14.94v57.45h14.94zm-41.53 0h14.93v-57.45h-14.93v57.45zm-49.67 0h24c3.05 0 5.79-.36 8.23-1.07 2.44-.71 4.51-1.78 6.21-3.2 1.7-1.42 3.02-3.17 3.96-5.26.94-2.08 1.41-4.47 1.41-7.16 0-1.73-.2-3.35-.61-4.88-.41-1.52-1.08-2.9-2.02-4.11-.94-1.22-2.16-2.25-3.66-3.09s-3.32-1.46-5.45-1.87c2.13-1.32 3.72-2.93 4.76-4.84 1.04-1.9 1.56-4.3 1.56-7.2 0-4.77-1.37-8.43-4.12-10.97-2.74-2.54-6.76-3.81-12.04-3.81h-22.25v57.46h.02zm14.93-46.02h2.74c4.67 0 7.01 1.85 7.01 5.56 0 3.71-2.34 5.56-7.01 5.56h-2.74v-11.12zm0 22.25h3.28c3.76 0 6.45.48 8.08 1.45 1.62.96 2.44 2.51 2.44 4.65 0 2.13-.81 3.68-2.44 4.65s-4.32 1.45-8.08 1.45h-3.28v-12.2zm-77.03-33.67h-14.93v57.45h14.93v-23.7h21.56v23.7h14.93v-57.45h-14.93v22.17h-21.56v-22.17zm-26.06 1.37c-2.44-1.02-4.76-1.76-6.97-2.25-2.21-.48-4.46-.72-6.74-.72-4.01 0-7.85.75-11.51 2.25s-6.87 3.58-9.64 6.25-4.98 5.84-6.63 9.52c-1.65 3.68-2.48 7.73-2.48 12.15s.84 8.5 2.51 12.23c1.68 3.73 3.9 6.96 6.67 9.68s5.97 4.83 9.6 6.32a29.55 29.55 0 0011.39 2.25c1.93 0 3.89-.19 5.87-.57 1.98-.38 4.11-.98 6.4-1.79l1.52-.53v-17.68c-3.81 4.07-8.1 6.1-12.88 6.1-2.18 0-4.22-.41-6.1-1.22s-3.52-1.93-4.91-3.35c-1.4-1.42-2.49-3.1-3.28-5.03s-1.18-4.04-1.18-6.32c0-2.23.39-4.32 1.18-6.25s1.87-3.59 3.24-4.99c1.37-1.4 3.01-2.5 4.91-3.31 1.9-.81 3.97-1.22 6.21-1.22 5.08 0 9.35 2.11 12.8 6.32v-17.84h.02zm-66.81 56.07h14.93v-57.45H6.158v57.45z"/></g></svg>