<svg xmlns="http://www.w3.org/2000/svg" width="841.89" height="530.64" viewBox="0 0 841.89 530.64"><g fill="#CD1719"><path d="M535.7 162.117a8.995 8.995 0 001.9 2.86c.81.81 1.77 1.45 2.86 1.9 1.09.46 2.25.69 3.47.69s2.37-.23 3.47-.69a8.994 8.994 0 002.86-1.9c.81-.81 1.45-1.76 1.9-2.86.46-1.09.69-2.25.69-3.47s-.23-2.37-.69-3.47a8.995 8.995 0 00-1.9-2.86 8.726 8.726 0 00-2.86-1.9c-1.09-.46-2.25-.69-3.47-.69s-2.38.23-3.47.69c-1.09.46-2.05 1.09-2.86 1.9s-1.45 1.77-1.9 2.86c-.46 1.09-.69 2.25-.69 3.47s.24 2.38.69 3.47m-8.68-53.6h-32.69v57.45h32.69v-12.65h-17.75v-9.9h16.76v-12.65h-16.76v-9.6h17.75v-12.65zm-75.43 0h-14.93v57.45h14.93v-24.92l19.43 24.92h19.35l-24.91-30.25 22.78-27.2H469.8l-18.21 23.7v-23.7zm-25.14 1.37c-2.44-1.01-4.76-1.76-6.97-2.25-2.21-.48-4.46-.72-6.74-.72-4.01 0-7.85.75-11.51 2.25s-6.87 3.58-9.64 6.25-4.98 5.84-6.63 9.52c-1.65 3.68-2.48 7.73-2.48 12.15s.84 8.5 2.51 12.23c1.68 3.73 3.9 6.96 6.67 9.68s5.97 4.83 9.6 6.32a29.55 29.55 0 0011.39 2.25c1.93 0 3.89-.19 5.87-.57s4.11-.98 6.4-1.79l1.52-.53v-17.68c-3.81 4.06-8.1 6.09-12.88 6.09-2.18 0-4.22-.41-6.1-1.22s-3.52-1.93-4.91-3.35c-1.4-1.42-2.49-3.1-3.28-5.03-.79-1.93-1.18-4.04-1.18-6.32 0-2.23.39-4.32 1.18-6.25s1.87-3.59 3.24-4.99 3.01-2.5 4.91-3.31c1.91-.81 3.97-1.22 6.21-1.22 5.08 0 9.34 2.11 12.8 6.32v-17.83h.02zm-50.59-1.37h-32.69v57.45h32.69v-12.65h-17.75v-9.9h16.76v-12.65h-16.76v-9.6h17.75v-12.65zm-65.99 33.91c4.12-.96 7.23-2.81 9.33-5.52 2.11-2.72 3.16-6.26 3.16-10.63 0-2.44-.39-4.72-1.18-6.86-.79-2.13-1.96-4.01-3.51-5.64-1.55-1.63-3.52-2.91-5.9-3.85-2.39-.94-5.18-1.41-8.38-1.41h-23.24v57.45h14.93v-22.1l14.25 22.1h18.6l-18.06-23.54zm-14.78-22.4h2.82c2.94 0 5.21.61 6.78 1.83s2.36 2.97 2.36 5.26c0 2.29-.79 4.04-2.36 5.26-1.57 1.22-3.84 1.83-6.78 1.83h-2.82v-14.18zm-24.91-11.51h-32.69v57.45h32.69v-12.65h-17.75v-9.9h16.76v-12.65h-16.76v-9.6h17.75v-12.65zm-90.29 57.45h22.1c3.96 0 7.66-.79 11.09-2.36 3.43-1.57 6.43-3.68 8.99-6.32s4.57-5.7 6.02-9.18a27.96 27.96 0 002.17-10.86c0-3.81-.74-7.45-2.21-10.93-1.47-3.48-3.49-6.53-6.06-9.14-2.57-2.62-5.56-4.71-8.99-6.29-3.43-1.57-7.1-2.36-11.01-2.36h-22.1v57.44zm14.93-44.8h3.43c2.54 0 4.83.41 6.86 1.22s3.74 1.93 5.14 3.35c1.4 1.42 2.48 3.12 3.24 5.11s1.14 4.11 1.14 6.4c0 2.34-.37 4.48-1.11 6.44s-1.8 3.65-3.2 5.07c-1.4 1.42-3.11 2.54-5.14 3.35s-4.34 1.22-6.93 1.22h-3.43v-32.16zm-37.18-9.6a39.862 39.862 0 00-8.91-3.47c-3.1-.79-6.07-1.18-8.92-1.18-3.05 0-5.8.46-8.27 1.37-2.46.92-4.55 2.2-6.25 3.85s-3.02 3.63-3.96 5.94-1.41 4.89-1.41 7.73c0 2.85.44 5.19 1.33 7.05.89 1.85 2.06 3.39 3.5 4.61 1.45 1.22 3.1 2.2 4.95 2.93 1.85.74 3.74 1.41 5.68 2.02 1.62.56 3.01 1.07 4.15 1.52 1.14.46 2.07.95 2.78 1.49s1.22 1.12 1.52 1.75c.31.64.46 1.39.46 2.25 0 1.42-.6 2.69-1.79 3.81s-3.01 1.68-5.45 1.68c-2.13 0-4.29-.48-6.48-1.45-2.19-.96-4.39-2.44-6.63-4.42l-6.4 12.04c6.2 4.32 12.93 6.48 20.19 6.48 3.51 0 6.64-.47 9.41-1.41s5.11-2.26 7.01-3.96c1.9-1.7 3.35-3.74 4.34-6.13s1.49-5.05 1.49-8c0-4.37-1.13-7.91-3.39-10.63s-5.83-4.89-10.7-6.52c-1.22-.41-2.45-.79-3.7-1.14-1.24-.35-2.36-.77-3.35-1.26-.99-.48-1.791-1.05-2.4-1.71s-.921-1.5-.921-2.51c0-1.47.61-2.67 1.83-3.58 1.22-.92 2.79-1.37 4.72-1.37 1.52 0 3.1.32 4.72.95 1.62.64 3.25 1.61 4.88 2.93l5.97-11.66zm-95.77-3.05v33.3c0 8.94 2.06 15.47 6.17 19.58 4.12 4.11 10.41 6.17 18.9 6.17 8.48 0 14.77-2.06 18.86-6.17 4.09-4.11 6.13-10.64 6.13-19.58v-33.3H97.07v31.24c0 1.68-.06 3.39-.19 5.14s-.52 3.34-1.18 4.76c-.66 1.42-1.66 2.58-3.01 3.47-1.35.89-3.26 1.33-5.75 1.33s-4.42-.44-5.79-1.33c-1.37-.89-2.38-2.04-3.01-3.47-.64-1.42-1.02-3.01-1.14-4.76-.13-1.75-.19-3.47-.19-5.14v-31.24H61.87zm-17.07 57.45h15.93l-21.87-57.45h-16.3L.69 165.967h15.92l3.43-9.98h21.33l3.43 9.98zM24 144.637l6.71-19.12 6.7 19.12H24zM209.38 25.847a39.861 39.861 0 00-8.91-3.47c-3.1-.79-6.07-1.18-8.91-1.18-3.05 0-5.8.46-8.27 1.37-2.46.91-4.55 2.2-6.25 3.85-1.7 1.65-3.02 3.63-3.96 5.94s-1.41 4.89-1.41 7.73c0 2.85.44 5.19 1.33 7.05.89 1.85 2.06 3.39 3.51 4.61 1.45 1.22 3.1 2.2 4.95 2.93 1.85.74 3.75 1.41 5.68 2.02 1.62.56 3.01 1.07 4.15 1.52 1.14.46 2.07.95 2.78 1.49.71.53 1.22 1.12 1.52 1.75.3.64.46 1.38.46 2.25 0 1.42-.6 2.69-1.79 3.81s-3.01 1.68-5.45 1.68c-2.13 0-4.29-.48-6.48-1.45-2.18-.96-4.39-2.44-6.63-4.42l-6.4 12.04c6.2 4.32 12.93 6.48 20.19 6.48 3.5 0 6.64-.47 9.41-1.41s5.11-2.26 7.01-3.96c1.9-1.7 3.35-3.74 4.34-6.13s1.49-5.05 1.49-8c0-4.37-1.13-7.91-3.39-10.63s-5.83-4.89-10.7-6.51c-1.22-.4-2.45-.79-3.7-1.14-1.24-.35-2.36-.77-3.35-1.26-.99-.48-1.79-1.05-2.4-1.71s-.91-1.5-.91-2.51c0-1.47.61-2.67 1.83-3.58s2.79-1.37 4.72-1.37c1.52 0 3.1.32 4.72.95 1.62.63 3.25 1.61 4.88 2.93l5.94-11.67zm-95.77-3.04v33.3c0 8.94 2.06 15.47 6.17 19.58s10.41 6.17 18.9 6.17c8.48 0 14.77-2.06 18.86-6.17 4.09-4.11 6.13-10.64 6.13-19.58v-33.3h-14.86v31.24c0 1.68-.06 3.39-.19 5.14s-.52 3.34-1.18 4.76c-.66 1.42-1.66 2.58-3.01 3.47s-3.26 1.33-5.75 1.33-4.42-.44-5.79-1.33c-1.37-.89-2.38-2.04-3.01-3.47-.63-1.42-1.02-3.01-1.14-4.76-.13-1.75-.19-3.47-.19-5.14v-31.24h-14.94zm-17.07 57.44h15.92l-21.87-57.45h-16.3l-21.87 57.45h15.92l3.43-9.98H93.1l3.44 9.98zm-20.8-21.33l6.71-19.12 6.7 19.12H75.74zm-39.85-2.21c4.12-.96 7.23-2.81 9.33-5.52 2.11-2.72 3.16-6.26 3.16-10.63 0-2.44-.39-4.72-1.18-6.86-.79-2.13-1.96-4.01-3.51-5.64-1.55-1.62-3.52-2.91-5.9-3.85-2.39-.94-5.18-1.41-8.38-1.41H6.17v57.45H21.1v-22.1l14.25 22.1h18.59l-18.05-23.54zm-14.78-22.4h2.82c2.95 0 5.21.61 6.78 1.83 1.57 1.22 2.36 2.97 2.36 5.26s-.79 4.04-2.36 5.26c-1.57 1.22-3.84 1.83-6.78 1.83h-2.82v-14.18z"/></g></svg>