<svg viewBox="0 0 684.9 192.3" xmlns="http://www.w3.org/2000/svg"><g fill="#cd1719"><path d="M535 140.9c.5 1.1 1.1 2 1.9 2.9.8.8 1.8 1.5 2.9 1.9 1.1.5 2.2.7 3.5.7s2.4-.2 3.5-.7 2-1.1 2.9-1.9c.8-.8 1.5-1.8 1.9-2.9.5-1.1.7-2.2.7-3.5s-.2-2.4-.7-3.5-1.1-2-1.9-2.9c-.8-.8-1.8-1.5-2.9-1.9-1.1-.5-2.2-.7-3.5-.7s-2.4.2-3.5.7-2 1.1-2.9 1.9-1.5 1.8-1.9 2.9c-.5 1.1-.7 2.2-.7 3.5s.3 2.4.7 3.5m-8.7-53.6h-32.7v57.5h32.7v-12.6h-17.7v-9.9h16.8v-12.6h-16.8V100h17.7zm-75.4 0H436v57.5h14.9v-24.9l19.4 24.9h19.3l-24.9-30.2 22.8-27.2h-18.4L450.9 111zm-25.1 1.4c-2.4-1-4.8-1.8-7-2.2-2.2-.5-4.5-.7-6.7-.7-4 0-7.8.8-11.5 2.2-3.7 1.5-6.9 3.6-9.6 6.2s-5 5.8-6.6 9.5-2.5 7.7-2.5 12.1.8 8.5 2.5 12.2 3.9 7 6.7 9.7 6 4.8 9.6 6.3 7.4 2.2 11.4 2.2c1.9 0 3.9-.2 5.9-.6s4.1-1 6.4-1.8l1.5-.5v-17.7c-3.8 4.1-8.1 6.1-12.9 6.1-2.2 0-4.2-.4-6.1-1.2s-3.5-1.9-4.9-3.4c-1.4-1.4-2.5-3.1-3.3-5s-1.2-4-1.2-6.3c0-2.2.4-4.3 1.2-6.2s1.9-3.6 3.2-5 3-2.5 4.9-3.3 4-1.2 6.2-1.2c5.1 0 9.3 2.1 12.8 6.3zm-50.6-1.4h-32.7v57.5h32.7v-12.6h-17.8v-9.9h16.8v-12.6h-16.8V100h17.8zm-66 33.9c4.1-1 7.2-2.8 9.3-5.5s3.2-6.3 3.2-10.6c0-2.4-.4-4.7-1.2-6.9-.8-2.1-2-4-3.5-5.6s-3.5-2.9-5.9-3.9c-2.4-.9-5.2-1.4-8.4-1.4h-23.2v57.5h14.9v-22.1l14.2 22.1h18.6zm-14.8-22.4h2.8c2.9 0 5.2.6 6.8 1.8s2.4 3 2.4 5.3-.8 4-2.4 5.3c-1.6 1.2-3.8 1.8-6.8 1.8h-2.8zm-24.9-11.5h-32.7v57.5h32.7v-12.6h-17.8v-9.9h16.8v-12.6h-16.8V100h17.8zm-90.3 57.5h22.1c4 0 7.7-.8 11.1-2.4s6.4-3.7 9-6.3 4.6-5.7 6-9.2c1.5-3.5 2.2-7.1 2.2-10.9s-.7-7.5-2.2-10.9c-1.5-3.5-3.5-6.5-6.1-9.1s-5.6-4.7-9-6.3-7.1-2.4-11-2.4h-22.1zm14.9-44.8h3.4c2.5 0 4.8.4 6.9 1.2s3.7 1.9 5.1 3.4c1.4 1.4 2.5 3.1 3.2 5.1s1.1 4.1 1.1 6.4-.4 4.5-1.1 6.4-1.8 3.6-3.2 5.1c-1.4 1.4-3.1 2.5-5.1 3.4-2 .8-4.3 1.2-6.9 1.2h-3.4zM157 90.4c-2.9-1.5-5.8-2.7-8.9-3.5s-6.1-1.2-8.9-1.2c-3 0-5.8.5-8.3 1.4s-4.5 2.2-6.2 3.9-3 3.6-4 5.9-1.4 4.9-1.4 7.7c0 2.9.4 5.2 1.3 7 .9 1.9 2.1 3.4 3.5 4.6s3.1 2.2 5 2.9 3.7 1.4 5.7 2c1.6.6 3 1.1 4.1 1.5 1.1.5 2.1 1 2.8 1.5s1.2 1.1 1.5 1.8c.3.6.5 1.4.5 2.2 0 1.4-.6 2.7-1.8 3.8s-3 1.7-5.5 1.7c-2.1 0-4.3-.5-6.5-1.5s-4.4-2.4-6.6-4.4l-6.4 12c6.2 4.3 12.9 6.5 20.2 6.5 3.5 0 6.6-.5 9.4-1.4s5.1-2.3 7-4 3.4-3.7 4.3-6.1 1.5-5 1.5-8c0-4.4-1.1-7.9-3.4-10.6s-5.8-4.9-10.7-6.5c-1.2-.4-2.5-.8-3.7-1.1-1.2-.4-2.4-.8-3.4-1.3s-1.8-1-2.4-1.7-.9-1.5-.9-2.5c0-1.5.6-2.7 1.8-3.6s2.8-1.4 4.7-1.4c1.5 0 3.1.3 4.7 1 1.6.6 3.2 1.6 4.9 2.9zm-95.8-3.1v33.3c0 8.9 2.1 15.5 6.2 19.6s10.4 6.2 18.9 6.2 14.8-2.1 18.9-6.2 6.1-10.6 6.1-19.6V87.3H96.4v31.2c0 1.7-.1 3.4-.2 5.1s-.5 3.3-1.2 4.8c-.7 1.4-1.7 2.6-3 3.5-1.4.9-3.3 1.3-5.8 1.3s-4.4-.4-5.8-1.3-2.4-2-3-3.5c-.6-1.4-1-3-1.1-4.8s-.2-3.5-.2-5.1V87.3zm-17.1 57.5H60L38.2 87.3H21.9L0 144.8h15.9l3.4-10h21.3zm-20.8-21.4l6.7-19.1 6.7 19.1zM208.7 4.6c-2.9-1.5-5.8-2.7-8.9-3.5s-6.1-1.2-8.9-1.2c-3 0-5.8.5-8.3 1.4s-4.5 2.2-6.2 3.9c-1.7 1.6-3 3.6-4 5.9S171 16 171 18.8c0 2.9.4 5.2 1.3 7.1s2.1 3.4 3.5 4.6c1.5 1.2 3.1 2.2 5 2.9s3.8 1.4 5.7 2c1.6.6 3 1.1 4.1 1.5 1.1.5 2.1 1 2.8 1.5s1.2 1.1 1.5 1.8c.3.6.5 1.4.5 2.2 0 1.4-.6 2.7-1.8 3.8s-3 1.7-5.5 1.7c-2.1 0-4.3-.5-6.5-1.5S177.2 44 175 42l-6.4 12c6.2 4.3 12.9 6.5 20.2 6.5 3.5 0 6.6-.5 9.4-1.4s5.1-2.3 7-4 3.4-3.7 4.3-6.1 1.5-5 1.5-8c0-4.4-1.1-7.9-3.4-10.6s-5.8-4.9-10.7-6.5c-1.2-.4-2.5-.8-3.7-1.1-1.2-.4-2.4-.8-3.4-1.3s-1.8-1.1-2.4-1.7-.9-1.5-.9-2.5c0-1.5.6-2.7 1.8-3.6s2.8-1.4 4.7-1.4c1.5 0 3.1.3 4.7.9s3.2 1.6 4.9 2.9zm-95.8-3v33.3c0 8.9 2.1 15.5 6.2 19.6s10.4 6.2 18.9 6.2 14.8-2.1 18.9-6.2 6.1-10.6 6.1-19.6V1.6h-14.9v31.2c0 1.7-.1 3.4-.2 5.1s-.5 3.3-1.2 4.8-1.7 2.6-3 3.5-3.3 1.3-5.8 1.3-4.4-.4-5.8-1.3-2.4-2-3-3.5c-.6-1.4-1-3-1.1-4.8s-.2-3.5-.2-5.1V1.6zM95.9 59h15.9L89.9 1.6H73.6L51.7 59h15.9L71 49h21.3zM75.1 37.7l6.7-19.1 6.7 19.1zm-39.9-2.2c4.1-1 7.2-2.8 9.3-5.5s3.2-6.3 3.2-10.6c0-2.4-.4-4.7-1.2-6.9-.8-2.1-2-4-3.5-5.6C41.4 5.3 39.5 4 37.1 3c-2.4-.9-5.2-1.4-8.4-1.4H5.5V59h14.9V36.9L34.7 59h18.6zM20.4 13.1h2.8c2.9 0 5.2.6 6.8 1.8s2.4 3 2.4 5.3-.8 4-2.4 5.3-3.8 1.8-6.8 1.8h-2.8z"/></g></svg>