<svg xmlns="http://www.w3.org/2000/svg" width="137.8" height="137.3"><path fill="#67717F" d="M78.52 60.705v-3.16h-.54v.45h-.01a1.35 1.35 0 00-1.08-.54c-.95 0-1.52.77-1.52 1.67 0 .87.58 1.66 1.51 1.66.44 0 .81-.18 1.09-.52h.01v.44h.54zm-1.57-.41c-.67 0-1.03-.58-1.03-1.2 0-.59.4-1.14 1.03-1.14.66 0 1.06.51 1.06 1.14 0 .64-.36 1.2-1.06 1.2zm13.53 22.32v-2.66h.56v-.5h-.56v-1.14h-.54v1.14h-.33v.5h.33v2.66h.54zm19.86 30.3l.26-.49a.907.907 0 00-.48-.15c-.35 0-.51.18-.7.43h-.01v-.34h-.54v3.16h.54v-1.58c0-.41.03-1.17.62-1.17.13 0 .2.06.31.14zm-28.85-44.41h-.61l-.94 2.14-.99-2.38-.98 2.38-.93-2.14h-.61l1.55 3.38.97-2.35.97 2.35 1.57-3.38zm1.64-.08c-.99 0-1.53.77-1.53 1.71 0 .91.6 1.63 1.55 1.63.64 0 1.16-.32 1.46-.89l-.46-.26c-.21.38-.5.65-.96.65-.61 0-1.03-.47-1.03-1.05h2.48c.04-.95-.49-1.79-1.51-1.79zm-.95 1.32c.07-.46.5-.83.96-.83.47 0 .85.37.93.83h-1.89zm-2.67-12.2v3.16h.54v-1.5c0-.56.05-1.25.79-1.25.62 0 .67.46.67.97v1.78h.54v-1.87c0-.74-.2-1.37-1.07-1.37-.39 0-.68.17-.9.47h-.01v-.38h-.56v-.01zm-9.88 53.52c-.6-.51-1.22-.61-1.97-.61h-.95v5.07h.94c.79 0 1.4-.1 2-.64.56-.5.83-1.15.83-1.89-.01-.75-.27-1.43-.85-1.93zm-.36 3.41c-.46.44-.98.52-1.6.52h-.41v-4.02h.41c.6 0 1.11.08 1.57.49.44.38.66.94.66 1.52 0 .57-.21 1.1-.63 1.49zm7.46-35.02v1.82c0 .84.32 1.42 1.25 1.42s1.25-.58 1.25-1.42v-1.82h-.54v1.76c0 .53-.06.99-.71.99s-.71-.46-.71-.99v-1.76h-.54zm19.8 3.16v-3.16h-.54v.45h-.01a1.35 1.35 0 00-1.08-.54c-.95 0-1.52.77-1.52 1.67 0 .87.58 1.66 1.51 1.66.44 0 .81-.18 1.09-.52h.01v.44h.54zm-1.57-.41c-.67 0-1.03-.58-1.03-1.2 0-.59.4-1.14 1.03-1.14.66 0 1.06.51 1.06 1.14 0 .64-.37 1.2-1.06 1.2zm-14.11.5c.58 0 1.07-.43 1.07-1.03 0-.53-.36-.75-.73-.91-.37-.15-.73-.26-.73-.55 0-.2.2-.35.39-.35s.36.15.43.32l.45-.23c-.14-.33-.48-.59-.84-.59-.51 0-.94.36-.94.89 0 .99 1.42.75 1.42 1.46 0 .29-.22.48-.51.48-.36 0-.51-.21-.64-.5l-.48.2c.16.5.58.81 1.11.81zm.45 7.36c-.99 0-1.53.77-1.53 1.71 0 .91.6 1.63 1.55 1.63.64 0 1.16-.32 1.46-.89l-.46-.26c-.21.38-.5.65-.96.65-.61 0-1.03-.47-1.03-1.05h2.48c.04-.95-.5-1.79-1.51-1.79zm-.96 1.33c.07-.46.5-.83.96-.83.47 0 .85.37.93.83h-1.89zm2.74-34.98v1.14h-.33v.5h.33v2.66h.54v-2.66h.56v-.5h-.56v-1.14h-.54zm1.4-20.79v1.82c0 .84.32 1.42 1.25 1.42s1.25-.59 1.25-1.42v-1.82h-.54v1.76c0 .53-.06.99-.71.99s-.71-.46-.71-.99v-1.76h-.54zm-.95 8.99v5.54h.54v-1.5c0-.56.05-1.25.79-1.25.62 0 .67.46.67.97v1.78h.54v-1.87c0-.74-.2-1.37-1.07-1.37-.39 0-.68.17-.9.47l-.01-.01v-2.75h-.56v-.01zm-4.27-8.58c.42 0 .73.22.98.53h.01v-.71c-.28-.2-.63-.32-.97-.32-.93 0-1.69.73-1.69 1.67 0 .95.73 1.67 1.68 1.67.38 0 .69-.11 1-.32v-.72h-.01c-.26.34-.58.54-1.03.54-.66 0-1.09-.54-1.09-1.17.01-.64.47-1.17 1.12-1.17zm-3.17 2.33c-.36 0-.51-.21-.64-.5l-.48.2c.17.5.58.8 1.12.8.58 0 1.07-.43 1.07-1.03 0-.53-.36-.75-.73-.91-.37-.15-.73-.26-.73-.55 0-.2.2-.35.39-.35s.36.15.43.32l.45-.23c-.14-.33-.48-.58-.84-.58-.51 0-.94.36-.94.89 0 .99 1.42.75 1.42 1.46 0 .29-.23.48-.52.48zm5.02-5.13v5.54h.54v-1.5c0-.56.05-1.25.79-1.25.62 0 .67.46.67.97v1.78h.54v-1.87c0-.74-.2-1.37-1.07-1.37-.39 0-.68.17-.9.47l-.01-.01v-2.75h-.56v-.01zm30.85 91.85c0 .53-.06.99-.71.99s-.71-.46-.71-.99v-1.76H110v1.82c0 .84.32 1.42 1.25 1.42s1.25-.59 1.25-1.42v-1.82h-.54v1.76zm-25.9-31.77v-1.87c0-.74-.2-1.37-1.07-1.37-.39 0-.68.17-.9.47l-.01-.01v-2.75h-.54v5.54h.54v-1.5c0-.56.05-1.25.79-1.25.62 0 .67.46.67.97v1.78h.52v-.01zm-1.08-13.41h-.01a1.33 1.33 0 00-1.07-.54c-.93 0-1.52.79-1.52 1.68 0 .88.58 1.65 1.5 1.65.42 0 .84-.2 1.09-.52h.01v.38c0 .71-.18 1.32-1.01 1.32-.58 0-1-.37-1.01-.95h-.54c.02.89.57 1.45 1.45 1.45.47 0 1.03-.18 1.32-.56.32-.42.32-.85.32-1.36v-3h-.54v.45h.01zm-1.02 2.3c-.67 0-1.03-.58-1.03-1.2 0-.59.4-1.14 1.03-1.14.67 0 1.06.51 1.06 1.14-.01.64-.37 1.2-1.06 1.2zm29.5 30.16h-.54v1.76c0 .53-.06.99-.71.99s-.71-.46-.71-.99v-1.76h-.54v1.82c0 .84.32 1.42 1.25 1.42s1.25-.59 1.25-1.42v-1.82zm-27.99-40.7h.54v-3.16h-.54v3.16zm21.07 51.66v.5h1.85l-2.28 2.66h3.26v-.5h-2.18l2.27-2.66h-2.92zm-25.7-18.98c.44 0 .81-.18 1.09-.52h.01v.44h.54v-3.16h-.54v.45h-.01a1.35 1.35 0 00-1.08-.54c-.95 0-1.52.77-1.52 1.67 0 .87.58 1.66 1.51 1.66zm.07-2.84c.67 0 1.06.51 1.06 1.14 0 .64-.36 1.2-1.05 1.2-.67 0-1.03-.58-1.03-1.2-.01-.6.39-1.14 1.02-1.14zm23.24 9.28a.38.38 0 00-.38.38c0 .22.17.38.38.38s.38-.17.38-.38c0-.2-.18-.38-.38-.38zm-29.69-19.05c0-.89-.58-1.67-1.52-1.67-.43 0-.83.2-1.08.54h-.01v-2.83h-.54v5.54h.54v-.44h.01c.26.34.65.52 1.09.52.93.01 1.51-.78 1.51-1.66zm-1.6 1.17c-.67 0-1.03-.58-1.03-1.2 0-.59.4-1.14 1.03-1.14.67 0 1.06.51 1.06 1.14-.01.64-.37 1.2-1.06 1.2zm31.02 22.61h.54v-3.16h-.54v3.16zm-2.57-13.87l.26-.49a.907.907 0 00-.48-.15c-.35 0-.51.18-.7.43h-.01v-.34h-.54v3.16h.54v-1.58c0-.41.03-1.17.62-1.17.13 0 .21.07.31.14zm-18.84 12.3c0-.41.03-1.17.62-1.17.14 0 .21.07.32.14l.26-.49a.907.907 0 00-.48-.15c-.35 0-.51.18-.7.43h-.01v-.34h-.54v3.16h.54v-1.58h-.01zm5.48-53.02l1.57-3.38h-.61l-.94 2.14-.99-2.38-.98 2.38-.93-2.14h-.61l1.55 3.38.97-2.35.97 2.35zm-.01-22.15h.54v-5.54h-.54v5.54zm15.33 85h-.01a1.33 1.33 0 00-1.07-.54c-.93 0-1.52.79-1.52 1.68 0 .88.58 1.65 1.5 1.65.42 0 .84-.2 1.09-.52h.01v.38c0 .71-.18 1.32-1.01 1.32-.58 0-1-.37-1.01-.95h-.54c.02.89.67 1.45 1.55 1.45.47 0 .93-.18 1.22-.56.32-.42.32-.85.32-1.36v-3h-.54v.45h.01zm-1.02 2.29c-.67 0-1.03-.58-1.03-1.2 0-.59.4-1.14 1.03-1.14.66 0 1.06.51 1.06 1.14-.01.65-.37 1.2-1.06 1.2zm-18.27-23.11l.14-.14 1.27 1.44h.71l-1.61-1.81 1.35-1.34h-.72l-1.15 1.17v-3.55h-.54v5.54h.54v-1.31h.01zm1.76-36.02a.38.38 0 00-.38.38c0 .22.17.38.38.38s.38-.17.38-.38c0-.2-.18-.38-.38-.38zm12.04-19.93v3.16h.54v-1.5c0-.56.05-1.25.79-1.25.62 0 .67.46.67.97v1.78h.54v-1.87c0-.74-.2-1.37-1.07-1.37-.39 0-.68.17-.9.47h-.01v-.38h-.56v-.01zm-.49-10.93h-.01a1.33 1.33 0 00-1.07-.54c-.93 0-1.52.79-1.52 1.68 0 .88.58 1.65 1.5 1.65.42 0 .84-.2 1.09-.52h.01v.38c0 .71-.18 1.32-1.01 1.32-.58 0-1-.37-1.01-.95h-.54c.02.89.67 1.45 1.55 1.45.47 0 .93-.18 1.22-.56.32-.42.32-.85.32-1.36v-3h-.54v.45h.01zm-1.03 2.29c-.67 0-1.03-.58-1.03-1.2 0-.59.4-1.14 1.03-1.14.66 0 1.06.51 1.06 1.14 0 .65-.36 1.2-1.06 1.2zm-22.89 33.3h.54v-1.5c0-.56.05-1.25.79-1.25.62 0 .67.46.67.97v1.78h.54v-1.87c0-.74-.2-1.37-1.07-1.37-.39 0-.68.17-.9.47l-.01-.01v-2.75h-.54v5.53h-.02zm6.4-23.04c0 .91.6 1.63 1.55 1.63.64 0 1.16-.32 1.46-.89l-.46-.26c-.21.38-.5.65-.96.65-.61 0-1.03-.47-1.03-1.05h2.48c.05-.94-.48-1.78-1.5-1.78-1-.01-1.54.76-1.54 1.7zm1.54-1.21c.47 0 .85.37.93.83h-1.89c.06-.46.49-.83.96-.83zm26.81 67.3l-.46-.26c-.21.38-.5.65-.96.65-.61 0-1.03-.47-1.03-1.05h2.48c.05-.94-.48-1.78-1.5-1.78-.99 0-1.53.77-1.53 1.71 0 .91.6 1.63 1.55 1.63.64-.01 1.15-.33 1.45-.9zm-1.46-1.94c.47 0 .85.37.93.83h-1.89c.06-.46.49-.83.96-.83zm-33.9-31.73c0 .87.58 1.66 1.51 1.66.44 0 .81-.18 1.09-.52h.01v.44h.54v-3.16h-.54v.45h-.01a1.35 1.35 0 00-1.08-.54c-.94-.01-1.52.77-1.52 1.67zm1.58-1.18c.66 0 1.06.51 1.06 1.14 0 .64-.36 1.2-1.05 1.2-.67 0-1.03-.58-1.03-1.2-.01-.6.4-1.14 1.02-1.14zm-2.8-8.11c.38 0 .69-.11 1-.32v-.72h-.01c-.26.34-.58.54-1.03.54-.66 0-1.09-.54-1.09-1.17s.46-1.17 1.12-1.17c.42 0 .73.22.98.53h.01v-.71c-.28-.2-.63-.32-.97-.32-.93 0-1.69.73-1.69 1.67 0 .96.72 1.67 1.68 1.67zm5.58-23.72l.97 2.35 1.57-3.38h-.61l-.94 2.14-.99-2.38-.98 2.38-.93-2.14h-.61l1.55 3.38.97-2.35zm-7.6 34.58h.54v-1.5c0-.56.05-1.25.79-1.25.62 0 .67.46.67.97v1.78h.54v-1.87c0-.74-.2-1.37-1.07-1.37-.39 0-.68.17-.9.47h-.01v-.38h-.54v3.15h-.02zm34.51 20.24c0 .53-.06.99-.71.99s-.71-.46-.71-.99v-1.76h-.54v1.82c0 .84.32 1.42 1.25 1.42s1.25-.58 1.25-1.42v-1.82h-.54v1.76zm-32.64-45.4c-.99 0-1.53.77-1.53 1.71 0 .91.6 1.63 1.55 1.63.64 0 1.16-.32 1.46-.89l-.46-.26c-.21.38-.5.65-.96.65-.61 0-1.03-.47-1.03-1.05h2.48c.04-.95-.5-1.79-1.51-1.79zm-.96 1.33c.07-.46.5-.83.96-.83.47 0 .85.37.93.83h-1.89zm27.27-1.24v1.82c0 .84.32 1.42 1.25 1.42s1.25-.59 1.25-1.42v-1.82h-.54v1.76c0 .53-.06.99-.71.99s-.71-.46-.71-.99v-1.76h-.54zm-19.28 46.71v-2.66h.56v-.5h-.56v-1.14h-.54v1.14h-.33v.5h.33v2.66h.54zm39.55-10.94v-1.67c0-.48.07-1.08.69-1.08.55 0 .58.5.58.91v1.83h.54v-1.92c0-.66-.2-1.32-1.01-1.32-.38 0-.76.18-.95.52a.96.96 0 00-.87-.52c-.32 0-.59.17-.76.43h-.01v-.34h-.54v3.16h.54v-1.63c0-.48.07-1.12.7-1.12.52 0 .56.56.56.95v1.79h.53v.01zm1.31 23.47c-.58 0-1-.37-1.01-.95h-.54c.02.89.67 1.45 1.55 1.45.47 0 .93-.18 1.22-.56.32-.42.32-.85.32-1.36v-3h-.54v.45h-.01a1.33 1.33 0 00-1.07-.54c-.93 0-1.52.79-1.52 1.68 0 .88.58 1.65 1.5 1.65.42 0 .84-.2 1.09-.52h.01v.38c.02.71-.17 1.32-1 1.32zm-.01-1.68c-.67 0-1.03-.58-1.03-1.2 0-.59.4-1.14 1.03-1.14.67 0 1.06.51 1.06 1.14-.01.65-.37 1.2-1.06 1.2zm-4.52-21.79v-1.87c0-.74-.2-1.37-1.07-1.37-.39 0-.68.17-.9.47h-.01v-.39h-.54v3.16h.54v-1.5c0-.56.05-1.25.79-1.25.62 0 .66.46.66.97v1.78h.53zm20.37 33.16h.54v-5.54h-.54v5.54zm-11.58-33.16v-3.16H123v.45h-.01a1.35 1.35 0 00-1.08-.54c-.95 0-1.52.77-1.52 1.67 0 .87.58 1.66 1.51 1.66.44 0 .81-.18 1.09-.52h.01v.44h.54zm-1.57-.41c-.67 0-1.03-.58-1.03-1.2 0-.59.4-1.14 1.03-1.14.67 0 1.06.51 1.06 1.14 0 .64-.37 1.2-1.06 1.2zm-5.1-10.29l-2.46-2.71 2.38-2.36h-.76l-2.16 2.17v-2.17h-.56v5.07h.56v-2.18l.14-.14 2.08 2.32h.78zm14.43 10.7h.54v-2.66h.56v-.5h-.56v-1.14h-.54v1.14h-.33v.5h.33v2.66zm-10.22-35.32h-.01a1.33 1.33 0 00-1.07-.54c-.93 0-1.52.79-1.52 1.68 0 .88.58 1.65 1.5 1.65.42 0 .84-.2 1.09-.52h.01v.38c0 .71-.18 1.32-1.01 1.32-.58 0-1-.37-1.01-.95h-.54c.02.89.67 1.45 1.55 1.45.47 0 .93-.18 1.22-.56.32-.42.32-.85.32-1.36v-3h-.54v.45h.01zm-1.03 2.3c-.67 0-1.03-.58-1.03-1.2 0-.59.4-1.14 1.03-1.14.67 0 1.06.51 1.06 1.14 0 .64-.36 1.2-1.06 1.2zm3.72.5c.44 0 .81-.18 1.09-.52h.01v.44h.54v-3.16h-.54v.45h-.01a1.35 1.35 0 00-1.08-.54c-.95 0-1.52.77-1.52 1.67 0 .87.59 1.66 1.51 1.66zm.07-2.84c.66 0 1.06.51 1.06 1.14 0 .64-.36 1.2-1.05 1.2-.67 0-1.03-.58-1.03-1.2-.01-.6.4-1.14 1.02-1.14zm-2.39 21.88v-.38h-.54v3.16h.54v-1.5c0-.56.05-1.25.79-1.25.62 0 .67.46.67.97v1.78h.54v-1.87c0-.74-.2-1.37-1.07-1.37-.39 0-.68.17-.9.47h-.03v-.01zm-2.93 2.87c.92 0 1.66-.73 1.66-1.66s-.73-1.67-1.66-1.67-1.66.75-1.66 1.67.74 1.66 1.66 1.66zm0-2.84c.66 0 1.12.53 1.12 1.17s-.46 1.17-1.12 1.17c-.67 0-1.12-.52-1.12-1.17 0-.64.45-1.17 1.12-1.17zm1.15-29.62c.43 0 .83-.18 1.09-.52h.01v.44h.54v-5.54h-.54v2.83h-.01c-.26-.34-.66-.54-1.08-.54-.95 0-1.52.77-1.52 1.67 0 .88.58 1.66 1.51 1.66zm.07-2.83c.67 0 1.06.51 1.06 1.14 0 .64-.36 1.2-1.05 1.2-.67 0-1.03-.58-1.03-1.2-.01-.6.39-1.14 1.02-1.14zm13.86 76.36h-.01a1.35 1.35 0 00-1.08-.54c-.95 0-1.52.77-1.52 1.67 0 .87.58 1.66 1.51 1.66.44 0 .81-.18 1.09-.52h.01v.44h.54v-3.16h-.54v.45zm-1.03 2.29c-.67 0-1.03-.58-1.03-1.2 0-.59.4-1.14 1.03-1.14.66 0 1.06.51 1.06 1.14 0 .65-.37 1.2-1.06 1.2zm-2.32-32.75v-1.87c0-.74-.2-1.37-1.08-1.37-.39 0-.68.17-.9.47l-.01-.01v-2.75h-.54v5.54h.54v-1.5c0-.56.05-1.25.79-1.25.63 0 .67.46.67.97v1.78h.53v-.01zm-1.54-15.05a.38.38 0 10-.76 0c0 .22.17.38.38.38s.38-.16.38-.38zm-.65 4.35h.54v-3.16h-.54v3.16zm2.17-1.3l.14-.14 1.27 1.44h.71l-1.61-1.81 1.35-1.34h-.72l-1.15 1.17v-3.55h-.54v5.54h.54v-1.31h.01zm1.31-20.52c.65 0 1.16-.32 1.46-.89l-.46-.26c-.21.38-.5.65-.96.65-.61 0-1.03-.47-1.03-1.05h2.48c.05-.94-.48-1.78-1.5-1.78-.99 0-1.53.77-1.53 1.71 0 .9.6 1.62 1.54 1.62zm0-2.84c.47 0 .85.37.93.83h-1.89c.06-.46.49-.83.96-.83zm1.36 20.36v1.14h-.33v.5h.33v2.66h.54v-2.66h.56v-.5h-.56v-1.14h-.54zm-6.48 4.3h.54v-5.54h-.54v5.54zm-1.77-5.24c-.14.23-.14.56-.14.82v1.26h-.3v.5h.3v2.66h.54v-2.66h.8v-.5h-.8v-1.07c0-.56 0-.87.44-.87.13 0 .24.03.36.07v-.54c-.13-.04-.26-.07-.38-.07-.33.01-.65.12-.82.4zm12.57 45.95v-1.14h-.54v1.14h-.33v.5h.33v2.66h.54v-2.66h.56v-.5h-.56zm-13.01-31.59c0 .95.73 1.67 1.68 1.67.38 0 .69-.11 1-.32v-.72h-.01c-.26.34-.58.54-1.03.54-.66 0-1.09-.54-1.09-1.17s.46-1.17 1.12-1.17c.42 0 .73.22.98.53h.01v-.71c-.28-.2-.63-.32-.97-.32-.93 0-1.69.73-1.69 1.67zm12.95-9.92l-.46-.26c-.21.38-.5.65-.96.65-.61 0-1.03-.47-1.04-1.05h2.48c.05-.94-.48-1.78-1.5-1.78-.99 0-1.53.77-1.53 1.71 0 .91.6 1.63 1.55 1.63.65-.01 1.16-.34 1.46-.9zm-1.46-1.95c.47 0 .85.37.93.83h-1.89c.06-.46.49-.83.96-.83zm-8.78-19.6h.01c.26.34.65.52 1.09.52.93 0 1.51-.79 1.51-1.67 0-.89-.58-1.67-1.52-1.67-.43 0-.83.2-1.08.54h-.01v-2.83h-.54v5.54h.54v-.43zm1-2.31c.67 0 1.06.51 1.06 1.14 0 .64-.36 1.2-1.05 1.2-.67 0-1.03-.58-1.03-1.2-.01-.6.39-1.14 1.02-1.14zm-51.09 46.3v-1.87c0-.74-.2-1.37-1.07-1.37-.39 0-.68.17-.9.47h-.01v-.38h-.54v3.16h.54v-1.5c0-.56.05-1.25.79-1.25.62 0 .67.46.67.97v1.78h.52v-.01zm2.21-14.1l-.94 2.14-.99-2.38-.98 2.38-.93-2.14h-.61l1.55 3.38.97-2.35.97 2.35 1.57-3.38h-.61zm38.31-45.54h-.54v5.54h.54v-5.54zm-17.64 66.17a.38.38 0 00-.38.38c0 .22.17.38.38.38s.38-.17.38-.38c0-.2-.17-.38-.38-.38zm-25.66-72.01v-2.66h.56v-.5h-.56v-1.14h-.54v1.14h-.33v.5h.33v2.66h.54zm24.29 76.74v-5.54h-.54v5.54h.54zm-5.42 0v-1.87c0-.74-.2-1.37-1.07-1.37-.39 0-.68.17-.9.47h-.01v-.38h-.54v3.16h.54v-1.5c0-.56.05-1.25.79-1.25.62 0 .66.46.66.97v1.78h.53v-.01zm-5.73-11.26v-2.66h.56v-.5h-.56v-1.14h-.54v1.14h-.33v.5h.33v2.66h.54zm-13.56-46.71v3.16h.54v-1.58c0-.41.03-1.17.62-1.17.14 0 .21.07.32.14l.26-.49a.907.907 0 00-.48-.15c-.35 0-.51.18-.7.43h-.01v-.34h-.55zm-1.26 54.73c-.99 0-1.53.77-1.53 1.71 0 .91.6 1.63 1.55 1.63.64 0 1.16-.32 1.46-.89l-.46-.26c-.21.38-.5.65-.96.65-.61 0-1.03-.47-1.03-1.05h2.48c.04-.95-.5-1.79-1.51-1.79zm-.96 1.32c.07-.46.5-.83.96-.83.47 0 .85.37.93.83h-1.89zm.5-9.25c.92 0 1.66-.73 1.66-1.66s-.73-1.67-1.66-1.67-1.66.75-1.66 1.67.74 1.66 1.66 1.66zm0-2.84c.66 0 1.12.53 1.12 1.17s-.46 1.17-1.12 1.17c-.67 0-1.12-.52-1.12-1.17 0-.64.46-1.17 1.12-1.17zm-5.21-2.32v5.07h.56v-2.18l.14-.14 2.08 2.32h.78l-2.46-2.71 2.38-2.36h-.76l-2.16 2.17v-2.17h-.56zm47.31 24.48H114v-.34h-.54v3.16h.54v-1.58c0-.41.03-1.17.62-1.17.14 0 .21.07.32.14l.26-.49a.907.907 0 00-.48-.15c-.37 0-.53.18-.71.43zm1.88-11.39c-.39 0-.68.17-.9.47h-.01v-.38h-.54v3.16h.54v-1.5c0-.56.05-1.25.79-1.25.62 0 .67.46.67.97v1.78h.54v-1.87c-.01-.75-.22-1.38-1.09-1.38zm-16.78-9.6c0-.89-.58-1.67-1.52-1.67-.43 0-.83.2-1.08.54h-.01v-2.83h-.54v5.54h.54v-.44h.01c.26.34.65.52 1.09.52.93.01 1.51-.78 1.51-1.66zm-1.6 1.17c-.67 0-1.03-.58-1.03-1.2 0-.59.4-1.14 1.03-1.14.66 0 1.06.51 1.06 1.14-.01.64-.37 1.2-1.06 1.2zm26.54 19.39c-.99 0-1.53.77-1.53 1.71 0 .91.6 1.63 1.55 1.63.64 0 1.16-.32 1.46-.89l-.46-.26c-.21.38-.5.65-.96.65-.61 0-1.03-.47-1.03-1.05h2.48c.04-.95-.49-1.79-1.51-1.79zm-.95 1.32c.07-.46.5-.83.96-.83.47 0 .85.37.93.83h-1.89zm-11.71-20.3v-1.87c0-.74-.2-1.37-1.07-1.37-.39 0-.68.17-.9.47l-.01-.01v-2.75h-.54v5.54h.54v-1.5c0-.56.05-1.25.79-1.25.62 0 .66.46.66.97v1.78h.53v-.01zm-.64-45.12c0 .87.58 1.66 1.51 1.66.44 0 .81-.18 1.09-.52h.01v.44h.54v-3.16h-.54v.45h-.01a1.35 1.35 0 00-1.08-.54c-.94-.01-1.52.77-1.52 1.67zm2.64-.04c0 .64-.36 1.2-1.05 1.2-.67 0-1.03-.58-1.03-1.2 0-.59.4-1.14 1.03-1.14.66 0 1.05.51 1.05 1.14zm15.92 66.36l-.99-2.38-.98 2.38-.93-2.14h-.61l1.55 3.38.97-2.35.97 2.35 1.57-3.38h-.61l-.94 2.14zm-13.89-67.46h-.01v-2.83h-.54v5.54h.54v-.44h.01c.26.34.65.52 1.09.52.93 0 1.51-.79 1.51-1.67 0-.89-.58-1.67-1.52-1.67-.43.01-.82.22-1.08.55zm.99-.04c.67 0 1.06.51 1.06 1.14 0 .64-.36 1.2-1.05 1.2-.67 0-1.03-.58-1.03-1.2-.01-.6.39-1.14 1.02-1.14zm-1.82-7.71c.93 0 1.25-.58 1.25-1.42v-1.82h-.54v1.76c0 .53-.06.99-.71.99s-.71-.46-.71-.99v-1.76h-.54v1.82c0 .84.32 1.42 1.25 1.42zm-7.69 51.26c.42 0 .73.22.98.53h.01v-.71c-.28-.2-.63-.32-.97-.32-.93 0-1.69.73-1.69 1.67 0 .95.73 1.67 1.68 1.67.38 0 .69-.11 1-.32v-.72h-.01c-.26.34-.58.54-1.03.54-.66 0-1.09-.54-1.09-1.17s.47-1.17 1.12-1.17zm-6.6-8.19v-1.87c0-.74-.2-1.37-1.07-1.37-.39 0-.68.17-.9.47h-.01v-.39h-.54v3.16h.54v-1.5c0-.56.05-1.25.79-1.25.62 0 .67.46.67.97v1.78h.52zm19.6 31.14h1.5c0 .94-.93 1.59-1.81 1.59-.53 0-1.07-.28-1.44-.65-.38-.38-.59-.89-.59-1.43 0-1.14.91-2.12 2.07-2.12.75 0 1.32.36 1.74.95l.41-.38c-.54-.7-1.26-1.1-2.14-1.1-1.46 0-2.64 1.18-2.64 2.63 0 1.42 1.18 2.61 2.61 2.61.71 0 1.41-.31 1.87-.85s.54-1.1.52-1.79h-2.11v.54h.01zm-14.49-36.29c-1.44 0-2.64 1.18-2.64 2.63 0 1.46 1.2 2.61 2.64 2.61s2.64-1.16 2.64-2.61c0-1.46-1.2-2.63-2.64-2.63zm0 4.71c-1.15 0-2.08-.95-2.08-2.1s.91-2.1 2.08-2.1c1.16 0 2.08.95 2.08 2.1-.01 1.15-.93 2.1-2.08 2.1zm-3.47 19.9c.19 0 .36.15.43.32l.45-.23c-.14-.33-.48-.59-.84-.59-.51 0-.94.36-.94.89 0 .99 1.42.75 1.42 1.46 0 .29-.22.48-.51.48-.36 0-.51-.21-.64-.5l-.48.2c.17.5.58.8 1.12.8.58 0 1.07-.43 1.07-1.03 0-.53-.36-.75-.73-.91-.37-.15-.73-.26-.73-.55-.01-.2.2-.34.38-.34zm-12.06-85.17c.43 0 .83-.18 1.09-.52h.01v.44h.54v-5.54h-.54v2.83h-.01c-.26-.34-.66-.54-1.08-.54-.95 0-1.52.77-1.52 1.67 0 .87.58 1.66 1.51 1.66zm.07-2.84c.66 0 1.06.51 1.06 1.14 0 .64-.36 1.2-1.05 1.2-.67 0-1.03-.58-1.03-1.2-.01-.59.39-1.14 1.02-1.14zm-23.21.53h.14l1.53 2.22h.69l-1.61-2.27c.78-.07 1.27-.62 1.27-1.4 0-1.14-.89-1.4-1.85-1.4h-.73v5.07h.56v-2.22zm0-2.32h.17c.68 0 1.29.08 1.29.91 0 .79-.64.91-1.28.91h-.17v-1.82h-.01zm4.07 4.63c.64 0 1.16-.32 1.46-.89l-.46-.26c-.21.38-.5.65-.96.65-.61 0-1.03-.47-1.03-1.05h2.48c.05-.94-.48-1.78-1.5-1.78-.99 0-1.53.77-1.53 1.71-.01.9.6 1.62 1.54 1.62zm-.01-2.84c.47 0 .85.37.93.83h-1.89c.07-.46.5-.83.96-.83zm-1.36-8.21v-.5h-2.18l2.27-2.66h-2.94v.5h1.85l-2.28 2.66h3.28zm6.78 95.72c-.44 0-.83.19-1.09.54h-.01v-.45h-.54v4.93h.54v-2.22h.01c.26.34.65.53 1.08.53.95 0 1.52-.76 1.52-1.66 0-.87-.59-1.67-1.51-1.67zm-.1 2.83c-.67 0-1.03-.58-1.03-1.2 0-.59.4-1.14 1.03-1.14.67 0 1.06.51 1.06 1.14 0 .65-.37 1.2-1.06 1.2zm-4.81-98.47c.93 0 1.25-.58 1.25-1.42v-1.82h-.54v1.76c0 .53-.06.99-.71.99s-.71-.46-.71-.99v-1.76h-.54v1.82c0 .84.32 1.42 1.25 1.42zm-1.37 18.99v3.16h.54v-1.5c0-.56.05-1.25.79-1.25.62 0 .67.46.67.97v1.78h.54v-1.87c0-.74-.2-1.37-1.07-1.37-.39 0-.68.17-.9.47h-.01v-.38h-.56v-.01zm4.45 86.56h-.54v1.14h-.33v.5h.33v2.66h.54v-2.66h.56v-.5h-.56v-1.14zm-4.1-66.55h-.61l-1.44 3.86-1.44-3.86h-.61l2.06 5.37 2.04-5.37zm18.13 17.3c-.58 0-1-.37-1.01-.95h-.54c.02.89.67 1.45 1.55 1.45.47 0 .93-.18 1.22-.56.32-.42.32-.85.32-1.36v-3h-.54v.45h-.01a1.33 1.33 0 00-1.07-.54c-.93 0-1.52.79-1.52 1.68 0 .88.58 1.65 1.5 1.65.42 0 .84-.2 1.09-.52h.01v.38c.02.7-.16 1.32-1 1.32zm-.01-1.68c-.67 0-1.03-.58-1.03-1.2 0-.59.4-1.14 1.03-1.14.66 0 1.06.51 1.06 1.14-.01.64-.37 1.2-1.06 1.2zm-20.65.5c.88 0 1.59-.68 1.59-1.57 0-.81-.56-1.14-1.22-1.42l-.34-.15c-.34-.15-.79-.36-.79-.79 0-.46.39-.79.84-.79.43 0 .67.2.87.55l.45-.29c-.27-.5-.75-.79-1.31-.79-.75 0-1.42.5-1.42 1.29 0 .73.51 1.03 1.1 1.3l.31.13c.47.21.93.42.93 1.01 0 .57-.5.99-1.04.99s-.94-.42-1.01-.94l-.55.16c.17.79.77 1.31 1.59 1.31zm8.87 52.88c-.37-.15-.73-.26-.73-.55 0-.2.2-.35.39-.35s.36.15.43.32l.45-.23c-.14-.33-.48-.58-.84-.58-.51 0-.94.36-.94.89 0 .99 1.42.75 1.42 1.46 0 .29-.22.48-.51.48-.36 0-.51-.21-.64-.5l-.48.2c.17.5.58.8 1.12.8.58 0 1.07-.43 1.07-1.03-.01-.54-.37-.76-.74-.91zm-4.9-77.18h-.01v-2.83h-.54v5.54h.54v-.44h.01c.26.34.65.52 1.09.52.93 0 1.51-.79 1.51-1.67 0-.89-.58-1.67-1.52-1.67-.43.01-.82.21-1.08.55zm.99-.04c.67 0 1.06.51 1.06 1.14 0 .64-.36 1.2-1.05 1.2-.67 0-1.03-.58-1.03-1.2-.01-.6.39-1.14 1.02-1.14zm-5-8.55c.64 0 1.16-.32 1.46-.89l-.46-.26c-.21.38-.5.65-.96.65-.61 0-1.03-.47-1.03-1.05h2.48c.05-.94-.48-1.78-1.5-1.78-.99 0-1.53.77-1.53 1.71 0 .9.6 1.62 1.54 1.62zm0-2.83c.47 0 .85.37.93.83h-1.89c.06-.46.49-.83.96-.83zm8.38-19.89c-.36 0-.51-.21-.64-.5l-.48.2c.17.5.58.8 1.12.8.58 0 1.07-.43 1.07-1.03 0-.53-.36-.75-.73-.91-.37-.15-.73-.26-.73-.55 0-.2.2-.35.39-.35s.36.15.43.32l.45-.23c-.14-.33-.48-.59-.84-.59-.51 0-.94.36-.94.89 0 .99 1.42.75 1.42 1.46-.01.29-.23.49-.52.49zm7.11-1.09c0-.56.05-1.25.79-1.25.62 0 .66.46.66.97v1.78h.54v-1.87c0-.74-.2-1.37-1.07-1.37-.39 0-.68.17-.9.47l-.01-.01v-2.75h-.54v5.54h.54v-1.51h-.01zm-2.37 1.58c.38 0 .69-.11 1-.32v-.72h-.01c-.26.34-.58.54-1.03.54-.66 0-1.09-.54-1.09-1.17s.46-1.17 1.12-1.17c.42 0 .73.22.98.53h.01v-.71c-.28-.2-.63-.32-.97-.32-.93 0-1.69.73-1.69 1.67 0 .96.73 1.67 1.68 1.67zm4.25 7.72v3.16h.54v-1.5c0-.56.05-1.25.79-1.25.62 0 .66.46.66.97v1.78h.54v-1.87c0-.74-.2-1.37-1.07-1.37-.39 0-.68.17-.9.47h-.01v-.38h-.55v-.01zm-5.65 101.71c-.66 0-1.09-.54-1.09-1.17s.46-1.17 1.12-1.17c.42 0 .73.22.98.53h.01v-.71c-.28-.2-.63-.32-.97-.32-.93 0-1.69.73-1.69 1.67 0 .95.73 1.67 1.68 1.67.38 0 .69-.11 1-.32v-.72h-.01c-.26.34-.58.54-1.03.54zm8.15-78.72v-.34h-.54v3.16h.54v-1.58c0-.41.03-1.17.62-1.17.14 0 .21.07.32.14l.26-.49a.907.907 0 00-.48-.15c-.35 0-.51.18-.7.43h-.02zm.84-32.09l.14-.14 1.27 1.44h.71l-1.61-1.81 1.35-1.34h-.72l-1.15 1.17v-3.55h-.54v5.54h.54v-1.31h.01zm-6.82 9.1v1.82c0 .84.32 1.42 1.25 1.42s1.25-.58 1.25-1.42v-1.82h-.54v1.76c0 .53-.06.99-.71.99s-.71-.46-.71-.99v-1.76h-.54zm-14.18 58.35c.93 0 1.25-.58 1.25-1.42v-1.82h-.54v1.76c0 .53-.06.99-.71.99s-.71-.46-.71-.99v-1.76h-.54v1.82c0 .83.31 1.42 1.25 1.42zm6.81-55.1c.93 0 1.25-.58 1.25-1.42v-1.82h-.54v1.76c0 .53-.06.99-.71.99s-.71-.46-.71-.99v-1.76h-.54v1.82c0 .83.32 1.42 1.25 1.42zm3.92-15.02a.38.38 0 10-.38-.38c-.01.22.17.38.38.38zm-.27 3.97h.54v-3.16h-.54v3.16zm-1.7 9.42c0 .91.6 1.63 1.55 1.63.64 0 1.16-.32 1.46-.89l-.46-.26c-.21.38-.5.65-.96.65-.61 0-1.03-.47-1.03-1.05h2.48c.05-.94-.48-1.78-1.5-1.78-1-.01-1.54.77-1.54 1.7zm1.54-1.21c.47 0 .85.37.93.83h-1.89c.06-.46.49-.83.96-.83zM4.45 8.545c-1.31 0-2.37 1.06-2.37 2.37s1.06 2.37 2.37 2.37 2.37-1.06 2.37-2.37a2.362 2.362 0 00-2.37-2.37zm54.8 58.64c-.2-.21-.43-.37-.69-.5-.26-.12-.55-.18-.85-.18-.31 0-.6.06-.88.18-.27.12-.51.28-.71.48-.2.2-.35.44-.47.71-.11.27-.17.56-.17.87s.06.6.18.87.28.5.47.7.43.36.69.47c.26.12.55.18.85.18.31 0 .6-.06.87-.18s.5-.28.7-.48.35-.44.47-.71c.11-.27.17-.56.17-.87 0-.29-.06-.57-.17-.84-.11-.26-.26-.5-.46-.7zm0-32.89c-.2-.21-.43-.37-.69-.5-.26-.12-.55-.18-.85-.18-.31 0-.6.06-.88.18-.27.12-.51.28-.71.48-.2.2-.35.44-.47.71-.11.27-.17.56-.17.87s.06.6.18.87.28.5.47.7.43.36.69.47c.26.12.55.18.85.18.31 0 .6-.06.87-.18s.5-.28.7-.48.35-.44.47-.71c.11-.27.17-.56.17-.87 0-.29-.06-.57-.17-.84-.11-.26-.26-.49-.46-.7zm0 10.96c-.2-.21-.43-.37-.69-.5-.26-.12-.55-.18-.85-.18-.31 0-.6.06-.88.18-.27.12-.51.28-.71.48-.2.2-.35.44-.47.71-.11.27-.17.56-.17.87s.06.6.18.87.28.5.47.7.43.36.69.47c.26.12.55.18.85.18.31 0 .6-.06.87-.18s.5-.28.7-.48.35-.44.47-.71c.11-.27.17-.56.17-.87 0-.29-.06-.57-.17-.84-.11-.26-.26-.49-.46-.7zm0 10.96c-.2-.21-.43-.37-.69-.5-.26-.12-.55-.18-.85-.18-.31 0-.6.06-.88.18-.27.12-.51.28-.71.48-.2.2-.35.44-.47.71-.11.27-.17.56-.17.87s.06.6.18.87.28.5.47.7.43.36.69.47c.26.12.55.18.85.18.31 0 .6-.06.87-.18s.5-.28.7-.48.35-.44.47-.71c.11-.27.17-.56.17-.87 0-.29-.06-.57-.17-.84-.11-.25-.26-.49-.46-.7zm0 21.93c-.2-.21-.43-.37-.69-.5-.26-.12-.55-.18-.85-.18-.31 0-.6.06-.88.18-.27.12-.51.28-.71.48-.2.2-.35.44-.47.71-.11.27-.17.56-.17.87s.06.6.18.87.28.5.47.7.43.36.69.47c.26.12.55.18.85.18.31 0 .6-.06.87-.18s.5-.28.7-.48.35-.44.47-.71c.11-.27.17-.56.17-.87 0-.29-.06-.57-.17-.84-.11-.26-.26-.49-.46-.7zm0 10.96c-.2-.21-.43-.37-.69-.5-.26-.12-.55-.18-.85-.18-.31 0-.6.06-.88.18-.27.12-.51.28-.71.48-.2.2-.35.44-.47.71-.11.27-.17.56-.17.87s.06.6.18.87.28.5.47.7.43.36.69.47c.26.12.55.18.85.18.31 0 .6-.06.87-.18s.5-.28.7-.48.35-.44.47-.71c.11-.27.17-.56.17-.87 0-.29-.06-.57-.17-.84-.11-.26-.26-.49-.46-.7zm0-76.74c-.2-.21-.43-.37-.69-.5-.26-.12-.55-.18-.85-.18-.31 0-.6.06-.88.18-.27.12-.51.28-.71.48-.2.2-.35.44-.47.71-.11.27-.17.56-.17.87s.06.6.18.87.28.5.47.7.43.36.69.47c.26.12.55.18.85.18.31 0 .6-.06.87-.18s.5-.28.7-.48.35-.44.47-.71c.11-.27.17-.56.17-.87 0-.29-.06-.57-.17-.84-.11-.25-.26-.49-.46-.7zm7.45 114.11h2.63v-.52h-2.06v-1.99h2v-.52h-2v-1.51h2.06v-.52H66.7v5.06zm.71-34.6h2.16l.6 1.44h.62l-2.28-5.31-2.34 5.31h.62l.62-1.44zm1.09-2.55l.85 2.03h-1.71l.86-2.03zm3.24 33.91c-.39 0-.68.17-.9.47h-.01v-.38h-.54v3.16h.54v-1.5c0-.56.05-1.25.79-1.25.62 0 .66.46.66.97v1.78h.53v-1.87c0-.75-.2-1.38-1.07-1.38zm-12.49-23.17c-.2-.21-.43-.37-.69-.5-.26-.12-.55-.18-.85-.18-.31 0-.6.06-.88.18-.27.12-.51.28-.71.48-.2.2-.35.44-.47.71-.11.27-.17.56-.17.87s.06.6.18.87.28.5.47.7.43.36.69.47c.26.12.55.18.85.18.31 0 .6-.06.87-.18s.5-.28.7-.48.35-.44.47-.71c.11-.27.17-.56.17-.87 0-.29-.06-.57-.17-.84-.11-.25-.26-.49-.46-.7zm0-76.74c-.2-.21-.43-.37-.69-.5-.26-.12-.55-.18-.85-.18-.31 0-.6.06-.88.18-.27.12-.51.28-.71.48-.2.2-.35.44-.47.71-.11.27-.17.56-.17.87s.06.6.18.87.28.5.47.7.43.36.69.47c.26.12.55.18.85.18.31 0 .6-.06.87-.18s.5-.28.7-.48.35-.44.47-.71c.11-.27.17-.56.17-.87 0-.29-.06-.57-.17-.84-.11-.25-.26-.49-.46-.7zm-25.41-6.89c-1.31 0-2.37 1.06-2.37 2.37s1.06 2.37 2.37 2.37 2.37-1.06 2.37-2.37c0-1.3-1.06-2.37-2.37-2.37zm-23.6 13.65c-1.31 0-2.37 1.06-2.37 2.37s1.06 2.37 2.37 2.37 2.37-1.06 2.37-2.37c0-1.3-1.06-2.37-2.37-2.37zm7.88 2.11c-1.31 0-2.37 1.06-2.37 2.37s1.06 2.37 2.37 2.37 2.37-1.06 2.37-2.37c0-1.3-1.06-2.37-2.37-2.37zm-7.88-29.39c-1.31 0-2.37 1.06-2.37 2.37s1.06 2.37 2.37 2.37 2.37-1.06 2.37-2.37-1.06-2.37-2.37-2.37zm49.01 108.23c-.2-.21-.43-.37-.69-.5-.26-.12-.55-.18-.85-.18-.31 0-.6.06-.88.18-.27.12-.51.28-.71.48-.2.2-.35.44-.47.71-.11.27-.17.56-.17.87s.06.6.18.87.28.5.47.7.43.36.69.47c.26.12.55.18.85.18.31 0 .6-.06.87-.18s.5-.28.7-.48.35-.44.47-.71c.11-.27.17-.56.17-.87 0-.29-.06-.57-.17-.84-.11-.26-.26-.5-.46-.7zm-54.8-86.72c-1.31 0-2.37 1.06-2.37 2.37s1.06 2.37 2.37 2.37 2.37-1.06 2.37-2.37c.01-1.3-1.06-2.37-2.37-2.37zm.31-5.5c0-1.31-1.06-2.37-2.37-2.37s-2.37 1.06-2.37 2.37 1.06 2.37 2.37 2.37 2.37-1.06 2.37-2.37zm87.43-2.18c.92 0 1.66-.73 1.66-1.66s-.73-1.67-1.66-1.67-1.66.75-1.66 1.67.74 1.66 1.66 1.66zm0-2.83c.67 0 1.12.53 1.12 1.17s-.46 1.17-1.12 1.17-1.12-.52-1.12-1.17c-.01-.64.45-1.17 1.12-1.17zm-32.94 108.19c-.2-.21-.43-.37-.69-.5-.26-.12-.55-.18-.85-.18-.31 0-.6.06-.88.18-.27.12-.51.28-.71.48-.2.2-.35.44-.47.71-.11.27-.17.56-.17.87s.06.6.18.87.28.5.47.7.43.36.69.47c.26.12.55.18.85.18.31 0 .6-.06.87-.18s.5-.28.7-.48.35-.44.47-.71c.11-.27.17-.56.17-.87 0-.29-.06-.57-.17-.84-.11-.26-.26-.49-.46-.7zM31.78 13.305c1.31 0 2.37-1.06 2.37-2.37s-1.06-2.37-2.37-2.37-2.37 1.06-2.37 2.37 1.06 2.37 2.37 2.37zM26 2.805c-1.31 0-2.37 1.06-2.37 2.37s1.06 2.37 2.37 2.37 2.37-1.06 2.37-2.37-1.06-2.37-2.37-2.37zm5.78 21.51c-1.31 0-2.37 1.06-2.37 2.37s1.06 2.37 2.37 2.37 2.37-1.06 2.37-2.37c0-1.3-1.06-2.37-2.37-2.37zM26 30.085c-1.31 0-2.37 1.06-2.37 2.37s1.06 2.37 2.37 2.37 2.37-1.06 2.37-2.37c0-1.3-1.06-2.37-2.37-2.37zm41.41 18.64h2.16l.6 1.44h.62l-2.28-5.31-2.34 5.31h.62l.62-1.44zm1.09-2.55l.85 2.03h-1.71l.86-2.03zm19.2 36.53c.64 0 1.16-.32 1.46-.89l-.46-.26c-.21.38-.5.65-.96.65-.61 0-1.03-.47-1.03-1.05h2.48c.05-.94-.48-1.78-1.5-1.78-.99 0-1.53.77-1.53 1.71-.01.9.6 1.62 1.54 1.62zm-.01-2.84c.47 0 .85.37.93.83h-1.89c.07-.46.5-.83.96-.83zm.52 10.7c.14 0 .21.07.32.14l.26-.49a.907.907 0 00-.48-.15c-.35 0-.51.18-.7.43h-.01v-.34h-.54v3.16h.54v-1.58c-.01-.41.02-1.17.61-1.17zm4.24 33.21h-.01c-.26-.34-.66-.54-1.08-.54-.95 0-1.52.77-1.52 1.67 0 .87.58 1.66 1.51 1.66.43 0 .83-.18 1.09-.52h.01v.44h.54v-5.54h-.54v2.83zm-1.03 2.29c-.67 0-1.03-.58-1.03-1.2 0-.59.4-1.14 1.03-1.14.66 0 1.06.51 1.06 1.14 0 .65-.36 1.2-1.06 1.2zm-1.94-21.72c.44 0 .81-.18 1.09-.52h.01v.44h.54v-3.16h-.54v.45h-.01a1.35 1.35 0 00-1.08-.54c-.95 0-1.52.77-1.52 1.67 0 .87.58 1.66 1.51 1.66zm.07-2.84c.67 0 1.06.51 1.06 1.14 0 .64-.36 1.2-1.05 1.2-.67 0-1.03-.58-1.03-1.2-.01-.6.39-1.14 1.02-1.14zm2.28-65.43h-.02c-.26-.34-.66-.54-1.08-.54-.95 0-1.52.77-1.52 1.67 0 .87.58 1.66 1.51 1.66.43 0 .83-.18 1.09-.52h.01v.44h.54v-5.54h-.54v2.83h.01zm-1.03 2.29c-.67 0-1.03-.58-1.03-1.2 0-.59.4-1.14 1.03-1.14.67 0 1.06.51 1.06 1.14-.01.65-.37 1.2-1.06 1.2zm5.1 86.72c0 .53-.06.99-.71.99s-.71-.46-.71-.99v-1.76h-.54v1.82c0 .84.32 1.42 1.25 1.42s1.25-.59 1.25-1.42v-1.82h-.54v1.76zm-7.77-12.81c-.93 0-1.66.75-1.66 1.67s.74 1.66 1.66 1.66 1.66-.73 1.66-1.66-.73-1.67-1.66-1.67zm0 2.83c-.67 0-1.12-.52-1.12-1.17 0-.64.46-1.17 1.12-1.17s1.12.53 1.12 1.17c0 .65-.45 1.17-1.12 1.17zm.59 6.64a.38.38 0 00-.38.38c0 .22.17.38.38.38s.38-.17.38-.38c0-.2-.18-.38-.38-.38zm6.52-19.07c0-.89-.58-1.67-1.52-1.67-.43 0-.83.2-1.08.54h-.01v-2.83h-.54v5.54h.54v-.44h.01c.26.34.65.52 1.09.52.92.01 1.51-.78 1.51-1.66zm-2.64-.03c0-.59.4-1.14 1.03-1.14.67 0 1.06.51 1.06 1.14 0 .64-.36 1.2-1.05 1.2-.68 0-1.04-.59-1.04-1.2zm7.77-23.19h-.54v.45h-.01a1.33 1.33 0 00-1.07-.54c-.93 0-1.52.79-1.52 1.68 0 .88.58 1.65 1.5 1.65.42 0 .84-.2 1.09-.52h.01v.38c0 .71-.18 1.32-1.01 1.32-.58 0-1-.37-1.01-.95h-.54c.02.89.57 1.45 1.45 1.45.47 0 1.03-.18 1.32-.56.32-.42.32-.85.32-1.36v-3h.01zm-1.57 2.75c-.67 0-1.03-.58-1.03-1.2 0-.59.4-1.14 1.03-1.14.67 0 1.06.51 1.06 1.14 0 .64-.37 1.2-1.06 1.2zm-1.76 9.54c0-.93-.73-1.67-1.66-1.67s-1.66.75-1.66 1.67c0 .93.74 1.66 1.66 1.66s1.66-.74 1.66-1.66zm-2.78-.01c0-.64.46-1.17 1.12-1.17.67 0 1.12.53 1.12 1.17s-.46 1.17-1.12 1.17-1.12-.52-1.12-1.17zm-2.18-42.61l-.94-2.12h-.61l1.55 3.37 1.54-3.37h-.6l-.94 2.12zm-.8 8.33c-.93 0-1.66.75-1.66 1.67 0 .93.74 1.66 1.66 1.66s1.66-.73 1.66-1.66c0-.92-.73-1.67-1.66-1.67zm0 2.84c-.66 0-1.12-.52-1.12-1.17 0-.64.46-1.17 1.12-1.17.67 0 1.12.53 1.12 1.17 0 .64-.45 1.17-1.12 1.17zm.99 8.13c-.99 0-1.53.77-1.53 1.71 0 .91.6 1.63 1.55 1.63.64 0 1.16-.32 1.46-.89l-.46-.26c-.21.38-.5.65-.96.65-.61 0-1.03-.47-1.03-1.05h2.48c.04-.95-.5-1.79-1.51-1.79zm-.95 1.32c.07-.46.5-.83.96-.83.47 0 .85.37.93.83h-1.89zm.32 9.71v3.16h.54v-1.58c0-.41.03-1.17.62-1.17.14 0 .21.07.32.14l.26-.49a.907.907 0 00-.48-.15c-.35 0-.51.18-.7.43h-.01v-.34h-.55zm7.23 43.78c-.39 0-.68.17-.9.47h-.01v-.38h-.54v3.16h.54v-1.5c0-.56.05-1.25.79-1.25.62 0 .67.46.67.97v1.78h.54v-1.87c-.02-.75-.22-1.38-1.09-1.38zm.57-7.72h.54v-3.16h-.54v3.16zm-5.79-57.97v3.16h.54v-1.58c0-.41.03-1.17.62-1.17.14 0 .21.07.32.14l.26-.49a.907.907 0 00-.48-.15c-.35 0-.51.18-.7.43h-.01v-.34h-.55zm7.81-19.57l-.46-.26c-.21.38-.5.65-.96.65-.61 0-1.03-.47-1.03-1.05h2.48c.05-.94-.48-1.78-1.5-1.78-.99 0-1.53.77-1.53 1.71 0 .91.6 1.63 1.55 1.63.64-.01 1.15-.33 1.45-.9zm-1.46-1.94c.47 0 .85.37.93.83h-1.89c.06-.46.49-.83.96-.83zm-3.72 76.78h-.01a1.35 1.35 0 00-1.08-.54c-.95 0-1.52.77-1.52 1.67 0 .87.58 1.66 1.51 1.66.44 0 .81-.18 1.09-.52h.01v.44h.54v-3.16h-.54v.45zm-1.02 2.29c-.67 0-1.03-.58-1.03-1.2 0-.59.4-1.14 1.03-1.14.66 0 1.06.51 1.06 1.14-.01.65-.37 1.2-1.06 1.2zm-1.54-66.52c0 .93.74 1.66 1.66 1.66s1.66-.73 1.66-1.66-.73-1.67-1.66-1.67-1.66.75-1.66 1.67zm1.66-1.17c.67 0 1.12.53 1.12 1.17s-.46 1.17-1.12 1.17-1.12-.52-1.12-1.17c0-.64.46-1.17 1.12-1.17zm-2.06-8.64h.54v-3.16h-.54v3.16zm3.87 18.77h-.56v-1.14h-.54v1.14h-.33v.5h.33v2.66h.54v-2.66h.56v-.5zm-.16 12.25c0-.74-.2-1.37-1.07-1.37-.39 0-.68.17-.9.47h-.01v-.38h-.54v3.16h.54v-1.5c0-.56.05-1.25.79-1.25.62 0 .66.46.66.97v1.78h.54v-1.88h-.01zm-3.41 20.36h-.6l-.94 2.12-.94-2.12h-.61l1.55 3.37 1.54-3.37zm-13.89 22.12c-.99 0-1.53.77-1.53 1.71 0 .91.6 1.63 1.55 1.63.64 0 1.16-.32 1.46-.89l-.46-.26c-.21.38-.5.65-.96.65-.61 0-1.03-.47-1.03-1.05h2.48c.04-.95-.5-1.79-1.51-1.79zm-.96 1.32c.07-.46.5-.83.96-.83.47 0 .85.37.93.83h-1.89zm27.39-96.96c.64 0 1.16-.32 1.46-.89l-.46-.26c-.21.38-.5.65-.96.65-.61 0-1.03-.47-1.03-1.05h2.48c.05-.94-.48-1.78-1.5-1.78-.99 0-1.53.77-1.53 1.71-.01.91.6 1.62 1.54 1.62zm-.01-2.83c.47 0 .85.37.93.83h-1.89c.07-.46.5-.83.96-.83zm-23.38 109.43c-.39 0-.68.17-.9.47l-.01-.01v-2.75h-.54v5.54h.54v-1.5c0-.56.05-1.25.79-1.25.62 0 .67.46.67.97v1.78h.54v-1.87c-.02-.75-.22-1.38-1.09-1.38zm23.18-95.63c.44 0 .81-.18 1.09-.52h.01v.44h.54v-3.16h-.54v.45h-.01a1.35 1.35 0 00-1.08-.54c-.95 0-1.52.77-1.52 1.67 0 .87.58 1.66 1.51 1.66zm.07-2.84c.67 0 1.06.51 1.06 1.14 0 .64-.36 1.2-1.05 1.2-.67 0-1.03-.58-1.03-1.2-.01-.59.39-1.14 1.02-1.14zm-3.24 11.24h-.01v-.38h-.54v3.16h.54v-1.5c0-.56.05-1.25.79-1.25.62 0 .66.46.66.97v1.78h.54v-1.87c0-.74-.2-1.37-1.07-1.37-.4-.01-.69.16-.91.46zM86 114.575c0-.53-.36-.75-.73-.91-.37-.15-.73-.26-.73-.55 0-.2.2-.35.39-.35s.36.15.43.32l.45-.23c-.14-.33-.48-.59-.84-.59-.51 0-.94.36-.94.89 0 .99 1.42.75 1.42 1.46 0 .29-.22.48-.51.48-.36 0-.51-.21-.64-.5l-.48.2c.17.5.58.8 1.12.8.57.01 1.06-.42 1.06-1.02zm20.46-65.99c0 .95.73 1.67 1.68 1.67.38 0 .69-.11 1-.32v-.72h-.01c-.26.34-.58.54-1.03.54-.66 0-1.09-.54-1.09-1.17s.46-1.17 1.12-1.17c.42 0 .73.22.98.53h.01v-.71c-.28-.2-.63-.32-.97-.32-.93 0-1.69.73-1.69 1.67zm2.51-33.53c0-.56.05-1.25.79-1.25.62 0 .66.46.66.97v1.78h.54v-1.87c0-.74-.2-1.37-1.07-1.37-.39 0-.68.17-.9.47h-.01v-.38h-.54v3.16h.54v-1.51h-.01zm-13.43 12.02c-.54 0-.94-.42-1.01-.94l-.55.16c.16.79.77 1.31 1.58 1.31.88 0 1.59-.68 1.59-1.57 0-.81-.56-1.14-1.22-1.42l-.34-.15c-.34-.15-.79-.36-.79-.79 0-.46.39-.79.84-.79.43 0 .67.2.87.55l.45-.29c-.27-.5-.75-.79-1.31-.79-.75 0-1.42.5-1.42 1.29 0 .73.51 1.03 1.1 1.3l.31.13c.47.21.93.42.93 1.01.01.58-.49.99-1.03.99zm-2.33 7.36c0 .22.17.38.38.38a.38.38 0 100-.76c-.21-.01-.38.17-.38.38zm1.91-19.51c0-.48.07-1.12.7-1.12.52 0 .56.56.56.95v1.79h.54v-1.67c0-.48.07-1.08.69-1.08.55 0 .58.5.58.91v1.83h.54v-1.92c0-.66-.2-1.32-1.01-1.32-.38 0-.76.18-.95.52a.96.96 0 00-.87-.52c-.32 0-.59.17-.76.43h-.01v-.34h-.54v3.16h.54v-1.62h-.01zm5.16 0c0-.48.07-1.12.7-1.12.52 0 .56.56.56.95v1.79h.54v-1.67c0-.48.07-1.08.69-1.08.55 0 .58.5.58.91v1.83h.54v-1.92c0-.66-.2-1.32-1.01-1.32-.38 0-.76.18-.95.52a.96.96 0 00-.87-.52c-.32 0-.59.17-.76.43h-.01v-.34h-.54v3.16h.54v-1.62h-.01zm-2.63 11.01c0 .95.73 1.67 1.68 1.67.38 0 .69-.11 1-.32v-.72h-.01c-.26.34-.58.54-1.03.54-.66 0-1.09-.54-1.09-1.17s.46-1.17 1.12-1.17c.42 0 .73.22.98.53h.01v-.71c-.28-.2-.63-.32-.97-.32-.93 0-1.69.73-1.69 1.67zm13.12-1.14a.96.96 0 00-.87-.52c-.32 0-.59.17-.76.43h-.01v-.34h-.54v3.16h.54v-1.63c0-.48.07-1.12.7-1.12.52 0 .56.56.56.95v1.79h.54v-1.67c0-.48.07-1.08.69-1.08.55 0 .58.5.58.91v1.83h.54v-1.92c0-.66-.2-1.32-1.01-1.32-.4 0-.78.18-.96.53zm-9.61-2.82v5.54h.54v-1.5c0-.56.05-1.25.79-1.25.62 0 .67.46.67.97v1.78h.54v-1.87c0-.74-.2-1.37-1.07-1.37-.39 0-.68.17-.9.47l-.01-.01v-2.75h-.56v-.01zm.43 35.95h-.01v-.38h-.54v3.16h.54v-1.5c0-.56.05-1.25.79-1.25.62 0 .66.46.66.97v1.78h.54v-1.87c0-.74-.2-1.37-1.07-1.37-.4-.01-.69.16-.91.46zm-15.48 65.31c-.99 0-1.53.77-1.53 1.71 0 .91.6 1.63 1.55 1.63.64 0 1.16-.32 1.46-.89l-.46-.26c-.21.38-.5.65-.96.65-.61 0-1.03-.47-1.03-1.05h2.48c.04-.95-.49-1.79-1.51-1.79zm-.95 1.32c.07-.46.5-.83.96-.83.47 0 .85.37.93.83h-1.89zm3.29 1.92h.54v-3.16h-.54v3.16zm15.9-76.75c-.54 0-.94-.42-1.01-.94l-.55.16c.16.79.77 1.31 1.58 1.31.88 0 1.59-.68 1.59-1.57 0-.81-.56-1.14-1.22-1.42l-.34-.15c-.34-.15-.79-.36-.79-.79 0-.46.39-.79.84-.79.43 0 .67.2.87.55l.45-.29c-.27-.5-.75-.79-1.31-.79-.75 0-1.42.5-1.42 1.29 0 .73.51 1.03 1.1 1.3l.31.13c.47.21.93.42.93 1.01.01.57-.49.99-1.03.99zm2.94 32.89v-1.87c0-.74-.2-1.37-1.07-1.37-.39 0-.68.17-.9.47h-.01v-.38h-.54v3.16h.54v-1.5c0-.56.05-1.25.79-1.25.62 0 .67.46.67.97v1.78h.52v-.01zm.14-25.07h-.54v.45h-.01a1.33 1.33 0 00-1.07-.54c-.93 0-1.52.79-1.52 1.68 0 .88.58 1.65 1.5 1.65.42 0 .84-.2 1.09-.52h.01v.38c0 .71-.18 1.32-1.01 1.32-.58 0-1-.37-1.01-.95h-.54c.02.89.67 1.45 1.55 1.45.47 0 .93-.18 1.22-.56.32-.42.32-.85.32-1.36v-3h.01zm-1.56 2.75c-.67 0-1.03-.58-1.03-1.2 0-.59.4-1.14 1.03-1.14.67 0 1.06.51 1.06 1.14-.01.64-.37 1.2-1.06 1.2zm3.48 31.52c0-.56.05-1.25.79-1.25.62 0 .67.46.67.97v1.78h.54v-1.87c0-.74-.2-1.37-1.07-1.37-.39 0-.68.17-.9.47l-.01-.01v-2.75h-.56v5.54h.54v-1.51zm.49-47.2v5.54h.54v-1.5c0-.56.05-1.25.79-1.25.62 0 .66.46.66.97v1.78h.54v-1.87c0-.74-.2-1.37-1.07-1.37-.39 0-.68.17-.9.47l-.01-.01v-2.75h-.55v-.01zm-.27 38.09c.64 0 1.16-.32 1.46-.89l-.46-.26c-.21.38-.5.65-.96.65-.61 0-1.03-.47-1.03-1.05h2.48c.05-.94-.48-1.78-1.5-1.78-.99 0-1.53.77-1.53 1.71 0 .9.6 1.62 1.54 1.62zm-.01-2.84c.47 0 .85.37.93.83h-1.89c.07-.46.5-.83.96-.83zm-7.02 2.84c.64 0 1.16-.32 1.46-.89l-.46-.26c-.21.38-.5.65-.96.65-.61 0-1.03-.47-1.03-1.05h2.48c.05-.94-.48-1.78-1.5-1.78-.99 0-1.53.77-1.53 1.71 0 .9.6 1.62 1.54 1.62zm-.01-2.84c.47 0 .85.37.93.83h-1.89c.07-.46.5-.83.96-.83zm6.67-19.57c-.36 0-.51-.21-.64-.5l-.48.2c.17.5.58.8 1.12.8.58 0 1.07-.43 1.07-1.03 0-.53-.36-.75-.73-.91-.37-.15-.73-.26-.73-.55 0-.2.2-.35.39-.35s.36.15.43.32l.45-.23c-.14-.33-.48-.58-.84-.58-.51 0-.94.36-.94.89 0 .99 1.42.75 1.42 1.46-.01.28-.23.48-.52.48z"/><path fill="#E30613" d="M59.25 1.405c-.2-.21-.43-.37-.69-.5-.26-.12-.55-.18-.85-.18-.31 0-.6.06-.88.18-.27.12-.51.28-.71.48-.2.2-.35.44-.47.71-.11.27-.17.56-.17.87s.06.6.18.87.28.5.47.7.43.36.69.47c.26.12.55.18.85.18.31 0 .6-.06.87-.18s.5-.28.7-.48.35-.44.47-.71c.11-.27.17-.56.17-.87 0-.29-.06-.57-.17-.84-.11-.26-.26-.49-.46-.7zm13.98 4.19c.24.09.51.13.8.13.95 0 1.54-.39 1.78-1.18h-1.17c-.13.22-.33.32-.6.32-.49 0-.74-.26-.74-.79h2.56v-.13c0-.3-.04-.57-.13-.81-.09-.24-.21-.44-.37-.61s-.36-.29-.59-.38c-.23-.09-.49-.13-.79-.13-.3 0-.56.04-.8.13s-.44.21-.6.37c-.17.16-.29.36-.38.59s-.13.49-.13.78c0 .28.05.53.14.75.09.22.23.42.4.58.17.17.38.29.62.38zm.32-2.64c.12-.1.27-.15.46-.15.18 0 .33.05.46.15.13.1.21.24.25.41h-1.39c.03-.17.1-.31.22-.41zm5 2.64l.82-1.89.86 1.89h.81l1.8-3.44h-1.35l-.87 1.87-.86-1.87h-.77l-.86 1.81-.83-1.81h-1.36l1.77 3.44h.84zm-10.8-.05c.32.13.68.19 1.08.19.29 0 .56-.04.82-.11s.5-.18.71-.31c.22-.14.41-.31.57-.51s.29-.44.38-.7c.07-.19.11-.39.13-.61.02-.22.03-.46.03-.73h-2.61v1.02h1.08c-.02.15-.06.27-.13.38-.06.1-.14.19-.24.25-.1.06-.2.11-.33.14-.12.03-.25.04-.38.04a1.5 1.5 0 01-.58-.11 1.18 1.18 0 01-.67-.79c-.06-.18-.08-.38-.08-.6 0-.24.03-.45.1-.64.06-.19.15-.36.27-.49.11-.14.25-.24.41-.32.16-.07.34-.11.54-.11.24 0 .45.06.63.18.19.12.34.32.45.6l1.25-.52c-.23-.48-.55-.83-.95-1.06s-.86-.34-1.39-.34c-.41 0-.78.07-1.11.19-.33.13-.61.31-.85.54-.24.23-.42.51-.54.84-.13.33-.19.69-.19 1.08 0 .4.06.76.19 1.09s.31.61.54.85c.27.24.55.43.87.56zm15.59-.37c.16.17.34.29.55.39.21.09.44.14.69.14.44 0 .79-.16 1.05-.49v.38h1.22v-3.44h-1.22v.34c-.28-.3-.64-.45-1.07-.45-.26 0-.49.05-.7.15-.21.1-.39.23-.54.39-.15.17-.27.36-.36.58s-.13.46-.13.7c0 .26.04.51.13.73.1.22.22.42.38.58zm.83-1.61a.776.776 0 01.41-.41.815.815 0 01.62 0c.1.04.18.1.25.17s.13.16.17.25a.815.815 0 010 .61c-.04.09-.1.18-.17.25s-.15.13-.25.17-.2.06-.31.06a.78.78 0 01-.56-.23.822.822 0 01-.16-.87zm12.34 2.18c.44 0 .79-.16 1.05-.49v.38h1.22v-3.44h-1.22v.34c-.28-.3-.64-.45-1.07-.45-.26 0-.49.05-.7.15-.21.1-.39.23-.54.39-.15.17-.27.36-.36.58s-.13.46-.13.7c0 .26.04.51.13.73s.21.42.37.58c.16.17.34.29.55.39.22.09.45.14.7.14zm-.41-2.14a.776.776 0 01.41-.41.815.815 0 01.62 0c.1.04.18.1.25.17s.13.16.17.25a.815.815 0 010 .61c-.04.09-.1.18-.17.25s-.15.13-.25.17-.2.06-.31.06a.78.78 0 01-.56-.23.822.822 0 01-.16-.87zm-2.24 1.99v-2.43h.69v-1.01h-.69v-1.03h-1.22v1.03h-.4v1.01h.4v2.43h1.22zm7.11.04v-2.43h.69v-1.01h-.69v-1.04h-1.22v1.03h-.4v1.01h.4v2.43h1.22v.01zm-9.88-.04v-2.43h.69v-1.01h-.69v-1.03h-1.22v1.03h-.4v1.01h.4v2.43h1.22zM88.9.025h-1.22v5.57h1.22V.025zm-29.65 132.93c-.2-.21-.43-.37-.69-.5-.26-.12-.55-.18-.85-.18-.31 0-.6.06-.88.18-.27.12-.51.28-.71.48-.2.2-.35.44-.47.71-.11.27-.17.56-.17.87s.06.6.18.87.28.5.47.7.43.36.69.47c.26.12.55.18.85.18.31 0 .6-.06.87-.18s.5-.28.7-.48.35-.44.47-.71c.11-.27.17-.56.17-.87 0-.29-.06-.57-.17-.84-.11-.25-.26-.49-.46-.7zM18.11.715c-1.31 0-2.37 1.06-2.37 2.37s1.06 2.37 2.37 2.37 2.37-1.06 2.37-2.37c.01-1.3-1.06-2.37-2.37-2.37zm76.43 131.95h-1.22v1.03h-.4v1.01h.4v2.43h1.22v-2.43h.69v-1.01h-.69v-1.03zm7.04 1.04v-1.03h-1.22v1.03h-.4v1.01h.4v2.43h1.22v-2.43h.69v-1.01h-.69zm-3.41.34c-.28-.3-.64-.45-1.07-.45-.26 0-.49.05-.7.14-.21.1-.39.23-.54.39s-.27.36-.36.58-.13.46-.13.7c0 .26.04.51.13.73s.21.42.37.58c.16.17.34.29.55.39.21.09.44.14.69.14.44 0 .79-.16 1.05-.49v.38h1.22v-3.44h-1.22v.35h.01zm-.02 1.68c-.04.09-.1.18-.17.25s-.15.13-.25.17-.2.06-.31.06a.779.779 0 01-.56-.23.822.822 0 01-.22-.56.776.776 0 01.47-.71.815.815 0 01.62 0c.1.04.18.1.25.17s.13.16.17.25c.04.1.06.2.06.31 0 .1-.02.2-.06.29zm-16.1-2.02l-.87 1.87-.86-1.87h-.77l-.86 1.81-.83-1.81H76.5l1.77 3.44h.83l.82-1.89.86 1.89h.81l1.8-3.44h-1.34zm-6.17.38c-.16-.17-.36-.29-.59-.38s-.49-.13-.79-.13c-.3 0-.56.04-.8.13s-.44.21-.6.37c-.17.16-.29.36-.38.59s-.13.49-.13.78c0 .28.05.53.14.75a1.675 1.675 0 001.02.95c.24.09.51.13.8.13.95 0 1.54-.39 1.78-1.18h-1.17c-.13.22-.33.32-.6.32-.49 0-.74-.26-.74-.79h2.56v-.13c0-.3-.04-.57-.13-.81-.09-.23-.21-.44-.37-.6zm-2.03.84c.03-.18.11-.32.23-.42.12-.1.27-.15.46-.15.18 0 .33.05.46.15s.21.24.25.41h-1.4v.01zm14.49 2.22h1.22v-5.57h-1.22v5.57zm-2.18-3.1c-.28-.3-.64-.45-1.07-.45-.26 0-.49.05-.7.14-.21.1-.39.23-.54.39-.15.17-.27.36-.36.58s-.13.46-.13.7c0 .26.04.51.13.73s.21.42.37.58c.16.17.34.29.55.39.21.09.44.14.69.14.44 0 .79-.16 1.05-.49v.38h1.22v-3.44h-1.22v.35h.01zm-.02 1.68c-.04.09-.1.18-.17.25s-.15.13-.25.17-.2.06-.31.06a.779.779 0 01-.56-.23.822.822 0 01-.22-.56.776.776 0 01.47-.71.815.815 0 01.62 0c.1.04.18.1.25.17s.13.16.17.25c.04.1.06.2.06.31 0 .1-.02.2-.06.29zm5.63-3.06h-1.22v1.03h-.4v1.01h.4v2.43h1.22v-2.43h.69v-1.01h-.69v-1.03zm-22.38 2.67h1.08c-.02.15-.06.27-.13.38-.06.1-.14.19-.24.25-.1.06-.2.11-.33.14-.12.03-.25.04-.38.04a1.5 1.5 0 01-.58-.11 1.18 1.18 0 01-.67-.79c-.06-.18-.08-.38-.08-.6 0-.24.03-.45.1-.64.06-.19.15-.36.27-.49a1.17 1.17 0 01.95-.43c.24 0 .45.06.63.18.19.12.34.32.45.6l1.25-.52c-.23-.48-.55-.83-.95-1.06-.4-.23-.86-.34-1.39-.34-.41 0-.78.07-1.11.19-.33.13-.61.31-.85.54-.24.23-.42.51-.54.84-.13.33-.19.69-.19 1.08 0 .4.06.76.19 1.09s.31.61.54.85c.23.23.51.42.84.55.32.13.68.19 1.08.19.29 0 .56-.04.82-.11.26-.07.5-.18.71-.31.22-.14.41-.31.57-.51s.29-.44.38-.7c.07-.19.11-.39.13-.61.02-.22.03-.46.03-.73h-2.61v1.03h.03z"/></svg>