<svg version="1.1" id="Ebene_1" xmlns="http://www.w3.org/2000/svg" x="0" y="0" viewBox="0 0 137.8 137.3" xml:space="preserve"><style>.st0{fill:#67717f}.st1{fill:#c4151c}</style><path class="st0" d="M78.5 60.7v-3.2H78v.5c-.3-.3-.6-.5-1.1-.5-1 0-1.5.8-1.5 1.7s.6 1.7 1.5 1.7c.4 0 .8-.2 1.1-.5v.4l.5-.1zm-1.6-.4c-.7 0-1-.6-1-1.2s.4-1.1 1-1.1c.7 0 1.1.5 1.1 1.1 0 .6-.4 1.2-1.1 1.2zm13.6 22.3v-2.7h.5v-.5h-.6v-1.1h-.5v1.1h-.3v.5h.3v2.7h.6zm19.8 30.3l.3-.5c-.1-.1-.3-.1-.5-.1-.4 0-.5.2-.7.4v-.3h-.5v3.2h.5V114c0-.4 0-1.2.6-1.2.1 0 .2 0 .3.1zM81.5 68.5h-.6l-.9 2.1-1-2.4-1 2.4-1-2.1h-.6l1.5 3.4 1-2.4 1 2.4 1.6-3.4zm1.6-.1c-1 0-1.5.8-1.5 1.7 0 .9.6 1.6 1.5 1.6.6 0 1.2-.3 1.5-.9l-.5-.3c-.2.4-.5.6-1 .6-.6 0-1-.5-1-1h2.5c.1-.9-.5-1.7-1.5-1.7zm-.9 1.3c.1-.5.5-.8 1-.8s.9.4.9.8h-1.9zm-2.7-12.2v3.2h.5v-1.5c0-.6 0-1.2.8-1.2.6 0 .7.5.7 1v1.8h.5v-1.9c0-.7-.2-1.4-1.1-1.4-.4 0-.7.2-.9.5v-.4l-.5-.1zM69.6 111c-.6-.5-1.2-.6-2-.6h-1v5.1h.9c.8 0 1.4-.1 2-.6s.8-1.1.8-1.9c.1-.8-.1-1.5-.7-2zm-.4 3.5c-.5.4-1 .5-1.6.5h-.4v-4h.4c.6 0 1.1.1 1.6.5.4.4.7.9.7 1.5 0 .5-.2 1.1-.7 1.5zm7.5-35.1v1.8c0 .8.3 1.4 1.2 1.4s1.2-.6 1.2-1.4v-1.8h-.5v1.8c0 .5-.1 1-.7 1s-.7-.5-.7-1v-1.8h-.5zm19.8 3.2v-3.2H96v.5c-.3-.3-.6-.5-1.1-.5-1 0-1.5.8-1.5 1.7 0 .9.6 1.7 1.5 1.7.4 0 .8-.2 1.1-.5v.4l.5-.1zm-1.6-.4c-.7 0-1-.6-1-1.2s.4-1.1 1-1.1c.7 0 1.1.5 1.1 1.1s-.4 1.2-1.1 1.2zm-14.1.5c.6 0 1.1-.4 1.1-1 0-.5-.4-.8-.7-.9-.4-.1-.7-.3-.7-.5s.2-.4.4-.4.4.1.4.3l.5-.2c-.1-.3-.5-.6-.8-.6-.5 0-.9.4-.9.9 0 1 1.4.8 1.4 1.5 0 .3-.2.5-.5.5-.4 0-.5-.2-.6-.5l-.5.2c0 .4.4.7.9.7zm.5 7.3c-1 0-1.5.8-1.5 1.7 0 .9.6 1.6 1.5 1.6.6 0 1.2-.3 1.5-.9l-.5-.3c-.2.4-.5.6-1 .6-.6 0-1-.5-1-1h2.5c0-.8-.5-1.7-1.5-1.7zm-1 1.4c.1-.5.5-.8 1-.8s.9.4.9.8h-1.9zm2.8-35v1.1h-.3v.5h.3v2.7h.5V58h.6v-.5h-.6v-1.1h-.5zm1.4-20.8v1.8c0 .8.3 1.4 1.2 1.4s1.2-.6 1.2-1.4v-1.8h-.5v1.8c0 .5-.1 1-.7 1s-.7-.5-.7-1v-1.8h-.5zm-1 9v5.5h.5v-1.5c0-.6 0-1.2.8-1.2.6 0 .7.5.7 1v1.8h.5v-1.9c0-.7-.2-1.4-1.1-1.4-.4 0-.7.2-.9.5v-2.8h-.5zM79.2 36c.4 0 .7.2 1 .5v-.7c-.3-.2-.6-.3-1-.3-.9 0-1.7.7-1.7 1.7s.7 1.7 1.7 1.7c.4 0 .7-.1 1-.3v-.7c-.3.3-.6.5-1 .5-.7 0-1.1-.5-1.1-1.2s.5-1.2 1.1-1.2zm-3.1 2.3c-.4 0-.5-.2-.6-.5l-.6.2c.2.5.6.8 1.1.8.6 0 1.1-.4 1.1-1 0-.5-.4-.8-.7-.9-.4-.1-.7-.3-.7-.5s.2-.4.4-.4.4.1.4.3l.5-.2c-.1-.3-.5-.6-.8-.6-.5 0-.9.4-.9.9 0 1 1.4.8 1.4 1.5-.1.2-.3.4-.6.4zm5-5.1v5.5h.5v-1.5c0-.6 0-1.2.8-1.2.6 0 .7.5.7 1v1.8h.5v-1.9c0-.7-.2-1.4-1.1-1.4-.4 0-.7.2-.9.5v-2.8h-.5zm30.8 91.9c0 .5-.1 1-.7 1s-.7-.5-.7-1v-1.8h-.5v1.8c0 .8.3 1.4 1.2 1.4s1.2-.6 1.2-1.4v-1.8h-.5v1.8zM86 93.3v-1.9c0-.7-.2-1.4-1.1-1.4-.4 0-.7.2-.9.5v-2.8h-.5v5.5h.5v-1.5c0-.6 0-1.2.8-1.2.6 0 .7.5.7 1v1.8h.5zm-1-13.4c-.3-.3-.7-.5-1.1-.5-.9 0-1.5.8-1.5 1.7 0 .9.6 1.6 1.5 1.6.4 0 .8-.2 1.1-.5v.4c0 .7-.2 1.3-1 1.3-.6 0-1-.4-1-1h-.5c0 .9.6 1.5 1.5 1.5.5 0 1-.2 1.3-.6s.3-.9.3-1.4v-3h-.5l-.1.5zm-1.1 2.3c-.7 0-1-.6-1-1.2s.4-1.1 1-1.1c.7 0 1.1.5 1.1 1.1s-.4 1.2-1.1 1.2zm29.5 30.1h-.5v1.8c0 .5-.1 1-.7 1s-.7-.5-.7-1v-1.8h-.5v1.8c0 .8.3 1.4 1.2 1.4s1.2-.6 1.2-1.4v-1.8zm-28-40.7h.6v-3.2h-.5l-.1 3.2zm21.1 51.7v.5h1.9l-2.3 2.7h3.3v-.5h-2.2l2.3-2.7h-3zm-25.7-19c.4 0 .8-.2 1.1-.5v.4h.5V101h-.5v.5c-.3-.3-.6-.5-1.1-.5-1 0-1.5.8-1.5 1.7 0 .8.6 1.6 1.5 1.6zm.1-2.8c.7 0 1.1.5 1.1 1.1s-.4 1.2-1 1.2c-.7 0-1-.6-1-1.2-.1-.6.3-1.1.9-1.1zm23.2 9.3c-.2 0-.4.2-.4.4s.2.4.4.4.4-.2.4-.4c0-.3-.2-.4-.4-.4zM74.4 91.7c0-.9-.6-1.7-1.5-1.7-.4 0-.8.2-1.1.5v-2.8h-.5v5.5h.5v-.4c.3.3.6.5 1.1.5 1 .1 1.5-.7 1.5-1.6zm-1.6 1.2c-.7 0-1-.6-1-1.2s.4-1.1 1-1.1c.7 0 1.1.5 1.1 1.1s-.4 1.2-1.1 1.2zm31.1 22.6h.5v-3.2h-.5v3.2zm-2.6-13.9l.3-.5c-.1-.1-.3-.1-.5-.1-.4 0-.5.2-.7.4v-.3h-.5v3.2h.5v-1.6c0-.4 0-1.2.6-1.2.1 0 .2.1.3.1zm-18.9 12.3c0-.4 0-1.2.6-1.2.1 0 .2.1.3.1l.3-.5c-.1-.1-.3-.1-.5-.1-.4 0-.5.2-.7.4v-.3h-.5v3.2h.5v-1.6zm5.5-53l1.6-3.4h-.6l-.9 2.2-1-2.4-1 2.4-.9-2.1h-.6L86 61l1-2.4.9 2.3zm0-22.1h.5v-5.5h-.5v5.5zm15.3 85c-.3-.3-.7-.5-1.1-.5-.9 0-1.5.8-1.5 1.7 0 .9.6 1.6 1.5 1.6.4 0 .8-.2 1.1-.5v.4c0 .7-.2 1.3-1 1.3-.6 0-1-.4-1-1h-.5c0 .9.7 1.5 1.5 1.5.5 0 .9-.2 1.2-.6.3-.4.3-.9.3-1.4v-3h-.5v.5zm-1 2.2c-.7 0-1-.6-1-1.2s.4-1.1 1-1.1c.7 0 1.1.5 1.1 1.1 0 .7-.4 1.2-1.1 1.2zM84 102.9l1.4 1.3h.7l-1.6-1.8 1.4-1.3h-.7l-1.1 1.2v-3.5h-.5v5.5h.4v-1.4zm1.7-36c-.2 0-.4.2-.4.4s.2.4.4.4.4-.2.4-.4-.2-.4-.4-.4zM97.8 47v3.2h.5v-1.5c0-.6 0-1.2.8-1.2.6 0 .7.5.7 1v1.8h.5v-1.9c0-.7-.2-1.4-1.1-1.4-.4 0-.7.2-.9.5V47h-.5zm-.5-10.9c-.3-.3-.7-.5-1.1-.5-.9 0-1.5.8-1.5 1.7s.6 1.6 1.5 1.6c.4 0 .8-.2 1.1-.5v.4c0 .7-.2 1.3-1 1.3-.6 0-1-.4-1-1h-.5c0 .9.7 1.5 1.5 1.5.5 0 .9-.2 1.2-.6.3-.4.3-.9.3-1.4v-3h-.5v.5zm-1.1 2.2c-.7 0-1-.6-1-1.2s.4-1.1 1-1.1c.7 0 1.1.5 1.1 1.1 0 .7-.4 1.2-1.1 1.2zM73.3 71.6h.5v-1.5c0-.6 0-1.2.8-1.2.6 0 .7.5.7 1v1.8h.5v-1.9c0-.7-.2-1.4-1.1-1.4-.4 0-.7.2-.9.5v-2.8h-.5v5.5zm6.4-23c0 .9.6 1.6 1.5 1.6.6 0 1.2-.3 1.5-.9l-.5-.3c-.2.4-.5.6-1 .6-.6 0-1-.5-1-1h2.5c0-.9-.5-1.8-1.5-1.8-.9.1-1.5.9-1.5 1.8zm1.6-1.2c.5 0 .9.4.9.8h-1.9c.1-.4.5-.8 1-.8zm26.8 67.3l-.5-.3c-.2.4-.5.6-1 .6-.6 0-1-.5-1-1h2.5c0-.9-.5-1.8-1.5-1.8s-1.5.8-1.5 1.7c0 .9.6 1.6 1.5 1.6.7.1 1.2-.2 1.5-.8zm-1.5-1.9c.5 0 .9.4.9.8h-1.9c.1-.5.6-.8 1-.8zM72.7 81c0 .9.6 1.7 1.5 1.7.4 0 .8-.2 1.1-.5v.4h.5v-3.2h-.5v.5c-.3-.3-.6-.5-1.1-.5-.9-.1-1.5.7-1.5 1.6zm1.6-1.2c.7 0 1.1.5 1.1 1.1s-.4 1.2-1 1.2c-.7 0-1-.6-1-1.2-.1-.5.3-1.1.9-1.1zm-2.8-8.1c.4 0 .7-.1 1-.3v-.7c-.3.3-.6.5-1 .5-.7 0-1.1-.5-1.1-1.2s.5-1.2 1.1-1.2c.4 0 .7.2 1 .5v-.7c-.3-.2-.6-.3-1-.3-.9 0-1.7.7-1.7 1.7s.8 1.7 1.7 1.7zM77.1 48l1 2.4 1.6-3.4H79l-.9 2.1-1-2.4-1 2.4-.9-2.1h-.6l1.5 3.4 1-2.4zm-7.6 34.6h.5v-1.5c0-.6 0-1.2.8-1.2.6 0 .7.5.7 1v1.8h.5v-1.9c0-.7-.2-1.4-1.1-1.4-.4 0-.7.2-.9.5v-.4h-.5v3.1zm34.5 20.2c0 .5-.1 1-.7 1s-.7-.5-.7-1V101h-.6v1.8c0 .8.3 1.4 1.2 1.4s1.2-.6 1.2-1.4V101h-.4v1.8zM71.4 57.4c-1 0-1.5.8-1.5 1.7s.6 1.6 1.5 1.6c.6 0 1.2-.3 1.5-.9l-.5-.3c-.2.4-.5.6-1 .6-.6 0-1-.5-1-1h2.5c0-.8-.5-1.7-1.5-1.7zm-1 1.4c.1-.5.5-.8 1-.8s.9.4.9.8h-1.9zm27.3-1.3v1.8c0 .8.3 1.4 1.2 1.4s1.2-.6 1.2-1.4v-1.8h-.5v1.8c0 .5-.1 1-.7 1s-.7-.5-.7-1v-1.8h-.5zm-19.3 46.7v-2.7h.6v-.5h-.6v-1.1h-.5v1.1h-.3v.5h.3v2.7h.5zm39.5-10.9v-1.7c0-.5.1-1.1.7-1.1.5 0 .6.5.6.9v1.8h.5v-1.9c0-.7-.2-1.3-1-1.3-.4 0-.8.2-1 .5-.2-.3-.5-.5-.9-.5-.3 0-.6.2-.8.4v-.3h-.5v3.2h.5v-1.6c0-.5.1-1.1.7-1.1.5 0 .6.6.6 1v1.8l.6-.1zm1.4 23.5c-.6 0-1-.4-1-1h-.5c0 .9.7 1.5 1.5 1.5.5 0 .9-.2 1.2-.6.3-.4.3-.9.3-1.4v-3h-.5v.5c-.3-.3-.6-.5-1.1-.5-.9 0-1.5.8-1.5 1.7 0 .9.6 1.6 1.5 1.6.4 0 .8-.2 1.1-.5v.4c0 .6-.2 1.3-1 1.3zm-.1-1.7c-.7 0-1-.6-1-1.2s.4-1.1 1-1.1c.7 0 1.1.5 1.1 1.1 0 .6-.4 1.2-1.1 1.2zm-4.5-21.8v-1.9c0-.7-.2-1.4-1.1-1.4-.4 0-.7.2-.9.5v-.4h-.5v3.2h.5v-1.5c0-.6 0-1.2.8-1.2.6 0 .7.5.7 1v1.8l.5-.1zm20.4 33.2h.5V121h-.5v5.5zm-11.6-33.2v-3.2h-.5v.5c-.3-.3-.6-.5-1.1-.5-1 0-1.5.8-1.5 1.7 0 .9.6 1.7 1.5 1.7.4 0 .8-.2 1.1-.5v.4l.5-.1zm-1.6-.4c-.7 0-1-.6-1-1.2s.4-1.1 1-1.1c.7 0 1.1.5 1.1 1.1s-.4 1.2-1.1 1.2zm-5.1-10.3l-2.5-2.7 2.4-2.4h-.7l-2.2 2.2v-2.2h-.6v5.1h.6v-2.2l.1-.1 2.1 2.3h.8zm14.5 10.7h.5v-2.7h.6v-.5h-.6V89h-.5v1.1h-.3v.5h.3v2.7zM121.1 58c-.3-.3-.7-.5-1.1-.5-.9 0-1.5.8-1.5 1.7s.6 1.6 1.5 1.6c.4 0 .8-.2 1.1-.5v.4c0 .7-.2 1.3-1 1.3-.6 0-1-.4-1-1h-.5c0 .9.7 1.5 1.5 1.5.5 0 .9-.2 1.2-.6.3-.4.3-.9.3-1.4v-3h-.6l.1.5zm-1.1 2.3c-.7 0-1-.6-1-1.2s.4-1.1 1-1.1c.7 0 1.1.5 1.1 1.1 0 .6-.4 1.2-1.1 1.2zm3.7.5c.4 0 .8-.2 1.1-.5v.4h.5v-3.2h-.5v.5c-.3-.3-.6-.5-1.1-.5-1 0-1.5.8-1.5 1.7 0 .8.6 1.6 1.5 1.6zm.1-2.9c.7 0 1.1.5 1.1 1.1s-.4 1.2-1 1.2c-.7 0-1-.6-1-1.2-.1-.5.3-1.1.9-1.1zm-2.4 21.9v-.4h-.5v3.2h.5v-1.5c0-.6 0-1.2.8-1.2.6 0 .7.5.7 1v1.8h.5v-1.9c0-.7-.2-1.4-1.1-1.4-.3 0-.6.1-.9.4zm-2.9 2.9c.9 0 1.7-.7 1.7-1.7s-.7-1.7-1.7-1.7-1.7.8-1.7 1.7.8 1.7 1.7 1.7zm0-2.9c.7 0 1.1.5 1.1 1.2s-.5 1.2-1.1 1.2c-.7 0-1.1-.5-1.1-1.2 0-.6.4-1.2 1.1-1.2zm1.1-29.6c.4 0 .8-.2 1.1-.5v.4h.5v-5.5h-.5v2.8c-.3-.3-.7-.5-1.1-.5-1 0-1.5.8-1.5 1.7 0 .8.6 1.6 1.5 1.6zm.1-2.8c.7 0 1.1.5 1.1 1.1s-.4 1.2-1 1.2c-.7 0-1-.6-1-1.2-.1-.6.3-1.1.9-1.1zm13.9 76.4c-.3-.3-.7-.5-1.1-.5-1 0-1.5.8-1.5 1.7 0 .9.6 1.7 1.5 1.7.4 0 .8-.2 1.1-.5v.4h.5v-3.2h-.5v.4zm-1.1 2.2c-.7 0-1-.6-1-1.2s.4-1.1 1-1.1c.7 0 1.1.5 1.1 1.1 0 .7-.4 1.2-1.1 1.2zm-2.3-32.7v-1.9c0-.7-.2-1.4-1.1-1.4-.4 0-.7.2-.9.5v-2.8h-.5v5.5h.5v-1.5c0-.6 0-1.2.8-1.2.6 0 .7.5.7 1v1.8h.5zm-1.5-15.1c0-.2-.2-.4-.4-.4s-.4.2-.4.4.2.4.4.4.4-.1.4-.4zm-.7 4.4h.5v-3.2h-.5v3.2zm2.2-1.3l.1-.1 1.3 1.4h.7l-1.6-1.8 1.4-1.3h-.7l-1.1 1.2v-3.5h-.5v5.5h.5l-.1-1.4zm1.3-20.5c.6 0 1.2-.3 1.5-.9l-.5-.3c-.2.4-.5.6-1 .6-.6 0-1-.5-1-1h2.5c0-.9-.5-1.8-1.5-1.8s-1.5.8-1.5 1.7c0 1 .6 1.7 1.5 1.7zm0-2.9c.5 0 .9.4.9.8h-1.9c.1-.4.5-.8 1-.8zm1.4 20.4v1.1h-.3v.5h.3v2.7h.5v-2.7h.6v-.5h-.6v-1.1h-.5zm-6.5 4.3h.5V77h-.5v5.6zm-1.8-5.2c-.1.2-.1.6-.1.8v1.3h-.3v.5h.3v2.7h.5V80h.8v-.5h-.8v-1.1c0-.6 0-.9.4-.9.1 0 .2 0 .4.1V77c-.1 0-.3-.1-.4-.1-.3.1-.6.2-.8.5zm12.6 45.9v-1.1h-.5v1.1h-.3v.5h.3v2.7h.5v-2.7h.6v-.5h-.6zm-13-31.6c0 1 .7 1.7 1.7 1.7.4 0 .7-.1 1-.3v-.7c-.3.3-.6.5-1 .5-.7 0-1.1-.5-1.1-1.2s.5-1.2 1.1-1.2c.4 0 .7.2 1 .5v-.7c-.3-.2-.6-.3-1-.3-1 0-1.7.8-1.7 1.7zm12.9-9.9l-.5-.3c-.2.4-.5.6-1 .6-.6 0-1-.5-1-1h2.5c0-.9-.5-1.8-1.5-1.8s-1.5.8-1.5 1.7c0 .9.6 1.6 1.5 1.6.7.1 1.2-.2 1.5-.8zm-1.4-2c.5 0 .9.4.9.8h-1.9c.1-.4.5-.8 1-.8zm-8.8-19.6c.3.3.7.5 1.1.5.9 0 1.5-.8 1.5-1.7s-.6-1.7-1.5-1.7c-.4 0-.8.2-1.1.5V55h-.5v5.5h.5v-.3zm1-2.3c.7 0 1.1.5 1.1 1.1s-.4 1.2-1 1.2c-.7 0-1-.6-1-1.2-.1-.5.3-1.1.9-1.1zm-51.1 46.3v-1.9c0-.7-.2-1.4-1.1-1.4-.4 0-.7.2-.9.5v-.4h-.5v3.2h.5v-1.5c0-.6 0-1.2.8-1.2.6 0 .7.5.7 1v1.8l.5-.1zM79 90.1l-.9 2.1-1-2.4-1 2.4-.9-2.1h-.6l1.5 3.4 1-2.4 1 2.4 1.6-3.4H79zm38.3-45.5h-.5v5.5h.5v-5.5zm-17.6 66.2c-.2 0-.4.2-.4.4s.2.4.4.4.4-.2.4-.4c0-.3-.2-.4-.4-.4zM74 38.8v-2.7h.6v-.5H74v-1.1h-.5v1.1h-.3v.5h.3v2.7h.5zm24.3 76.7V110h-.5v5.5h.5zm-5.4 0v-1.9c0-.7-.2-1.4-1.1-1.4-.4 0-.7.2-.9.5v-.4h-.5v3.2h.5V114c0-.6 0-1.2.8-1.2.6 0 .7.5.7 1v1.8l.5-.1zm-5.7-11.3v-2.7h.6v-.5h-.6v-1.1h-.5v1.1h-.3v.5h.3v2.7h.5zM73.6 57.5v3.2h.5v-1.6c0-.4 0-1.2.6-1.2.1 0 .2.1.3.1l.3-.5c-.1-.1-.3-.1-.5-.1-.4 0-.5.2-.7.4v-.3h-.5zm-1.3 54.7c-1 0-1.5.8-1.5 1.7 0 .9.6 1.6 1.5 1.6.6 0 1.2-.3 1.5-.9l-.5-.3c-.2.4-.5.6-1 .6-.6 0-1-.5-1-1h2.5c.1-.8-.4-1.7-1.5-1.7zm-.9 1.4c.1-.5.5-.8 1-.8s.9.4.9.8h-1.9zm.5-9.3c.9 0 1.7-.7 1.7-1.7s-.7-1.7-1.7-1.7-1.7.8-1.7 1.7.8 1.7 1.7 1.7zm0-2.8c.7 0 1.1.5 1.1 1.2s-.5 1.2-1.1 1.2c-.7 0-1.1-.5-1.1-1.2s.4-1.2 1.1-1.2zm-5.2-2.3v5.1h.6v-2.2l.1-.1 2.1 2.3h.8l-2.5-2.7 2.4-2.4h-.8l-2.2 2.2v-2.2h-.5zm47.3 24.4v-.3h-.5v3.2h.5v-1.6c0-.4 0-1.2.6-1.2.1 0 .2.1.3.1l.3-.5c-.1-.1-.3-.1-.5-.1-.4 0-.5.2-.7.4zm1.9-11.4c-.4 0-.7.2-.9.5v-.4h-.5v3.2h.5V114c0-.6 0-1.2.8-1.2.6 0 .7.5.7 1v1.8h.5v-1.9c-.1-.8-.3-1.5-1.1-1.5zm-16.8-9.6c0-.9-.6-1.7-1.5-1.7-.4 0-.8.2-1.1.5v-2.8H96v5.5h.5v-.4c.3.3.6.5 1.1.5.9.1 1.5-.7 1.5-1.6zm-1.6 1.2c-.7 0-1-.6-1-1.2s.4-1.1 1-1.1c.7 0 1.1.5 1.1 1.1-.1.7-.4 1.2-1.1 1.2zm26.5 19.4c-1 0-1.5.8-1.5 1.7 0 .9.6 1.6 1.5 1.6.6 0 1.2-.3 1.5-.9l-.5-.3c-.2.4-.5.6-1 .6-.6 0-1-.5-1-1h2.5c.1-.8-.5-1.7-1.5-1.7zm-.9 1.3c.1-.5.5-.8 1-.8s.9.4.9.8h-1.9zm-11.7-20.3v-1.9c0-.7-.2-1.4-1.1-1.4-.4 0-.7.2-.9.5v-2.8h-.5v5.5h.5v-1.5c0-.6 0-1.2.8-1.2.6 0 .7.5.7 1v1.8h.5zm-.7-45.1c0 .9.6 1.7 1.5 1.7.4 0 .8-.2 1.1-.5v.4h.5v-3.2h-.5v.5c-.3-.3-.6-.5-1.1-.5-.9-.1-1.5.7-1.5 1.6zm2.7 0c0 .6-.4 1.2-1 1.2-.7 0-1-.6-1-1.2s.4-1.1 1-1.1c.6-.1 1 .4 1 1.1zm15.9 66.3l-1-2.4-1 2.4-.9-2.1h-.6l1.5 3.4 1-2.4 1 2.4 1.6-3.4h-.6l-1 2.1zM115.4 58v-2.8h-.5v5.5h.5v-.4c.3.3.6.5 1.1.5.9 0 1.5-.8 1.5-1.7s-.6-1.7-1.5-1.7c-.5 0-.8.2-1.1.6zm1-.1c.7 0 1.1.5 1.1 1.1s-.4 1.2-1 1.2c-.7 0-1-.6-1-1.2-.1-.5.3-1.1.9-1.1zm-1.8-7.7c.9 0 1.2-.6 1.2-1.4V47h-.5v1.8c0 .5-.1 1-.7 1s-.7-.5-.7-1V47h-.5v1.8c-.1.8.2 1.4 1.2 1.4zm-7.7 51.3c.4 0 .7.2 1 .5v-.7c-.3-.2-.6-.3-1-.3-.9 0-1.7.7-1.7 1.7s.7 1.7 1.7 1.7c.4 0 .7-.1 1-.3v-.7c-.3.3-.6.5-1 .5-.7 0-1.1-.5-1.1-1.2s.4-1.2 1.1-1.2zm-6.6-8.2v-1.9c0-.7-.2-1.4-1.1-1.4-.4 0-.7.2-.9.5v-.4h-.5v3.2h.5v-1.5c0-.6 0-1.2.8-1.2.6 0 .7.5.7 1v1.8l.5-.1zm19.6 31.1h1.5c0 .9-.9 1.6-1.8 1.6-.5 0-1.1-.3-1.4-.6-.4-.4-.6-.9-.6-1.4 0-1.1.9-2.1 2.1-2.1.8 0 1.3.4 1.7 1l.4-.4c-.5-.7-1.3-1.1-2.1-1.1-1.5 0-2.6 1.2-2.6 2.6s1.2 2.6 2.6 2.6c.7 0 1.4-.3 1.9-.9s.5-1.1.5-1.8H120l-.1.5zm-14.5-36.3c-1.4 0-2.6 1.2-2.6 2.6 0 1.5 1.2 2.6 2.6 2.6s2.6-1.2 2.6-2.6c0-1.4-1.2-2.6-2.6-2.6zm0 4.8c-1.1 0-2.1-1-2.1-2.1s.9-2.1 2.1-2.1 2.1 1 2.1 2.1-1 2.1-2.1 2.1zm-3.5 19.9c.2 0 .4.1.4.3l.5-.2c-.1-.3-.5-.6-.8-.6-.5 0-.9.4-.9.9 0 1 1.4.8 1.4 1.5 0 .3-.2.5-.5.5-.4 0-.5-.2-.6-.5l-.5.2c.2.5.6.8 1.1.8.6 0 1.1-.4 1.1-1 0-.5-.4-.8-.7-.9-.4-.1-.7-.3-.7-.5-.2-.4 0-.5.2-.5zm-12-85.2c.4 0 .8-.2 1.1-.5v.4h.5V22H91v2.8c-.3-.3-.7-.5-1.1-.5-1 0-1.5.8-1.5 1.7-.1.8.5 1.6 1.5 1.6zm0-2.9c.7 0 1.1.5 1.1 1.1s-.4 1.2-1 1.2c-.7 0-1-.6-1-1.2-.1-.5.3-1.1.9-1.1zm-23.2.6l1.6 2.2h.7l-1.6-2.3c.8-.1 1.3-.6 1.3-1.4 0-1.1-.9-1.4-1.9-1.4h-.7v5.1h.6v-2.2zm0-2.3h.2c.7 0 1.3.1 1.3.9s-.6.9-1.3.9h-.2V23zm4.1 4.6c.6 0 1.2-.3 1.5-.9l-.5-.3c-.2.4-.5.6-1 .6-.6 0-1-.5-1-1.1h2.5c0-.9-.5-1.8-1.5-1.8s-1.5.8-1.5 1.7c-.1 1.1.5 1.8 1.5 1.8zm0-2.9c.5 0 .9.4.9.8h-1.9c.1-.4.5-.8 1-.8zm-1.4-8.2V16h-2.2l2.3-2.7h-2.9v.5h1.9l-2.3 2.7h3.2zm6.8 95.7c-.4 0-.8.2-1.1.5v-.5h-.5v4.9h.5V115c.3.3.6.5 1.1.5 1 0 1.5-.8 1.5-1.7 0-.7-.6-1.6-1.5-1.6zm-.1 2.9c-.7 0-1-.6-1-1.2s.4-1.1 1-1.1c.7 0 1.1.5 1.1 1.1s-.4 1.2-1.1 1.2zm-4.8-98.5c.9 0 1.2-.6 1.2-1.4v-1.8H72v1.8c0 .5-.1 1-.7 1s-.7-.5-.7-1v-1.8H70v1.8c0 .8.4 1.4 1.3 1.4zm-1.4 19v3.2h.5v-1.5c0-.6 0-1.2.8-1.2.6 0 .7.5.7 1v1.8h.5V37c0-.7-.2-1.4-1.1-1.4-.4 0-.7.2-.9.5v-.4l-.5-.1zm4.5 86.6h-.5v1.1h-.3v.5h.3v2.7h.5v-2.7h.6v-.5h-.6v-1.1zm-4.1-66.6h-.6l-1.4 3.9-1.4-3.9h-.6l2.1 5.4 1.9-5.4zm18.1 17.3c-.6 0-1-.4-1-1h-.5c0 .9.7 1.5 1.5 1.5.5 0 .9-.2 1.2-.6.3-.4.3-.9.3-1.4v-3h-.5v.5c-.3-.3-.6-.5-1.1-.5-.9 0-1.5.8-1.5 1.7 0 .9.6 1.6 1.5 1.6.4 0 .8-.2 1.1-.5v.4c0 .7-.2 1.3-1 1.3zm0-1.7c-.7 0-1-.6-1-1.2s.4-1.1 1-1.1c.7 0 1.1.5 1.1 1.1-.1.7-.4 1.2-1.1 1.2zm-20.7.5c.9 0 1.6-.7 1.6-1.6 0-.8-.6-1.1-1.2-1.4l-.3-.1c-.3-.1-.8-.4-.8-.8 0-.5.4-.8.8-.8s.7.2.9.5l.5-.3c-.3-.5-.8-.8-1.3-.8-.8 0-1.4.5-1.4 1.3 0 .7.5 1 1.1 1.3l.3.1c.5.2.9.4.9 1s-.5 1-1 1-.9-.4-1-.9l-.5.2c0 .8.6 1.3 1.4 1.3zm8.9 52.9c-.4-.1-.7-.3-.7-.5s.2-.4.4-.4.4.1.4.3l.5-.2c-.1-.3-.5-.6-.8-.6-.5 0-.9.4-.9.9 0 1 1.4.8 1.4 1.5 0 .3-.2.5-.5.5-.4 0-.5-.2-.6-.5l-.5.2c.2.5.6.8 1.1.8.6 0 1.1-.4 1.1-1-.2-.6-.5-.8-.9-1zm-4.9-77.2v-2.8h-.5v5.5h.5v-.4c.3.3.6.5 1.1.5.9 0 1.5-.8 1.5-1.7s-.6-1.7-1.5-1.7c-.4.1-.8.3-1.1.6zm1 0c.7 0 1.1.5 1.1 1.1s-.4 1.2-1 1.2c-.7 0-1-.6-1-1.2-.1-.6.3-1.1.9-1.1zm-5-8.6c.6 0 1.2-.3 1.5-.9l-.5-.3c-.2.4-.5.6-1 .6-.6 0-1-.5-1-1h2.5c0-.9-.5-1.8-1.5-1.8s-1.5.8-1.5 1.7c0 1 .6 1.7 1.5 1.7zm0-2.8c.5 0 .9.4.9.8h-1.9c.1-.4.5-.8 1-.8zm8.4-19.9c-.4 0-.5-.2-.6-.5l-.5.2c.2.5.6.8 1.1.8.6 0 1.1-.4 1.1-1 0-.5-.4-.8-.7-.9-.4-.1-.7-.3-.7-.6 0-.2.2-.4.4-.4s.4.1.4.3l.5-.2c-.1-.3-.5-.6-.8-.6-.5 0-.9.4-.9.9 0 1 1.4.8 1.4 1.5-.2.3-.4.5-.7.5zm7.1-1.1c0-.6 0-1.2.8-1.2.6 0 .7.5.7 1v1.8h.5v-1.9c0-.7-.2-1.4-1.1-1.4-.4 0-.7.2-.9.5V11h-.5v5.5h.5V15zm-2.4 1.6c.4 0 .7-.1 1-.3v-.7c-.3.3-.6.5-1 .5-.7 0-1.1-.5-1.1-1.2s.5-1.2 1.1-1.2c.4 0 .7.2 1 .5v-.7c-.3-.2-.6-.3-1-.3-.9 0-1.7.7-1.7 1.7s.8 1.7 1.7 1.7zm4.3 7.7v3.2h.5V26c0-.6 0-1.2.8-1.2.6 0 .7.5.7 1v1.8h.5v-1.9c0-.7-.2-1.4-1.1-1.4-.4 0-.7.2-.9.5v-.4l-.5-.1zM79.4 126c-.7 0-1.1-.5-1.1-1.2s.5-1.2 1.1-1.2c.4 0 .7.2 1 .5v-.7c-.3-.2-.6-.3-1-.3-.9 0-1.7.7-1.7 1.7s.7 1.7 1.7 1.7c.4 0 .7-.1 1-.3v-.7c-.2.3-.5.5-1 .5zm8.2-78.7V47H87v3.2h.5v-1.6c0-.4 0-1.2.6-1.2.1 0 .2.1.3.1l.3-.5c-.1-.1-.3-.1-.5-.1-.3 0-.4.2-.6.4zm.8-32.1l.1-.1 1.3 1.4h.7l-1.6-1.8 1.4-1.3h-.7l-1.1 1.2V11H88v5.5h.5l-.1-1.3zm-6.8 9.1v1.8c0 .8.3 1.4 1.2 1.4s1.2-.6 1.2-1.4v-1.8h-.5v1.8c0 .5-.1 1-.7 1s-.7-.5-.7-1v-1.8h-.5zM67.4 82.7c.9 0 1.2-.6 1.2-1.4v-1.8h-.5v1.8c0 .5-.1 1-.7 1s-.7-.5-.7-1v-1.8h-.5v1.8c0 .8.3 1.4 1.2 1.4zm6.8-55.1c.9 0 1.2-.6 1.2-1.4v-1.8h-.5v1.8c0 .5-.1 1-.7 1s-.7-.5-.7-1v-1.8H73v1.8c0 .8.3 1.4 1.2 1.4zm3.9-15c.2 0 .4-.2.4-.4s-.2-.4-.4-.4-.4.2-.4.4.2.4.4.4zm-.2 3.9h.5v-3.2h-.5v3.2zM76.2 26c0 .9.6 1.6 1.5 1.6.6 0 1.2-.3 1.5-.9l-.5-.3c-.2.4-.5.6-1 .6-.6 0-1-.5-1-1.1h2.5c0-.9-.5-1.8-1.5-1.8-1 .1-1.5.9-1.5 1.9zm1.5-1.3c.5 0 .9.4.9.8h-1.9c.1-.4.5-.8 1-.8zM4.4 8.5C3.1 8.5 2 9.6 2 10.9s1.1 2.4 2.4 2.4 2.4-1.1 2.4-2.4-1.1-2.4-2.4-2.4zm54.8 58.7c-.2-.2-.4-.4-.7-.5s-.5-.2-.9-.2c-.3 0-.6.1-.9.2-.3.1-.5.3-.7.5s-.4.4-.5.7c-.1.3-.2.6-.2.9s.1.6.2.9.3.5.5.7.4.4.7.5.5.2.9.2c.3 0 .6-.1.9-.2s.5-.3.7-.5.4-.4.5-.7c.1-.3.2-.6.2-.9s-.1-.6-.2-.8c-.1-.4-.3-.6-.5-.8zm0-32.9c-.2-.2-.4-.4-.7-.5s-.5-.2-.9-.2c-.3 0-.6.1-.9.2-.3.1-.5.3-.7.5s-.4.4-.5.7-.2.6-.2.9.1.6.2.9.3.5.5.7.4.4.7.5.5.2.9.2c.3 0 .6-.1.9-.2s.5-.3.7-.5.4-.4.5-.7.2-.6.2-.9c0-.3-.1-.6-.2-.8-.1-.4-.3-.6-.5-.8zm0 10.9c-.2-.2-.4-.4-.7-.5s-.5-.2-.9-.2c-.3 0-.6.1-.9.2-.3.1-.5.3-.7.5s-.4.4-.5.7-.2.6-.2.9.1.6.2.9.3.5.5.7.4.4.7.5.5.2.9.2c.3 0 .6-.1.9-.2s.5-.3.7-.5.4-.4.5-.7.2-.6.2-.9c0-.3-.1-.6-.2-.8-.1-.3-.3-.6-.5-.8zm0 11c-.2-.2-.4-.4-.7-.5s-.5-.2-.9-.2c-.3 0-.6.1-.9.2-.3.1-.5.3-.7.5s-.4.4-.5.7-.2.6-.2.9.1.6.2.9.3.5.5.7.4.4.7.5.5.2.9.2c.3 0 .6-.1.9-.2s.5-.3.7-.5.4-.4.5-.7.2-.6.2-.9c0-.3-.1-.6-.2-.8-.1-.4-.3-.6-.5-.8zm0 21.9c-.2-.2-.4-.4-.7-.5s-.5-.2-.9-.2c-.3 0-.6.1-.9.2-.3.1-.5.3-.7.5s-.4.4-.5.7c-.1.3-.2.6-.2.9s.1.6.2.9.3.5.5.7.4.4.7.5.5.2.9.2c.3 0 .6-.1.9-.2s.5-.3.7-.5.4-.4.5-.7c.1-.3.2-.6.2-.9s-.1-.6-.2-.8c-.1-.3-.3-.6-.5-.8zm0 11c-.2-.2-.4-.4-.7-.5s-.5-.2-.9-.2c-.3 0-.6.1-.9.2-.3.1-.5.3-.7.5s-.4.4-.5.7c-.1.3-.2.6-.2.9s.1.6.2.9.3.5.5.7.4.4.7.5.5.2.9.2c.3 0 .6-.1.9-.2s.5-.3.7-.5.4-.4.5-.7c.1-.3.2-.6.2-.9s-.1-.6-.2-.8c-.1-.4-.3-.6-.5-.8zm0-76.8c-.2-.2-.4-.4-.7-.5s-.5-.2-.9-.2c-.3 0-.6.1-.9.2-.3.1-.5.3-.7.5s-.4.4-.5.7-.2.6-.2.9.1.6.2.9c.1.3.3.5.5.7s.4.4.7.5c.3.1.5.2.9.2.3 0 .6-.1.9-.2.3-.1.5-.3.7-.5s.4-.4.5-.7.2-.6.2-.9c0-.3-.1-.6-.2-.8-.1-.3-.3-.5-.5-.8zm7.5 114.2h2.6v-.5h-2.1v-2h2v-.5h-2V122h2.1v-.5h-2.6v5zm.7-34.6h2.2l.6 1.4h.6L68.5 88l-2.3 5.3h.6l.6-1.4zm1.1-2.6l.9 2h-1.7l.8-2zm3.2 33.9c-.4 0-.7.2-.9.5v-.4h-.5v3.2h.5V125c0-.6 0-1.2.8-1.2.6 0 .7.5.7 1v1.8h.5v-1.9c0-.9-.2-1.5-1.1-1.5zM59.2 100c-.2-.2-.4-.4-.7-.5s-.5-.2-.9-.2c-.3 0-.6.1-.9.2-.3.1-.5.3-.7.5s-.4.4-.5.7c-.1.3-.2.6-.2.9s.1.6.2.9.3.5.5.7.4.4.7.5.5.2.9.2c.3 0 .6-.1.9-.2s.5-.3.7-.5.4-.4.5-.7c.1-.3.2-.6.2-.9s-.1-.6-.2-.8c-.1-.3-.3-.6-.5-.8zm0-76.7c-.2-.2-.4-.4-.7-.5s-.5-.2-.9-.2c-.3 0-.6.1-.9.2-.3.1-.5.3-.7.5s-.4.4-.5.7c-.1.3-.2.6-.2.9s.1.6.2.9c.1.3.3.5.5.7s.4.4.7.5.5.2.9.2c.3 0 .6-.1.9-.2s.5-.3.7-.5.4-.4.5-.7c.1-.3.2-.6.2-.9s-.1-.6-.2-.8c-.1-.3-.3-.6-.5-.8zm-25.4-6.9c-1.3 0-2.4 1.1-2.4 2.4s1.1 2.4 2.4 2.4 2.4-1.1 2.4-2.4-1.1-2.4-2.4-2.4zM10.2 30.1c-1.3 0-2.4 1.1-2.4 2.4s1.1 2.4 2.4 2.4 2.4-1.1 2.4-2.4c0-1.4-1.1-2.4-2.4-2.4zm7.9 2.1c-1.3 0-2.4 1.1-2.4 2.4s1.1 2.4 2.4 2.4 2.4-1.1 2.4-2.4c0-1.4-1.1-2.4-2.4-2.4zM10.2 2.8c-1.3 0-2.4 1.1-2.4 2.4s1.1 2.4 2.4 2.4 2.4-1.1 2.4-2.4c0-1.4-1.1-2.4-2.4-2.4zm49 108.2c-.2-.2-.4-.4-.7-.5s-.5-.2-.9-.2c-.3 0-.6.1-.9.2-.3.1-.5.3-.7.5s-.4.4-.5.7c-.1.3-.2.6-.2.9s.1.6.2.9.3.5.5.7.4.4.7.5.5.2.9.2c.3 0 .6-.1.9-.2s.5-.3.7-.5.4-.4.5-.7c.1-.3.2-.6.2-.9s-.1-.6-.2-.8c-.1-.3-.3-.6-.5-.8zM4.4 24.3c-1.3 0-2.4 1.1-2.4 2.4S3.1 29 4.4 29s2.4-1.1 2.4-2.4c0-1.2-1.1-2.3-2.4-2.3zm.3-5.5c0-1.3-1.1-2.4-2.4-2.4S0 17.5 0 18.8s1.1 2.4 2.4 2.4 2.3-1.1 2.3-2.4zm87.5-2.2c.9 0 1.7-.7 1.7-1.7s-.7-1.7-1.7-1.7-1.7.8-1.7 1.7.7 1.7 1.7 1.7zm0-2.8c.7 0 1.1.5 1.1 1.2s-.5 1.2-1.1 1.2-1.2-.6-1.2-1.3c0-.6.5-1.1 1.2-1.1zM59.2 122c-.2-.2-.4-.4-.7-.5s-.5-.2-.9-.2c-.3 0-.6.1-.9.2-.3.1-.5.3-.7.5s-.4.4-.5.7c-.1.3-.2.6-.2.9s.1.6.2.9.3.5.5.7.4.4.7.5.5.2.9.2c.3 0 .6-.1.9-.2s.5-.3.7-.5.4-.4.5-.7c.1-.3.2-.6.2-.9s-.1-.6-.2-.8c-.1-.4-.3-.6-.5-.8zM31.8 13.3c1.3 0 2.4-1.1 2.4-2.4s-1.1-2.4-2.4-2.4-2.4 1.1-2.4 2.4 1 2.4 2.4 2.4zM26 2.8c-1.3 0-2.4 1.1-2.4 2.4s1.1 2.4 2.4 2.4 2.4-1.1 2.4-2.4c-.1-1.4-1.1-2.4-2.4-2.4zm5.8 21.5c-1.3 0-2.4 1.1-2.4 2.4s1.1 2.4 2.4 2.4 2.4-1.1 2.4-2.4c-.1-1.3-1.1-2.4-2.4-2.4zM26 30.1c-1.3 0-2.4 1.1-2.4 2.4s1.1 2.4 2.4 2.4 2.4-1.1 2.4-2.4c-.1-1.4-1.1-2.4-2.4-2.4zm41.4 18.6h2.2l.6 1.4h.6l-2.3-5.3-2.3 5.3h.6l.6-1.4zm1.1-2.6l.9 2h-1.7l.8-2zm19.2 36.6c.6 0 1.2-.3 1.5-.9l-.5-.3c-.2.4-.5.6-1 .6-.6 0-1-.5-1-1h2.5c0-.9-.5-1.8-1.5-1.8s-1.5.8-1.5 1.7c-.1 1 .5 1.7 1.5 1.7zm0-2.9c.5 0 .9.4.9.8h-1.9c.1-.4.5-.8 1-.8zm.5 10.7c.1 0 .2.1.3.1l.3-.5c-.1-.1-.3-.1-.5-.1-.4 0-.5.2-.7.4v-.3H87v3.2h.5v-1.6c.1-.4.1-1.2.7-1.2zm4.2 33.3c-.3-.3-.7-.5-1.1-.5-1 0-1.5.8-1.5 1.7 0 .9.6 1.7 1.5 1.7.4 0 .8-.2 1.1-.5v.4h.6v-5.5h-.5l-.1 2.7zm-1 2.2c-.7 0-1-.6-1-1.2s.4-1.1 1-1.1c.7 0 1.1.5 1.1 1.1 0 .7-.4 1.2-1.1 1.2zm-1.9-21.7c.4 0 .8-.2 1.1-.5v.4h.5V101h-.5v.5c-.3-.3-.6-.5-1.1-.5-1 0-1.5.8-1.5 1.7-.1.8.5 1.6 1.5 1.6zm0-2.8c.7 0 1.1.5 1.1 1.1s-.4 1.2-1 1.2c-.7 0-1-.6-1-1.2-.1-.6.3-1.1.9-1.1zm2.3-65.4c-.3-.3-.7-.5-1.1-.5-1 0-1.5.8-1.5 1.7s.6 1.7 1.5 1.7c.4 0 .8-.2 1.1-.5v.4h.5v-5.5h-.5v2.7zm-1 2.2c-.7 0-1-.6-1-1.2s.4-1.1 1-1.1c.7 0 1.1.5 1.1 1.1-.1.7-.4 1.2-1.1 1.2zm5.1 86.8c0 .5-.1 1-.7 1s-.7-.5-.7-1v-1.8H94v1.8c0 .8.3 1.4 1.2 1.4s1.2-.6 1.2-1.4v-1.8h-.5v1.8zm-7.8-12.9c-.9 0-1.7.8-1.7 1.7s.7 1.7 1.7 1.7 1.7-.7 1.7-1.7-.8-1.7-1.7-1.7zm0 2.9c-.7 0-1.1-.5-1.1-1.2 0-.6.5-1.2 1.1-1.2s1.1.5 1.1 1.2-.4 1.2-1.1 1.2zm.6 6.6c-.2 0-.4.2-.4.4s.2.4.4.4.4-.2.4-.4-.2-.4-.4-.4zm6.5-19.1c0-.9-.6-1.7-1.5-1.7-.4 0-.8.2-1.1.5v-2.8h-.5v5.5h.5v-.4c.3.3.6.5 1.1.5.9.1 1.5-.7 1.5-1.6zm-2.6 0c0-.6.4-1.1 1-1.1.7 0 1.1.5 1.1 1.1s-.4 1.2-1 1.2c-.8 0-1.1-.6-1.1-1.2zm7.7-23.2h-.5v.5c-.3-.3-.6-.5-1.1-.5-.9 0-1.5.8-1.5 1.7 0 .9.6 1.6 1.5 1.6.4 0 .8-.2 1.1-.5v.4c0 .7-.2 1.3-1 1.3-.6 0-1-.4-1-1h-.5c0 .9.6 1.5 1.5 1.5.5 0 1-.2 1.3-.6s.3-.9.3-1.4l-.1-3zm-1.5 2.8c-.7 0-1-.6-1-1.2s.4-1.1 1-1.1c.7 0 1.1.5 1.1 1.1-.1.6-.4 1.2-1.1 1.2zM97 91.7c0-.9-.7-1.7-1.7-1.7s-1.7.8-1.7 1.7c0 .9.7 1.7 1.7 1.7s1.7-.8 1.7-1.7zm-2.8 0c0-.6.5-1.2 1.1-1.2.7 0 1.1.5 1.1 1.2s-.5 1.2-1.1 1.2-1.1-.5-1.1-1.2zm-2.1-42.6l-1-2.1h-.6l1.5 3.4 1.5-3.4H93l-.9 2.1zm-.8 8.3c-.9 0-1.7.8-1.7 1.7s.7 1.7 1.7 1.7 1.7-.7 1.7-1.7c-.1-.9-.8-1.7-1.7-1.7zm0 2.9c-.7 0-1.1-.5-1.1-1.2 0-.6.5-1.2 1.1-1.2.7 0 1.1.5 1.1 1.2 0 .6-.5 1.2-1.1 1.2zm.9 8.1c-1 0-1.5.8-1.5 1.7 0 .9.6 1.6 1.5 1.6.6 0 1.2-.3 1.5-.9l-.5-.3c-.2.4-.5.6-1 .6-.6 0-1-.5-1-1h2.5c.1-.9-.4-1.7-1.5-1.7zm-.9 1.3c.1-.5.5-.8 1-.8s.9.4.9.8h-1.9zm.3 9.7v3.2h.5V81c0-.4 0-1.2.6-1.2.1 0 .2.1.3.1l.3-.5c-.1-.1-.3-.1-.5-.1-.4 0-.5.2-.7.4v-.3h-.5zm7.2 43.8c-.4 0-.7.2-.9.5v-.4h-.5v3.2h.5V125c0-.6 0-1.2.8-1.2.6 0 .7.5.7 1v1.8h.5v-1.9c0-.9-.2-1.5-1.1-1.5zm.6-7.7h.5v-3.2h-.5v3.2zm-5.8-58v3.2h.5v-1.6c0-.4 0-1.2.6-1.2.1 0 .2.1.3.1l.3-.5c-.1-.1-.3-.1-.5-.1-.4 0-.5.2-.7.4v-.3h-.5zm7.8-19.5l-.5-.3c-.2.4-.5.6-1 .6-.6 0-1-.5-1-1h2.5c0-.9-.5-1.8-1.5-1.8s-1.5.8-1.5 1.7.6 1.6 1.5 1.6c.7 0 1.2-.3 1.5-.8zm-1.4-2c.5 0 .9.4.9.8H99c.1-.4.5-.8 1-.8zm-3.7 76.8c-.3-.3-.7-.5-1.1-.5-1 0-1.5.8-1.5 1.7 0 .9.6 1.7 1.5 1.7.4 0 .8-.2 1.1-.5v.4h.5v-3.2h-.5v.4zm-1.1 2.3c-.7 0-1-.6-1-1.2s.4-1.1 1-1.1c.7 0 1.1.5 1.1 1.1 0 .6-.4 1.2-1.1 1.2zm-1.5-66.5c0 .9.7 1.7 1.7 1.7s1.7-.7 1.7-1.7-.7-1.7-1.7-1.7-1.7.7-1.7 1.7zm1.7-1.2c.7 0 1.1.5 1.1 1.2s-.5 1.2-1.1 1.2-1.1-.5-1.1-1.2c-.1-.7.4-1.2 1.1-1.2zm-2.1-8.6h.5v-3.2h-.5v3.2zm3.9 18.7h-.6v-1.1h-.5v1.1h-.3v.5h.3v2.7h.5V58h.6v-.5zM97 69.8c0-.7-.2-1.4-1.1-1.4-.4 0-.7.2-.9.5v-.4h-.5v3.2h.5v-1.5c0-.6 0-1.2.8-1.2.6 0 .7.5.7 1v1.8h.5v-2zm-3.4 20.3H93l-.9 2.1-.9-2.1h-.6l1.5 3.4 1.5-3.4zm-13.9 22.1c-1 0-1.5.8-1.5 1.7 0 .9.6 1.6 1.5 1.6.6 0 1.2-.3 1.5-.9l-.5-.3c-.2.4-.5.6-1 .6-.6 0-1-.5-1-1h2.5c.1-.8-.5-1.7-1.5-1.7zm-1 1.4c.1-.5.5-.8 1-.8s.9.4.9.8h-1.9zm27.4-97c.6 0 1.2-.3 1.5-.9l-.5-.3c-.2.4-.5.6-1 .6-.6 0-1-.5-1-1.1h2.5c0-.9-.5-1.8-1.5-1.8s-1.5.8-1.5 1.7c0 1.1.6 1.8 1.5 1.8zm0-2.8c.5 0 .9.4.9.8h-1.9c.1-.4.6-.8 1-.8zM82.7 123.2c-.4 0-.7.2-.9.5v-2.8h-.5v5.5h.5V125c0-.6 0-1.2.8-1.2.6 0 .7.5.7 1v1.8h.5v-1.9c0-.9-.2-1.5-1.1-1.5zm23.2-95.6c.4 0 .8-.2 1.1-.5v.4h.5v-3.2h-.5v.4c-.3-.3-.6-.5-1.1-.5-1 0-1.5.8-1.5 1.7 0 .9.6 1.7 1.5 1.7zm.1-2.9c.7 0 1.1.5 1.1 1.1s-.4 1.2-1 1.2c-.7 0-1-.6-1-1.2-.1-.5.3-1.1.9-1.1zM102.8 36v-.4h-.5v3.2h.5v-1.5c0-.6 0-1.2.8-1.2.6 0 .7.5.7 1v1.8h.5V37c0-.7-.2-1.4-1.1-1.4-.4-.1-.7.1-.9.4zM86 114.6c0-.5-.4-.8-.7-.9-.4-.1-.7-.3-.7-.5s.2-.4.4-.4.4.1.4.3l.5-.2c-.1-.3-.5-.6-.8-.6-.5 0-.9.4-.9.9 0 1 1.4.8 1.4 1.5 0 .3-.2.5-.5.5-.4 0-.5-.2-.6-.5l-.5.2c.2.5.6.8 1.1.8.4-.1.9-.6.9-1.1zm20.4-66c0 1 .7 1.7 1.7 1.7.4 0 .7-.1 1-.3v-.7c-.3.3-.6.5-1 .5-.7 0-1.1-.5-1.1-1.2s.5-1.2 1.1-1.2c.4 0 .7.2 1 .5v-.7c-.3-.2-.6-.3-1-.3-.9 0-1.7.7-1.7 1.7zm2.5-33.6c0-.6 0-1.2.8-1.2.6 0 .7.5.7 1v1.8h.5v-1.9c0-.7-.2-1.4-1.1-1.4-.4 0-.7.2-.9.5v-.4h-.5v3.2h.5V15zM95.5 27.1c-.5 0-.9-.4-1-.9l-.5.1c.2.8.8 1.3 1.6 1.3.9 0 1.6-.7 1.6-1.6 0-.8-.6-1.1-1.2-1.4l-.3-.1c-.3-.1-.8-.4-.8-.8 0-.5.4-.8.8-.8s.7.2.9.6l.5-.3c-.3-.5-.8-.8-1.3-.8-.8 0-1.4.5-1.4 1.3 0 .7.5 1 1.1 1.3l.3.1c.5.2.9.4.9 1-.1.5-.6 1-1.2 1zm-2.3 7.3c0 .2.2.4.4.4s.4-.2.4-.4-.2-.4-.4-.4-.4.2-.4.4zm1.9-19.5c0-.5.1-1.1.7-1.1.5 0 .6.6.6.9v1.8h.5v-1.7c0-.5.1-1.1.7-1.1.5 0 .6.5.6.9v1.8h.5v-1.9c0-.7-.2-1.3-1-1.3-.4 0-.8.2-1 .5-.2-.3-.5-.5-.9-.5-.3 0-.6.2-.8.4v-.3h-.5v3.2h.5l.1-1.6zm5.2 0c0-.5.1-1.1.7-1.1.5 0 .6.6.6.9v1.8h.5v-1.7c0-.5.1-1.1.7-1.1.5 0 .6.5.6.9v1.8h.5v-1.9c0-.7-.2-1.3-1-1.3-.4 0-.8.2-1 .5-.2-.3-.5-.5-.9-.5-.3 0-.6.2-.8.4v-.3h-.5v3.2h.5l.1-1.6zm-2.7 11c0 .9.7 1.7 1.7 1.7.4 0 .7-.1 1-.3v-.7c-.3.3-.6.5-1 .5-.7 0-1.1-.5-1.1-1.2s.5-1.2 1.1-1.2c.4 0 .7.2 1 .5v-.7c-.3-.2-.6-.3-1-.3-.9 0-1.7.8-1.7 1.7zm13.1-1.1c-.2-.3-.5-.5-.9-.5-.3 0-.6.2-.8.4v-.3h-.5v3.2h.5V26c0-.5.1-1.1.7-1.1.5 0 .6.6.6.9v1.8h.5v-1.7c0-.5.1-1.1.7-1.1.5 0 .6.5.6.9v1.8h.5v-1.9c0-.7-.2-1.3-1-1.3-.3-.1-.7.1-.9.5zm-9.6-2.8v5.5h.5V26c0-.6 0-1.2.8-1.2.6 0 .7.5.7 1v1.8h.5v-1.9c0-.7-.2-1.4-1.1-1.4-.4 0-.7.2-.9.5V22h-.5zm.5 35.9v-.4h-.6v3.2h.5v-1.5c0-.6 0-1.2.8-1.2.6 0 .7.5.7 1v1.8h.5v-1.9c0-.7-.2-1.4-1.1-1.4-.3-.1-.6.1-.8.4zm-15.5 65.3c-1 0-1.5.8-1.5 1.7 0 .9.6 1.6 1.5 1.6.6 0 1.2-.3 1.5-.9l-.5-.3c-.2.4-.5.6-1 .6-.6 0-1-.5-1-1h2.5c0-.8-.5-1.7-1.5-1.7zm-1 1.3c.1-.5.5-.8 1-.8s.9.4.9.8h-1.9zm3.3 2h.6v-3.2h-.5l-.1 3.2zm15.9-76.8c-.5 0-.9-.4-1-.9l-.5.2c.2.8.8 1.3 1.6 1.3.9 0 1.6-.7 1.6-1.6 0-.8-.6-1.1-1.2-1.4l-.3-.1c-.3-.1-.8-.4-.8-.8 0-.5.4-.8.8-.8s.7.2.9.5l.5-.3c-.3-.5-.8-.8-1.3-.8-.8 0-1.4.5-1.4 1.3 0 .7.5 1 1.1 1.3l.3.1c.5.2.9.4.9 1-.1.6-.6 1-1.2 1zm3 32.9v-1.9c0-.7-.2-1.4-1.1-1.4-.4 0-.7.2-.9.5v-.4h-.5v3.2h.5v-1.5c0-.6 0-1.2.8-1.2.6 0 .7.5.7 1v1.8l.5-.1zm.1-25.1h-.5v.5c-.3-.3-.6-.5-1.1-.5-.9 0-1.5.8-1.5 1.7s.6 1.6 1.5 1.6c.4 0 .8-.2 1.1-.5v.4c0 .7-.2 1.3-1 1.3-.6 0-1-.4-1-1h-.5c0 .9.7 1.5 1.5 1.5.5 0 .9-.2 1.2-.6.3-.4.3-.9.3-1.4v-3zm-1.6 2.8c-.7 0-1-.6-1-1.2s.4-1.1 1-1.1c.7 0 1.1.5 1.1 1.1 0 .6-.4 1.2-1.1 1.2zm3.5 31.5c0-.6 0-1.2.8-1.2.6 0 .7.5.7 1v1.8h.5v-1.9c0-.7-.2-1.4-1.1-1.4-.4 0-.7.2-.9.5v-2.8h-.6v5.5h.5l.1-1.5zm.5-47.2v5.5h.5v-1.5c0-.6 0-1.2.8-1.2.6 0 .7.5.7 1v1.8h.5v-1.9c0-.7-.2-1.4-1.1-1.4-.4 0-.7.2-.9.5v-2.8h-.5zm-.3 38.1c.6 0 1.2-.3 1.5-.9l-.5-.3c-.2.4-.5.6-1 .6-.6 0-1-.5-1-1h2.5c0-.9-.5-1.8-1.5-1.8s-1.5.8-1.5 1.7c0 1 .6 1.7 1.5 1.7zm0-2.9c.5 0 .9.4.9.8h-1.9c.1-.4.6-.8 1-.8zm-7 2.9c.6 0 1.2-.3 1.5-.9l-.5-.3c-.2.4-.5.6-1 .6-.6 0-1-.5-1-1h2.5c0-.9-.5-1.8-1.5-1.8s-1.5.8-1.5 1.7c0 1 .6 1.7 1.5 1.7zm0-2.9c.5 0 .9.4.9.8h-1.9c.1-.4.5-.8 1-.8zm6.7-19.5c-.4 0-.5-.2-.6-.5l-.5.2c.2.5.6.8 1.1.8.6 0 1.1-.4 1.1-1 0-.5-.4-.8-.7-.9-.4-.1-.7-.3-.7-.5s.2-.4.4-.4.4.1.4.3l.5-.2c-.1-.3-.5-.6-.8-.6-.5 0-.9.4-.9.9 0 1 1.4.8 1.4 1.5-.2.2-.4.4-.7.4z"/><path class="st1" d="M59.2 1.4c-.2-.2-.4-.4-.7-.5s-.5-.2-.9-.2c-.3 0-.6.1-.9.2-.3.1-.5.3-.7.5s-.4.4-.5.7-.2.6-.2.9.1.6.2.9c.1.3.3.5.5.7s.4.4.7.5.5.2.9.2c.3 0 .6-.1.9-.2s.5-.3.7-.5.4-.4.5-.7.2-.6.2-.9-.1-.6-.2-.8c-.1-.4-.3-.6-.5-.8zm14 4.2c.2.1.5.1.8.1 1 0 1.5-.4 1.8-1.2h-1.2c-.1.2-.3.3-.6.3-.5 0-.7-.3-.7-.8h2.6v-.1c0-.3 0-.6-.1-.8s-.2-.4-.4-.6-.4-.3-.7-.4c-.2-.1-.4-.1-.7-.1s-.6 0-.8.1c-.2.1-.4.2-.6.4s-.3.4-.4.6-.2.5-.2.8 0 .5.1.8c.1.2.2.4.4.6.3.1.5.2.7.3zm.3-2.7c.1-.1.3-.1.5-.1s.3.1.5.1c.1.1.2.2.2.4h-1.4c0-.1.1-.3.2-.4zm5 2.7l.8-1.9.9 1.9h.8l1.8-3.4h-1.4L80.6 4l-.9-1.9H79l-.9 1.8-.8-1.8h-1.4l1.8 3.4.8.1zm-10.8-.1c.3.1.7.2 1.1.2.3 0 .6 0 .8-.1s.5-.2.7-.3c.2-.1.4-.3.6-.5s.3-.4.4-.7c.1-.2.1-.4.1-.6v-.7h-2.6v1h1.1c0 .1-.1.3-.1.4-.1.1-.1.2-.2.2-.1.1-.2.1-.3.1h-.4c-.2 0-.4 0-.6-.1s-.3-.2-.4-.3c-.1-.1-.2-.3-.2-.5-.1-.2-.1-.4-.1-.6 0-.2 0-.4.1-.6.1-.2.1-.4.3-.5.1-.1.2-.2.4-.3.2-.1.3-.1.5-.1s.5.1.6.2c.2.1.3.3.5.6l1.2-.5c-.2-.5-.5-.8-1-1.1s-.9-.3-1.4-.3c-.4 0-.8.1-1.1.2-.3.1-.6.3-.9.5-.2.2-.4.5-.5.8s-.2.7-.2 1.1.1.8.2 1.1.3.6.5.9c.3.2.6.4.9.5zm15.6-.3c.2.2.3.3.5.4s.4.1.7.1c.4 0 .8-.2 1-.5v.4h1.2V2.1h-1.2v.3c-.2-.2-.5-.4-1-.4-.3 0-.5.1-.7.1-.2.1-.4.2-.5.4s-.3.4-.4.6-.1.5-.1.7c0 .3 0 .5.1.7.1.3.3.5.4.7zm.8-1.7c0-.1.1-.2.2-.2s.1-.1.2-.2.2-.1.3-.1.2 0 .3.1.2.1.2.2c.1.1.1.2.2.2 0 .1.1.2.1.3s0 .2-.1.3-.1.2-.2.2-.1.1-.2.2-.1.1-.2.1-.2 0-.3-.1c-.1 0-.2-.1-.2-.2-.1-.1-.1-.2-.2-.2 0-.1-.1-.2-.1-.3v-.3zm12.4 2.2c.4 0 .8-.2 1-.5v.4h1.2V2.2h-1.2v.3c-.3-.3-.6-.4-1.1-.4-.3 0-.5.1-.7.1-.2.1-.4.2-.5.4l-.3.6c-.1.2-.1.5-.1.7 0 .3 0 .5.1.7s.2.4.4.6c.2.2.3.3.5.4s.4.1.7.1zm-.4-2.1c0-.1.1-.2.2-.2s.1-.1.2-.2.2-.1.3-.1.2 0 .3.1.2.1.2.2c.1.1.1.2.2.2 0 .1.1.2.1.3 0 .1 0 .2-.1.3s-.1.2-.2.2-.1.1-.2.2-.2.1-.3.1-.2 0-.3-.1c-.1 0-.2-.1-.2-.2-.1-.1-.1-.2-.2-.2-.1-.1-.1-.2-.1-.3 0-.1 0-.2.1-.3zm-2.3 2V3.1h.7v-1h-.7v-1h-1.2v1h-.4v1h.4v2.4l1.2.1zm7.1 0V3.2h.7v-1h-.7v-1h-1.2v1h-.4v1h.4v2.4h1.2zm-9.8 0V3.1h.7v-1h-.7v-1h-1.2v1h-.4v1h.4v2.4l1.2.1zM88.9 0h-1.2v5.6h1.2V0zM59.2 132.9c-.2-.2-.4-.4-.7-.5s-.5-.2-.9-.2c-.3 0-.6.1-.9.2-.3.1-.5.3-.7.5s-.4.4-.5.7-.2.6-.2.9.1.6.2.9.3.5.5.7.4.4.7.5.5.2.9.2c.3 0 .6-.1.9-.2s.5-.3.7-.5.4-.4.5-.7.2-.6.2-.9c0-.3-.1-.6-.2-.8-.1-.3-.3-.6-.5-.8zM18.1.7c-1.3 0-2.4 1.1-2.4 2.4s1.1 2.4 2.4 2.4 2.4-1.1 2.4-2.4S19.4.7 18.1.7zm76.4 131.9h-1.2v1h-.4v1h.4v2.4h1.2v-2.4h.7v-1h-.7v-1zm7.1 1.1v-1h-1.2v1h-.4v1h.4v2.4h1.2v-2.4h.7v-1h-.7zm-3.5.3c-.3-.3-.6-.5-1.1-.5-.3 0-.5 0-.7.1s-.4.2-.5.4-.3.4-.4.6-.1.5-.1.7c0 .3 0 .5.1.7s.2.4.4.6c.2.2.3.3.5.4.2.1.4.1.7.1.4 0 .8-.2 1-.5v.4h1.2v-3.4H98l.1.4zm0 1.7c0 .1-.1.2-.2.2s-.1.1-.2.2-.2.1-.3.1-.2 0-.3-.1c-.1 0-.2-.1-.2-.2s-.1-.2-.2-.2c0-.1-.1-.2-.1-.3s0-.2.1-.3.1-.2.2-.2l.2-.2c.1-.1.2-.1.3-.1s.2 0 .3.1.2.1.2.2.1.2.2.2c0 .1.1.2.1.3s0 .2-.1.3zm-16.1-2l-.9 1.9-.9-1.9h-.8l-.9 1.8-.8-1.8h-1.4l1.8 3.4h.8l.8-1.9.9 1.9h.8l1.8-3.4H82zm-6.1.4c-.2-.2-.4-.3-.6-.4s-.5-.1-.8-.1-.6 0-.8.1-.4.2-.6.4-.3.4-.4.6-.1.5-.1.8 0 .5.1.8c.1.2.2.4.4.6.2.2.4.3.6.4.2.1.5.1.8.1 1 0 1.5-.4 1.8-1.2h-1.2c-.1.2-.3.3-.6.3-.5 0-.7-.3-.7-.8h2.6v-.1c0-.3 0-.6-.1-.8-.2-.4-.3-.6-.4-.7zm-2.1.8c0-.2.1-.3.2-.4.1-.1.3-.1.5-.1s.3 0 .5.1.2.2.2.4h-1.4zm14.5 2.2h1.2v-5.6h-1.2v5.6zm-2.2-3.1c-.3-.3-.6-.5-1.1-.5-.3 0-.5 0-.7.1s-.4.2-.5.4-.3.4-.4.6-.1.5-.1.7c0 .3 0 .5.1.7s.2.4.4.6c.2.2.3.3.5.4.2.1.4.1.7.1.4 0 .8-.2 1-.5v.4h1.2v-3.4H86l.1.4zm0 1.7c0 .1-.1.2-.2.2s-.1.1-.2.2-.2.1-.3.1-.2 0-.3-.1c-.1 0-.2-.1-.2-.2s-.1-.2-.2-.2c0-.1-.1-.2-.1-.3s0-.2.1-.3.1-.2.2-.2l.2-.2c.1-.1.2-.1.3-.1s.2 0 .3.1.2.1.2.2.1.2.2.2c0 .1.1.2.1.3s0 .2-.1.3zm5.6-3.1h-1.2v1h-.4v1h.4v2.4h1.2v-2.4h.7v-1h-.7v-1zm-22.3 2.7h1.1c0 .1-.1.3-.1.4-.1.1-.1.2-.2.2-.1.1-.2.1-.3.1h-.4c-.2 0-.4 0-.6-.1s-.3-.2-.4-.3-.2-.3-.2-.5c-.1-.2-.1-.4-.1-.6 0-.2 0-.5.1-.6.1-.2.1-.4.3-.5.1-.1.2-.2.4-.3s.3-.1.5-.1.5.1.6.2c.2.1.3.3.5.6l1.2-.5c-.2-.5-.5-.8-1-1.1-.4-.2-.9-.3-1.4-.3-.4 0-.8.1-1.1.2-.3.1-.6.3-.9.5-.2.2-.4.5-.5.8s-.2.7-.2 1.1c0 .4.1.8.2 1.1s.3.6.5.9c.2.2.5.4.8.5s.7.2 1.1.2c.3 0 .6 0 .8-.1.3-.1.5-.2.7-.3s.4-.3.6-.5.3-.4.4-.7c.1-.2.1-.4.1-.6v-.7h-2.6l.1 1z"/></svg>